M48
; DRILL file KiCad 10.0.1 date 2026-05-11T19:47:22
; FORMAT={-:-/ absolute / inch / decimal}
; #@! TF.CreationDate,2026-05-11T19:47:22-07:00
; #@! TF.GenerationSoftware,Kicad,Pcbnew,10.0.1
; #@! TF.FileFunction,Plated,1,4,PTH
FMAT,2
INCH
; #@! TA.AperFunction,Plated,PTH,ViaDrill
T1C0.0100
; #@! TA.AperFunction,Plated,PTH,ViaDrill
T2C0.0118
; #@! TA.AperFunction,Plated,PTH,ComponentDrill
T3C0.0630
; #@! TA.AperFunction,Plated,PTH,ComponentDrill
T4C0.1378
%
G90
G05
T1
X5.269Y-6.756
X5.276Y-6.875
X5.36Y-6.832
X5.404Y-6.087
X5.418Y-6.2
X5.453Y-6.873
X5.469Y-6.593
X5.496Y-6.159
X5.562Y-5.876
X5.587Y-6.198
X5.606Y-5.982
X5.765Y-6.761
X5.777Y-6.874
X5.857Y-6.83
X5.937Y-6.085
X5.949Y-6.872
X5.95Y-6.199
X5.966Y-6.593
X6.028Y-6.154
X6.094Y-5.875
X6.124Y-6.198
X6.136Y-5.982
X6.252Y-6.758
X6.261Y-6.875
X6.343Y-5.713
X6.344Y-6.829
X6.438Y-6.873
X6.451Y-6.593
X6.556Y-6.054
X6.611Y-6.055
X6.667Y-6.661
X6.734Y-6.833
X6.748Y-6.098
X6.779Y-5.866
X6.783Y-5.712
X6.783Y-5.744
X6.783Y-5.776
X6.783Y-5.808
X6.815Y-5.712
X6.815Y-5.744
X6.815Y-5.776
X6.815Y-5.808
X6.847Y-5.712
X6.847Y-5.744
X6.847Y-5.776
X6.847Y-5.808
X6.87Y-6.873
X6.879Y-5.712
X6.879Y-5.744
X6.879Y-5.776
X6.879Y-5.808
X6.911Y-5.712
X6.911Y-5.744
X6.911Y-5.776
X6.911Y-5.808
X6.943Y-5.712
X6.943Y-5.744
X6.943Y-5.776
X6.943Y-5.808
X6.975Y-5.712
X6.975Y-5.744
X6.975Y-5.776
X6.975Y-5.808
X7.007Y-5.712
X7.007Y-5.744
X7.007Y-5.776
X7.007Y-5.808
X7.081Y-6.837
X7.097Y-6.047
X7.132Y-6.66
X7.162Y-6.837
X7.2452Y-6.0993
X7.247Y-6.778
X7.559Y-6.049
X7.696Y-6.0981
X8.026Y-6.054
X8.108Y-6.05
X8.316Y-6.85
X8.354Y-6.893
X8.385Y-6.809
X8.387Y-6.988
X8.499Y-7.078
X8.616Y-6.057
X8.714Y-6.701
X8.715Y-6.629
X8.951Y-6.778
X9.087Y-6.917
X9.174Y-6.977
X9.177Y-6.732
X9.273Y-6.94
X9.371Y-6.622
X9.406Y-6.7321
X9.542Y-6.798
X9.583Y-6.477
X9.642Y-6.843
X9.661Y-5.993
X9.729Y-5.913
X9.733Y-6.788
X9.848Y-6.059
X9.896Y-6.061
X9.897Y-5.72
X9.897Y-6.66
X9.898Y-6.589
X9.9386Y-6.834
X9.955Y-7.245
X9.978Y-6.06
X10.023Y-5.64
X10.039Y-6.809
X10.039Y-6.851
X10.039Y-6.889
X10.063Y-7.244
X10.066Y-5.882
X10.153Y-6.936
X10.205Y-7.166
X10.246Y-6.936
X10.376Y-6.972
X10.379Y-5.892
X10.463Y-6.053
X10.545Y-6.052
X10.554Y-6.59
X10.554Y-6.66
X10.554Y-6.733
X10.645Y-6.052
X10.6859Y-6.9721
X10.736Y-6.878
X10.924Y-6.84
X11.22Y-6.052
X11.225Y-6.793
X11.261Y-6.456
X11.263Y-6.986
X11.3Y-6.052
X11.382Y-6.052
X11.472Y-6.688
X11.525Y-6.942
X11.549Y-6.52
X11.565Y-6.681
T2
X8.7702Y-6.0983
T3
X5.6721Y-5.0862
X5.6721Y-5.3162
X5.9021Y-5.0862
X5.9021Y-5.3162
X6.1321Y-5.0862
X6.1321Y-5.3162
X6.3621Y-5.0862
X6.3621Y-5.3162
X6.5921Y-5.0862
X6.5921Y-5.3162
X6.8221Y-5.0862
X6.8221Y-5.3162
X7.0521Y-5.0862
X7.0521Y-5.3162
X7.2821Y-5.0862
X7.2821Y-5.3162
X9.1411Y-5.0862
X9.1411Y-5.3162
X9.3711Y-5.0862
X9.3711Y-5.3162
X9.6011Y-5.0862
X9.6011Y-5.3162
X9.8311Y-5.0862
X9.8311Y-5.3162
X10.0611Y-5.0862
X10.0611Y-5.3162
X10.2911Y-5.0862
X10.2911Y-5.3162
X10.5211Y-5.0862
X10.5211Y-5.3162
X10.7511Y-5.0862
X10.7511Y-5.3162
T4
X4.9542Y-5.7703
X4.9542Y-7.2823
X11.4742Y-5.7703
X11.4742Y-7.2823
M30
