%TF.GenerationSoftware,KiCad,Pcbnew,10.0.1*%
%TF.CreationDate,2026-05-11T19:47:22-07:00*%
%TF.ProjectId,Shutdown,53687574-646f-4776-9e2e-6b696361645f,rev?*%
%TF.SameCoordinates,Original*%
%TF.FileFunction,Paste,Bot*%
%TF.FilePolarity,Positive*%
%FSLAX46Y46*%
G04 Gerber Fmt 4.6, Leading zero omitted, Abs format (unit mm)*
G04 Created by KiCad (PCBNEW 10.0.1) date 2026-05-11 19:47:22*
%MOMM*%
%LPD*%
G01*
G04 APERTURE LIST*
G04 Aperture macros list*
%AMRoundRect*
0 Rectangle with rounded corners*
0 $1 Rounding radius*
0 $2 $3 $4 $5 $6 $7 $8 $9 X,Y pos of 4 corners*
0 Add a 4 corners polygon primitive as box body*
4,1,4,$2,$3,$4,$5,$6,$7,$8,$9,$2,$3,0*
0 Add four circle primitives for the rounded corners*
1,1,$1+$1,$2,$3*
1,1,$1+$1,$4,$5*
1,1,$1+$1,$6,$7*
1,1,$1+$1,$8,$9*
0 Add four rect primitives between the rounded corners*
20,1,$1+$1,$2,$3,$4,$5,0*
20,1,$1+$1,$4,$5,$6,$7,0*
20,1,$1+$1,$6,$7,$8,$9,0*
20,1,$1+$1,$8,$9,$2,$3,0*%
G04 Aperture macros list end*
%ADD10RoundRect,0.237500X0.237500X-0.250000X0.237500X0.250000X-0.237500X0.250000X-0.237500X-0.250000X0*%
%ADD11RoundRect,0.243750X-0.456250X0.243750X-0.456250X-0.243750X0.456250X-0.243750X0.456250X0.243750X0*%
G04 APERTURE END LIST*
D10*
%TO.C,R68*%
X205943200Y-156716100D03*
X205943200Y-154891100D03*
%TD*%
%TO.C,R18*%
X179858300Y-176446300D03*
X179858300Y-174621300D03*
%TD*%
D11*
%TO.C,D49*%
X180213000Y-154836100D03*
X180213000Y-156711100D03*
%TD*%
D10*
%TO.C,R66*%
X220929200Y-156716100D03*
X220929200Y-154891100D03*
%TD*%
D11*
%TO.C,D45*%
X203860400Y-154836100D03*
X203860400Y-156711100D03*
%TD*%
D10*
%TO.C,R70*%
X194081400Y-156716100D03*
X194081400Y-154891100D03*
%TD*%
D11*
%TO.C,D43*%
X218846400Y-154836100D03*
X218846400Y-156711100D03*
%TD*%
%TO.C,D12*%
X181910300Y-174599600D03*
X181910300Y-176474600D03*
%TD*%
%TO.C,D22*%
X162225300Y-174599600D03*
X162225300Y-176474600D03*
%TD*%
D10*
%TO.C,R16*%
X152163140Y-159311500D03*
X152163140Y-157486500D03*
%TD*%
D11*
%TO.C,D20*%
X149855500Y-174566300D03*
X149855500Y-176441300D03*
%TD*%
%TO.C,D28*%
X265760200Y-154836100D03*
X265760200Y-156711100D03*
%TD*%
D10*
%TO.C,R45*%
X250139200Y-156716100D03*
X250139200Y-154891100D03*
%TD*%
D11*
%TO.C,D32*%
X248056400Y-154836100D03*
X248056400Y-156711100D03*
%TD*%
D10*
%TO.C,R28*%
X147803500Y-176446300D03*
X147803500Y-174621300D03*
%TD*%
%TO.C,R26*%
X135179700Y-176446300D03*
X135179700Y-174621300D03*
%TD*%
%TO.C,R20*%
X171044500Y-176446300D03*
X171044500Y-174621300D03*
%TD*%
%TO.C,R14*%
X138635100Y-159311500D03*
X138635100Y-157486500D03*
%TD*%
D11*
%TO.C,D18*%
X137231700Y-174566300D03*
X137231700Y-176441300D03*
%TD*%
%TO.C,D10*%
X154215140Y-157431500D03*
X154215140Y-159306500D03*
%TD*%
D10*
%TO.C,R39*%
X267843000Y-156716100D03*
X267843000Y-154891100D03*
%TD*%
D11*
%TO.C,D8*%
X140687100Y-157431500D03*
X140687100Y-159306500D03*
%TD*%
%TO.C,D55*%
X284988000Y-154836100D03*
X284988000Y-156711100D03*
%TD*%
%TO.C,D47*%
X191998600Y-154836100D03*
X191998600Y-156711100D03*
%TD*%
D10*
%TO.C,R55*%
X168605200Y-156716100D03*
X168605200Y-154891100D03*
%TD*%
D11*
%TO.C,D14*%
X173096500Y-174599600D03*
X173096500Y-176474600D03*
%TD*%
%TO.C,D41*%
X166522400Y-154836100D03*
X166522400Y-156711100D03*
%TD*%
D10*
%TO.C,R30*%
X160173300Y-176446300D03*
X160173300Y-174621300D03*
%TD*%
%TO.C,R81*%
X287070800Y-156716100D03*
X287070800Y-154891100D03*
%TD*%
%TO.C,R72*%
X182295800Y-156716100D03*
X182295800Y-154891100D03*
%TD*%
M02*
