%TF.GenerationSoftware,KiCad,Pcbnew,10.0.1*%
%TF.CreationDate,2026-05-11T19:47:22-07:00*%
%TF.ProjectId,Shutdown,53687574-646f-4776-9e2e-6b696361645f,rev?*%
%TF.SameCoordinates,Original*%
%TF.FileFunction,Copper,L2,Inr*%
%TF.FilePolarity,Positive*%
%FSLAX46Y46*%
G04 Gerber Fmt 4.6, Leading zero omitted, Abs format (unit mm)*
G04 Created by KiCad (PCBNEW 10.0.1) date 2026-05-11 19:47:22*
%MOMM*%
%LPD*%
G01*
G04 APERTURE LIST*
%TA.AperFunction,ComponentPad*%
%ADD10C,3.900000*%
%TD*%
%TA.AperFunction,ComponentPad*%
%ADD11C,2.108200*%
%TD*%
%TA.AperFunction,ViaPad*%
%ADD12C,0.609600*%
%TD*%
%TA.AperFunction,ViaPad*%
%ADD13C,0.600000*%
%TD*%
G04 APERTURE END LIST*
D10*
%TO.N,unconnected-(MH2-Pad1)_1*%
%TO.C,MH2*%
X125835781Y-184969681D03*
%TD*%
D11*
%TO.N,/BSPD-FAULT-VCU*%
%TO.C,J1*%
X273079021Y-135031081D03*
%TO.N,/BYPASS-BTN*%
X267237021Y-135031081D03*
%TO.N,/HVILS-A*%
X261395021Y-135031081D03*
%TO.N,/CRASH-SW-A*%
X255553021Y-135031081D03*
%TO.N,/BOTS-B*%
X249711021Y-135031081D03*
%TO.N,/SD-POWER*%
X243869021Y-135031081D03*
X238027021Y-135031081D03*
%TO.N,GND*%
X232185021Y-135031081D03*
%TO.N,/BMS-FAULT*%
X273079021Y-129189081D03*
%TO.N,/IMD-FAULT*%
X267237021Y-129189081D03*
%TO.N,/BMS-FAULT-VCU-BUF*%
X261395021Y-129189081D03*
%TO.N,/IMD-FAULT-VCU-BUF*%
X255553021Y-129189081D03*
%TO.N,/BOTS-A*%
X249711021Y-129189081D03*
%TO.N,/BOTS-B*%
X243869021Y-129189081D03*
%TO.N,/CRASH-SW-A*%
X238027021Y-129189081D03*
%TO.N,/BOTS-A*%
X232185021Y-129189081D03*
%TD*%
D10*
%TO.N,unconnected-(MH1-Pad1)_2*%
%TO.C,MH1*%
X291443781Y-184969681D03*
%TD*%
D11*
%TO.N,/TRACTIVE-FAN-ON*%
%TO.C,J2*%
X184966421Y-135031081D03*
%TO.N,/ACCY-FAN-ON*%
X179124421Y-135031081D03*
%TO.N,BATT+*%
X173282421Y-135031081D03*
X167440421Y-135031081D03*
%TO.N,GND*%
X161598421Y-135031081D03*
%TO.N,unconnected-(J2-Pad6)*%
X155756421Y-135031081D03*
%TO.N,unconnected-(J2-Pad7)*%
X149914421Y-135031081D03*
%TO.N,unconnected-(J2-Pad8)*%
X144072421Y-135031081D03*
%TO.N,/PRECHARGE-DEBUG*%
X184966421Y-129189081D03*
%TO.N,/POS-AIRS-DEBUG*%
X179124421Y-129189081D03*
%TO.N,/NEG-AIRS-DEBUG*%
X173282421Y-129189081D03*
%TO.N,/TSSI-STATUS*%
X167440421Y-129189081D03*
%TO.N,GND*%
X161598421Y-129189081D03*
%TO.N,unconnected-(J2-Pad14)*%
X155756421Y-129189081D03*
%TO.N,unconnected-(J2-Pad15)*%
X149914421Y-129189081D03*
%TO.N,unconnected-(J2-Pad16)*%
X144072421Y-129189081D03*
%TD*%
D10*
%TO.N,unconnected-(MH3-Pad1)_2*%
%TO.C,MH3*%
X125835781Y-146564628D03*
%TD*%
%TO.N,unconnected-(MH4-Pad1)_1*%
%TO.C,MH4*%
X291443781Y-146564628D03*
%TD*%
D12*
%TO.N,GND*%
X251409200Y-167360600D03*
X213029800Y-177495200D03*
X221361000Y-168376600D03*
X272694400Y-174701200D03*
X151536400Y-167462200D03*
X167919400Y-153797000D03*
X254990600Y-172948600D03*
X221335600Y-170205400D03*
X292735000Y-176326800D03*
X158800800Y-171653200D03*
X233095800Y-170992800D03*
X180263800Y-153593800D03*
X141274800Y-149250400D03*
X166522400Y-153771600D03*
X251383800Y-145288000D03*
X271422800Y-177090400D03*
X181152800Y-169164000D03*
X181914800Y-173659800D03*
X146431000Y-171729400D03*
X169341800Y-169189400D03*
X138912600Y-167462200D03*
X137261600Y-154609800D03*
X139598400Y-156438600D03*
X153111200Y-156311600D03*
X242366800Y-172669200D03*
X293751000Y-169697400D03*
X291388800Y-169875200D03*
X255600200Y-183997600D03*
X287020000Y-153720800D03*
X136144000Y-173532800D03*
X268071600Y-167386000D03*
X254990600Y-174980600D03*
X212191600Y-175082200D03*
X260248400Y-176174400D03*
X247116600Y-150190200D03*
X244906800Y-173812200D03*
X212979000Y-172948600D03*
X254990600Y-174015400D03*
X254584200Y-143256000D03*
X133832600Y-171602400D03*
X233019600Y-177215800D03*
X154787600Y-149225000D03*
X191998600Y-153644600D03*
X252857000Y-184023000D03*
X172186600Y-148996400D03*
X257886200Y-176174400D03*
X203860400Y-153771600D03*
X161112200Y-145110200D03*
X150799800Y-154559000D03*
X161137600Y-173456600D03*
X284988000Y-153720800D03*
X163855400Y-167462200D03*
X148767800Y-173482000D03*
X211226400Y-173990000D03*
X235534200Y-176276000D03*
%TO.N,/BOTS-B*%
X184073800Y-172161200D03*
%TO.N,/IMD-FAULT*%
X263550400Y-177088800D03*
%TO.N,Net-(Q21-D)*%
X184027181Y-154921481D03*
%TO.N,/HVILS-A*%
X243408200Y-164515800D03*
X247218200Y-172415200D03*
D13*
X222762181Y-154896081D03*
D12*
%TO.N,Net-(D42-K)*%
X215874600Y-179781200D03*
X218846400Y-153847800D03*
%TO.N,BATT+PROT*%
X250139200Y-153898600D03*
X134010400Y-174625000D03*
X177977800Y-147523200D03*
X176352200Y-146710400D03*
X174726600Y-145897600D03*
X173101000Y-145084800D03*
X172288200Y-147523200D03*
X159029400Y-174625000D03*
X174726600Y-146710400D03*
X177165000Y-145084800D03*
X293344600Y-165608000D03*
X175539400Y-145897600D03*
X270383000Y-153720800D03*
X174726600Y-147523200D03*
X268071600Y-169164000D03*
X173913800Y-145897600D03*
X230809800Y-175691800D03*
X177977800Y-146710400D03*
X253441200Y-153924000D03*
X263626600Y-149656800D03*
X175539400Y-146710400D03*
X172288200Y-145897600D03*
X177165000Y-147523200D03*
X286080200Y-177444400D03*
X173101000Y-145897600D03*
X171043600Y-173558200D03*
X251383800Y-169164000D03*
X177165000Y-146710400D03*
X176352200Y-147523200D03*
X177977800Y-145897600D03*
X173913800Y-146710400D03*
X172288200Y-146710400D03*
X175539400Y-145084800D03*
X151130000Y-157454600D03*
X176352200Y-145897600D03*
X177977800Y-145084800D03*
X238023400Y-168198800D03*
X173913800Y-147523200D03*
X176352200Y-145084800D03*
X137617200Y-157480000D03*
X245389400Y-152222200D03*
X177165000Y-145897600D03*
X175539400Y-147523200D03*
X146735800Y-174599600D03*
X173101000Y-146710400D03*
X173913800Y-145084800D03*
X286029400Y-163982400D03*
X267843000Y-153720800D03*
X174726600Y-145084800D03*
X172288200Y-145084800D03*
X227355400Y-172161200D03*
X173101000Y-147523200D03*
%TO.N,/BYPASS-BTN*%
X174498000Y-174574200D03*
X238911781Y-170994964D03*
%TO.N,/SD-POWER*%
X171399200Y-154889200D03*
%TO.N,/BMS-FAULT*%
X268071600Y-171018200D03*
%TO.N,BATT+*%
X179857400Y-173659800D03*
%TO.N,Net-(D19-K)*%
X151104600Y-174548800D03*
%TO.N,Net-(Q19-D)*%
X205943200Y-153670000D03*
%TO.N,/IMD-FAULT-VCU*%
X255676400Y-149402800D03*
X252439400Y-173583600D03*
%TO.N,Net-(D31-K)*%
X259207000Y-182016400D03*
X251358400Y-153949400D03*
%TO.N,/ACCY-FAN-ON*%
X142392400Y-151942800D03*
%TO.N,/TRACTIVE-FAN-ON*%
X155854400Y-151942800D03*
%TO.N,Net-(D7-K)*%
X141909800Y-157429200D03*
%TO.N,Net-(D53-A)*%
X285115000Y-172542200D03*
X289102800Y-153720800D03*
%TO.N,Net-(D17-K)*%
X138506200Y-174574200D03*
%TO.N,Net-(Q20-D)*%
X195478400Y-154891100D03*
%TO.N,Net-(D21-K)*%
X163525200Y-174574200D03*
%TO.N,Net-(D27-K)*%
X265760200Y-153746200D03*
X277469600Y-173736000D03*
%TO.N,Net-(D10-K)*%
X155549600Y-157429200D03*
%TD*%
%TA.AperFunction,Conductor*%
%TO.N,GND*%
G36*
X295257517Y-123959363D02*
G01*
X295521781Y-123975348D01*
X295536645Y-123977153D01*
X295793365Y-124024199D01*
X295807902Y-124027782D01*
X296057067Y-124105425D01*
X296071059Y-124110731D01*
X296162697Y-124151974D01*
X296309066Y-124217849D01*
X296322325Y-124224808D01*
X296433999Y-124292317D01*
X296545680Y-124359831D01*
X296557991Y-124368329D01*
X296763446Y-124529292D01*
X296774654Y-124539222D01*
X296959195Y-124723763D01*
X296969125Y-124734971D01*
X297130084Y-124940420D01*
X297138590Y-124952743D01*
X297273609Y-125176092D01*
X297280568Y-125189351D01*
X297387684Y-125427354D01*
X297392993Y-125441355D01*
X297470634Y-125690514D01*
X297474218Y-125705052D01*
X297521264Y-125961772D01*
X297523069Y-125976637D01*
X297539055Y-126240900D01*
X297539281Y-126248387D01*
X297539281Y-188775930D01*
X297539055Y-188783417D01*
X297523069Y-189047680D01*
X297521264Y-189062545D01*
X297474218Y-189319265D01*
X297470634Y-189333803D01*
X297392993Y-189582962D01*
X297387684Y-189596963D01*
X297280568Y-189834966D01*
X297273609Y-189848225D01*
X297138590Y-190071574D01*
X297130084Y-190083897D01*
X296969125Y-190289346D01*
X296959195Y-190300554D01*
X296774654Y-190485095D01*
X296763446Y-190495025D01*
X296557997Y-190655984D01*
X296545674Y-190664490D01*
X296322325Y-190799509D01*
X296309066Y-190806468D01*
X296071063Y-190913584D01*
X296057062Y-190918893D01*
X295807903Y-190996534D01*
X295793365Y-191000118D01*
X295536645Y-191047164D01*
X295521780Y-191048969D01*
X295257517Y-191064955D01*
X295250030Y-191065181D01*
X122029540Y-191065181D01*
X122022051Y-191064955D01*
X121757787Y-191048965D01*
X121742923Y-191047160D01*
X121486207Y-191000111D01*
X121471668Y-190996527D01*
X121222499Y-190918880D01*
X121208499Y-190913570D01*
X120970509Y-190806457D01*
X120957251Y-190799499D01*
X120733898Y-190664476D01*
X120721574Y-190655969D01*
X120516129Y-190495011D01*
X120504922Y-190485082D01*
X120320379Y-190300539D01*
X120310450Y-190289332D01*
X120149492Y-190083887D01*
X120140985Y-190071563D01*
X120005962Y-189848210D01*
X119999004Y-189834952D01*
X119891891Y-189596962D01*
X119886581Y-189582962D01*
X119808934Y-189333793D01*
X119805350Y-189319254D01*
X119792386Y-189248516D01*
X119758299Y-189062525D01*
X119756497Y-189047680D01*
X119740507Y-188783411D01*
X119740281Y-188775922D01*
X119740281Y-184831856D01*
X123732881Y-184831856D01*
X123732881Y-185107505D01*
X123732882Y-185107522D01*
X123768861Y-185380813D01*
X123840209Y-185647086D01*
X123945698Y-185901758D01*
X123945702Y-185901768D01*
X124083531Y-186140495D01*
X124251343Y-186359192D01*
X124251349Y-186359199D01*
X124446262Y-186554112D01*
X124446269Y-186554118D01*
X124664966Y-186721930D01*
X124903693Y-186859759D01*
X124903694Y-186859759D01*
X124903697Y-186859761D01*
X125158376Y-186965253D01*
X125424645Y-187036600D01*
X125697950Y-187072581D01*
X125697957Y-187072581D01*
X125973605Y-187072581D01*
X125973612Y-187072581D01*
X126246917Y-187036600D01*
X126513186Y-186965253D01*
X126767865Y-186859761D01*
X127006596Y-186721930D01*
X127225294Y-186554117D01*
X127420217Y-186359194D01*
X127588030Y-186140496D01*
X127725861Y-185901765D01*
X127831353Y-185647086D01*
X127902700Y-185380817D01*
X127938681Y-185107512D01*
X127938681Y-184831856D01*
X289340881Y-184831856D01*
X289340881Y-185107505D01*
X289340882Y-185107522D01*
X289376861Y-185380813D01*
X289448209Y-185647086D01*
X289553698Y-185901758D01*
X289553702Y-185901768D01*
X289691531Y-186140495D01*
X289859343Y-186359192D01*
X289859349Y-186359199D01*
X290054262Y-186554112D01*
X290054269Y-186554118D01*
X290272966Y-186721930D01*
X290511693Y-186859759D01*
X290511694Y-186859759D01*
X290511697Y-186859761D01*
X290766376Y-186965253D01*
X291032645Y-187036600D01*
X291305950Y-187072581D01*
X291305957Y-187072581D01*
X291581605Y-187072581D01*
X291581612Y-187072581D01*
X291854917Y-187036600D01*
X292121186Y-186965253D01*
X292375865Y-186859761D01*
X292614596Y-186721930D01*
X292833294Y-186554117D01*
X293028217Y-186359194D01*
X293196030Y-186140496D01*
X293333861Y-185901765D01*
X293439353Y-185647086D01*
X293510700Y-185380817D01*
X293546681Y-185107512D01*
X293546681Y-184831850D01*
X293510700Y-184558545D01*
X293439353Y-184292276D01*
X293333861Y-184037597D01*
X293196030Y-183798866D01*
X293028217Y-183580168D01*
X293028212Y-183580162D01*
X292833299Y-183385249D01*
X292833292Y-183385243D01*
X292614595Y-183217431D01*
X292375868Y-183079602D01*
X292375858Y-183079598D01*
X292121186Y-182974109D01*
X291854913Y-182902761D01*
X291581622Y-182866782D01*
X291581617Y-182866781D01*
X291581612Y-182866781D01*
X291305950Y-182866781D01*
X291305944Y-182866781D01*
X291305939Y-182866782D01*
X291032648Y-182902761D01*
X290766375Y-182974109D01*
X290511703Y-183079598D01*
X290511693Y-183079602D01*
X290272966Y-183217431D01*
X290054269Y-183385243D01*
X290054262Y-183385249D01*
X289859349Y-183580162D01*
X289859343Y-183580169D01*
X289691531Y-183798866D01*
X289553702Y-184037593D01*
X289553698Y-184037603D01*
X289448209Y-184292275D01*
X289376861Y-184558548D01*
X289340882Y-184831839D01*
X289340881Y-184831856D01*
X127938681Y-184831856D01*
X127938681Y-184831850D01*
X127902700Y-184558545D01*
X127831353Y-184292276D01*
X127725861Y-184037597D01*
X127588030Y-183798866D01*
X127420217Y-183580168D01*
X127420212Y-183580162D01*
X127225299Y-183385249D01*
X127225292Y-183385243D01*
X127006595Y-183217431D01*
X126767868Y-183079602D01*
X126767858Y-183079598D01*
X126513186Y-182974109D01*
X126246913Y-182902761D01*
X125973622Y-182866782D01*
X125973617Y-182866781D01*
X125973612Y-182866781D01*
X125697950Y-182866781D01*
X125697944Y-182866781D01*
X125697939Y-182866782D01*
X125424648Y-182902761D01*
X125158375Y-182974109D01*
X124903703Y-183079598D01*
X124903693Y-183079602D01*
X124664966Y-183217431D01*
X124446269Y-183385243D01*
X124446262Y-183385249D01*
X124251349Y-183580162D01*
X124251343Y-183580169D01*
X124083531Y-183798866D01*
X123945702Y-184037593D01*
X123945698Y-184037603D01*
X123840209Y-184292275D01*
X123768861Y-184558548D01*
X123732882Y-184831839D01*
X123732881Y-184831856D01*
X119740281Y-184831856D01*
X119740281Y-181956143D01*
X258749300Y-181956143D01*
X258749300Y-182076657D01*
X258770094Y-182154262D01*
X258780492Y-182193066D01*
X258780495Y-182193071D01*
X258840744Y-182297427D01*
X258840748Y-182297432D01*
X258840749Y-182297434D01*
X258925966Y-182382651D01*
X258925968Y-182382652D01*
X258925972Y-182382655D01*
X259030328Y-182442904D01*
X259030335Y-182442908D01*
X259146743Y-182474100D01*
X259146745Y-182474100D01*
X259267255Y-182474100D01*
X259267257Y-182474100D01*
X259383665Y-182442908D01*
X259488034Y-182382651D01*
X259573251Y-182297434D01*
X259633508Y-182193065D01*
X259664700Y-182076657D01*
X259664700Y-181956143D01*
X259633508Y-181839735D01*
X259633504Y-181839728D01*
X259573255Y-181735372D01*
X259573249Y-181735364D01*
X259488035Y-181650150D01*
X259488027Y-181650144D01*
X259383671Y-181589895D01*
X259383666Y-181589892D01*
X259344862Y-181579494D01*
X259267257Y-181558700D01*
X259146743Y-181558700D01*
X259088539Y-181574296D01*
X259030333Y-181589892D01*
X259030328Y-181589895D01*
X258925972Y-181650144D01*
X258925964Y-181650150D01*
X258840750Y-181735364D01*
X258840744Y-181735372D01*
X258780495Y-181839728D01*
X258780492Y-181839733D01*
X258759697Y-181917340D01*
X258749300Y-181956143D01*
X119740281Y-181956143D01*
X119740281Y-179720943D01*
X215416900Y-179720943D01*
X215416900Y-179841457D01*
X215437694Y-179919062D01*
X215448092Y-179957866D01*
X215448095Y-179957871D01*
X215508344Y-180062227D01*
X215508348Y-180062232D01*
X215508349Y-180062234D01*
X215593566Y-180147451D01*
X215593568Y-180147452D01*
X215593572Y-180147455D01*
X215697928Y-180207704D01*
X215697935Y-180207708D01*
X215814343Y-180238900D01*
X215814345Y-180238900D01*
X215934855Y-180238900D01*
X215934857Y-180238900D01*
X216051265Y-180207708D01*
X216155634Y-180147451D01*
X216240851Y-180062234D01*
X216301108Y-179957865D01*
X216332300Y-179841457D01*
X216332300Y-179720943D01*
X216301108Y-179604535D01*
X216301104Y-179604528D01*
X216240855Y-179500172D01*
X216240849Y-179500164D01*
X216155635Y-179414950D01*
X216155627Y-179414944D01*
X216051271Y-179354695D01*
X216051266Y-179354692D01*
X216012462Y-179344294D01*
X215934857Y-179323500D01*
X215814343Y-179323500D01*
X215756139Y-179339096D01*
X215697933Y-179354692D01*
X215697928Y-179354695D01*
X215593572Y-179414944D01*
X215593564Y-179414950D01*
X215508350Y-179500164D01*
X215508344Y-179500172D01*
X215448095Y-179604528D01*
X215448092Y-179604533D01*
X215427297Y-179682140D01*
X215416900Y-179720943D01*
X119740281Y-179720943D01*
X119740281Y-177028543D01*
X263092700Y-177028543D01*
X263092700Y-177149057D01*
X263096536Y-177163372D01*
X263123892Y-177265466D01*
X263123895Y-177265471D01*
X263184144Y-177369827D01*
X263184148Y-177369832D01*
X263184149Y-177369834D01*
X263269366Y-177455051D01*
X263269368Y-177455052D01*
X263269372Y-177455055D01*
X263355283Y-177504655D01*
X263373735Y-177515308D01*
X263490143Y-177546500D01*
X263490145Y-177546500D01*
X263610655Y-177546500D01*
X263610657Y-177546500D01*
X263727065Y-177515308D01*
X263831434Y-177455051D01*
X263902342Y-177384143D01*
X285622500Y-177384143D01*
X285622500Y-177504657D01*
X285625353Y-177515304D01*
X285653692Y-177621066D01*
X285653695Y-177621071D01*
X285713944Y-177725427D01*
X285713948Y-177725432D01*
X285713949Y-177725434D01*
X285799166Y-177810651D01*
X285799168Y-177810652D01*
X285799172Y-177810655D01*
X285903528Y-177870904D01*
X285903535Y-177870908D01*
X286019943Y-177902100D01*
X286019945Y-177902100D01*
X286140455Y-177902100D01*
X286140457Y-177902100D01*
X286256865Y-177870908D01*
X286361234Y-177810651D01*
X286446451Y-177725434D01*
X286506708Y-177621065D01*
X286537900Y-177504657D01*
X286537900Y-177384143D01*
X286506708Y-177267735D01*
X286505397Y-177265465D01*
X286446455Y-177163372D01*
X286446449Y-177163364D01*
X286361235Y-177078150D01*
X286361227Y-177078144D01*
X286256871Y-177017895D01*
X286256866Y-177017892D01*
X286218062Y-177007494D01*
X286140457Y-176986700D01*
X286019943Y-176986700D01*
X285961739Y-177002296D01*
X285903533Y-177017892D01*
X285903528Y-177017895D01*
X285799172Y-177078144D01*
X285799164Y-177078150D01*
X285713950Y-177163364D01*
X285713944Y-177163372D01*
X285653695Y-177267728D01*
X285653692Y-177267733D01*
X285641291Y-177314015D01*
X285622500Y-177384143D01*
X263902342Y-177384143D01*
X263916651Y-177369834D01*
X263976908Y-177265465D01*
X264008100Y-177149057D01*
X264008100Y-177028543D01*
X263976908Y-176912135D01*
X263976904Y-176912128D01*
X263916655Y-176807772D01*
X263916649Y-176807764D01*
X263831435Y-176722550D01*
X263831427Y-176722544D01*
X263727071Y-176662295D01*
X263727066Y-176662292D01*
X263688262Y-176651894D01*
X263610657Y-176631100D01*
X263490143Y-176631100D01*
X263431939Y-176646696D01*
X263373733Y-176662292D01*
X263373728Y-176662295D01*
X263269372Y-176722544D01*
X263269364Y-176722550D01*
X263184150Y-176807764D01*
X263184144Y-176807772D01*
X263123895Y-176912128D01*
X263123892Y-176912133D01*
X263103912Y-176986700D01*
X263092700Y-177028543D01*
X119740281Y-177028543D01*
X119740281Y-175631543D01*
X230352100Y-175631543D01*
X230352100Y-175752057D01*
X230372894Y-175829662D01*
X230383292Y-175868466D01*
X230383295Y-175868471D01*
X230443544Y-175972827D01*
X230443548Y-175972832D01*
X230443549Y-175972834D01*
X230528766Y-176058051D01*
X230528768Y-176058052D01*
X230528772Y-176058055D01*
X230633128Y-176118304D01*
X230633135Y-176118308D01*
X230749543Y-176149500D01*
X230749545Y-176149500D01*
X230870055Y-176149500D01*
X230870057Y-176149500D01*
X230986465Y-176118308D01*
X231090834Y-176058051D01*
X231176051Y-175972834D01*
X231236308Y-175868465D01*
X231267500Y-175752057D01*
X231267500Y-175631543D01*
X231236308Y-175515135D01*
X231236304Y-175515128D01*
X231176055Y-175410772D01*
X231176049Y-175410764D01*
X231090835Y-175325550D01*
X231090827Y-175325544D01*
X230986471Y-175265295D01*
X230986466Y-175265292D01*
X230947662Y-175254894D01*
X230870057Y-175234100D01*
X230749543Y-175234100D01*
X230691339Y-175249696D01*
X230633133Y-175265292D01*
X230633128Y-175265295D01*
X230528772Y-175325544D01*
X230528764Y-175325550D01*
X230443550Y-175410764D01*
X230443544Y-175410772D01*
X230383295Y-175515128D01*
X230383292Y-175515133D01*
X230362497Y-175592740D01*
X230352100Y-175631543D01*
X119740281Y-175631543D01*
X119740281Y-174564743D01*
X133552700Y-174564743D01*
X133552700Y-174685257D01*
X133563474Y-174725465D01*
X133583892Y-174801666D01*
X133583895Y-174801671D01*
X133644144Y-174906027D01*
X133644148Y-174906032D01*
X133644149Y-174906034D01*
X133729366Y-174991251D01*
X133729368Y-174991252D01*
X133729372Y-174991255D01*
X133833728Y-175051504D01*
X133833735Y-175051508D01*
X133950143Y-175082700D01*
X133950145Y-175082700D01*
X134070655Y-175082700D01*
X134070657Y-175082700D01*
X134187065Y-175051508D01*
X134291434Y-174991251D01*
X134376651Y-174906034D01*
X134436908Y-174801665D01*
X134468100Y-174685257D01*
X134468100Y-174564743D01*
X134454488Y-174513943D01*
X138048500Y-174513943D01*
X138048500Y-174634457D01*
X138055306Y-174659857D01*
X138079692Y-174750866D01*
X138079695Y-174750871D01*
X138139944Y-174855227D01*
X138139948Y-174855232D01*
X138139949Y-174855234D01*
X138225166Y-174940451D01*
X138225168Y-174940452D01*
X138225172Y-174940455D01*
X138313151Y-174991249D01*
X138329535Y-175000708D01*
X138445943Y-175031900D01*
X138445945Y-175031900D01*
X138566455Y-175031900D01*
X138566457Y-175031900D01*
X138682865Y-175000708D01*
X138787234Y-174940451D01*
X138872451Y-174855234D01*
X138932708Y-174750865D01*
X138963900Y-174634457D01*
X138963900Y-174539343D01*
X146278100Y-174539343D01*
X146278100Y-174659857D01*
X146284906Y-174685257D01*
X146309292Y-174776266D01*
X146309295Y-174776271D01*
X146369544Y-174880627D01*
X146369548Y-174880632D01*
X146369549Y-174880634D01*
X146454766Y-174965851D01*
X146454768Y-174965852D01*
X146454772Y-174965855D01*
X146559128Y-175026104D01*
X146559135Y-175026108D01*
X146675543Y-175057300D01*
X146675545Y-175057300D01*
X146796055Y-175057300D01*
X146796057Y-175057300D01*
X146912465Y-175026108D01*
X147016834Y-174965851D01*
X147102051Y-174880634D01*
X147162308Y-174776265D01*
X147193500Y-174659857D01*
X147193500Y-174539343D01*
X147179888Y-174488543D01*
X150646900Y-174488543D01*
X150646900Y-174609057D01*
X150653706Y-174634457D01*
X150678092Y-174725466D01*
X150678095Y-174725471D01*
X150738344Y-174829827D01*
X150738348Y-174829832D01*
X150738349Y-174829834D01*
X150823566Y-174915051D01*
X150823568Y-174915052D01*
X150823572Y-174915055D01*
X150867560Y-174940451D01*
X150927935Y-174975308D01*
X151044343Y-175006500D01*
X151044345Y-175006500D01*
X151164855Y-175006500D01*
X151164857Y-175006500D01*
X151281265Y-174975308D01*
X151385634Y-174915051D01*
X151470851Y-174829834D01*
X151531108Y-174725465D01*
X151562300Y-174609057D01*
X151562300Y-174564743D01*
X158571700Y-174564743D01*
X158571700Y-174685257D01*
X158582474Y-174725465D01*
X158602892Y-174801666D01*
X158602895Y-174801671D01*
X158663144Y-174906027D01*
X158663148Y-174906032D01*
X158663149Y-174906034D01*
X158748366Y-174991251D01*
X158748368Y-174991252D01*
X158748372Y-174991255D01*
X158852728Y-175051504D01*
X158852735Y-175051508D01*
X158969143Y-175082700D01*
X158969145Y-175082700D01*
X159089655Y-175082700D01*
X159089657Y-175082700D01*
X159206065Y-175051508D01*
X159310434Y-174991251D01*
X159395651Y-174906034D01*
X159455908Y-174801665D01*
X159487100Y-174685257D01*
X159487100Y-174564743D01*
X159473488Y-174513943D01*
X163067500Y-174513943D01*
X163067500Y-174634457D01*
X163074306Y-174659857D01*
X163098692Y-174750866D01*
X163098695Y-174750871D01*
X163158944Y-174855227D01*
X163158948Y-174855232D01*
X163158949Y-174855234D01*
X163244166Y-174940451D01*
X163244168Y-174940452D01*
X163244172Y-174940455D01*
X163332151Y-174991249D01*
X163348535Y-175000708D01*
X163464943Y-175031900D01*
X163464945Y-175031900D01*
X163585455Y-175031900D01*
X163585457Y-175031900D01*
X163701865Y-175000708D01*
X163806234Y-174940451D01*
X163891451Y-174855234D01*
X163951708Y-174750865D01*
X163982900Y-174634457D01*
X163982900Y-174513943D01*
X174040300Y-174513943D01*
X174040300Y-174634457D01*
X174047106Y-174659857D01*
X174071492Y-174750866D01*
X174071495Y-174750871D01*
X174131744Y-174855227D01*
X174131748Y-174855232D01*
X174131749Y-174855234D01*
X174216966Y-174940451D01*
X174216968Y-174940452D01*
X174216972Y-174940455D01*
X174304951Y-174991249D01*
X174321335Y-175000708D01*
X174437743Y-175031900D01*
X174437745Y-175031900D01*
X174558255Y-175031900D01*
X174558257Y-175031900D01*
X174674665Y-175000708D01*
X174779034Y-174940451D01*
X174864251Y-174855234D01*
X174924508Y-174750865D01*
X174955700Y-174634457D01*
X174955700Y-174513943D01*
X174924508Y-174397535D01*
X174924504Y-174397528D01*
X174864255Y-174293172D01*
X174864249Y-174293164D01*
X174779035Y-174207950D01*
X174779027Y-174207944D01*
X174674671Y-174147695D01*
X174674666Y-174147692D01*
X174635862Y-174137294D01*
X174558257Y-174116500D01*
X174437743Y-174116500D01*
X174379539Y-174132096D01*
X174321333Y-174147692D01*
X174321328Y-174147695D01*
X174216972Y-174207944D01*
X174216964Y-174207950D01*
X174131750Y-174293164D01*
X174131744Y-174293172D01*
X174071495Y-174397528D01*
X174071492Y-174397533D01*
X174064686Y-174422935D01*
X174040300Y-174513943D01*
X163982900Y-174513943D01*
X163951708Y-174397535D01*
X163951704Y-174397528D01*
X163891455Y-174293172D01*
X163891449Y-174293164D01*
X163806235Y-174207950D01*
X163806227Y-174207944D01*
X163701871Y-174147695D01*
X163701866Y-174147692D01*
X163663062Y-174137294D01*
X163585457Y-174116500D01*
X163464943Y-174116500D01*
X163406739Y-174132096D01*
X163348533Y-174147692D01*
X163348528Y-174147695D01*
X163244172Y-174207944D01*
X163244164Y-174207950D01*
X163158950Y-174293164D01*
X163158944Y-174293172D01*
X163098695Y-174397528D01*
X163098692Y-174397533D01*
X163091886Y-174422935D01*
X163067500Y-174513943D01*
X159473488Y-174513943D01*
X159455908Y-174448335D01*
X159455904Y-174448328D01*
X159395655Y-174343972D01*
X159395649Y-174343964D01*
X159310435Y-174258750D01*
X159310427Y-174258744D01*
X159206071Y-174198495D01*
X159206066Y-174198492D01*
X159167262Y-174188094D01*
X159089657Y-174167300D01*
X158969143Y-174167300D01*
X158912253Y-174182544D01*
X158852733Y-174198492D01*
X158852728Y-174198495D01*
X158748372Y-174258744D01*
X158748364Y-174258750D01*
X158663150Y-174343964D01*
X158663144Y-174343972D01*
X158602895Y-174448328D01*
X158602892Y-174448333D01*
X158592118Y-174488543D01*
X158571700Y-174564743D01*
X151562300Y-174564743D01*
X151562300Y-174488543D01*
X151531108Y-174372135D01*
X151485516Y-174293166D01*
X151470855Y-174267772D01*
X151470849Y-174267764D01*
X151385635Y-174182550D01*
X151385627Y-174182544D01*
X151281271Y-174122295D01*
X151281266Y-174122292D01*
X151242462Y-174111894D01*
X151164857Y-174091100D01*
X151044343Y-174091100D01*
X151002728Y-174102251D01*
X150927933Y-174122292D01*
X150927928Y-174122295D01*
X150823572Y-174182544D01*
X150823564Y-174182550D01*
X150738350Y-174267764D01*
X150738344Y-174267772D01*
X150678095Y-174372128D01*
X150678092Y-174372133D01*
X150671286Y-174397535D01*
X150646900Y-174488543D01*
X147179888Y-174488543D01*
X147162308Y-174422935D01*
X147162304Y-174422928D01*
X147102055Y-174318572D01*
X147102049Y-174318564D01*
X147016835Y-174233350D01*
X147016827Y-174233344D01*
X146912471Y-174173095D01*
X146912466Y-174173092D01*
X146872951Y-174162504D01*
X146796057Y-174141900D01*
X146675543Y-174141900D01*
X146617339Y-174157496D01*
X146559133Y-174173092D01*
X146559128Y-174173095D01*
X146454772Y-174233344D01*
X146454764Y-174233350D01*
X146369550Y-174318564D01*
X146369544Y-174318572D01*
X146309295Y-174422928D01*
X146309292Y-174422933D01*
X146302486Y-174448335D01*
X146278100Y-174539343D01*
X138963900Y-174539343D01*
X138963900Y-174513943D01*
X138932708Y-174397535D01*
X138932704Y-174397528D01*
X138872455Y-174293172D01*
X138872449Y-174293164D01*
X138787235Y-174207950D01*
X138787227Y-174207944D01*
X138682871Y-174147695D01*
X138682866Y-174147692D01*
X138644062Y-174137294D01*
X138566457Y-174116500D01*
X138445943Y-174116500D01*
X138387739Y-174132096D01*
X138329533Y-174147692D01*
X138329528Y-174147695D01*
X138225172Y-174207944D01*
X138225164Y-174207950D01*
X138139950Y-174293164D01*
X138139944Y-174293172D01*
X138079695Y-174397528D01*
X138079692Y-174397533D01*
X138072886Y-174422935D01*
X138048500Y-174513943D01*
X134454488Y-174513943D01*
X134436908Y-174448335D01*
X134436904Y-174448328D01*
X134376655Y-174343972D01*
X134376649Y-174343964D01*
X134291435Y-174258750D01*
X134291427Y-174258744D01*
X134187071Y-174198495D01*
X134187066Y-174198492D01*
X134148262Y-174188094D01*
X134070657Y-174167300D01*
X133950143Y-174167300D01*
X133893253Y-174182544D01*
X133833733Y-174198492D01*
X133833728Y-174198495D01*
X133729372Y-174258744D01*
X133729364Y-174258750D01*
X133644150Y-174343964D01*
X133644144Y-174343972D01*
X133583895Y-174448328D01*
X133583892Y-174448333D01*
X133573118Y-174488543D01*
X133552700Y-174564743D01*
X119740281Y-174564743D01*
X119740281Y-173497943D01*
X170585900Y-173497943D01*
X170585900Y-173618457D01*
X170592706Y-173643857D01*
X170617092Y-173734866D01*
X170617095Y-173734871D01*
X170677344Y-173839227D01*
X170677348Y-173839232D01*
X170677349Y-173839234D01*
X170762566Y-173924451D01*
X170762568Y-173924452D01*
X170762572Y-173924455D01*
X170806560Y-173949851D01*
X170866935Y-173984708D01*
X170983343Y-174015900D01*
X170983345Y-174015900D01*
X171103855Y-174015900D01*
X171103857Y-174015900D01*
X171220265Y-173984708D01*
X171324634Y-173924451D01*
X171409851Y-173839234D01*
X171470108Y-173734865D01*
X171501300Y-173618457D01*
X171501300Y-173599543D01*
X179399700Y-173599543D01*
X179399700Y-173720057D01*
X179410474Y-173760265D01*
X179430892Y-173836466D01*
X179430895Y-173836471D01*
X179491144Y-173940827D01*
X179491148Y-173940832D01*
X179491149Y-173940834D01*
X179576366Y-174026051D01*
X179576368Y-174026052D01*
X179576372Y-174026055D01*
X179602778Y-174041300D01*
X179680735Y-174086308D01*
X179797143Y-174117500D01*
X179797145Y-174117500D01*
X179917655Y-174117500D01*
X179917657Y-174117500D01*
X180034065Y-174086308D01*
X180138434Y-174026051D01*
X180223651Y-173940834D01*
X180283908Y-173836465D01*
X180315100Y-173720057D01*
X180315100Y-173599543D01*
X180294682Y-173523343D01*
X251981700Y-173523343D01*
X251981700Y-173643857D01*
X252002118Y-173720055D01*
X252012892Y-173760266D01*
X252012895Y-173760271D01*
X252073144Y-173864627D01*
X252073148Y-173864632D01*
X252073149Y-173864634D01*
X252158366Y-173949851D01*
X252158368Y-173949852D01*
X252158372Y-173949855D01*
X252262728Y-174010104D01*
X252262735Y-174010108D01*
X252379143Y-174041300D01*
X252379145Y-174041300D01*
X252499655Y-174041300D01*
X252499657Y-174041300D01*
X252616065Y-174010108D01*
X252720434Y-173949851D01*
X252805651Y-173864634D01*
X252865908Y-173760265D01*
X252888556Y-173675743D01*
X277011900Y-173675743D01*
X277011900Y-173796257D01*
X277022674Y-173836465D01*
X277043092Y-173912666D01*
X277043095Y-173912671D01*
X277103344Y-174017027D01*
X277103348Y-174017032D01*
X277103349Y-174017034D01*
X277188566Y-174102251D01*
X277188568Y-174102252D01*
X277188572Y-174102255D01*
X277267278Y-174147695D01*
X277292935Y-174162508D01*
X277409343Y-174193700D01*
X277409345Y-174193700D01*
X277529855Y-174193700D01*
X277529857Y-174193700D01*
X277646265Y-174162508D01*
X277750634Y-174102251D01*
X277835851Y-174017034D01*
X277896108Y-173912665D01*
X277927300Y-173796257D01*
X277927300Y-173675743D01*
X277896108Y-173559335D01*
X277896104Y-173559328D01*
X277835855Y-173454972D01*
X277835849Y-173454964D01*
X277750635Y-173369750D01*
X277750627Y-173369744D01*
X277646271Y-173309495D01*
X277646266Y-173309492D01*
X277607462Y-173299094D01*
X277529857Y-173278300D01*
X277409343Y-173278300D01*
X277352453Y-173293544D01*
X277292933Y-173309492D01*
X277292928Y-173309495D01*
X277188572Y-173369744D01*
X277188564Y-173369750D01*
X277103350Y-173454964D01*
X277103344Y-173454972D01*
X277043095Y-173559328D01*
X277043092Y-173559333D01*
X277027250Y-173618457D01*
X277011900Y-173675743D01*
X252888556Y-173675743D01*
X252897100Y-173643857D01*
X252897100Y-173523343D01*
X252865908Y-173406935D01*
X252865904Y-173406928D01*
X252805655Y-173302572D01*
X252805649Y-173302564D01*
X252720435Y-173217350D01*
X252720427Y-173217344D01*
X252616071Y-173157095D01*
X252616066Y-173157092D01*
X252577262Y-173146694D01*
X252499657Y-173125900D01*
X252379143Y-173125900D01*
X252320939Y-173141496D01*
X252262733Y-173157092D01*
X252262728Y-173157095D01*
X252158372Y-173217344D01*
X252158364Y-173217350D01*
X252073150Y-173302564D01*
X252073144Y-173302572D01*
X252012895Y-173406928D01*
X252012892Y-173406933D01*
X252000022Y-173454964D01*
X251981700Y-173523343D01*
X180294682Y-173523343D01*
X180283908Y-173483135D01*
X180267644Y-173454964D01*
X180223655Y-173378772D01*
X180223649Y-173378764D01*
X180138435Y-173293550D01*
X180138427Y-173293544D01*
X180034071Y-173233295D01*
X180034066Y-173233292D01*
X179995262Y-173222894D01*
X179917657Y-173202100D01*
X179797143Y-173202100D01*
X179740253Y-173217344D01*
X179680733Y-173233292D01*
X179680728Y-173233295D01*
X179576372Y-173293544D01*
X179576364Y-173293550D01*
X179491150Y-173378764D01*
X179491144Y-173378772D01*
X179430895Y-173483128D01*
X179430892Y-173483133D01*
X179420118Y-173523343D01*
X179399700Y-173599543D01*
X171501300Y-173599543D01*
X171501300Y-173497943D01*
X171470108Y-173381535D01*
X171463304Y-173369750D01*
X171409855Y-173277172D01*
X171409849Y-173277164D01*
X171324635Y-173191950D01*
X171324627Y-173191944D01*
X171220271Y-173131695D01*
X171220266Y-173131692D01*
X171181462Y-173121294D01*
X171103857Y-173100500D01*
X170983343Y-173100500D01*
X170925139Y-173116096D01*
X170866933Y-173131692D01*
X170866928Y-173131695D01*
X170762572Y-173191944D01*
X170762564Y-173191950D01*
X170677350Y-173277164D01*
X170677344Y-173277172D01*
X170617095Y-173381528D01*
X170617092Y-173381533D01*
X170610286Y-173406935D01*
X170585900Y-173497943D01*
X119740281Y-173497943D01*
X119740281Y-172100943D01*
X183616100Y-172100943D01*
X183616100Y-172221457D01*
X183626740Y-172261164D01*
X183647292Y-172337866D01*
X183647295Y-172337871D01*
X183707544Y-172442227D01*
X183707548Y-172442232D01*
X183707549Y-172442234D01*
X183792766Y-172527451D01*
X183792768Y-172527452D01*
X183792772Y-172527455D01*
X183897128Y-172587704D01*
X183897135Y-172587708D01*
X184013543Y-172618900D01*
X184013545Y-172618900D01*
X184134055Y-172618900D01*
X184134057Y-172618900D01*
X184250465Y-172587708D01*
X184354834Y-172527451D01*
X184440051Y-172442234D01*
X184500308Y-172337865D01*
X184531500Y-172221457D01*
X184531500Y-172100943D01*
X226897700Y-172100943D01*
X226897700Y-172221457D01*
X226908340Y-172261164D01*
X226928892Y-172337866D01*
X226928895Y-172337871D01*
X226989144Y-172442227D01*
X226989148Y-172442232D01*
X226989149Y-172442234D01*
X227074366Y-172527451D01*
X227074368Y-172527452D01*
X227074372Y-172527455D01*
X227178728Y-172587704D01*
X227178735Y-172587708D01*
X227295143Y-172618900D01*
X227295145Y-172618900D01*
X227415655Y-172618900D01*
X227415657Y-172618900D01*
X227532065Y-172587708D01*
X227636434Y-172527451D01*
X227721651Y-172442234D01*
X227772048Y-172354943D01*
X246760500Y-172354943D01*
X246760500Y-172475457D01*
X246774432Y-172527451D01*
X246791692Y-172591866D01*
X246791695Y-172591871D01*
X246851944Y-172696227D01*
X246851948Y-172696232D01*
X246851949Y-172696234D01*
X246937166Y-172781451D01*
X246937168Y-172781452D01*
X246937172Y-172781455D01*
X247041528Y-172841704D01*
X247041535Y-172841708D01*
X247157943Y-172872900D01*
X247157945Y-172872900D01*
X247278455Y-172872900D01*
X247278457Y-172872900D01*
X247394865Y-172841708D01*
X247499234Y-172781451D01*
X247584451Y-172696234D01*
X247644708Y-172591865D01*
X247674162Y-172481943D01*
X284657300Y-172481943D01*
X284657300Y-172602457D01*
X284661706Y-172618900D01*
X284688492Y-172718866D01*
X284688495Y-172718871D01*
X284748744Y-172823227D01*
X284748748Y-172823232D01*
X284748749Y-172823234D01*
X284833966Y-172908451D01*
X284833968Y-172908452D01*
X284833972Y-172908455D01*
X284938328Y-172968704D01*
X284938335Y-172968708D01*
X285054743Y-172999900D01*
X285054745Y-172999900D01*
X285175255Y-172999900D01*
X285175257Y-172999900D01*
X285291665Y-172968708D01*
X285396034Y-172908451D01*
X285481251Y-172823234D01*
X285541508Y-172718865D01*
X285572700Y-172602457D01*
X285572700Y-172481943D01*
X285541508Y-172365535D01*
X285525536Y-172337871D01*
X285481255Y-172261172D01*
X285481249Y-172261164D01*
X285396035Y-172175950D01*
X285396027Y-172175944D01*
X285291671Y-172115695D01*
X285291666Y-172115692D01*
X285252862Y-172105294D01*
X285175257Y-172084500D01*
X285054743Y-172084500D01*
X284996539Y-172100096D01*
X284938333Y-172115692D01*
X284938328Y-172115695D01*
X284833972Y-172175944D01*
X284833964Y-172175950D01*
X284748750Y-172261164D01*
X284748744Y-172261172D01*
X284688495Y-172365528D01*
X284688492Y-172365533D01*
X284667942Y-172442227D01*
X284657300Y-172481943D01*
X247674162Y-172481943D01*
X247675900Y-172475457D01*
X247675900Y-172354943D01*
X247644708Y-172238535D01*
X247608575Y-172175950D01*
X247584455Y-172134172D01*
X247584449Y-172134164D01*
X247499235Y-172048950D01*
X247499227Y-172048944D01*
X247394871Y-171988695D01*
X247394866Y-171988692D01*
X247356062Y-171978294D01*
X247278457Y-171957500D01*
X247157943Y-171957500D01*
X247099739Y-171973096D01*
X247041533Y-171988692D01*
X247041528Y-171988695D01*
X246937172Y-172048944D01*
X246937164Y-172048950D01*
X246851950Y-172134164D01*
X246851944Y-172134172D01*
X246791695Y-172238528D01*
X246791692Y-172238533D01*
X246785628Y-172261164D01*
X246760500Y-172354943D01*
X227772048Y-172354943D01*
X227781908Y-172337865D01*
X227813100Y-172221457D01*
X227813100Y-172100943D01*
X227781908Y-171984535D01*
X227781904Y-171984528D01*
X227721655Y-171880172D01*
X227721649Y-171880164D01*
X227636435Y-171794950D01*
X227636427Y-171794944D01*
X227532071Y-171734695D01*
X227532066Y-171734692D01*
X227493262Y-171724294D01*
X227415657Y-171703500D01*
X227295143Y-171703500D01*
X227236939Y-171719096D01*
X227178733Y-171734692D01*
X227178728Y-171734695D01*
X227074372Y-171794944D01*
X227074364Y-171794950D01*
X226989150Y-171880164D01*
X226989144Y-171880172D01*
X226928895Y-171984528D01*
X226928892Y-171984533D01*
X226927778Y-171988692D01*
X226897700Y-172100943D01*
X184531500Y-172100943D01*
X184500308Y-171984535D01*
X184500304Y-171984528D01*
X184440055Y-171880172D01*
X184440049Y-171880164D01*
X184354835Y-171794950D01*
X184354827Y-171794944D01*
X184250471Y-171734695D01*
X184250466Y-171734692D01*
X184211662Y-171724294D01*
X184134057Y-171703500D01*
X184013543Y-171703500D01*
X183955339Y-171719096D01*
X183897133Y-171734692D01*
X183897128Y-171734695D01*
X183792772Y-171794944D01*
X183792764Y-171794950D01*
X183707550Y-171880164D01*
X183707544Y-171880172D01*
X183647295Y-171984528D01*
X183647292Y-171984533D01*
X183646178Y-171988692D01*
X183616100Y-172100943D01*
X119740281Y-172100943D01*
X119740281Y-170934707D01*
X238454081Y-170934707D01*
X238454081Y-171055221D01*
X238474875Y-171132826D01*
X238485273Y-171171630D01*
X238485276Y-171171635D01*
X238545525Y-171275991D01*
X238545529Y-171275996D01*
X238545530Y-171275998D01*
X238630747Y-171361215D01*
X238630749Y-171361216D01*
X238630753Y-171361219D01*
X238670993Y-171384451D01*
X238735116Y-171421472D01*
X238851524Y-171452664D01*
X238851526Y-171452664D01*
X238972036Y-171452664D01*
X238972038Y-171452664D01*
X239088446Y-171421472D01*
X239192815Y-171361215D01*
X239278032Y-171275998D01*
X239338289Y-171171629D01*
X239369481Y-171055221D01*
X239369481Y-170957943D01*
X267613900Y-170957943D01*
X267613900Y-171078457D01*
X267634694Y-171156062D01*
X267645092Y-171194866D01*
X267645095Y-171194871D01*
X267705344Y-171299227D01*
X267705348Y-171299232D01*
X267705349Y-171299234D01*
X267790566Y-171384451D01*
X267790568Y-171384452D01*
X267790572Y-171384455D01*
X267894928Y-171444704D01*
X267894935Y-171444708D01*
X268011343Y-171475900D01*
X268011345Y-171475900D01*
X268131855Y-171475900D01*
X268131857Y-171475900D01*
X268248265Y-171444708D01*
X268352634Y-171384451D01*
X268437851Y-171299234D01*
X268498108Y-171194865D01*
X268529300Y-171078457D01*
X268529300Y-170957943D01*
X268498108Y-170841535D01*
X268484689Y-170818292D01*
X268437855Y-170737172D01*
X268437849Y-170737164D01*
X268352635Y-170651950D01*
X268352627Y-170651944D01*
X268248271Y-170591695D01*
X268248266Y-170591692D01*
X268209462Y-170581294D01*
X268131857Y-170560500D01*
X268011343Y-170560500D01*
X267953139Y-170576096D01*
X267894933Y-170591692D01*
X267894928Y-170591695D01*
X267790572Y-170651944D01*
X267790564Y-170651950D01*
X267705350Y-170737164D01*
X267705344Y-170737172D01*
X267645095Y-170841528D01*
X267645092Y-170841533D01*
X267624297Y-170919140D01*
X267613900Y-170957943D01*
X239369481Y-170957943D01*
X239369481Y-170934707D01*
X239338289Y-170818299D01*
X239291451Y-170737172D01*
X239278036Y-170713936D01*
X239278030Y-170713928D01*
X239192816Y-170628714D01*
X239192808Y-170628708D01*
X239088452Y-170568459D01*
X239088447Y-170568456D01*
X239049643Y-170558058D01*
X238972038Y-170537264D01*
X238851524Y-170537264D01*
X238793320Y-170552860D01*
X238735114Y-170568456D01*
X238735109Y-170568459D01*
X238630753Y-170628708D01*
X238630745Y-170628714D01*
X238545531Y-170713928D01*
X238545525Y-170713936D01*
X238485276Y-170818292D01*
X238485273Y-170818297D01*
X238464478Y-170895904D01*
X238454081Y-170934707D01*
X119740281Y-170934707D01*
X119740281Y-169103743D01*
X250926100Y-169103743D01*
X250926100Y-169224257D01*
X250946894Y-169301862D01*
X250957292Y-169340666D01*
X250957295Y-169340671D01*
X251017544Y-169445027D01*
X251017548Y-169445032D01*
X251017549Y-169445034D01*
X251102766Y-169530251D01*
X251102768Y-169530252D01*
X251102772Y-169530255D01*
X251207128Y-169590504D01*
X251207135Y-169590508D01*
X251323543Y-169621700D01*
X251323545Y-169621700D01*
X251444055Y-169621700D01*
X251444057Y-169621700D01*
X251560465Y-169590508D01*
X251664834Y-169530251D01*
X251750051Y-169445034D01*
X251810308Y-169340665D01*
X251841500Y-169224257D01*
X251841500Y-169103743D01*
X267613900Y-169103743D01*
X267613900Y-169224257D01*
X267634694Y-169301862D01*
X267645092Y-169340666D01*
X267645095Y-169340671D01*
X267705344Y-169445027D01*
X267705348Y-169445032D01*
X267705349Y-169445034D01*
X267790566Y-169530251D01*
X267790568Y-169530252D01*
X267790572Y-169530255D01*
X267894928Y-169590504D01*
X267894935Y-169590508D01*
X268011343Y-169621700D01*
X268011345Y-169621700D01*
X268131855Y-169621700D01*
X268131857Y-169621700D01*
X268248265Y-169590508D01*
X268352634Y-169530251D01*
X268437851Y-169445034D01*
X268498108Y-169340665D01*
X268529300Y-169224257D01*
X268529300Y-169103743D01*
X268498108Y-168987335D01*
X268498104Y-168987328D01*
X268437855Y-168882972D01*
X268437849Y-168882964D01*
X268352635Y-168797750D01*
X268352627Y-168797744D01*
X268248271Y-168737495D01*
X268248266Y-168737492D01*
X268209462Y-168727094D01*
X268131857Y-168706300D01*
X268011343Y-168706300D01*
X267953139Y-168721896D01*
X267894933Y-168737492D01*
X267894928Y-168737495D01*
X267790572Y-168797744D01*
X267790564Y-168797750D01*
X267705350Y-168882964D01*
X267705344Y-168882972D01*
X267645095Y-168987328D01*
X267645092Y-168987333D01*
X267624297Y-169064940D01*
X267613900Y-169103743D01*
X251841500Y-169103743D01*
X251810308Y-168987335D01*
X251810304Y-168987328D01*
X251750055Y-168882972D01*
X251750049Y-168882964D01*
X251664835Y-168797750D01*
X251664827Y-168797744D01*
X251560471Y-168737495D01*
X251560466Y-168737492D01*
X251521662Y-168727094D01*
X251444057Y-168706300D01*
X251323543Y-168706300D01*
X251265339Y-168721896D01*
X251207133Y-168737492D01*
X251207128Y-168737495D01*
X251102772Y-168797744D01*
X251102764Y-168797750D01*
X251017550Y-168882964D01*
X251017544Y-168882972D01*
X250957295Y-168987328D01*
X250957292Y-168987333D01*
X250936497Y-169064940D01*
X250926100Y-169103743D01*
X119740281Y-169103743D01*
X119740281Y-168138543D01*
X237565700Y-168138543D01*
X237565700Y-168259057D01*
X237586494Y-168336662D01*
X237596892Y-168375466D01*
X237596895Y-168375471D01*
X237657144Y-168479827D01*
X237657148Y-168479832D01*
X237657149Y-168479834D01*
X237742366Y-168565051D01*
X237742368Y-168565052D01*
X237742372Y-168565055D01*
X237846728Y-168625304D01*
X237846735Y-168625308D01*
X237963143Y-168656500D01*
X237963145Y-168656500D01*
X238083655Y-168656500D01*
X238083657Y-168656500D01*
X238200065Y-168625308D01*
X238304434Y-168565051D01*
X238389651Y-168479834D01*
X238449908Y-168375465D01*
X238481100Y-168259057D01*
X238481100Y-168138543D01*
X238449908Y-168022135D01*
X238449904Y-168022128D01*
X238389655Y-167917772D01*
X238389649Y-167917764D01*
X238304435Y-167832550D01*
X238304427Y-167832544D01*
X238200071Y-167772295D01*
X238200066Y-167772292D01*
X238161262Y-167761894D01*
X238083657Y-167741100D01*
X237963143Y-167741100D01*
X237904939Y-167756696D01*
X237846733Y-167772292D01*
X237846728Y-167772295D01*
X237742372Y-167832544D01*
X237742364Y-167832550D01*
X237657150Y-167917764D01*
X237657144Y-167917772D01*
X237596895Y-168022128D01*
X237596892Y-168022133D01*
X237576097Y-168099740D01*
X237565700Y-168138543D01*
X119740281Y-168138543D01*
X119740281Y-165547743D01*
X292886900Y-165547743D01*
X292886900Y-165668257D01*
X292907694Y-165745862D01*
X292918092Y-165784666D01*
X292918095Y-165784671D01*
X292978344Y-165889027D01*
X292978348Y-165889032D01*
X292978349Y-165889034D01*
X293063566Y-165974251D01*
X293063568Y-165974252D01*
X293063572Y-165974255D01*
X293167928Y-166034504D01*
X293167935Y-166034508D01*
X293284343Y-166065700D01*
X293284345Y-166065700D01*
X293404855Y-166065700D01*
X293404857Y-166065700D01*
X293521265Y-166034508D01*
X293625634Y-165974251D01*
X293710851Y-165889034D01*
X293771108Y-165784665D01*
X293802300Y-165668257D01*
X293802300Y-165547743D01*
X293771108Y-165431335D01*
X293771104Y-165431328D01*
X293710855Y-165326972D01*
X293710849Y-165326964D01*
X293625635Y-165241750D01*
X293625627Y-165241744D01*
X293521271Y-165181495D01*
X293521266Y-165181492D01*
X293482462Y-165171094D01*
X293404857Y-165150300D01*
X293284343Y-165150300D01*
X293226139Y-165165896D01*
X293167933Y-165181492D01*
X293167928Y-165181495D01*
X293063572Y-165241744D01*
X293063564Y-165241750D01*
X292978350Y-165326964D01*
X292978344Y-165326972D01*
X292918095Y-165431328D01*
X292918092Y-165431333D01*
X292897297Y-165508940D01*
X292886900Y-165547743D01*
X119740281Y-165547743D01*
X119740281Y-164455543D01*
X242950500Y-164455543D01*
X242950500Y-164576057D01*
X242971294Y-164653662D01*
X242981692Y-164692466D01*
X242981695Y-164692471D01*
X243041944Y-164796827D01*
X243041948Y-164796832D01*
X243041949Y-164796834D01*
X243127166Y-164882051D01*
X243127168Y-164882052D01*
X243127172Y-164882055D01*
X243231528Y-164942304D01*
X243231535Y-164942308D01*
X243347943Y-164973500D01*
X243347945Y-164973500D01*
X243468455Y-164973500D01*
X243468457Y-164973500D01*
X243584865Y-164942308D01*
X243689234Y-164882051D01*
X243774451Y-164796834D01*
X243834708Y-164692465D01*
X243865900Y-164576057D01*
X243865900Y-164455543D01*
X243834708Y-164339135D01*
X243791003Y-164263435D01*
X243774455Y-164234772D01*
X243774449Y-164234764D01*
X243689235Y-164149550D01*
X243689227Y-164149544D01*
X243584871Y-164089295D01*
X243584866Y-164089292D01*
X243546062Y-164078894D01*
X243468457Y-164058100D01*
X243347943Y-164058100D01*
X243289739Y-164073696D01*
X243231533Y-164089292D01*
X243231528Y-164089295D01*
X243127172Y-164149544D01*
X243127164Y-164149550D01*
X243041950Y-164234764D01*
X243041944Y-164234772D01*
X242981695Y-164339128D01*
X242981692Y-164339133D01*
X242979142Y-164348651D01*
X242950500Y-164455543D01*
X119740281Y-164455543D01*
X119740281Y-163922143D01*
X285571700Y-163922143D01*
X285571700Y-164042657D01*
X285575838Y-164058100D01*
X285602892Y-164159066D01*
X285602895Y-164159071D01*
X285663144Y-164263427D01*
X285663148Y-164263432D01*
X285663149Y-164263434D01*
X285748366Y-164348651D01*
X285748368Y-164348652D01*
X285748372Y-164348655D01*
X285852728Y-164408904D01*
X285852735Y-164408908D01*
X285969143Y-164440100D01*
X285969145Y-164440100D01*
X286089655Y-164440100D01*
X286089657Y-164440100D01*
X286206065Y-164408908D01*
X286310434Y-164348651D01*
X286395651Y-164263434D01*
X286455908Y-164159065D01*
X286487100Y-164042657D01*
X286487100Y-163922143D01*
X286455908Y-163805735D01*
X286455904Y-163805728D01*
X286395655Y-163701372D01*
X286395649Y-163701364D01*
X286310435Y-163616150D01*
X286310427Y-163616144D01*
X286206071Y-163555895D01*
X286206066Y-163555892D01*
X286167262Y-163545494D01*
X286089657Y-163524700D01*
X285969143Y-163524700D01*
X285910939Y-163540296D01*
X285852733Y-163555892D01*
X285852728Y-163555895D01*
X285748372Y-163616144D01*
X285748364Y-163616150D01*
X285663150Y-163701364D01*
X285663144Y-163701372D01*
X285602895Y-163805728D01*
X285602892Y-163805733D01*
X285582097Y-163883340D01*
X285571700Y-163922143D01*
X119740281Y-163922143D01*
X119740281Y-157419743D01*
X137159500Y-157419743D01*
X137159500Y-157540257D01*
X137177080Y-157605865D01*
X137190692Y-157656666D01*
X137190695Y-157656671D01*
X137250944Y-157761027D01*
X137250948Y-157761032D01*
X137250949Y-157761034D01*
X137336166Y-157846251D01*
X137336168Y-157846252D01*
X137336172Y-157846255D01*
X137440528Y-157906504D01*
X137440535Y-157906508D01*
X137556943Y-157937700D01*
X137556945Y-157937700D01*
X137677455Y-157937700D01*
X137677457Y-157937700D01*
X137793865Y-157906508D01*
X137898234Y-157846251D01*
X137983451Y-157761034D01*
X138043708Y-157656665D01*
X138074900Y-157540257D01*
X138074900Y-157419743D01*
X138061288Y-157368943D01*
X141452100Y-157368943D01*
X141452100Y-157489457D01*
X141458906Y-157514857D01*
X141483292Y-157605866D01*
X141483295Y-157605871D01*
X141543544Y-157710227D01*
X141543548Y-157710232D01*
X141543549Y-157710234D01*
X141628766Y-157795451D01*
X141628768Y-157795452D01*
X141628772Y-157795455D01*
X141672760Y-157820851D01*
X141733135Y-157855708D01*
X141849543Y-157886900D01*
X141849545Y-157886900D01*
X141970055Y-157886900D01*
X141970057Y-157886900D01*
X142086465Y-157855708D01*
X142190834Y-157795451D01*
X142276051Y-157710234D01*
X142336308Y-157605865D01*
X142367500Y-157489457D01*
X142367500Y-157394343D01*
X150672300Y-157394343D01*
X150672300Y-157514857D01*
X150679106Y-157540257D01*
X150703492Y-157631266D01*
X150703495Y-157631271D01*
X150763744Y-157735627D01*
X150763748Y-157735632D01*
X150763749Y-157735634D01*
X150848966Y-157820851D01*
X150848968Y-157820852D01*
X150848972Y-157820855D01*
X150953328Y-157881104D01*
X150953335Y-157881108D01*
X151069743Y-157912300D01*
X151069745Y-157912300D01*
X151190255Y-157912300D01*
X151190257Y-157912300D01*
X151306665Y-157881108D01*
X151411034Y-157820851D01*
X151496251Y-157735634D01*
X151556508Y-157631265D01*
X151587700Y-157514857D01*
X151587700Y-157394343D01*
X151580894Y-157368943D01*
X155091900Y-157368943D01*
X155091900Y-157489457D01*
X155098706Y-157514857D01*
X155123092Y-157605866D01*
X155123095Y-157605871D01*
X155183344Y-157710227D01*
X155183348Y-157710232D01*
X155183349Y-157710234D01*
X155268566Y-157795451D01*
X155268568Y-157795452D01*
X155268572Y-157795455D01*
X155312560Y-157820851D01*
X155372935Y-157855708D01*
X155489343Y-157886900D01*
X155489345Y-157886900D01*
X155609855Y-157886900D01*
X155609857Y-157886900D01*
X155726265Y-157855708D01*
X155830634Y-157795451D01*
X155915851Y-157710234D01*
X155976108Y-157605865D01*
X156007300Y-157489457D01*
X156007300Y-157368943D01*
X155976108Y-157252535D01*
X155930516Y-157173566D01*
X155915855Y-157148172D01*
X155915849Y-157148164D01*
X155830635Y-157062950D01*
X155830627Y-157062944D01*
X155726271Y-157002695D01*
X155726266Y-157002692D01*
X155687462Y-156992294D01*
X155609857Y-156971500D01*
X155489343Y-156971500D01*
X155431139Y-156987096D01*
X155372933Y-157002692D01*
X155372928Y-157002695D01*
X155268572Y-157062944D01*
X155268564Y-157062950D01*
X155183350Y-157148164D01*
X155183344Y-157148172D01*
X155123095Y-157252528D01*
X155123092Y-157252533D01*
X155116286Y-157277935D01*
X155091900Y-157368943D01*
X151580894Y-157368943D01*
X151556508Y-157277935D01*
X151556504Y-157277928D01*
X151496255Y-157173572D01*
X151496249Y-157173564D01*
X151411035Y-157088350D01*
X151411027Y-157088344D01*
X151306671Y-157028095D01*
X151306666Y-157028092D01*
X151267862Y-157017694D01*
X151190257Y-156996900D01*
X151069743Y-156996900D01*
X151011539Y-157012496D01*
X150953333Y-157028092D01*
X150953328Y-157028095D01*
X150848972Y-157088344D01*
X150848964Y-157088350D01*
X150763750Y-157173564D01*
X150763744Y-157173572D01*
X150703495Y-157277928D01*
X150703492Y-157277933D01*
X150696686Y-157303335D01*
X150672300Y-157394343D01*
X142367500Y-157394343D01*
X142367500Y-157368943D01*
X142336308Y-157252535D01*
X142290716Y-157173566D01*
X142276055Y-157148172D01*
X142276049Y-157148164D01*
X142190835Y-157062950D01*
X142190827Y-157062944D01*
X142086471Y-157002695D01*
X142086466Y-157002692D01*
X142047662Y-156992294D01*
X141970057Y-156971500D01*
X141849543Y-156971500D01*
X141791339Y-156987096D01*
X141733133Y-157002692D01*
X141733128Y-157002695D01*
X141628772Y-157062944D01*
X141628764Y-157062950D01*
X141543550Y-157148164D01*
X141543544Y-157148172D01*
X141483295Y-157252528D01*
X141483292Y-157252533D01*
X141476486Y-157277935D01*
X141452100Y-157368943D01*
X138061288Y-157368943D01*
X138043708Y-157303335D01*
X138043704Y-157303328D01*
X137983455Y-157198972D01*
X137983449Y-157198964D01*
X137898235Y-157113750D01*
X137898227Y-157113744D01*
X137793871Y-157053495D01*
X137793866Y-157053492D01*
X137755062Y-157043094D01*
X137677457Y-157022300D01*
X137556943Y-157022300D01*
X137498739Y-157037896D01*
X137440533Y-157053492D01*
X137440528Y-157053495D01*
X137336172Y-157113744D01*
X137336164Y-157113750D01*
X137250950Y-157198964D01*
X137250944Y-157198972D01*
X137190695Y-157303328D01*
X137190692Y-157303333D01*
X137173112Y-157368943D01*
X137159500Y-157419743D01*
X119740281Y-157419743D01*
X119740281Y-154828943D01*
X170941500Y-154828943D01*
X170941500Y-154949457D01*
X170950150Y-154981738D01*
X170972692Y-155065866D01*
X170972695Y-155065871D01*
X171032944Y-155170227D01*
X171032948Y-155170232D01*
X171032949Y-155170234D01*
X171118166Y-155255451D01*
X171118168Y-155255452D01*
X171118172Y-155255455D01*
X171222528Y-155315704D01*
X171222535Y-155315708D01*
X171338943Y-155346900D01*
X171338945Y-155346900D01*
X171459455Y-155346900D01*
X171459457Y-155346900D01*
X171575865Y-155315708D01*
X171680234Y-155255451D01*
X171765451Y-155170234D01*
X171825708Y-155065865D01*
X171856900Y-154949457D01*
X171856900Y-154861224D01*
X183569481Y-154861224D01*
X183569481Y-154981738D01*
X183590275Y-155059343D01*
X183600673Y-155098147D01*
X183600676Y-155098152D01*
X183660925Y-155202508D01*
X183660929Y-155202513D01*
X183660930Y-155202515D01*
X183746147Y-155287732D01*
X183746149Y-155287733D01*
X183746153Y-155287736D01*
X183848630Y-155346900D01*
X183850516Y-155347989D01*
X183966924Y-155379181D01*
X183966926Y-155379181D01*
X184087436Y-155379181D01*
X184087438Y-155379181D01*
X184203846Y-155347989D01*
X184308215Y-155287732D01*
X184393432Y-155202515D01*
X184453689Y-155098146D01*
X184484881Y-154981738D01*
X184484881Y-154861224D01*
X184484880Y-154861222D01*
X184484880Y-154861218D01*
X184483166Y-154854821D01*
X184483162Y-154854810D01*
X184476740Y-154830843D01*
X195020700Y-154830843D01*
X195020700Y-154951357D01*
X195028841Y-154981738D01*
X195051892Y-155067766D01*
X195051895Y-155067771D01*
X195112144Y-155172127D01*
X195112148Y-155172132D01*
X195112149Y-155172134D01*
X195197366Y-155257351D01*
X195197368Y-155257352D01*
X195197372Y-155257355D01*
X195298437Y-155315704D01*
X195301735Y-155317608D01*
X195418143Y-155348800D01*
X195418145Y-155348800D01*
X195538655Y-155348800D01*
X195538657Y-155348800D01*
X195655065Y-155317608D01*
X195759434Y-155257351D01*
X195844651Y-155172134D01*
X195904908Y-155067765D01*
X195936100Y-154951357D01*
X195936100Y-154836456D01*
X222309281Y-154836456D01*
X222309281Y-154955705D01*
X222340145Y-155070895D01*
X222369958Y-155122531D01*
X222399771Y-155174168D01*
X222484094Y-155258491D01*
X222573529Y-155310127D01*
X222586484Y-155317607D01*
X222587368Y-155318117D01*
X222702556Y-155348981D01*
X222702558Y-155348981D01*
X222821804Y-155348981D01*
X222821806Y-155348981D01*
X222936994Y-155318117D01*
X223040268Y-155258491D01*
X223124591Y-155174168D01*
X223184217Y-155070894D01*
X223215081Y-154955706D01*
X223215081Y-154836456D01*
X223184217Y-154721268D01*
X223124591Y-154617994D01*
X223040268Y-154533671D01*
X222973242Y-154494973D01*
X222936995Y-154474045D01*
X222879400Y-154458613D01*
X222821806Y-154443181D01*
X222702556Y-154443181D01*
X222587366Y-154474045D01*
X222484094Y-154533671D01*
X222484091Y-154533673D01*
X222399773Y-154617991D01*
X222399771Y-154617994D01*
X222340145Y-154721266D01*
X222309281Y-154836456D01*
X195936100Y-154836456D01*
X195936100Y-154830843D01*
X195904908Y-154714435D01*
X195862195Y-154640453D01*
X195844655Y-154610072D01*
X195844649Y-154610064D01*
X195759435Y-154524850D01*
X195759427Y-154524844D01*
X195655071Y-154464595D01*
X195655066Y-154464592D01*
X195616262Y-154454194D01*
X195538657Y-154433400D01*
X195418143Y-154433400D01*
X195359939Y-154448996D01*
X195301733Y-154464592D01*
X195301728Y-154464595D01*
X195197372Y-154524844D01*
X195197364Y-154524850D01*
X195112150Y-154610064D01*
X195112144Y-154610072D01*
X195051895Y-154714428D01*
X195051892Y-154714433D01*
X195043751Y-154744816D01*
X195020700Y-154830843D01*
X184476740Y-154830843D01*
X184453689Y-154744816D01*
X184435048Y-154712528D01*
X184393436Y-154640453D01*
X184393430Y-154640445D01*
X184308216Y-154555231D01*
X184308208Y-154555225D01*
X184203852Y-154494976D01*
X184203847Y-154494973D01*
X184165043Y-154484575D01*
X184087438Y-154463781D01*
X183966924Y-154463781D01*
X183908720Y-154479377D01*
X183850514Y-154494973D01*
X183850509Y-154494976D01*
X183746153Y-154555225D01*
X183746145Y-154555231D01*
X183660931Y-154640445D01*
X183660925Y-154640453D01*
X183600676Y-154744809D01*
X183600673Y-154744814D01*
X183579878Y-154822421D01*
X183569481Y-154861224D01*
X171856900Y-154861224D01*
X171856900Y-154828943D01*
X171825708Y-154712535D01*
X171784092Y-154640453D01*
X171765455Y-154608172D01*
X171765449Y-154608164D01*
X171680235Y-154522950D01*
X171680227Y-154522944D01*
X171575871Y-154462695D01*
X171575866Y-154462692D01*
X171537062Y-154452294D01*
X171459457Y-154431500D01*
X171338943Y-154431500D01*
X171295350Y-154443181D01*
X171222533Y-154462692D01*
X171222528Y-154462695D01*
X171118172Y-154522944D01*
X171118164Y-154522950D01*
X171032950Y-154608164D01*
X171032944Y-154608172D01*
X170972695Y-154712528D01*
X170972692Y-154712533D01*
X170964042Y-154744816D01*
X170941500Y-154828943D01*
X119740281Y-154828943D01*
X119740281Y-153609743D01*
X205485500Y-153609743D01*
X205485500Y-153730257D01*
X205496882Y-153772733D01*
X205516692Y-153846666D01*
X205516695Y-153846671D01*
X205576944Y-153951027D01*
X205576948Y-153951032D01*
X205576949Y-153951034D01*
X205662166Y-154036251D01*
X205662168Y-154036252D01*
X205662172Y-154036255D01*
X205729742Y-154075266D01*
X205766535Y-154096508D01*
X205882943Y-154127700D01*
X205882945Y-154127700D01*
X206003455Y-154127700D01*
X206003457Y-154127700D01*
X206119865Y-154096508D01*
X206224234Y-154036251D01*
X206309451Y-153951034D01*
X206369708Y-153846665D01*
X206385550Y-153787543D01*
X218388700Y-153787543D01*
X218388700Y-153908057D01*
X218400214Y-153951027D01*
X218419892Y-154024466D01*
X218419895Y-154024471D01*
X218480144Y-154128827D01*
X218480148Y-154128832D01*
X218480149Y-154128834D01*
X218565366Y-154214051D01*
X218565368Y-154214052D01*
X218565372Y-154214055D01*
X218653351Y-154264849D01*
X218669735Y-154274308D01*
X218786143Y-154305500D01*
X218786145Y-154305500D01*
X218906655Y-154305500D01*
X218906657Y-154305500D01*
X219023065Y-154274308D01*
X219127434Y-154214051D01*
X219212651Y-154128834D01*
X219272908Y-154024465D01*
X219304100Y-153908057D01*
X219304100Y-153838343D01*
X249681500Y-153838343D01*
X249681500Y-153958857D01*
X249688306Y-153984257D01*
X249712692Y-154075266D01*
X249712695Y-154075271D01*
X249772944Y-154179627D01*
X249772948Y-154179632D01*
X249772949Y-154179634D01*
X249858166Y-154264851D01*
X249858168Y-154264852D01*
X249858172Y-154264855D01*
X249946151Y-154315649D01*
X249962535Y-154325108D01*
X250078943Y-154356300D01*
X250078945Y-154356300D01*
X250199455Y-154356300D01*
X250199457Y-154356300D01*
X250315865Y-154325108D01*
X250420234Y-154264851D01*
X250505451Y-154179634D01*
X250565708Y-154075265D01*
X250596900Y-153958857D01*
X250596900Y-153889143D01*
X250900700Y-153889143D01*
X250900700Y-154009657D01*
X250907826Y-154036251D01*
X250931892Y-154126066D01*
X250931895Y-154126071D01*
X250992144Y-154230427D01*
X250992148Y-154230432D01*
X250992149Y-154230434D01*
X251077366Y-154315651D01*
X251077368Y-154315652D01*
X251077372Y-154315655D01*
X251181728Y-154375904D01*
X251181735Y-154375908D01*
X251298143Y-154407100D01*
X251298145Y-154407100D01*
X251418655Y-154407100D01*
X251418657Y-154407100D01*
X251535065Y-154375908D01*
X251639434Y-154315651D01*
X251724651Y-154230434D01*
X251784908Y-154126065D01*
X251816100Y-154009657D01*
X251816100Y-153889143D01*
X251809294Y-153863743D01*
X252983500Y-153863743D01*
X252983500Y-153984257D01*
X252997432Y-154036251D01*
X253014692Y-154100666D01*
X253014695Y-154100671D01*
X253074944Y-154205027D01*
X253074948Y-154205032D01*
X253074949Y-154205034D01*
X253160166Y-154290251D01*
X253160168Y-154290252D01*
X253160172Y-154290255D01*
X253264528Y-154350504D01*
X253264535Y-154350508D01*
X253380943Y-154381700D01*
X253380945Y-154381700D01*
X253501455Y-154381700D01*
X253501457Y-154381700D01*
X253617865Y-154350508D01*
X253722234Y-154290251D01*
X253807451Y-154205034D01*
X253867708Y-154100665D01*
X253898900Y-153984257D01*
X253898900Y-153863743D01*
X253867708Y-153747335D01*
X253832264Y-153685943D01*
X265302500Y-153685943D01*
X265302500Y-153806457D01*
X265313274Y-153846665D01*
X265333692Y-153922866D01*
X265333695Y-153922871D01*
X265393944Y-154027227D01*
X265393948Y-154027232D01*
X265393949Y-154027234D01*
X265479166Y-154112451D01*
X265479168Y-154112452D01*
X265479172Y-154112455D01*
X265583528Y-154172704D01*
X265583535Y-154172708D01*
X265699943Y-154203900D01*
X265699945Y-154203900D01*
X265820455Y-154203900D01*
X265820457Y-154203900D01*
X265936865Y-154172708D01*
X266041234Y-154112451D01*
X266126451Y-154027234D01*
X266186708Y-153922865D01*
X266217900Y-153806457D01*
X266217900Y-153685943D01*
X266211094Y-153660543D01*
X267385300Y-153660543D01*
X267385300Y-153781057D01*
X267392106Y-153806457D01*
X267416492Y-153897466D01*
X267416495Y-153897471D01*
X267476744Y-154001827D01*
X267476748Y-154001832D01*
X267476749Y-154001834D01*
X267561966Y-154087051D01*
X267561968Y-154087052D01*
X267561972Y-154087055D01*
X267666328Y-154147304D01*
X267666335Y-154147308D01*
X267782743Y-154178500D01*
X267782745Y-154178500D01*
X267903255Y-154178500D01*
X267903257Y-154178500D01*
X268019665Y-154147308D01*
X268124034Y-154087051D01*
X268209251Y-154001834D01*
X268269508Y-153897465D01*
X268300700Y-153781057D01*
X268300700Y-153660543D01*
X269925300Y-153660543D01*
X269925300Y-153781057D01*
X269932106Y-153806457D01*
X269956492Y-153897466D01*
X269956495Y-153897471D01*
X270016744Y-154001827D01*
X270016748Y-154001832D01*
X270016749Y-154001834D01*
X270101966Y-154087051D01*
X270101968Y-154087052D01*
X270101972Y-154087055D01*
X270206328Y-154147304D01*
X270206335Y-154147308D01*
X270322743Y-154178500D01*
X270322745Y-154178500D01*
X270443255Y-154178500D01*
X270443257Y-154178500D01*
X270559665Y-154147308D01*
X270664034Y-154087051D01*
X270749251Y-154001834D01*
X270809508Y-153897465D01*
X270840700Y-153781057D01*
X270840700Y-153660543D01*
X288645100Y-153660543D01*
X288645100Y-153781057D01*
X288651906Y-153806457D01*
X288676292Y-153897466D01*
X288676295Y-153897471D01*
X288736544Y-154001827D01*
X288736548Y-154001832D01*
X288736549Y-154001834D01*
X288821766Y-154087051D01*
X288821768Y-154087052D01*
X288821772Y-154087055D01*
X288926128Y-154147304D01*
X288926135Y-154147308D01*
X289042543Y-154178500D01*
X289042545Y-154178500D01*
X289163055Y-154178500D01*
X289163057Y-154178500D01*
X289279465Y-154147308D01*
X289383834Y-154087051D01*
X289469051Y-154001834D01*
X289529308Y-153897465D01*
X289560500Y-153781057D01*
X289560500Y-153660543D01*
X289529308Y-153544135D01*
X289522504Y-153532350D01*
X289469055Y-153439772D01*
X289469049Y-153439764D01*
X289383835Y-153354550D01*
X289383827Y-153354544D01*
X289279471Y-153294295D01*
X289279466Y-153294292D01*
X289240662Y-153283894D01*
X289163057Y-153263100D01*
X289042543Y-153263100D01*
X288984339Y-153278696D01*
X288926133Y-153294292D01*
X288926128Y-153294295D01*
X288821772Y-153354544D01*
X288821764Y-153354550D01*
X288736550Y-153439764D01*
X288736544Y-153439772D01*
X288676295Y-153544128D01*
X288676292Y-153544133D01*
X288669486Y-153569535D01*
X288645100Y-153660543D01*
X270840700Y-153660543D01*
X270809508Y-153544135D01*
X270802704Y-153532350D01*
X270749255Y-153439772D01*
X270749249Y-153439764D01*
X270664035Y-153354550D01*
X270664027Y-153354544D01*
X270559671Y-153294295D01*
X270559666Y-153294292D01*
X270520862Y-153283894D01*
X270443257Y-153263100D01*
X270322743Y-153263100D01*
X270264539Y-153278696D01*
X270206333Y-153294292D01*
X270206328Y-153294295D01*
X270101972Y-153354544D01*
X270101964Y-153354550D01*
X270016750Y-153439764D01*
X270016744Y-153439772D01*
X269956495Y-153544128D01*
X269956492Y-153544133D01*
X269949686Y-153569535D01*
X269925300Y-153660543D01*
X268300700Y-153660543D01*
X268269508Y-153544135D01*
X268262704Y-153532350D01*
X268209255Y-153439772D01*
X268209249Y-153439764D01*
X268124035Y-153354550D01*
X268124027Y-153354544D01*
X268019671Y-153294295D01*
X268019666Y-153294292D01*
X267980862Y-153283894D01*
X267903257Y-153263100D01*
X267782743Y-153263100D01*
X267724539Y-153278696D01*
X267666333Y-153294292D01*
X267666328Y-153294295D01*
X267561972Y-153354544D01*
X267561964Y-153354550D01*
X267476750Y-153439764D01*
X267476744Y-153439772D01*
X267416495Y-153544128D01*
X267416492Y-153544133D01*
X267409686Y-153569535D01*
X267385300Y-153660543D01*
X266211094Y-153660543D01*
X266186708Y-153569535D01*
X266179904Y-153557750D01*
X266126455Y-153465172D01*
X266126449Y-153465164D01*
X266041235Y-153379950D01*
X266041227Y-153379944D01*
X265936871Y-153319695D01*
X265936866Y-153319692D01*
X265898062Y-153309294D01*
X265820457Y-153288500D01*
X265699943Y-153288500D01*
X265643053Y-153303744D01*
X265583533Y-153319692D01*
X265583528Y-153319695D01*
X265479172Y-153379944D01*
X265479164Y-153379950D01*
X265393950Y-153465164D01*
X265393944Y-153465172D01*
X265333695Y-153569528D01*
X265333692Y-153569533D01*
X265322918Y-153609743D01*
X265302500Y-153685943D01*
X253832264Y-153685943D01*
X253807451Y-153642966D01*
X253722234Y-153557749D01*
X253722232Y-153557748D01*
X253722227Y-153557744D01*
X253617871Y-153497495D01*
X253617866Y-153497492D01*
X253579062Y-153487094D01*
X253501457Y-153466300D01*
X253380943Y-153466300D01*
X253324053Y-153481544D01*
X253264533Y-153497492D01*
X253264528Y-153497495D01*
X253160172Y-153557744D01*
X253160164Y-153557750D01*
X253074950Y-153642964D01*
X253074944Y-153642972D01*
X253014695Y-153747328D01*
X253014692Y-153747333D01*
X252998850Y-153806457D01*
X252983500Y-153863743D01*
X251809294Y-153863743D01*
X251784908Y-153772735D01*
X251784904Y-153772728D01*
X251724655Y-153668372D01*
X251724649Y-153668364D01*
X251639435Y-153583150D01*
X251639427Y-153583144D01*
X251535071Y-153522895D01*
X251535066Y-153522892D01*
X251496262Y-153512494D01*
X251418657Y-153491700D01*
X251298143Y-153491700D01*
X251239939Y-153507296D01*
X251181733Y-153522892D01*
X251181728Y-153522895D01*
X251077372Y-153583144D01*
X251077364Y-153583150D01*
X250992150Y-153668364D01*
X250992144Y-153668372D01*
X250931895Y-153772728D01*
X250931892Y-153772733D01*
X250922856Y-153806457D01*
X250900700Y-153889143D01*
X250596900Y-153889143D01*
X250596900Y-153838343D01*
X250565708Y-153721935D01*
X250565704Y-153721928D01*
X250505455Y-153617572D01*
X250505449Y-153617564D01*
X250420235Y-153532350D01*
X250420227Y-153532344D01*
X250315871Y-153472095D01*
X250315866Y-153472092D01*
X250277062Y-153461694D01*
X250199457Y-153440900D01*
X250078943Y-153440900D01*
X250020739Y-153456496D01*
X249962533Y-153472092D01*
X249962528Y-153472095D01*
X249858172Y-153532344D01*
X249858164Y-153532350D01*
X249772950Y-153617564D01*
X249772944Y-153617572D01*
X249712695Y-153721928D01*
X249712692Y-153721933D01*
X249696850Y-153781057D01*
X249681500Y-153838343D01*
X219304100Y-153838343D01*
X219304100Y-153787543D01*
X219272908Y-153671135D01*
X219237464Y-153609743D01*
X219212655Y-153566772D01*
X219212649Y-153566764D01*
X219127435Y-153481550D01*
X219127427Y-153481544D01*
X219023071Y-153421295D01*
X219023066Y-153421292D01*
X218984262Y-153410894D01*
X218906657Y-153390100D01*
X218786143Y-153390100D01*
X218727939Y-153405696D01*
X218669733Y-153421292D01*
X218669728Y-153421295D01*
X218565372Y-153481544D01*
X218565364Y-153481550D01*
X218480150Y-153566764D01*
X218480144Y-153566772D01*
X218419895Y-153671128D01*
X218419892Y-153671133D01*
X218404050Y-153730256D01*
X218388700Y-153787543D01*
X206385550Y-153787543D01*
X206400900Y-153730257D01*
X206400900Y-153609743D01*
X206369708Y-153493335D01*
X206362904Y-153481550D01*
X206309455Y-153388972D01*
X206309449Y-153388964D01*
X206224235Y-153303750D01*
X206224227Y-153303744D01*
X206119871Y-153243495D01*
X206119866Y-153243492D01*
X206081062Y-153233094D01*
X206003457Y-153212300D01*
X205882943Y-153212300D01*
X205824739Y-153227896D01*
X205766533Y-153243492D01*
X205766528Y-153243495D01*
X205662172Y-153303744D01*
X205662164Y-153303750D01*
X205576950Y-153388964D01*
X205576944Y-153388972D01*
X205516695Y-153493328D01*
X205516692Y-153493333D01*
X205515578Y-153497492D01*
X205485500Y-153609743D01*
X119740281Y-153609743D01*
X119740281Y-151882543D01*
X141934700Y-151882543D01*
X141934700Y-152003057D01*
X141946082Y-152045533D01*
X141965892Y-152119466D01*
X141965895Y-152119471D01*
X142026144Y-152223827D01*
X142026148Y-152223832D01*
X142026149Y-152223834D01*
X142111366Y-152309051D01*
X142111368Y-152309052D01*
X142111372Y-152309055D01*
X142215728Y-152369304D01*
X142215735Y-152369308D01*
X142332143Y-152400500D01*
X142332145Y-152400500D01*
X142452655Y-152400500D01*
X142452657Y-152400500D01*
X142569065Y-152369308D01*
X142673434Y-152309051D01*
X142758651Y-152223834D01*
X142818908Y-152119465D01*
X142850100Y-152003057D01*
X142850100Y-151882543D01*
X155396700Y-151882543D01*
X155396700Y-152003057D01*
X155408082Y-152045533D01*
X155427892Y-152119466D01*
X155427895Y-152119471D01*
X155488144Y-152223827D01*
X155488148Y-152223832D01*
X155488149Y-152223834D01*
X155573366Y-152309051D01*
X155573368Y-152309052D01*
X155573372Y-152309055D01*
X155677728Y-152369304D01*
X155677735Y-152369308D01*
X155794143Y-152400500D01*
X155794145Y-152400500D01*
X155914655Y-152400500D01*
X155914657Y-152400500D01*
X156031065Y-152369308D01*
X156135434Y-152309051D01*
X156220651Y-152223834D01*
X156256384Y-152161943D01*
X244931700Y-152161943D01*
X244931700Y-152282457D01*
X244938826Y-152309051D01*
X244962892Y-152398866D01*
X244962895Y-152398871D01*
X245023144Y-152503227D01*
X245023148Y-152503232D01*
X245023149Y-152503234D01*
X245108366Y-152588451D01*
X245108368Y-152588452D01*
X245108372Y-152588455D01*
X245212728Y-152648704D01*
X245212735Y-152648708D01*
X245329143Y-152679900D01*
X245329145Y-152679900D01*
X245449655Y-152679900D01*
X245449657Y-152679900D01*
X245566065Y-152648708D01*
X245670434Y-152588451D01*
X245755651Y-152503234D01*
X245815908Y-152398865D01*
X245847100Y-152282457D01*
X245847100Y-152161943D01*
X245815908Y-152045535D01*
X245791384Y-152003057D01*
X245755655Y-151941172D01*
X245755649Y-151941164D01*
X245670435Y-151855950D01*
X245670427Y-151855944D01*
X245566071Y-151795695D01*
X245566066Y-151795692D01*
X245527262Y-151785294D01*
X245449657Y-151764500D01*
X245329143Y-151764500D01*
X245270939Y-151780096D01*
X245212733Y-151795692D01*
X245212728Y-151795695D01*
X245108372Y-151855944D01*
X245108364Y-151855950D01*
X245023150Y-151941164D01*
X245023144Y-151941172D01*
X244962895Y-152045528D01*
X244962892Y-152045533D01*
X244943082Y-152119465D01*
X244931700Y-152161943D01*
X156256384Y-152161943D01*
X156280908Y-152119465D01*
X156312100Y-152003057D01*
X156312100Y-151882543D01*
X156280908Y-151766135D01*
X156279964Y-151764500D01*
X156220655Y-151661772D01*
X156220649Y-151661764D01*
X156135435Y-151576550D01*
X156135427Y-151576544D01*
X156031071Y-151516295D01*
X156031066Y-151516292D01*
X155992262Y-151505894D01*
X155914657Y-151485100D01*
X155794143Y-151485100D01*
X155735939Y-151500696D01*
X155677733Y-151516292D01*
X155677728Y-151516295D01*
X155573372Y-151576544D01*
X155573364Y-151576550D01*
X155488150Y-151661764D01*
X155488144Y-151661772D01*
X155427895Y-151766128D01*
X155427892Y-151766133D01*
X155419972Y-151795692D01*
X155396700Y-151882543D01*
X142850100Y-151882543D01*
X142818908Y-151766135D01*
X142817964Y-151764500D01*
X142758655Y-151661772D01*
X142758649Y-151661764D01*
X142673435Y-151576550D01*
X142673427Y-151576544D01*
X142569071Y-151516295D01*
X142569066Y-151516292D01*
X142530262Y-151505894D01*
X142452657Y-151485100D01*
X142332143Y-151485100D01*
X142273939Y-151500696D01*
X142215733Y-151516292D01*
X142215728Y-151516295D01*
X142111372Y-151576544D01*
X142111364Y-151576550D01*
X142026150Y-151661764D01*
X142026144Y-151661772D01*
X141965895Y-151766128D01*
X141965892Y-151766133D01*
X141957972Y-151795692D01*
X141934700Y-151882543D01*
X119740281Y-151882543D01*
X119740281Y-149342543D01*
X255218700Y-149342543D01*
X255218700Y-149463057D01*
X255239494Y-149540662D01*
X255249892Y-149579466D01*
X255249895Y-149579471D01*
X255310144Y-149683827D01*
X255310148Y-149683832D01*
X255310149Y-149683834D01*
X255395366Y-149769051D01*
X255395368Y-149769052D01*
X255395372Y-149769055D01*
X255499728Y-149829304D01*
X255499735Y-149829308D01*
X255616143Y-149860500D01*
X255616145Y-149860500D01*
X255736655Y-149860500D01*
X255736657Y-149860500D01*
X255853065Y-149829308D01*
X255957434Y-149769051D01*
X256042651Y-149683834D01*
X256093048Y-149596543D01*
X263168900Y-149596543D01*
X263168900Y-149717057D01*
X263182832Y-149769051D01*
X263200092Y-149833466D01*
X263200095Y-149833471D01*
X263260344Y-149937827D01*
X263260348Y-149937832D01*
X263260349Y-149937834D01*
X263345566Y-150023051D01*
X263345568Y-150023052D01*
X263345572Y-150023055D01*
X263449928Y-150083304D01*
X263449935Y-150083308D01*
X263566343Y-150114500D01*
X263566345Y-150114500D01*
X263686855Y-150114500D01*
X263686857Y-150114500D01*
X263803265Y-150083308D01*
X263907634Y-150023051D01*
X263992851Y-149937834D01*
X264053108Y-149833465D01*
X264084300Y-149717057D01*
X264084300Y-149596543D01*
X264053108Y-149480135D01*
X264043247Y-149463055D01*
X263992855Y-149375772D01*
X263992849Y-149375764D01*
X263907635Y-149290550D01*
X263907627Y-149290544D01*
X263803271Y-149230295D01*
X263803266Y-149230292D01*
X263764462Y-149219894D01*
X263686857Y-149199100D01*
X263566343Y-149199100D01*
X263508139Y-149214696D01*
X263449933Y-149230292D01*
X263449928Y-149230295D01*
X263345572Y-149290544D01*
X263345564Y-149290550D01*
X263260350Y-149375764D01*
X263260344Y-149375772D01*
X263200095Y-149480128D01*
X263200092Y-149480133D01*
X263179678Y-149556321D01*
X263168900Y-149596543D01*
X256093048Y-149596543D01*
X256102908Y-149579465D01*
X256134100Y-149463057D01*
X256134100Y-149342543D01*
X256102908Y-149226135D01*
X256102904Y-149226128D01*
X256042655Y-149121772D01*
X256042649Y-149121764D01*
X255957435Y-149036550D01*
X255957427Y-149036544D01*
X255853071Y-148976295D01*
X255853066Y-148976292D01*
X255814262Y-148965894D01*
X255736657Y-148945100D01*
X255616143Y-148945100D01*
X255557939Y-148960696D01*
X255499733Y-148976292D01*
X255499728Y-148976295D01*
X255395372Y-149036544D01*
X255395364Y-149036550D01*
X255310150Y-149121764D01*
X255310144Y-149121772D01*
X255249895Y-149226128D01*
X255249892Y-149226133D01*
X255248778Y-149230292D01*
X255218700Y-149342543D01*
X119740281Y-149342543D01*
X119740281Y-146426803D01*
X123732881Y-146426803D01*
X123732881Y-146702452D01*
X123732882Y-146702469D01*
X123768861Y-146975760D01*
X123840209Y-147242033D01*
X123945698Y-147496705D01*
X123945702Y-147496715D01*
X124083531Y-147735442D01*
X124251343Y-147954139D01*
X124251349Y-147954146D01*
X124446262Y-148149059D01*
X124446269Y-148149065D01*
X124664966Y-148316877D01*
X124903693Y-148454706D01*
X124903694Y-148454706D01*
X124903697Y-148454708D01*
X125158376Y-148560200D01*
X125424645Y-148631547D01*
X125697950Y-148667528D01*
X125697957Y-148667528D01*
X125973605Y-148667528D01*
X125973612Y-148667528D01*
X126246917Y-148631547D01*
X126513186Y-148560200D01*
X126767865Y-148454708D01*
X127006596Y-148316877D01*
X127225294Y-148149064D01*
X127420217Y-147954141D01*
X127588030Y-147735443D01*
X127725861Y-147496712D01*
X127831353Y-147242033D01*
X127902700Y-146975764D01*
X127938681Y-146702459D01*
X127938681Y-146426797D01*
X127902700Y-146153492D01*
X127831353Y-145887223D01*
X127725861Y-145632544D01*
X127629038Y-145464842D01*
X127588030Y-145393813D01*
X127420218Y-145175116D01*
X127420212Y-145175109D01*
X127269646Y-145024543D01*
X171830500Y-145024543D01*
X171830500Y-145145057D01*
X171851294Y-145222662D01*
X171861692Y-145261466D01*
X171861695Y-145261471D01*
X171921944Y-145365827D01*
X171921950Y-145365835D01*
X171959634Y-145403519D01*
X171993119Y-145464842D01*
X171988135Y-145534534D01*
X171959634Y-145578881D01*
X171921950Y-145616564D01*
X171921944Y-145616572D01*
X171861695Y-145720928D01*
X171861692Y-145720933D01*
X171840897Y-145798540D01*
X171830500Y-145837343D01*
X171830500Y-145957857D01*
X171851294Y-146035462D01*
X171861692Y-146074266D01*
X171861695Y-146074271D01*
X171921944Y-146178627D01*
X171921950Y-146178635D01*
X171959634Y-146216319D01*
X171993119Y-146277642D01*
X171988135Y-146347334D01*
X171959634Y-146391681D01*
X171921950Y-146429364D01*
X171921944Y-146429372D01*
X171861695Y-146533728D01*
X171861692Y-146533733D01*
X171840897Y-146611340D01*
X171830500Y-146650143D01*
X171830500Y-146770657D01*
X171851294Y-146848262D01*
X171861692Y-146887066D01*
X171861695Y-146887071D01*
X171921944Y-146991427D01*
X171921950Y-146991435D01*
X171959634Y-147029119D01*
X171993119Y-147090442D01*
X171988135Y-147160134D01*
X171959634Y-147204481D01*
X171921950Y-147242164D01*
X171921944Y-147242172D01*
X171861695Y-147346528D01*
X171861692Y-147346533D01*
X171840897Y-147424140D01*
X171830500Y-147462943D01*
X171830500Y-147583457D01*
X171851294Y-147661062D01*
X171861692Y-147699866D01*
X171861695Y-147699871D01*
X171921944Y-147804227D01*
X171921948Y-147804232D01*
X171921949Y-147804234D01*
X172007166Y-147889451D01*
X172007168Y-147889452D01*
X172007172Y-147889455D01*
X172111528Y-147949704D01*
X172111535Y-147949708D01*
X172227943Y-147980900D01*
X172227945Y-147980900D01*
X172348455Y-147980900D01*
X172348457Y-147980900D01*
X172464865Y-147949708D01*
X172569234Y-147889451D01*
X172606919Y-147851766D01*
X172668242Y-147818281D01*
X172737934Y-147823265D01*
X172782281Y-147851766D01*
X172819966Y-147889451D01*
X172819968Y-147889452D01*
X172819972Y-147889455D01*
X172924328Y-147949704D01*
X172924335Y-147949708D01*
X173040743Y-147980900D01*
X173040745Y-147980900D01*
X173161255Y-147980900D01*
X173161257Y-147980900D01*
X173277665Y-147949708D01*
X173382034Y-147889451D01*
X173419719Y-147851766D01*
X173481042Y-147818281D01*
X173550734Y-147823265D01*
X173595081Y-147851766D01*
X173632766Y-147889451D01*
X173632768Y-147889452D01*
X173632772Y-147889455D01*
X173737128Y-147949704D01*
X173737135Y-147949708D01*
X173853543Y-147980900D01*
X173853545Y-147980900D01*
X173974055Y-147980900D01*
X173974057Y-147980900D01*
X174090465Y-147949708D01*
X174194834Y-147889451D01*
X174232519Y-147851766D01*
X174293842Y-147818281D01*
X174363534Y-147823265D01*
X174407881Y-147851766D01*
X174445566Y-147889451D01*
X174445568Y-147889452D01*
X174445572Y-147889455D01*
X174549928Y-147949704D01*
X174549935Y-147949708D01*
X174666343Y-147980900D01*
X174666345Y-147980900D01*
X174786855Y-147980900D01*
X174786857Y-147980900D01*
X174903265Y-147949708D01*
X175007634Y-147889451D01*
X175045319Y-147851766D01*
X175106642Y-147818281D01*
X175176334Y-147823265D01*
X175220681Y-147851766D01*
X175258366Y-147889451D01*
X175258368Y-147889452D01*
X175258372Y-147889455D01*
X175362728Y-147949704D01*
X175362735Y-147949708D01*
X175479143Y-147980900D01*
X175479145Y-147980900D01*
X175599655Y-147980900D01*
X175599657Y-147980900D01*
X175716065Y-147949708D01*
X175820434Y-147889451D01*
X175858119Y-147851766D01*
X175919442Y-147818281D01*
X175989134Y-147823265D01*
X176033481Y-147851766D01*
X176071166Y-147889451D01*
X176071168Y-147889452D01*
X176071172Y-147889455D01*
X176175528Y-147949704D01*
X176175535Y-147949708D01*
X176291943Y-147980900D01*
X176291945Y-147980900D01*
X176412455Y-147980900D01*
X176412457Y-147980900D01*
X176528865Y-147949708D01*
X176633234Y-147889451D01*
X176670919Y-147851766D01*
X176732242Y-147818281D01*
X176801934Y-147823265D01*
X176846281Y-147851766D01*
X176883966Y-147889451D01*
X176883968Y-147889452D01*
X176883972Y-147889455D01*
X176988328Y-147949704D01*
X176988335Y-147949708D01*
X177104743Y-147980900D01*
X177104745Y-147980900D01*
X177225255Y-147980900D01*
X177225257Y-147980900D01*
X177341665Y-147949708D01*
X177446034Y-147889451D01*
X177483719Y-147851766D01*
X177545042Y-147818281D01*
X177614734Y-147823265D01*
X177659081Y-147851766D01*
X177696766Y-147889451D01*
X177696768Y-147889452D01*
X177696772Y-147889455D01*
X177801128Y-147949704D01*
X177801135Y-147949708D01*
X177917543Y-147980900D01*
X177917545Y-147980900D01*
X178038055Y-147980900D01*
X178038057Y-147980900D01*
X178154465Y-147949708D01*
X178258834Y-147889451D01*
X178344051Y-147804234D01*
X178404308Y-147699865D01*
X178435500Y-147583457D01*
X178435500Y-147462943D01*
X178404308Y-147346535D01*
X178384200Y-147311706D01*
X178344055Y-147242172D01*
X178344049Y-147242164D01*
X178306366Y-147204481D01*
X178272881Y-147143158D01*
X178277865Y-147073466D01*
X178306366Y-147029119D01*
X178344051Y-146991434D01*
X178404308Y-146887065D01*
X178435500Y-146770657D01*
X178435500Y-146650143D01*
X178404308Y-146533735D01*
X178384200Y-146498906D01*
X178379796Y-146491277D01*
X178379791Y-146491271D01*
X178344051Y-146429366D01*
X178341488Y-146426803D01*
X289340881Y-146426803D01*
X289340881Y-146702452D01*
X289340882Y-146702469D01*
X289376861Y-146975760D01*
X289448209Y-147242033D01*
X289553698Y-147496705D01*
X289553702Y-147496715D01*
X289691531Y-147735442D01*
X289859343Y-147954139D01*
X289859349Y-147954146D01*
X290054262Y-148149059D01*
X290054269Y-148149065D01*
X290272966Y-148316877D01*
X290511693Y-148454706D01*
X290511694Y-148454706D01*
X290511697Y-148454708D01*
X290766376Y-148560200D01*
X291032645Y-148631547D01*
X291305950Y-148667528D01*
X291305957Y-148667528D01*
X291581605Y-148667528D01*
X291581612Y-148667528D01*
X291854917Y-148631547D01*
X292121186Y-148560200D01*
X292375865Y-148454708D01*
X292614596Y-148316877D01*
X292833294Y-148149064D01*
X293028217Y-147954141D01*
X293196030Y-147735443D01*
X293333861Y-147496712D01*
X293439353Y-147242033D01*
X293510700Y-146975764D01*
X293546681Y-146702459D01*
X293546681Y-146426797D01*
X293510700Y-146153492D01*
X293439353Y-145887223D01*
X293333861Y-145632544D01*
X293237038Y-145464842D01*
X293196030Y-145393813D01*
X293028218Y-145175116D01*
X293028212Y-145175109D01*
X292833299Y-144980196D01*
X292833292Y-144980190D01*
X292614595Y-144812378D01*
X292375868Y-144674549D01*
X292375858Y-144674545D01*
X292121186Y-144569056D01*
X291854913Y-144497708D01*
X291581622Y-144461729D01*
X291581617Y-144461728D01*
X291581612Y-144461728D01*
X291305950Y-144461728D01*
X291305944Y-144461728D01*
X291305939Y-144461729D01*
X291032648Y-144497708D01*
X290766375Y-144569056D01*
X290511703Y-144674545D01*
X290511693Y-144674549D01*
X290272966Y-144812378D01*
X290054269Y-144980190D01*
X290054262Y-144980196D01*
X289859349Y-145175109D01*
X289859343Y-145175116D01*
X289691531Y-145393813D01*
X289553702Y-145632540D01*
X289553698Y-145632550D01*
X289448209Y-145887222D01*
X289376861Y-146153495D01*
X289340882Y-146426786D01*
X289340881Y-146426803D01*
X178341488Y-146426803D01*
X178300204Y-146385519D01*
X178294970Y-146378564D01*
X178285617Y-146353683D01*
X178272881Y-146330358D01*
X178273515Y-146321487D01*
X178270386Y-146313162D01*
X178275969Y-146287176D01*
X178277865Y-146260666D01*
X178283573Y-146251783D01*
X178285063Y-146244851D01*
X178293440Y-146236430D01*
X178306366Y-146216319D01*
X178344051Y-146178634D01*
X178404308Y-146074265D01*
X178435500Y-145957857D01*
X178435500Y-145837343D01*
X178404308Y-145720935D01*
X178384200Y-145686106D01*
X178344055Y-145616572D01*
X178344049Y-145616564D01*
X178306366Y-145578881D01*
X178272881Y-145517558D01*
X178277865Y-145447866D01*
X178306366Y-145403519D01*
X178316072Y-145393813D01*
X178344051Y-145365834D01*
X178404308Y-145261465D01*
X178435500Y-145145057D01*
X178435500Y-145024543D01*
X178404308Y-144908135D01*
X178349024Y-144812379D01*
X178344055Y-144803772D01*
X178344049Y-144803764D01*
X178258835Y-144718550D01*
X178258827Y-144718544D01*
X178154471Y-144658295D01*
X178154466Y-144658292D01*
X178115662Y-144647894D01*
X178038057Y-144627100D01*
X177917543Y-144627100D01*
X177859339Y-144642696D01*
X177801133Y-144658292D01*
X177801128Y-144658295D01*
X177696772Y-144718544D01*
X177696764Y-144718550D01*
X177659081Y-144756234D01*
X177597758Y-144789719D01*
X177528066Y-144784735D01*
X177483719Y-144756234D01*
X177446035Y-144718550D01*
X177446027Y-144718544D01*
X177341671Y-144658295D01*
X177341666Y-144658292D01*
X177302862Y-144647894D01*
X177225257Y-144627100D01*
X177104743Y-144627100D01*
X177046539Y-144642696D01*
X176988333Y-144658292D01*
X176988328Y-144658295D01*
X176883972Y-144718544D01*
X176883964Y-144718550D01*
X176846281Y-144756234D01*
X176784958Y-144789719D01*
X176715266Y-144784735D01*
X176670919Y-144756234D01*
X176633235Y-144718550D01*
X176633227Y-144718544D01*
X176528871Y-144658295D01*
X176528866Y-144658292D01*
X176490062Y-144647894D01*
X176412457Y-144627100D01*
X176291943Y-144627100D01*
X176233739Y-144642696D01*
X176175533Y-144658292D01*
X176175528Y-144658295D01*
X176071172Y-144718544D01*
X176071164Y-144718550D01*
X176033481Y-144756234D01*
X175972158Y-144789719D01*
X175902466Y-144784735D01*
X175858119Y-144756234D01*
X175820435Y-144718550D01*
X175820427Y-144718544D01*
X175716071Y-144658295D01*
X175716066Y-144658292D01*
X175677262Y-144647894D01*
X175599657Y-144627100D01*
X175479143Y-144627100D01*
X175420939Y-144642696D01*
X175362733Y-144658292D01*
X175362728Y-144658295D01*
X175258372Y-144718544D01*
X175258364Y-144718550D01*
X175220681Y-144756234D01*
X175159358Y-144789719D01*
X175089666Y-144784735D01*
X175045319Y-144756234D01*
X175007635Y-144718550D01*
X175007627Y-144718544D01*
X174903271Y-144658295D01*
X174903266Y-144658292D01*
X174864462Y-144647894D01*
X174786857Y-144627100D01*
X174666343Y-144627100D01*
X174608139Y-144642696D01*
X174549933Y-144658292D01*
X174549928Y-144658295D01*
X174445572Y-144718544D01*
X174445564Y-144718550D01*
X174407881Y-144756234D01*
X174346558Y-144789719D01*
X174276866Y-144784735D01*
X174232519Y-144756234D01*
X174194835Y-144718550D01*
X174194827Y-144718544D01*
X174090471Y-144658295D01*
X174090466Y-144658292D01*
X174051662Y-144647894D01*
X173974057Y-144627100D01*
X173853543Y-144627100D01*
X173795339Y-144642696D01*
X173737133Y-144658292D01*
X173737128Y-144658295D01*
X173632772Y-144718544D01*
X173632764Y-144718550D01*
X173595081Y-144756234D01*
X173533758Y-144789719D01*
X173464066Y-144784735D01*
X173419719Y-144756234D01*
X173382035Y-144718550D01*
X173382027Y-144718544D01*
X173277671Y-144658295D01*
X173277666Y-144658292D01*
X173238862Y-144647894D01*
X173161257Y-144627100D01*
X173040743Y-144627100D01*
X172982539Y-144642696D01*
X172924333Y-144658292D01*
X172924328Y-144658295D01*
X172819972Y-144718544D01*
X172819964Y-144718550D01*
X172782281Y-144756234D01*
X172720958Y-144789719D01*
X172651266Y-144784735D01*
X172606919Y-144756234D01*
X172569235Y-144718550D01*
X172569227Y-144718544D01*
X172464871Y-144658295D01*
X172464866Y-144658292D01*
X172426062Y-144647894D01*
X172348457Y-144627100D01*
X172227943Y-144627100D01*
X172169739Y-144642696D01*
X172111533Y-144658292D01*
X172111528Y-144658295D01*
X172007172Y-144718544D01*
X172007164Y-144718550D01*
X171921950Y-144803764D01*
X171921944Y-144803772D01*
X171861695Y-144908128D01*
X171861692Y-144908133D01*
X171842385Y-144980190D01*
X171830500Y-145024543D01*
X127269646Y-145024543D01*
X127225299Y-144980196D01*
X127225292Y-144980190D01*
X127006595Y-144812378D01*
X126767868Y-144674549D01*
X126767858Y-144674545D01*
X126513186Y-144569056D01*
X126246913Y-144497708D01*
X125973622Y-144461729D01*
X125973617Y-144461728D01*
X125973612Y-144461728D01*
X125697950Y-144461728D01*
X125697944Y-144461728D01*
X125697939Y-144461729D01*
X125424648Y-144497708D01*
X125158375Y-144569056D01*
X124903703Y-144674545D01*
X124903693Y-144674549D01*
X124664966Y-144812378D01*
X124446269Y-144980190D01*
X124446262Y-144980196D01*
X124251349Y-145175109D01*
X124251343Y-145175116D01*
X124083531Y-145393813D01*
X123945702Y-145632540D01*
X123945698Y-145632550D01*
X123840209Y-145887222D01*
X123768861Y-146153495D01*
X123732882Y-146426786D01*
X123732881Y-146426803D01*
X119740281Y-146426803D01*
X119740281Y-134936088D01*
X142865421Y-134936088D01*
X142865421Y-135126074D01*
X142880281Y-135219897D01*
X142895142Y-135313722D01*
X142953848Y-135494405D01*
X142953849Y-135494408D01*
X142977648Y-135541115D01*
X143040102Y-135663687D01*
X143151773Y-135817389D01*
X143286113Y-135951729D01*
X143439815Y-136063400D01*
X143522841Y-136105703D01*
X143609093Y-136149652D01*
X143609096Y-136149653D01*
X143699437Y-136179006D01*
X143789781Y-136208360D01*
X143977428Y-136238081D01*
X143977429Y-136238081D01*
X144167413Y-136238081D01*
X144167414Y-136238081D01*
X144355061Y-136208360D01*
X144535748Y-136149652D01*
X144705027Y-136063400D01*
X144858729Y-135951729D01*
X144993069Y-135817389D01*
X145104740Y-135663687D01*
X145190992Y-135494408D01*
X145249700Y-135313721D01*
X145279421Y-135126074D01*
X145279421Y-134936088D01*
X148707421Y-134936088D01*
X148707421Y-135126074D01*
X148722281Y-135219897D01*
X148737142Y-135313722D01*
X148795848Y-135494405D01*
X148795849Y-135494408D01*
X148819648Y-135541115D01*
X148882102Y-135663687D01*
X148993773Y-135817389D01*
X149128113Y-135951729D01*
X149281815Y-136063400D01*
X149364841Y-136105703D01*
X149451093Y-136149652D01*
X149451096Y-136149653D01*
X149541437Y-136179006D01*
X149631781Y-136208360D01*
X149819428Y-136238081D01*
X149819429Y-136238081D01*
X150009413Y-136238081D01*
X150009414Y-136238081D01*
X150197061Y-136208360D01*
X150377748Y-136149652D01*
X150547027Y-136063400D01*
X150700729Y-135951729D01*
X150835069Y-135817389D01*
X150946740Y-135663687D01*
X151032992Y-135494408D01*
X151091700Y-135313721D01*
X151121421Y-135126074D01*
X151121421Y-134936088D01*
X154549421Y-134936088D01*
X154549421Y-135126074D01*
X154564281Y-135219897D01*
X154579142Y-135313722D01*
X154637848Y-135494405D01*
X154637849Y-135494408D01*
X154661648Y-135541115D01*
X154724102Y-135663687D01*
X154835773Y-135817389D01*
X154970113Y-135951729D01*
X155123815Y-136063400D01*
X155206841Y-136105703D01*
X155293093Y-136149652D01*
X155293096Y-136149653D01*
X155383437Y-136179006D01*
X155473781Y-136208360D01*
X155661428Y-136238081D01*
X155661429Y-136238081D01*
X155851413Y-136238081D01*
X155851414Y-136238081D01*
X156039061Y-136208360D01*
X156219748Y-136149652D01*
X156389027Y-136063400D01*
X156542729Y-135951729D01*
X156677069Y-135817389D01*
X156788740Y-135663687D01*
X156874992Y-135494408D01*
X156933700Y-135313721D01*
X156963421Y-135126074D01*
X156963421Y-134936088D01*
X156959093Y-134908765D01*
X160044321Y-134908765D01*
X160044321Y-135153396D01*
X160082587Y-135395000D01*
X160158182Y-135627652D01*
X160269235Y-135845607D01*
X160337030Y-135938917D01*
X160337030Y-135938918D01*
X160882498Y-135393450D01*
X160889382Y-135410070D01*
X160976943Y-135541115D01*
X161088387Y-135652559D01*
X161219432Y-135740120D01*
X161236050Y-135747003D01*
X160690582Y-136292470D01*
X160783894Y-136360266D01*
X161001849Y-136471319D01*
X161234501Y-136546914D01*
X161476106Y-136585181D01*
X161720736Y-136585181D01*
X161962340Y-136546914D01*
X162194992Y-136471319D01*
X162412947Y-136360266D01*
X162506257Y-136292470D01*
X161960790Y-135747003D01*
X161977410Y-135740120D01*
X162108455Y-135652559D01*
X162219899Y-135541115D01*
X162307460Y-135410070D01*
X162314343Y-135393450D01*
X162859810Y-135938917D01*
X162927606Y-135845607D01*
X163038659Y-135627652D01*
X163114254Y-135395000D01*
X163152521Y-135153396D01*
X163152521Y-134936088D01*
X166233421Y-134936088D01*
X166233421Y-135126074D01*
X166248281Y-135219897D01*
X166263142Y-135313722D01*
X166321848Y-135494405D01*
X166321849Y-135494408D01*
X166345648Y-135541115D01*
X166408102Y-135663687D01*
X166519773Y-135817389D01*
X166654113Y-135951729D01*
X166807815Y-136063400D01*
X166890841Y-136105703D01*
X166977093Y-136149652D01*
X166977096Y-136149653D01*
X167067437Y-136179006D01*
X167157781Y-136208360D01*
X167345428Y-136238081D01*
X167345429Y-136238081D01*
X167535413Y-136238081D01*
X167535414Y-136238081D01*
X167723061Y-136208360D01*
X167903748Y-136149652D01*
X168073027Y-136063400D01*
X168226729Y-135951729D01*
X168361069Y-135817389D01*
X168472740Y-135663687D01*
X168558992Y-135494408D01*
X168617700Y-135313721D01*
X168647421Y-135126074D01*
X168647421Y-134936088D01*
X172075421Y-134936088D01*
X172075421Y-135126074D01*
X172090281Y-135219897D01*
X172105142Y-135313722D01*
X172163848Y-135494405D01*
X172163849Y-135494408D01*
X172187648Y-135541115D01*
X172250102Y-135663687D01*
X172361773Y-135817389D01*
X172496113Y-135951729D01*
X172649815Y-136063400D01*
X172732841Y-136105703D01*
X172819093Y-136149652D01*
X172819096Y-136149653D01*
X172909437Y-136179006D01*
X172999781Y-136208360D01*
X173187428Y-136238081D01*
X173187429Y-136238081D01*
X173377413Y-136238081D01*
X173377414Y-136238081D01*
X173565061Y-136208360D01*
X173745748Y-136149652D01*
X173915027Y-136063400D01*
X174068729Y-135951729D01*
X174203069Y-135817389D01*
X174314740Y-135663687D01*
X174400992Y-135494408D01*
X174459700Y-135313721D01*
X174489421Y-135126074D01*
X174489421Y-134936088D01*
X177917421Y-134936088D01*
X177917421Y-135126074D01*
X177932281Y-135219897D01*
X177947142Y-135313722D01*
X178005848Y-135494405D01*
X178005849Y-135494408D01*
X178029648Y-135541115D01*
X178092102Y-135663687D01*
X178203773Y-135817389D01*
X178338113Y-135951729D01*
X178491815Y-136063400D01*
X178574841Y-136105703D01*
X178661093Y-136149652D01*
X178661096Y-136149653D01*
X178751437Y-136179006D01*
X178841781Y-136208360D01*
X179029428Y-136238081D01*
X179029429Y-136238081D01*
X179219413Y-136238081D01*
X179219414Y-136238081D01*
X179407061Y-136208360D01*
X179587748Y-136149652D01*
X179757027Y-136063400D01*
X179910729Y-135951729D01*
X180045069Y-135817389D01*
X180156740Y-135663687D01*
X180242992Y-135494408D01*
X180301700Y-135313721D01*
X180331421Y-135126074D01*
X180331421Y-134936088D01*
X183759421Y-134936088D01*
X183759421Y-135126074D01*
X183774281Y-135219897D01*
X183789142Y-135313722D01*
X183847848Y-135494405D01*
X183847849Y-135494408D01*
X183871648Y-135541115D01*
X183934102Y-135663687D01*
X184045773Y-135817389D01*
X184180113Y-135951729D01*
X184333815Y-136063400D01*
X184416841Y-136105703D01*
X184503093Y-136149652D01*
X184503096Y-136149653D01*
X184593437Y-136179006D01*
X184683781Y-136208360D01*
X184871428Y-136238081D01*
X184871429Y-136238081D01*
X185061413Y-136238081D01*
X185061414Y-136238081D01*
X185249061Y-136208360D01*
X185429748Y-136149652D01*
X185599027Y-136063400D01*
X185752729Y-135951729D01*
X185887069Y-135817389D01*
X185998740Y-135663687D01*
X186084992Y-135494408D01*
X186143700Y-135313721D01*
X186173421Y-135126074D01*
X186173421Y-134936088D01*
X186169093Y-134908765D01*
X230630921Y-134908765D01*
X230630921Y-135153396D01*
X230669187Y-135395000D01*
X230744782Y-135627652D01*
X230855835Y-135845607D01*
X230923630Y-135938917D01*
X230923630Y-135938918D01*
X231469098Y-135393450D01*
X231475982Y-135410070D01*
X231563543Y-135541115D01*
X231674987Y-135652559D01*
X231806032Y-135740120D01*
X231822650Y-135747003D01*
X231277182Y-136292470D01*
X231370494Y-136360266D01*
X231588449Y-136471319D01*
X231821101Y-136546914D01*
X232062706Y-136585181D01*
X232307336Y-136585181D01*
X232548940Y-136546914D01*
X232781592Y-136471319D01*
X232999547Y-136360266D01*
X233092858Y-136292470D01*
X232547391Y-135747003D01*
X232564010Y-135740120D01*
X232695055Y-135652559D01*
X232806499Y-135541115D01*
X232894060Y-135410070D01*
X232900943Y-135393450D01*
X233446410Y-135938917D01*
X233514206Y-135845607D01*
X233625259Y-135627652D01*
X233700854Y-135395000D01*
X233739121Y-135153396D01*
X233739121Y-134936088D01*
X236820021Y-134936088D01*
X236820021Y-135126074D01*
X236834881Y-135219897D01*
X236849742Y-135313722D01*
X236908448Y-135494405D01*
X236908449Y-135494408D01*
X236932248Y-135541115D01*
X236994702Y-135663687D01*
X237106373Y-135817389D01*
X237240713Y-135951729D01*
X237394415Y-136063400D01*
X237477441Y-136105703D01*
X237563693Y-136149652D01*
X237563696Y-136149653D01*
X237654037Y-136179006D01*
X237744381Y-136208360D01*
X237932028Y-136238081D01*
X237932029Y-136238081D01*
X238122013Y-136238081D01*
X238122014Y-136238081D01*
X238309661Y-136208360D01*
X238490348Y-136149652D01*
X238659627Y-136063400D01*
X238813329Y-135951729D01*
X238947669Y-135817389D01*
X239059340Y-135663687D01*
X239145592Y-135494408D01*
X239204300Y-135313721D01*
X239234021Y-135126074D01*
X239234021Y-134936088D01*
X242662021Y-134936088D01*
X242662021Y-135126074D01*
X242676881Y-135219897D01*
X242691742Y-135313722D01*
X242750448Y-135494405D01*
X242750449Y-135494408D01*
X242774248Y-135541115D01*
X242836702Y-135663687D01*
X242948373Y-135817389D01*
X243082713Y-135951729D01*
X243236415Y-136063400D01*
X243319441Y-136105703D01*
X243405693Y-136149652D01*
X243405696Y-136149653D01*
X243496037Y-136179006D01*
X243586381Y-136208360D01*
X243774028Y-136238081D01*
X243774029Y-136238081D01*
X243964013Y-136238081D01*
X243964014Y-136238081D01*
X244151661Y-136208360D01*
X244332348Y-136149652D01*
X244501627Y-136063400D01*
X244655329Y-135951729D01*
X244789669Y-135817389D01*
X244901340Y-135663687D01*
X244987592Y-135494408D01*
X245046300Y-135313721D01*
X245076021Y-135126074D01*
X245076021Y-134936088D01*
X248504021Y-134936088D01*
X248504021Y-135126074D01*
X248518881Y-135219897D01*
X248533742Y-135313722D01*
X248592448Y-135494405D01*
X248592449Y-135494408D01*
X248616248Y-135541115D01*
X248678702Y-135663687D01*
X248790373Y-135817389D01*
X248924713Y-135951729D01*
X249078415Y-136063400D01*
X249161441Y-136105703D01*
X249247693Y-136149652D01*
X249247696Y-136149653D01*
X249338037Y-136179006D01*
X249428381Y-136208360D01*
X249616028Y-136238081D01*
X249616029Y-136238081D01*
X249806013Y-136238081D01*
X249806014Y-136238081D01*
X249993661Y-136208360D01*
X250174348Y-136149652D01*
X250343627Y-136063400D01*
X250497329Y-135951729D01*
X250631669Y-135817389D01*
X250743340Y-135663687D01*
X250829592Y-135494408D01*
X250888300Y-135313721D01*
X250918021Y-135126074D01*
X250918021Y-134936088D01*
X254346021Y-134936088D01*
X254346021Y-135126074D01*
X254360881Y-135219897D01*
X254375742Y-135313722D01*
X254434448Y-135494405D01*
X254434449Y-135494408D01*
X254458248Y-135541115D01*
X254520702Y-135663687D01*
X254632373Y-135817389D01*
X254766713Y-135951729D01*
X254920415Y-136063400D01*
X255003441Y-136105703D01*
X255089693Y-136149652D01*
X255089696Y-136149653D01*
X255180037Y-136179006D01*
X255270381Y-136208360D01*
X255458028Y-136238081D01*
X255458029Y-136238081D01*
X255648013Y-136238081D01*
X255648014Y-136238081D01*
X255835661Y-136208360D01*
X256016348Y-136149652D01*
X256185627Y-136063400D01*
X256339329Y-135951729D01*
X256473669Y-135817389D01*
X256585340Y-135663687D01*
X256671592Y-135494408D01*
X256730300Y-135313721D01*
X256760021Y-135126074D01*
X256760021Y-134936088D01*
X260188021Y-134936088D01*
X260188021Y-135126074D01*
X260202881Y-135219897D01*
X260217742Y-135313722D01*
X260276448Y-135494405D01*
X260276449Y-135494408D01*
X260300248Y-135541115D01*
X260362702Y-135663687D01*
X260474373Y-135817389D01*
X260608713Y-135951729D01*
X260762415Y-136063400D01*
X260845441Y-136105703D01*
X260931693Y-136149652D01*
X260931696Y-136149653D01*
X261022037Y-136179006D01*
X261112381Y-136208360D01*
X261300028Y-136238081D01*
X261300029Y-136238081D01*
X261490013Y-136238081D01*
X261490014Y-136238081D01*
X261677661Y-136208360D01*
X261858348Y-136149652D01*
X262027627Y-136063400D01*
X262181329Y-135951729D01*
X262315669Y-135817389D01*
X262427340Y-135663687D01*
X262513592Y-135494408D01*
X262572300Y-135313721D01*
X262602021Y-135126074D01*
X262602021Y-134936088D01*
X266030021Y-134936088D01*
X266030021Y-135126074D01*
X266044881Y-135219897D01*
X266059742Y-135313722D01*
X266118448Y-135494405D01*
X266118449Y-135494408D01*
X266142248Y-135541115D01*
X266204702Y-135663687D01*
X266316373Y-135817389D01*
X266450713Y-135951729D01*
X266604415Y-136063400D01*
X266687441Y-136105703D01*
X266773693Y-136149652D01*
X266773696Y-136149653D01*
X266864037Y-136179006D01*
X266954381Y-136208360D01*
X267142028Y-136238081D01*
X267142029Y-136238081D01*
X267332013Y-136238081D01*
X267332014Y-136238081D01*
X267519661Y-136208360D01*
X267700348Y-136149652D01*
X267869627Y-136063400D01*
X268023329Y-135951729D01*
X268157669Y-135817389D01*
X268269340Y-135663687D01*
X268355592Y-135494408D01*
X268414300Y-135313721D01*
X268444021Y-135126074D01*
X268444021Y-134936088D01*
X271872021Y-134936088D01*
X271872021Y-135126074D01*
X271886881Y-135219897D01*
X271901742Y-135313722D01*
X271960448Y-135494405D01*
X271960449Y-135494408D01*
X271984248Y-135541115D01*
X272046702Y-135663687D01*
X272158373Y-135817389D01*
X272292713Y-135951729D01*
X272446415Y-136063400D01*
X272529441Y-136105703D01*
X272615693Y-136149652D01*
X272615696Y-136149653D01*
X272706037Y-136179006D01*
X272796381Y-136208360D01*
X272984028Y-136238081D01*
X272984029Y-136238081D01*
X273174013Y-136238081D01*
X273174014Y-136238081D01*
X273361661Y-136208360D01*
X273542348Y-136149652D01*
X273711627Y-136063400D01*
X273865329Y-135951729D01*
X273999669Y-135817389D01*
X274111340Y-135663687D01*
X274197592Y-135494408D01*
X274256300Y-135313721D01*
X274286021Y-135126074D01*
X274286021Y-134936088D01*
X274256300Y-134748441D01*
X274197592Y-134567754D01*
X274197592Y-134567753D01*
X274111339Y-134398474D01*
X274091006Y-134370488D01*
X273999669Y-134244773D01*
X273865329Y-134110433D01*
X273711627Y-133998762D01*
X273542348Y-133912509D01*
X273542345Y-133912508D01*
X273361662Y-133853802D01*
X273217887Y-133831030D01*
X273174014Y-133824081D01*
X272984028Y-133824081D01*
X272940161Y-133831029D01*
X272796379Y-133853802D01*
X272615696Y-133912508D01*
X272615693Y-133912509D01*
X272446414Y-133998762D01*
X272358722Y-134062474D01*
X272292713Y-134110433D01*
X272292711Y-134110435D01*
X272292710Y-134110435D01*
X272158375Y-134244770D01*
X272158375Y-134244771D01*
X272158373Y-134244773D01*
X272146054Y-134261729D01*
X272046702Y-134398474D01*
X271960449Y-134567753D01*
X271960448Y-134567756D01*
X271901742Y-134748439D01*
X271901742Y-134748441D01*
X271872021Y-134936088D01*
X268444021Y-134936088D01*
X268414300Y-134748441D01*
X268355592Y-134567754D01*
X268355592Y-134567753D01*
X268269339Y-134398474D01*
X268249006Y-134370488D01*
X268157669Y-134244773D01*
X268023329Y-134110433D01*
X267869627Y-133998762D01*
X267700348Y-133912509D01*
X267700345Y-133912508D01*
X267519662Y-133853802D01*
X267375887Y-133831030D01*
X267332014Y-133824081D01*
X267142028Y-133824081D01*
X267098161Y-133831029D01*
X266954379Y-133853802D01*
X266773696Y-133912508D01*
X266773693Y-133912509D01*
X266604414Y-133998762D01*
X266516722Y-134062474D01*
X266450713Y-134110433D01*
X266450711Y-134110435D01*
X266450710Y-134110435D01*
X266316375Y-134244770D01*
X266316375Y-134244771D01*
X266316373Y-134244773D01*
X266304054Y-134261729D01*
X266204702Y-134398474D01*
X266118449Y-134567753D01*
X266118448Y-134567756D01*
X266059742Y-134748439D01*
X266059742Y-134748441D01*
X266030021Y-134936088D01*
X262602021Y-134936088D01*
X262572300Y-134748441D01*
X262513592Y-134567754D01*
X262513592Y-134567753D01*
X262427339Y-134398474D01*
X262407006Y-134370488D01*
X262315669Y-134244773D01*
X262181329Y-134110433D01*
X262027627Y-133998762D01*
X261858348Y-133912509D01*
X261858345Y-133912508D01*
X261677662Y-133853802D01*
X261533887Y-133831030D01*
X261490014Y-133824081D01*
X261300028Y-133824081D01*
X261256161Y-133831029D01*
X261112379Y-133853802D01*
X260931696Y-133912508D01*
X260931693Y-133912509D01*
X260762414Y-133998762D01*
X260674722Y-134062474D01*
X260608713Y-134110433D01*
X260608711Y-134110435D01*
X260608710Y-134110435D01*
X260474375Y-134244770D01*
X260474375Y-134244771D01*
X260474373Y-134244773D01*
X260462054Y-134261729D01*
X260362702Y-134398474D01*
X260276449Y-134567753D01*
X260276448Y-134567756D01*
X260217742Y-134748439D01*
X260217742Y-134748441D01*
X260188021Y-134936088D01*
X256760021Y-134936088D01*
X256730300Y-134748441D01*
X256671592Y-134567754D01*
X256671592Y-134567753D01*
X256585339Y-134398474D01*
X256565006Y-134370488D01*
X256473669Y-134244773D01*
X256339329Y-134110433D01*
X256185627Y-133998762D01*
X256016348Y-133912509D01*
X256016345Y-133912508D01*
X255835662Y-133853802D01*
X255691887Y-133831030D01*
X255648014Y-133824081D01*
X255458028Y-133824081D01*
X255414161Y-133831029D01*
X255270379Y-133853802D01*
X255089696Y-133912508D01*
X255089693Y-133912509D01*
X254920414Y-133998762D01*
X254832722Y-134062474D01*
X254766713Y-134110433D01*
X254766711Y-134110435D01*
X254766710Y-134110435D01*
X254632375Y-134244770D01*
X254632375Y-134244771D01*
X254632373Y-134244773D01*
X254620054Y-134261729D01*
X254520702Y-134398474D01*
X254434449Y-134567753D01*
X254434448Y-134567756D01*
X254375742Y-134748439D01*
X254375742Y-134748441D01*
X254346021Y-134936088D01*
X250918021Y-134936088D01*
X250888300Y-134748441D01*
X250829592Y-134567754D01*
X250829592Y-134567753D01*
X250743339Y-134398474D01*
X250723006Y-134370488D01*
X250631669Y-134244773D01*
X250497329Y-134110433D01*
X250343627Y-133998762D01*
X250174348Y-133912509D01*
X250174345Y-133912508D01*
X249993662Y-133853802D01*
X249849887Y-133831030D01*
X249806014Y-133824081D01*
X249616028Y-133824081D01*
X249572161Y-133831029D01*
X249428379Y-133853802D01*
X249247696Y-133912508D01*
X249247693Y-133912509D01*
X249078414Y-133998762D01*
X248990722Y-134062474D01*
X248924713Y-134110433D01*
X248924711Y-134110435D01*
X248924710Y-134110435D01*
X248790375Y-134244770D01*
X248790375Y-134244771D01*
X248790373Y-134244773D01*
X248778054Y-134261729D01*
X248678702Y-134398474D01*
X248592449Y-134567753D01*
X248592448Y-134567756D01*
X248533742Y-134748439D01*
X248533742Y-134748441D01*
X248504021Y-134936088D01*
X245076021Y-134936088D01*
X245046300Y-134748441D01*
X244987592Y-134567754D01*
X244987592Y-134567753D01*
X244901339Y-134398474D01*
X244881006Y-134370488D01*
X244789669Y-134244773D01*
X244655329Y-134110433D01*
X244501627Y-133998762D01*
X244332348Y-133912509D01*
X244332345Y-133912508D01*
X244151662Y-133853802D01*
X244007887Y-133831030D01*
X243964014Y-133824081D01*
X243774028Y-133824081D01*
X243730161Y-133831029D01*
X243586379Y-133853802D01*
X243405696Y-133912508D01*
X243405693Y-133912509D01*
X243236414Y-133998762D01*
X243148722Y-134062474D01*
X243082713Y-134110433D01*
X243082711Y-134110435D01*
X243082710Y-134110435D01*
X242948375Y-134244770D01*
X242948375Y-134244771D01*
X242948373Y-134244773D01*
X242936054Y-134261729D01*
X242836702Y-134398474D01*
X242750449Y-134567753D01*
X242750448Y-134567756D01*
X242691742Y-134748439D01*
X242691742Y-134748441D01*
X242662021Y-134936088D01*
X239234021Y-134936088D01*
X239204300Y-134748441D01*
X239145592Y-134567754D01*
X239145592Y-134567753D01*
X239059339Y-134398474D01*
X239039006Y-134370488D01*
X238947669Y-134244773D01*
X238813329Y-134110433D01*
X238659627Y-133998762D01*
X238490348Y-133912509D01*
X238490345Y-133912508D01*
X238309662Y-133853802D01*
X238165887Y-133831030D01*
X238122014Y-133824081D01*
X237932028Y-133824081D01*
X237888161Y-133831029D01*
X237744379Y-133853802D01*
X237563696Y-133912508D01*
X237563693Y-133912509D01*
X237394414Y-133998762D01*
X237306722Y-134062474D01*
X237240713Y-134110433D01*
X237240711Y-134110435D01*
X237240710Y-134110435D01*
X237106375Y-134244770D01*
X237106375Y-134244771D01*
X237106373Y-134244773D01*
X237094054Y-134261729D01*
X236994702Y-134398474D01*
X236908449Y-134567753D01*
X236908448Y-134567756D01*
X236849742Y-134748439D01*
X236849742Y-134748441D01*
X236820021Y-134936088D01*
X233739121Y-134936088D01*
X233739121Y-134908765D01*
X233700854Y-134667161D01*
X233625259Y-134434509D01*
X233514206Y-134216554D01*
X233446410Y-134123243D01*
X233446410Y-134123242D01*
X232900943Y-134668709D01*
X232894060Y-134652092D01*
X232806499Y-134521047D01*
X232695055Y-134409603D01*
X232564010Y-134322042D01*
X232547389Y-134315157D01*
X233092858Y-133769690D01*
X232999547Y-133701895D01*
X232781592Y-133590842D01*
X232548940Y-133515247D01*
X232307336Y-133476981D01*
X232062706Y-133476981D01*
X231821101Y-133515247D01*
X231588449Y-133590842D01*
X231370490Y-133701897D01*
X231277183Y-133769688D01*
X231277182Y-133769690D01*
X231822650Y-134315158D01*
X231806032Y-134322042D01*
X231674987Y-134409603D01*
X231563543Y-134521047D01*
X231475982Y-134652092D01*
X231469098Y-134668710D01*
X230923630Y-134123242D01*
X230923628Y-134123243D01*
X230855837Y-134216550D01*
X230744782Y-134434509D01*
X230669187Y-134667161D01*
X230630921Y-134908765D01*
X186169093Y-134908765D01*
X186143700Y-134748441D01*
X186084992Y-134567754D01*
X186084992Y-134567753D01*
X185998739Y-134398474D01*
X185978406Y-134370488D01*
X185887069Y-134244773D01*
X185752729Y-134110433D01*
X185599027Y-133998762D01*
X185429748Y-133912509D01*
X185429745Y-133912508D01*
X185249062Y-133853802D01*
X185105287Y-133831030D01*
X185061414Y-133824081D01*
X184871428Y-133824081D01*
X184827561Y-133831029D01*
X184683779Y-133853802D01*
X184503096Y-133912508D01*
X184503093Y-133912509D01*
X184333814Y-133998762D01*
X184246122Y-134062474D01*
X184180113Y-134110433D01*
X184180111Y-134110435D01*
X184180110Y-134110435D01*
X184045775Y-134244770D01*
X184045775Y-134244771D01*
X184045773Y-134244773D01*
X184033454Y-134261729D01*
X183934102Y-134398474D01*
X183847849Y-134567753D01*
X183847848Y-134567756D01*
X183789142Y-134748439D01*
X183789142Y-134748441D01*
X183759421Y-134936088D01*
X180331421Y-134936088D01*
X180301700Y-134748441D01*
X180242992Y-134567754D01*
X180242992Y-134567753D01*
X180156739Y-134398474D01*
X180136406Y-134370488D01*
X180045069Y-134244773D01*
X179910729Y-134110433D01*
X179757027Y-133998762D01*
X179587748Y-133912509D01*
X179587745Y-133912508D01*
X179407062Y-133853802D01*
X179263287Y-133831030D01*
X179219414Y-133824081D01*
X179029428Y-133824081D01*
X178985561Y-133831029D01*
X178841779Y-133853802D01*
X178661096Y-133912508D01*
X178661093Y-133912509D01*
X178491814Y-133998762D01*
X178404122Y-134062474D01*
X178338113Y-134110433D01*
X178338111Y-134110435D01*
X178338110Y-134110435D01*
X178203775Y-134244770D01*
X178203775Y-134244771D01*
X178203773Y-134244773D01*
X178191454Y-134261729D01*
X178092102Y-134398474D01*
X178005849Y-134567753D01*
X178005848Y-134567756D01*
X177947142Y-134748439D01*
X177947142Y-134748441D01*
X177917421Y-134936088D01*
X174489421Y-134936088D01*
X174459700Y-134748441D01*
X174400992Y-134567754D01*
X174400992Y-134567753D01*
X174314739Y-134398474D01*
X174294406Y-134370488D01*
X174203069Y-134244773D01*
X174068729Y-134110433D01*
X173915027Y-133998762D01*
X173745748Y-133912509D01*
X173745745Y-133912508D01*
X173565062Y-133853802D01*
X173421287Y-133831030D01*
X173377414Y-133824081D01*
X173187428Y-133824081D01*
X173143561Y-133831029D01*
X172999779Y-133853802D01*
X172819096Y-133912508D01*
X172819093Y-133912509D01*
X172649814Y-133998762D01*
X172562122Y-134062474D01*
X172496113Y-134110433D01*
X172496111Y-134110435D01*
X172496110Y-134110435D01*
X172361775Y-134244770D01*
X172361775Y-134244771D01*
X172361773Y-134244773D01*
X172349454Y-134261729D01*
X172250102Y-134398474D01*
X172163849Y-134567753D01*
X172163848Y-134567756D01*
X172105142Y-134748439D01*
X172105142Y-134748441D01*
X172075421Y-134936088D01*
X168647421Y-134936088D01*
X168617700Y-134748441D01*
X168558992Y-134567754D01*
X168558992Y-134567753D01*
X168472739Y-134398474D01*
X168452406Y-134370488D01*
X168361069Y-134244773D01*
X168226729Y-134110433D01*
X168073027Y-133998762D01*
X167903748Y-133912509D01*
X167903745Y-133912508D01*
X167723062Y-133853802D01*
X167579287Y-133831030D01*
X167535414Y-133824081D01*
X167345428Y-133824081D01*
X167301561Y-133831029D01*
X167157779Y-133853802D01*
X166977096Y-133912508D01*
X166977093Y-133912509D01*
X166807814Y-133998762D01*
X166720122Y-134062474D01*
X166654113Y-134110433D01*
X166654111Y-134110435D01*
X166654110Y-134110435D01*
X166519775Y-134244770D01*
X166519775Y-134244771D01*
X166519773Y-134244773D01*
X166507454Y-134261729D01*
X166408102Y-134398474D01*
X166321849Y-134567753D01*
X166321848Y-134567756D01*
X166263142Y-134748439D01*
X166263142Y-134748441D01*
X166233421Y-134936088D01*
X163152521Y-134936088D01*
X163152521Y-134908765D01*
X163114254Y-134667161D01*
X163038659Y-134434509D01*
X162927606Y-134216554D01*
X162859810Y-134123243D01*
X162859810Y-134123242D01*
X162314343Y-134668709D01*
X162307460Y-134652092D01*
X162219899Y-134521047D01*
X162108455Y-134409603D01*
X161977410Y-134322042D01*
X161960789Y-134315157D01*
X162506258Y-133769690D01*
X162412947Y-133701895D01*
X162194992Y-133590842D01*
X161962340Y-133515247D01*
X161720736Y-133476981D01*
X161476106Y-133476981D01*
X161234501Y-133515247D01*
X161001849Y-133590842D01*
X160783890Y-133701897D01*
X160690583Y-133769688D01*
X160690582Y-133769690D01*
X161236050Y-134315158D01*
X161219432Y-134322042D01*
X161088387Y-134409603D01*
X160976943Y-134521047D01*
X160889382Y-134652092D01*
X160882498Y-134668710D01*
X160337030Y-134123242D01*
X160337028Y-134123243D01*
X160269237Y-134216550D01*
X160158182Y-134434509D01*
X160082587Y-134667161D01*
X160044321Y-134908765D01*
X156959093Y-134908765D01*
X156933700Y-134748441D01*
X156874992Y-134567754D01*
X156874992Y-134567753D01*
X156788739Y-134398474D01*
X156768406Y-134370488D01*
X156677069Y-134244773D01*
X156542729Y-134110433D01*
X156389027Y-133998762D01*
X156249040Y-133927435D01*
X156219748Y-133912509D01*
X156219745Y-133912508D01*
X156039062Y-133853802D01*
X155895287Y-133831030D01*
X155851414Y-133824081D01*
X155661428Y-133824081D01*
X155617561Y-133831029D01*
X155473779Y-133853802D01*
X155293096Y-133912508D01*
X155293093Y-133912509D01*
X155123814Y-133998762D01*
X155036122Y-134062474D01*
X154970113Y-134110433D01*
X154970111Y-134110435D01*
X154970110Y-134110435D01*
X154835775Y-134244770D01*
X154835775Y-134244771D01*
X154835773Y-134244773D01*
X154823454Y-134261729D01*
X154724102Y-134398474D01*
X154637849Y-134567753D01*
X154637848Y-134567756D01*
X154579142Y-134748439D01*
X154579142Y-134748441D01*
X154549421Y-134936088D01*
X151121421Y-134936088D01*
X151091700Y-134748441D01*
X151032992Y-134567754D01*
X151032992Y-134567753D01*
X150946739Y-134398474D01*
X150926406Y-134370488D01*
X150835069Y-134244773D01*
X150700729Y-134110433D01*
X150547027Y-133998762D01*
X150377748Y-133912509D01*
X150377745Y-133912508D01*
X150197062Y-133853802D01*
X150053287Y-133831030D01*
X150009414Y-133824081D01*
X149819428Y-133824081D01*
X149775561Y-133831029D01*
X149631779Y-133853802D01*
X149451096Y-133912508D01*
X149451093Y-133912509D01*
X149281814Y-133998762D01*
X149194122Y-134062474D01*
X149128113Y-134110433D01*
X149128111Y-134110435D01*
X149128110Y-134110435D01*
X148993775Y-134244770D01*
X148993775Y-134244771D01*
X148993773Y-134244773D01*
X148981454Y-134261729D01*
X148882102Y-134398474D01*
X148795849Y-134567753D01*
X148795848Y-134567756D01*
X148737142Y-134748439D01*
X148737142Y-134748441D01*
X148707421Y-134936088D01*
X145279421Y-134936088D01*
X145249700Y-134748441D01*
X145190992Y-134567754D01*
X145190992Y-134567753D01*
X145104739Y-134398474D01*
X145084406Y-134370488D01*
X144993069Y-134244773D01*
X144858729Y-134110433D01*
X144705027Y-133998762D01*
X144535748Y-133912509D01*
X144535745Y-133912508D01*
X144355062Y-133853802D01*
X144211287Y-133831030D01*
X144167414Y-133824081D01*
X143977428Y-133824081D01*
X143933561Y-133831029D01*
X143789779Y-133853802D01*
X143609096Y-133912508D01*
X143609093Y-133912509D01*
X143439814Y-133998762D01*
X143352122Y-134062474D01*
X143286113Y-134110433D01*
X143286111Y-134110435D01*
X143286110Y-134110435D01*
X143151775Y-134244770D01*
X143151775Y-134244771D01*
X143151773Y-134244773D01*
X143139454Y-134261729D01*
X143040102Y-134398474D01*
X142953849Y-134567753D01*
X142953848Y-134567756D01*
X142895142Y-134748439D01*
X142895142Y-134748441D01*
X142865421Y-134936088D01*
X119740281Y-134936088D01*
X119740281Y-131965263D01*
X123536021Y-131965263D01*
X123536021Y-132254898D01*
X123568445Y-132542678D01*
X123568448Y-132542696D01*
X123632893Y-132825049D01*
X123632898Y-132825065D01*
X123728549Y-133098416D01*
X123728558Y-133098438D01*
X123854210Y-133359358D01*
X123854214Y-133359364D01*
X124008302Y-133604594D01*
X124188879Y-133831030D01*
X124393672Y-134035823D01*
X124620108Y-134216400D01*
X124788237Y-134322042D01*
X124865343Y-134370491D01*
X125126263Y-134496143D01*
X125126272Y-134496146D01*
X125126279Y-134496150D01*
X125126285Y-134496152D01*
X125399636Y-134591803D01*
X125399641Y-134591804D01*
X125399648Y-134591807D01*
X125682009Y-134656254D01*
X125682015Y-134656254D01*
X125682023Y-134656256D01*
X125870814Y-134677527D01*
X125969804Y-134688680D01*
X125969807Y-134688681D01*
X125969810Y-134688681D01*
X126259435Y-134688681D01*
X126259436Y-134688680D01*
X126450430Y-134667161D01*
X126547218Y-134656256D01*
X126547223Y-134656255D01*
X126547233Y-134656254D01*
X126829594Y-134591807D01*
X127102963Y-134496150D01*
X127230963Y-134434509D01*
X127363898Y-134370491D01*
X127363898Y-134370490D01*
X127363904Y-134370488D01*
X127609134Y-134216400D01*
X127835570Y-134035823D01*
X128040363Y-133831030D01*
X128220940Y-133604594D01*
X128375028Y-133359364D01*
X128500690Y-133098423D01*
X128596347Y-132825054D01*
X128660794Y-132542693D01*
X128693221Y-132254892D01*
X128693221Y-131965270D01*
X128693220Y-131965263D01*
X200345621Y-131965263D01*
X200345621Y-132254898D01*
X200378045Y-132542678D01*
X200378048Y-132542696D01*
X200442493Y-132825049D01*
X200442498Y-132825065D01*
X200538149Y-133098416D01*
X200538158Y-133098438D01*
X200663810Y-133359358D01*
X200663814Y-133359364D01*
X200817902Y-133604594D01*
X200998479Y-133831030D01*
X201203272Y-134035823D01*
X201429708Y-134216400D01*
X201597837Y-134322042D01*
X201674943Y-134370491D01*
X201935863Y-134496143D01*
X201935872Y-134496146D01*
X201935879Y-134496150D01*
X201935885Y-134496152D01*
X202209236Y-134591803D01*
X202209241Y-134591804D01*
X202209248Y-134591807D01*
X202491609Y-134656254D01*
X202491615Y-134656254D01*
X202491623Y-134656256D01*
X202680414Y-134677527D01*
X202779404Y-134688680D01*
X202779407Y-134688681D01*
X202779410Y-134688681D01*
X203069035Y-134688681D01*
X203069036Y-134688680D01*
X203260030Y-134667161D01*
X203356818Y-134656256D01*
X203356823Y-134656255D01*
X203356833Y-134656254D01*
X203639194Y-134591807D01*
X203912563Y-134496150D01*
X204040563Y-134434509D01*
X204173498Y-134370491D01*
X204173498Y-134370490D01*
X204173504Y-134370488D01*
X204418734Y-134216400D01*
X204645170Y-134035823D01*
X204849963Y-133831030D01*
X205030540Y-133604594D01*
X205184628Y-133359364D01*
X205310290Y-133098423D01*
X205405947Y-132825054D01*
X205470394Y-132542693D01*
X205502821Y-132254892D01*
X205502821Y-131965270D01*
X205502820Y-131965263D01*
X211648621Y-131965263D01*
X211648621Y-132254898D01*
X211681045Y-132542678D01*
X211681048Y-132542696D01*
X211745493Y-132825049D01*
X211745498Y-132825065D01*
X211841149Y-133098416D01*
X211841158Y-133098438D01*
X211966810Y-133359358D01*
X211966814Y-133359364D01*
X212120902Y-133604594D01*
X212301479Y-133831030D01*
X212506272Y-134035823D01*
X212732708Y-134216400D01*
X212900837Y-134322042D01*
X212977943Y-134370491D01*
X213238863Y-134496143D01*
X213238872Y-134496146D01*
X213238879Y-134496150D01*
X213238885Y-134496152D01*
X213512236Y-134591803D01*
X213512241Y-134591804D01*
X213512248Y-134591807D01*
X213794609Y-134656254D01*
X213794615Y-134656254D01*
X213794623Y-134656256D01*
X213983414Y-134677527D01*
X214082404Y-134688680D01*
X214082407Y-134688681D01*
X214082410Y-134688681D01*
X214372035Y-134688681D01*
X214372036Y-134688680D01*
X214563030Y-134667161D01*
X214659818Y-134656256D01*
X214659823Y-134656255D01*
X214659833Y-134656254D01*
X214942194Y-134591807D01*
X215215563Y-134496150D01*
X215343563Y-134434509D01*
X215476498Y-134370491D01*
X215476498Y-134370490D01*
X215476504Y-134370488D01*
X215721734Y-134216400D01*
X215948170Y-134035823D01*
X216152963Y-133831030D01*
X216333540Y-133604594D01*
X216487628Y-133359364D01*
X216613290Y-133098423D01*
X216708947Y-132825054D01*
X216773394Y-132542693D01*
X216805821Y-132254892D01*
X216805821Y-131965270D01*
X216805820Y-131965263D01*
X288458221Y-131965263D01*
X288458221Y-132254898D01*
X288490645Y-132542678D01*
X288490648Y-132542696D01*
X288555093Y-132825049D01*
X288555098Y-132825065D01*
X288650749Y-133098416D01*
X288650758Y-133098438D01*
X288776410Y-133359358D01*
X288776414Y-133359364D01*
X288930502Y-133604594D01*
X289111079Y-133831030D01*
X289315872Y-134035823D01*
X289542308Y-134216400D01*
X289710437Y-134322042D01*
X289787543Y-134370491D01*
X290048463Y-134496143D01*
X290048472Y-134496146D01*
X290048479Y-134496150D01*
X290048485Y-134496152D01*
X290321836Y-134591803D01*
X290321841Y-134591804D01*
X290321848Y-134591807D01*
X290604209Y-134656254D01*
X290604215Y-134656254D01*
X290604223Y-134656256D01*
X290793014Y-134677527D01*
X290892004Y-134688680D01*
X290892007Y-134688681D01*
X290892010Y-134688681D01*
X291181635Y-134688681D01*
X291181636Y-134688680D01*
X291372630Y-134667161D01*
X291469418Y-134656256D01*
X291469423Y-134656255D01*
X291469433Y-134656254D01*
X291751794Y-134591807D01*
X292025163Y-134496150D01*
X292153163Y-134434509D01*
X292286098Y-134370491D01*
X292286098Y-134370490D01*
X292286104Y-134370488D01*
X292531334Y-134216400D01*
X292757770Y-134035823D01*
X292962563Y-133831030D01*
X293143140Y-133604594D01*
X293297228Y-133359364D01*
X293422890Y-133098423D01*
X293518547Y-132825054D01*
X293582994Y-132542693D01*
X293615421Y-132254892D01*
X293615421Y-131965270D01*
X293582994Y-131677469D01*
X293518547Y-131395108D01*
X293422890Y-131121739D01*
X293422886Y-131121732D01*
X293422883Y-131121723D01*
X293297231Y-130860803D01*
X293223324Y-130743181D01*
X293143140Y-130615568D01*
X292962563Y-130389132D01*
X292757770Y-130184339D01*
X292531334Y-130003762D01*
X292401980Y-129922484D01*
X292286098Y-129849670D01*
X292025178Y-129724018D01*
X292025156Y-129724009D01*
X291751805Y-129628358D01*
X291751789Y-129628353D01*
X291469436Y-129563908D01*
X291469418Y-129563905D01*
X291181638Y-129531481D01*
X291181632Y-129531481D01*
X290892010Y-129531481D01*
X290892003Y-129531481D01*
X290604223Y-129563905D01*
X290604205Y-129563908D01*
X290321852Y-129628353D01*
X290321836Y-129628358D01*
X290048485Y-129724009D01*
X290048463Y-129724018D01*
X289787543Y-129849670D01*
X289542309Y-130003761D01*
X289315872Y-130184338D01*
X289111078Y-130389132D01*
X288930501Y-130615569D01*
X288776410Y-130860803D01*
X288650758Y-131121723D01*
X288650749Y-131121745D01*
X288555098Y-131395096D01*
X288555093Y-131395112D01*
X288490648Y-131677465D01*
X288490645Y-131677483D01*
X288458221Y-131965263D01*
X216805820Y-131965263D01*
X216773394Y-131677469D01*
X216708947Y-131395108D01*
X216613290Y-131121739D01*
X216613286Y-131121732D01*
X216613283Y-131121723D01*
X216487631Y-130860803D01*
X216413724Y-130743181D01*
X216333540Y-130615568D01*
X216152963Y-130389132D01*
X215948170Y-130184339D01*
X215721734Y-130003762D01*
X215592380Y-129922484D01*
X215476498Y-129849670D01*
X215215578Y-129724018D01*
X215215556Y-129724009D01*
X214942205Y-129628358D01*
X214942189Y-129628353D01*
X214659836Y-129563908D01*
X214659818Y-129563905D01*
X214372038Y-129531481D01*
X214372032Y-129531481D01*
X214082410Y-129531481D01*
X214082403Y-129531481D01*
X213794623Y-129563905D01*
X213794605Y-129563908D01*
X213512252Y-129628353D01*
X213512236Y-129628358D01*
X213238885Y-129724009D01*
X213238863Y-129724018D01*
X212977943Y-129849670D01*
X212732709Y-130003761D01*
X212506272Y-130184338D01*
X212301478Y-130389132D01*
X212120901Y-130615569D01*
X211966810Y-130860803D01*
X211841158Y-131121723D01*
X211841149Y-131121745D01*
X211745498Y-131395096D01*
X211745493Y-131395112D01*
X211681048Y-131677465D01*
X211681045Y-131677483D01*
X211648621Y-131965263D01*
X205502820Y-131965263D01*
X205470394Y-131677469D01*
X205405947Y-131395108D01*
X205310290Y-131121739D01*
X205310286Y-131121732D01*
X205310283Y-131121723D01*
X205184631Y-130860803D01*
X205110724Y-130743181D01*
X205030540Y-130615568D01*
X204849963Y-130389132D01*
X204645170Y-130184339D01*
X204418734Y-130003762D01*
X204289380Y-129922484D01*
X204173498Y-129849670D01*
X203912578Y-129724018D01*
X203912556Y-129724009D01*
X203639205Y-129628358D01*
X203639189Y-129628353D01*
X203356836Y-129563908D01*
X203356818Y-129563905D01*
X203069038Y-129531481D01*
X203069032Y-129531481D01*
X202779410Y-129531481D01*
X202779403Y-129531481D01*
X202491623Y-129563905D01*
X202491605Y-129563908D01*
X202209252Y-129628353D01*
X202209236Y-129628358D01*
X201935885Y-129724009D01*
X201935863Y-129724018D01*
X201674943Y-129849670D01*
X201429709Y-130003761D01*
X201203272Y-130184338D01*
X200998478Y-130389132D01*
X200817901Y-130615569D01*
X200663810Y-130860803D01*
X200538158Y-131121723D01*
X200538149Y-131121745D01*
X200442498Y-131395096D01*
X200442493Y-131395112D01*
X200378048Y-131677465D01*
X200378045Y-131677483D01*
X200345621Y-131965263D01*
X128693220Y-131965263D01*
X128660794Y-131677469D01*
X128596347Y-131395108D01*
X128500690Y-131121739D01*
X128500686Y-131121732D01*
X128500683Y-131121723D01*
X128375031Y-130860803D01*
X128301124Y-130743181D01*
X128220940Y-130615568D01*
X128040363Y-130389132D01*
X127835570Y-130184339D01*
X127609134Y-130003762D01*
X127479780Y-129922484D01*
X127363898Y-129849670D01*
X127102978Y-129724018D01*
X127102956Y-129724009D01*
X126829605Y-129628358D01*
X126829589Y-129628353D01*
X126547236Y-129563908D01*
X126547218Y-129563905D01*
X126259438Y-129531481D01*
X126259432Y-129531481D01*
X125969810Y-129531481D01*
X125969803Y-129531481D01*
X125682023Y-129563905D01*
X125682005Y-129563908D01*
X125399652Y-129628353D01*
X125399636Y-129628358D01*
X125126285Y-129724009D01*
X125126263Y-129724018D01*
X124865343Y-129849670D01*
X124620109Y-130003761D01*
X124393672Y-130184338D01*
X124188878Y-130389132D01*
X124008301Y-130615569D01*
X123854210Y-130860803D01*
X123728558Y-131121723D01*
X123728549Y-131121745D01*
X123632898Y-131395096D01*
X123632893Y-131395112D01*
X123568448Y-131677465D01*
X123568445Y-131677483D01*
X123536021Y-131965263D01*
X119740281Y-131965263D01*
X119740281Y-129094088D01*
X142865421Y-129094088D01*
X142865421Y-129284074D01*
X142880281Y-129377897D01*
X142895142Y-129471722D01*
X142953848Y-129652405D01*
X142953849Y-129652408D01*
X142990334Y-129724012D01*
X143040102Y-129821687D01*
X143151773Y-129975389D01*
X143286113Y-130109729D01*
X143439815Y-130221400D01*
X143522841Y-130263703D01*
X143609093Y-130307652D01*
X143609096Y-130307653D01*
X143699437Y-130337006D01*
X143789781Y-130366360D01*
X143977428Y-130396081D01*
X143977429Y-130396081D01*
X144167413Y-130396081D01*
X144167414Y-130396081D01*
X144355061Y-130366360D01*
X144535748Y-130307652D01*
X144705027Y-130221400D01*
X144858729Y-130109729D01*
X144993069Y-129975389D01*
X145104740Y-129821687D01*
X145190992Y-129652408D01*
X145249700Y-129471721D01*
X145279421Y-129284074D01*
X145279421Y-129094088D01*
X148707421Y-129094088D01*
X148707421Y-129284074D01*
X148722281Y-129377897D01*
X148737142Y-129471722D01*
X148795848Y-129652405D01*
X148795849Y-129652408D01*
X148832334Y-129724012D01*
X148882102Y-129821687D01*
X148993773Y-129975389D01*
X149128113Y-130109729D01*
X149281815Y-130221400D01*
X149364841Y-130263703D01*
X149451093Y-130307652D01*
X149451096Y-130307653D01*
X149541437Y-130337006D01*
X149631781Y-130366360D01*
X149819428Y-130396081D01*
X149819429Y-130396081D01*
X150009413Y-130396081D01*
X150009414Y-130396081D01*
X150197061Y-130366360D01*
X150377748Y-130307652D01*
X150547027Y-130221400D01*
X150700729Y-130109729D01*
X150835069Y-129975389D01*
X150946740Y-129821687D01*
X151032992Y-129652408D01*
X151091700Y-129471721D01*
X151121421Y-129284074D01*
X151121421Y-129094088D01*
X154549421Y-129094088D01*
X154549421Y-129284074D01*
X154564281Y-129377897D01*
X154579142Y-129471722D01*
X154637848Y-129652405D01*
X154637849Y-129652408D01*
X154674334Y-129724012D01*
X154724102Y-129821687D01*
X154835773Y-129975389D01*
X154970113Y-130109729D01*
X155123815Y-130221400D01*
X155206841Y-130263703D01*
X155293093Y-130307652D01*
X155293096Y-130307653D01*
X155383437Y-130337006D01*
X155473781Y-130366360D01*
X155661428Y-130396081D01*
X155661429Y-130396081D01*
X155851413Y-130396081D01*
X155851414Y-130396081D01*
X156039061Y-130366360D01*
X156219748Y-130307652D01*
X156389027Y-130221400D01*
X156542729Y-130109729D01*
X156677069Y-129975389D01*
X156788740Y-129821687D01*
X156874992Y-129652408D01*
X156933700Y-129471721D01*
X156963421Y-129284074D01*
X156963421Y-129094088D01*
X156959093Y-129066765D01*
X160044321Y-129066765D01*
X160044321Y-129311396D01*
X160082587Y-129553000D01*
X160158182Y-129785652D01*
X160269235Y-130003607D01*
X160337030Y-130096917D01*
X160337030Y-130096918D01*
X160882498Y-129551450D01*
X160889382Y-129568070D01*
X160976943Y-129699115D01*
X161088387Y-129810559D01*
X161219432Y-129898120D01*
X161236050Y-129905003D01*
X160690582Y-130450470D01*
X160783894Y-130518266D01*
X161001849Y-130629319D01*
X161234501Y-130704914D01*
X161476106Y-130743181D01*
X161720736Y-130743181D01*
X161962340Y-130704914D01*
X162194992Y-130629319D01*
X162412947Y-130518266D01*
X162506258Y-130450470D01*
X161960791Y-129905003D01*
X161977410Y-129898120D01*
X162108455Y-129810559D01*
X162219899Y-129699115D01*
X162307460Y-129568070D01*
X162314343Y-129551450D01*
X162859810Y-130096917D01*
X162927606Y-130003607D01*
X163038659Y-129785652D01*
X163114254Y-129553000D01*
X163152521Y-129311396D01*
X163152521Y-129094088D01*
X166233421Y-129094088D01*
X166233421Y-129284074D01*
X166248281Y-129377897D01*
X166263142Y-129471722D01*
X166321848Y-129652405D01*
X166321849Y-129652408D01*
X166358334Y-129724012D01*
X166408102Y-129821687D01*
X166519773Y-129975389D01*
X166654113Y-130109729D01*
X166807815Y-130221400D01*
X166890841Y-130263703D01*
X166977093Y-130307652D01*
X166977096Y-130307653D01*
X167067437Y-130337006D01*
X167157781Y-130366360D01*
X167345428Y-130396081D01*
X167345429Y-130396081D01*
X167535413Y-130396081D01*
X167535414Y-130396081D01*
X167723061Y-130366360D01*
X167903748Y-130307652D01*
X168073027Y-130221400D01*
X168226729Y-130109729D01*
X168361069Y-129975389D01*
X168472740Y-129821687D01*
X168558992Y-129652408D01*
X168617700Y-129471721D01*
X168647421Y-129284074D01*
X168647421Y-129094088D01*
X172075421Y-129094088D01*
X172075421Y-129284074D01*
X172090281Y-129377897D01*
X172105142Y-129471722D01*
X172163848Y-129652405D01*
X172163849Y-129652408D01*
X172200334Y-129724012D01*
X172250102Y-129821687D01*
X172361773Y-129975389D01*
X172496113Y-130109729D01*
X172649815Y-130221400D01*
X172732841Y-130263703D01*
X172819093Y-130307652D01*
X172819096Y-130307653D01*
X172909437Y-130337006D01*
X172999781Y-130366360D01*
X173187428Y-130396081D01*
X173187429Y-130396081D01*
X173377413Y-130396081D01*
X173377414Y-130396081D01*
X173565061Y-130366360D01*
X173745748Y-130307652D01*
X173915027Y-130221400D01*
X174068729Y-130109729D01*
X174203069Y-129975389D01*
X174314740Y-129821687D01*
X174400992Y-129652408D01*
X174459700Y-129471721D01*
X174489421Y-129284074D01*
X174489421Y-129094088D01*
X177917421Y-129094088D01*
X177917421Y-129284074D01*
X177932281Y-129377897D01*
X177947142Y-129471722D01*
X178005848Y-129652405D01*
X178005849Y-129652408D01*
X178042334Y-129724012D01*
X178092102Y-129821687D01*
X178203773Y-129975389D01*
X178338113Y-130109729D01*
X178491815Y-130221400D01*
X178574841Y-130263703D01*
X178661093Y-130307652D01*
X178661096Y-130307653D01*
X178751437Y-130337006D01*
X178841781Y-130366360D01*
X179029428Y-130396081D01*
X179029429Y-130396081D01*
X179219413Y-130396081D01*
X179219414Y-130396081D01*
X179407061Y-130366360D01*
X179587748Y-130307652D01*
X179757027Y-130221400D01*
X179910729Y-130109729D01*
X180045069Y-129975389D01*
X180156740Y-129821687D01*
X180242992Y-129652408D01*
X180301700Y-129471721D01*
X180331421Y-129284074D01*
X180331421Y-129094088D01*
X183759421Y-129094088D01*
X183759421Y-129284074D01*
X183774281Y-129377897D01*
X183789142Y-129471722D01*
X183847848Y-129652405D01*
X183847849Y-129652408D01*
X183884334Y-129724012D01*
X183934102Y-129821687D01*
X184045773Y-129975389D01*
X184180113Y-130109729D01*
X184333815Y-130221400D01*
X184416841Y-130263703D01*
X184503093Y-130307652D01*
X184503096Y-130307653D01*
X184593437Y-130337006D01*
X184683781Y-130366360D01*
X184871428Y-130396081D01*
X184871429Y-130396081D01*
X185061413Y-130396081D01*
X185061414Y-130396081D01*
X185249061Y-130366360D01*
X185429748Y-130307652D01*
X185599027Y-130221400D01*
X185752729Y-130109729D01*
X185887069Y-129975389D01*
X185998740Y-129821687D01*
X186084992Y-129652408D01*
X186143700Y-129471721D01*
X186173421Y-129284074D01*
X186173421Y-129094088D01*
X230978021Y-129094088D01*
X230978021Y-129284074D01*
X230992881Y-129377897D01*
X231007742Y-129471722D01*
X231066448Y-129652405D01*
X231066449Y-129652408D01*
X231102934Y-129724012D01*
X231152702Y-129821687D01*
X231264373Y-129975389D01*
X231398713Y-130109729D01*
X231552415Y-130221400D01*
X231635441Y-130263703D01*
X231721693Y-130307652D01*
X231721696Y-130307653D01*
X231812037Y-130337006D01*
X231902381Y-130366360D01*
X232090028Y-130396081D01*
X232090029Y-130396081D01*
X232280013Y-130396081D01*
X232280014Y-130396081D01*
X232467661Y-130366360D01*
X232648348Y-130307652D01*
X232817627Y-130221400D01*
X232971329Y-130109729D01*
X233105669Y-129975389D01*
X233217340Y-129821687D01*
X233303592Y-129652408D01*
X233362300Y-129471721D01*
X233392021Y-129284074D01*
X233392021Y-129094088D01*
X236820021Y-129094088D01*
X236820021Y-129284074D01*
X236834881Y-129377897D01*
X236849742Y-129471722D01*
X236908448Y-129652405D01*
X236908449Y-129652408D01*
X236944934Y-129724012D01*
X236994702Y-129821687D01*
X237106373Y-129975389D01*
X237240713Y-130109729D01*
X237394415Y-130221400D01*
X237477441Y-130263703D01*
X237563693Y-130307652D01*
X237563696Y-130307653D01*
X237654037Y-130337006D01*
X237744381Y-130366360D01*
X237932028Y-130396081D01*
X237932029Y-130396081D01*
X238122013Y-130396081D01*
X238122014Y-130396081D01*
X238309661Y-130366360D01*
X238490348Y-130307652D01*
X238659627Y-130221400D01*
X238813329Y-130109729D01*
X238947669Y-129975389D01*
X239059340Y-129821687D01*
X239145592Y-129652408D01*
X239204300Y-129471721D01*
X239234021Y-129284074D01*
X239234021Y-129094088D01*
X242662021Y-129094088D01*
X242662021Y-129284074D01*
X242676881Y-129377897D01*
X242691742Y-129471722D01*
X242750448Y-129652405D01*
X242750449Y-129652408D01*
X242786934Y-129724012D01*
X242836702Y-129821687D01*
X242948373Y-129975389D01*
X243082713Y-130109729D01*
X243236415Y-130221400D01*
X243319441Y-130263703D01*
X243405693Y-130307652D01*
X243405696Y-130307653D01*
X243496037Y-130337006D01*
X243586381Y-130366360D01*
X243774028Y-130396081D01*
X243774029Y-130396081D01*
X243964013Y-130396081D01*
X243964014Y-130396081D01*
X244151661Y-130366360D01*
X244332348Y-130307652D01*
X244501627Y-130221400D01*
X244655329Y-130109729D01*
X244789669Y-129975389D01*
X244901340Y-129821687D01*
X244987592Y-129652408D01*
X245046300Y-129471721D01*
X245076021Y-129284074D01*
X245076021Y-129094088D01*
X248504021Y-129094088D01*
X248504021Y-129284074D01*
X248518881Y-129377897D01*
X248533742Y-129471722D01*
X248592448Y-129652405D01*
X248592449Y-129652408D01*
X248628934Y-129724012D01*
X248678702Y-129821687D01*
X248790373Y-129975389D01*
X248924713Y-130109729D01*
X249078415Y-130221400D01*
X249161441Y-130263703D01*
X249247693Y-130307652D01*
X249247696Y-130307653D01*
X249338037Y-130337006D01*
X249428381Y-130366360D01*
X249616028Y-130396081D01*
X249616029Y-130396081D01*
X249806013Y-130396081D01*
X249806014Y-130396081D01*
X249993661Y-130366360D01*
X250174348Y-130307652D01*
X250343627Y-130221400D01*
X250497329Y-130109729D01*
X250631669Y-129975389D01*
X250743340Y-129821687D01*
X250829592Y-129652408D01*
X250888300Y-129471721D01*
X250918021Y-129284074D01*
X250918021Y-129094088D01*
X254346021Y-129094088D01*
X254346021Y-129284074D01*
X254360881Y-129377897D01*
X254375742Y-129471722D01*
X254434448Y-129652405D01*
X254434449Y-129652408D01*
X254470934Y-129724012D01*
X254520702Y-129821687D01*
X254632373Y-129975389D01*
X254766713Y-130109729D01*
X254920415Y-130221400D01*
X255003441Y-130263703D01*
X255089693Y-130307652D01*
X255089696Y-130307653D01*
X255180037Y-130337006D01*
X255270381Y-130366360D01*
X255458028Y-130396081D01*
X255458029Y-130396081D01*
X255648013Y-130396081D01*
X255648014Y-130396081D01*
X255835661Y-130366360D01*
X256016348Y-130307652D01*
X256185627Y-130221400D01*
X256339329Y-130109729D01*
X256473669Y-129975389D01*
X256585340Y-129821687D01*
X256671592Y-129652408D01*
X256730300Y-129471721D01*
X256760021Y-129284074D01*
X256760021Y-129094088D01*
X260188021Y-129094088D01*
X260188021Y-129284074D01*
X260202881Y-129377897D01*
X260217742Y-129471722D01*
X260276448Y-129652405D01*
X260276449Y-129652408D01*
X260312934Y-129724012D01*
X260362702Y-129821687D01*
X260474373Y-129975389D01*
X260608713Y-130109729D01*
X260762415Y-130221400D01*
X260845441Y-130263703D01*
X260931693Y-130307652D01*
X260931696Y-130307653D01*
X261022037Y-130337006D01*
X261112381Y-130366360D01*
X261300028Y-130396081D01*
X261300029Y-130396081D01*
X261490013Y-130396081D01*
X261490014Y-130396081D01*
X261677661Y-130366360D01*
X261858348Y-130307652D01*
X262027627Y-130221400D01*
X262181329Y-130109729D01*
X262315669Y-129975389D01*
X262427340Y-129821687D01*
X262513592Y-129652408D01*
X262572300Y-129471721D01*
X262602021Y-129284074D01*
X262602021Y-129094088D01*
X266030021Y-129094088D01*
X266030021Y-129284074D01*
X266044881Y-129377897D01*
X266059742Y-129471722D01*
X266118448Y-129652405D01*
X266118449Y-129652408D01*
X266154934Y-129724012D01*
X266204702Y-129821687D01*
X266316373Y-129975389D01*
X266450713Y-130109729D01*
X266604415Y-130221400D01*
X266687441Y-130263703D01*
X266773693Y-130307652D01*
X266773696Y-130307653D01*
X266864037Y-130337006D01*
X266954381Y-130366360D01*
X267142028Y-130396081D01*
X267142029Y-130396081D01*
X267332013Y-130396081D01*
X267332014Y-130396081D01*
X267519661Y-130366360D01*
X267700348Y-130307652D01*
X267869627Y-130221400D01*
X268023329Y-130109729D01*
X268157669Y-129975389D01*
X268269340Y-129821687D01*
X268355592Y-129652408D01*
X268414300Y-129471721D01*
X268444021Y-129284074D01*
X268444021Y-129094088D01*
X271872021Y-129094088D01*
X271872021Y-129284074D01*
X271886881Y-129377897D01*
X271901742Y-129471722D01*
X271960448Y-129652405D01*
X271960449Y-129652408D01*
X271996934Y-129724012D01*
X272046702Y-129821687D01*
X272158373Y-129975389D01*
X272292713Y-130109729D01*
X272446415Y-130221400D01*
X272529441Y-130263703D01*
X272615693Y-130307652D01*
X272615696Y-130307653D01*
X272706037Y-130337006D01*
X272796381Y-130366360D01*
X272984028Y-130396081D01*
X272984029Y-130396081D01*
X273174013Y-130396081D01*
X273174014Y-130396081D01*
X273361661Y-130366360D01*
X273542348Y-130307652D01*
X273711627Y-130221400D01*
X273865329Y-130109729D01*
X273999669Y-129975389D01*
X274111340Y-129821687D01*
X274197592Y-129652408D01*
X274256300Y-129471721D01*
X274286021Y-129284074D01*
X274286021Y-129094088D01*
X274256300Y-128906441D01*
X274197592Y-128725754D01*
X274197592Y-128725753D01*
X274111339Y-128556474D01*
X273999669Y-128402773D01*
X273865329Y-128268433D01*
X273711627Y-128156762D01*
X273542348Y-128070509D01*
X273542345Y-128070508D01*
X273361662Y-128011802D01*
X273267837Y-127996941D01*
X273174014Y-127982081D01*
X272984028Y-127982081D01*
X272921479Y-127991988D01*
X272796379Y-128011802D01*
X272615696Y-128070508D01*
X272615693Y-128070509D01*
X272446414Y-128156762D01*
X272358722Y-128220474D01*
X272292713Y-128268433D01*
X272292711Y-128268435D01*
X272292710Y-128268435D01*
X272158375Y-128402770D01*
X272158375Y-128402771D01*
X272158373Y-128402773D01*
X272146054Y-128419729D01*
X272046702Y-128556474D01*
X271960449Y-128725753D01*
X271960448Y-128725756D01*
X271901742Y-128906439D01*
X271901742Y-128906441D01*
X271872021Y-129094088D01*
X268444021Y-129094088D01*
X268414300Y-128906441D01*
X268355592Y-128725754D01*
X268355592Y-128725753D01*
X268269339Y-128556474D01*
X268157669Y-128402773D01*
X268023329Y-128268433D01*
X267869627Y-128156762D01*
X267700348Y-128070509D01*
X267700345Y-128070508D01*
X267519662Y-128011802D01*
X267425837Y-127996941D01*
X267332014Y-127982081D01*
X267142028Y-127982081D01*
X267079479Y-127991988D01*
X266954379Y-128011802D01*
X266773696Y-128070508D01*
X266773693Y-128070509D01*
X266604414Y-128156762D01*
X266516722Y-128220474D01*
X266450713Y-128268433D01*
X266450711Y-128268435D01*
X266450710Y-128268435D01*
X266316375Y-128402770D01*
X266316375Y-128402771D01*
X266316373Y-128402773D01*
X266304054Y-128419729D01*
X266204702Y-128556474D01*
X266118449Y-128725753D01*
X266118448Y-128725756D01*
X266059742Y-128906439D01*
X266059742Y-128906441D01*
X266030021Y-129094088D01*
X262602021Y-129094088D01*
X262572300Y-128906441D01*
X262513592Y-128725754D01*
X262513592Y-128725753D01*
X262427339Y-128556474D01*
X262315669Y-128402773D01*
X262181329Y-128268433D01*
X262027627Y-128156762D01*
X261858348Y-128070509D01*
X261858345Y-128070508D01*
X261677662Y-128011802D01*
X261583837Y-127996941D01*
X261490014Y-127982081D01*
X261300028Y-127982081D01*
X261237479Y-127991988D01*
X261112379Y-128011802D01*
X260931696Y-128070508D01*
X260931693Y-128070509D01*
X260762414Y-128156762D01*
X260674722Y-128220474D01*
X260608713Y-128268433D01*
X260608711Y-128268435D01*
X260608710Y-128268435D01*
X260474375Y-128402770D01*
X260474375Y-128402771D01*
X260474373Y-128402773D01*
X260462054Y-128419729D01*
X260362702Y-128556474D01*
X260276449Y-128725753D01*
X260276448Y-128725756D01*
X260217742Y-128906439D01*
X260217742Y-128906441D01*
X260188021Y-129094088D01*
X256760021Y-129094088D01*
X256730300Y-128906441D01*
X256671592Y-128725754D01*
X256671592Y-128725753D01*
X256585339Y-128556474D01*
X256473669Y-128402773D01*
X256339329Y-128268433D01*
X256185627Y-128156762D01*
X256016348Y-128070509D01*
X256016345Y-128070508D01*
X255835662Y-128011802D01*
X255741837Y-127996941D01*
X255648014Y-127982081D01*
X255458028Y-127982081D01*
X255395479Y-127991988D01*
X255270379Y-128011802D01*
X255089696Y-128070508D01*
X255089693Y-128070509D01*
X254920414Y-128156762D01*
X254832722Y-128220474D01*
X254766713Y-128268433D01*
X254766711Y-128268435D01*
X254766710Y-128268435D01*
X254632375Y-128402770D01*
X254632375Y-128402771D01*
X254632373Y-128402773D01*
X254620054Y-128419729D01*
X254520702Y-128556474D01*
X254434449Y-128725753D01*
X254434448Y-128725756D01*
X254375742Y-128906439D01*
X254375742Y-128906441D01*
X254346021Y-129094088D01*
X250918021Y-129094088D01*
X250888300Y-128906441D01*
X250829592Y-128725754D01*
X250829592Y-128725753D01*
X250743339Y-128556474D01*
X250631669Y-128402773D01*
X250497329Y-128268433D01*
X250343627Y-128156762D01*
X250174348Y-128070509D01*
X250174345Y-128070508D01*
X249993662Y-128011802D01*
X249899837Y-127996941D01*
X249806014Y-127982081D01*
X249616028Y-127982081D01*
X249553479Y-127991988D01*
X249428379Y-128011802D01*
X249247696Y-128070508D01*
X249247693Y-128070509D01*
X249078414Y-128156762D01*
X248990722Y-128220474D01*
X248924713Y-128268433D01*
X248924711Y-128268435D01*
X248924710Y-128268435D01*
X248790375Y-128402770D01*
X248790375Y-128402771D01*
X248790373Y-128402773D01*
X248778054Y-128419729D01*
X248678702Y-128556474D01*
X248592449Y-128725753D01*
X248592448Y-128725756D01*
X248533742Y-128906439D01*
X248533742Y-128906441D01*
X248504021Y-129094088D01*
X245076021Y-129094088D01*
X245046300Y-128906441D01*
X244987592Y-128725754D01*
X244987592Y-128725753D01*
X244901339Y-128556474D01*
X244789669Y-128402773D01*
X244655329Y-128268433D01*
X244501627Y-128156762D01*
X244332348Y-128070509D01*
X244332345Y-128070508D01*
X244151662Y-128011802D01*
X244057837Y-127996941D01*
X243964014Y-127982081D01*
X243774028Y-127982081D01*
X243711479Y-127991988D01*
X243586379Y-128011802D01*
X243405696Y-128070508D01*
X243405693Y-128070509D01*
X243236414Y-128156762D01*
X243148722Y-128220474D01*
X243082713Y-128268433D01*
X243082711Y-128268435D01*
X243082710Y-128268435D01*
X242948375Y-128402770D01*
X242948375Y-128402771D01*
X242948373Y-128402773D01*
X242936054Y-128419729D01*
X242836702Y-128556474D01*
X242750449Y-128725753D01*
X242750448Y-128725756D01*
X242691742Y-128906439D01*
X242691742Y-128906441D01*
X242662021Y-129094088D01*
X239234021Y-129094088D01*
X239204300Y-128906441D01*
X239145592Y-128725754D01*
X239145592Y-128725753D01*
X239059339Y-128556474D01*
X238947669Y-128402773D01*
X238813329Y-128268433D01*
X238659627Y-128156762D01*
X238490348Y-128070509D01*
X238490345Y-128070508D01*
X238309662Y-128011802D01*
X238215837Y-127996941D01*
X238122014Y-127982081D01*
X237932028Y-127982081D01*
X237869479Y-127991988D01*
X237744379Y-128011802D01*
X237563696Y-128070508D01*
X237563693Y-128070509D01*
X237394414Y-128156762D01*
X237306722Y-128220474D01*
X237240713Y-128268433D01*
X237240711Y-128268435D01*
X237240710Y-128268435D01*
X237106375Y-128402770D01*
X237106375Y-128402771D01*
X237106373Y-128402773D01*
X237094054Y-128419729D01*
X236994702Y-128556474D01*
X236908449Y-128725753D01*
X236908448Y-128725756D01*
X236849742Y-128906439D01*
X236849742Y-128906441D01*
X236820021Y-129094088D01*
X233392021Y-129094088D01*
X233362300Y-128906441D01*
X233303592Y-128725754D01*
X233303592Y-128725753D01*
X233217339Y-128556474D01*
X233105669Y-128402773D01*
X232971329Y-128268433D01*
X232817627Y-128156762D01*
X232648348Y-128070509D01*
X232648345Y-128070508D01*
X232467662Y-128011802D01*
X232373837Y-127996941D01*
X232280014Y-127982081D01*
X232090028Y-127982081D01*
X232027479Y-127991988D01*
X231902379Y-128011802D01*
X231721696Y-128070508D01*
X231721693Y-128070509D01*
X231552414Y-128156762D01*
X231464722Y-128220474D01*
X231398713Y-128268433D01*
X231398711Y-128268435D01*
X231398710Y-128268435D01*
X231264375Y-128402770D01*
X231264375Y-128402771D01*
X231264373Y-128402773D01*
X231252054Y-128419729D01*
X231152702Y-128556474D01*
X231066449Y-128725753D01*
X231066448Y-128725756D01*
X231007742Y-128906439D01*
X231007742Y-128906441D01*
X230978021Y-129094088D01*
X186173421Y-129094088D01*
X186143700Y-128906441D01*
X186084992Y-128725754D01*
X186084992Y-128725753D01*
X185998739Y-128556474D01*
X185887069Y-128402773D01*
X185752729Y-128268433D01*
X185599027Y-128156762D01*
X185429748Y-128070509D01*
X185429745Y-128070508D01*
X185249062Y-128011802D01*
X185155237Y-127996941D01*
X185061414Y-127982081D01*
X184871428Y-127982081D01*
X184808879Y-127991988D01*
X184683779Y-128011802D01*
X184503096Y-128070508D01*
X184503093Y-128070509D01*
X184333814Y-128156762D01*
X184246122Y-128220474D01*
X184180113Y-128268433D01*
X184180111Y-128268435D01*
X184180110Y-128268435D01*
X184045775Y-128402770D01*
X184045775Y-128402771D01*
X184045773Y-128402773D01*
X184033454Y-128419729D01*
X183934102Y-128556474D01*
X183847849Y-128725753D01*
X183847848Y-128725756D01*
X183789142Y-128906439D01*
X183789142Y-128906441D01*
X183759421Y-129094088D01*
X180331421Y-129094088D01*
X180301700Y-128906441D01*
X180242992Y-128725754D01*
X180242992Y-128725753D01*
X180156739Y-128556474D01*
X180045069Y-128402773D01*
X179910729Y-128268433D01*
X179757027Y-128156762D01*
X179587748Y-128070509D01*
X179587745Y-128070508D01*
X179407062Y-128011802D01*
X179313237Y-127996941D01*
X179219414Y-127982081D01*
X179029428Y-127982081D01*
X178966879Y-127991988D01*
X178841779Y-128011802D01*
X178661096Y-128070508D01*
X178661093Y-128070509D01*
X178491814Y-128156762D01*
X178404122Y-128220474D01*
X178338113Y-128268433D01*
X178338111Y-128268435D01*
X178338110Y-128268435D01*
X178203775Y-128402770D01*
X178203775Y-128402771D01*
X178203773Y-128402773D01*
X178191454Y-128419729D01*
X178092102Y-128556474D01*
X178005849Y-128725753D01*
X178005848Y-128725756D01*
X177947142Y-128906439D01*
X177947142Y-128906441D01*
X177917421Y-129094088D01*
X174489421Y-129094088D01*
X174459700Y-128906441D01*
X174400992Y-128725754D01*
X174400992Y-128725753D01*
X174314739Y-128556474D01*
X174203069Y-128402773D01*
X174068729Y-128268433D01*
X173915027Y-128156762D01*
X173745748Y-128070509D01*
X173745745Y-128070508D01*
X173565062Y-128011802D01*
X173471237Y-127996941D01*
X173377414Y-127982081D01*
X173187428Y-127982081D01*
X173124879Y-127991988D01*
X172999779Y-128011802D01*
X172819096Y-128070508D01*
X172819093Y-128070509D01*
X172649814Y-128156762D01*
X172562122Y-128220474D01*
X172496113Y-128268433D01*
X172496111Y-128268435D01*
X172496110Y-128268435D01*
X172361775Y-128402770D01*
X172361775Y-128402771D01*
X172361773Y-128402773D01*
X172349454Y-128419729D01*
X172250102Y-128556474D01*
X172163849Y-128725753D01*
X172163848Y-128725756D01*
X172105142Y-128906439D01*
X172105142Y-128906441D01*
X172075421Y-129094088D01*
X168647421Y-129094088D01*
X168617700Y-128906441D01*
X168558992Y-128725754D01*
X168558992Y-128725753D01*
X168472739Y-128556474D01*
X168361069Y-128402773D01*
X168226729Y-128268433D01*
X168073027Y-128156762D01*
X167903748Y-128070509D01*
X167903745Y-128070508D01*
X167723062Y-128011802D01*
X167629237Y-127996941D01*
X167535414Y-127982081D01*
X167345428Y-127982081D01*
X167282879Y-127991988D01*
X167157779Y-128011802D01*
X166977096Y-128070508D01*
X166977093Y-128070509D01*
X166807814Y-128156762D01*
X166720122Y-128220474D01*
X166654113Y-128268433D01*
X166654111Y-128268435D01*
X166654110Y-128268435D01*
X166519775Y-128402770D01*
X166519775Y-128402771D01*
X166519773Y-128402773D01*
X166507454Y-128419729D01*
X166408102Y-128556474D01*
X166321849Y-128725753D01*
X166321848Y-128725756D01*
X166263142Y-128906439D01*
X166263142Y-128906441D01*
X166233421Y-129094088D01*
X163152521Y-129094088D01*
X163152521Y-129066765D01*
X163114254Y-128825161D01*
X163038659Y-128592509D01*
X162927606Y-128374554D01*
X162859810Y-128281243D01*
X162859810Y-128281242D01*
X162314343Y-128826709D01*
X162307460Y-128810092D01*
X162219899Y-128679047D01*
X162108455Y-128567603D01*
X161977410Y-128480042D01*
X161960789Y-128473157D01*
X162506258Y-127927690D01*
X162412947Y-127859895D01*
X162194992Y-127748842D01*
X161962340Y-127673247D01*
X161720736Y-127634981D01*
X161476106Y-127634981D01*
X161234501Y-127673247D01*
X161001849Y-127748842D01*
X160783890Y-127859897D01*
X160690583Y-127927688D01*
X160690582Y-127927690D01*
X161236050Y-128473158D01*
X161219432Y-128480042D01*
X161088387Y-128567603D01*
X160976943Y-128679047D01*
X160889382Y-128810092D01*
X160882498Y-128826710D01*
X160337030Y-128281242D01*
X160337028Y-128281243D01*
X160269237Y-128374550D01*
X160158182Y-128592509D01*
X160082587Y-128825161D01*
X160044321Y-129066765D01*
X156959093Y-129066765D01*
X156933700Y-128906441D01*
X156874992Y-128725754D01*
X156874992Y-128725753D01*
X156788739Y-128556474D01*
X156677069Y-128402773D01*
X156542729Y-128268433D01*
X156389027Y-128156762D01*
X156249040Y-128085435D01*
X156219748Y-128070509D01*
X156219745Y-128070508D01*
X156039062Y-128011802D01*
X155945237Y-127996941D01*
X155851414Y-127982081D01*
X155661428Y-127982081D01*
X155598879Y-127991988D01*
X155473779Y-128011802D01*
X155293096Y-128070508D01*
X155293093Y-128070509D01*
X155123814Y-128156762D01*
X155036122Y-128220474D01*
X154970113Y-128268433D01*
X154970111Y-128268435D01*
X154970110Y-128268435D01*
X154835775Y-128402770D01*
X154835775Y-128402771D01*
X154835773Y-128402773D01*
X154823454Y-128419729D01*
X154724102Y-128556474D01*
X154637849Y-128725753D01*
X154637848Y-128725756D01*
X154579142Y-128906439D01*
X154579142Y-128906441D01*
X154549421Y-129094088D01*
X151121421Y-129094088D01*
X151091700Y-128906441D01*
X151032992Y-128725754D01*
X151032992Y-128725753D01*
X150946739Y-128556474D01*
X150835069Y-128402773D01*
X150700729Y-128268433D01*
X150547027Y-128156762D01*
X150377748Y-128070509D01*
X150377745Y-128070508D01*
X150197062Y-128011802D01*
X150103237Y-127996941D01*
X150009414Y-127982081D01*
X149819428Y-127982081D01*
X149756879Y-127991988D01*
X149631779Y-128011802D01*
X149451096Y-128070508D01*
X149451093Y-128070509D01*
X149281814Y-128156762D01*
X149194122Y-128220474D01*
X149128113Y-128268433D01*
X149128111Y-128268435D01*
X149128110Y-128268435D01*
X148993775Y-128402770D01*
X148993775Y-128402771D01*
X148993773Y-128402773D01*
X148981454Y-128419729D01*
X148882102Y-128556474D01*
X148795849Y-128725753D01*
X148795848Y-128725756D01*
X148737142Y-128906439D01*
X148737142Y-128906441D01*
X148707421Y-129094088D01*
X145279421Y-129094088D01*
X145249700Y-128906441D01*
X145190992Y-128725754D01*
X145190992Y-128725753D01*
X145104739Y-128556474D01*
X144993069Y-128402773D01*
X144858729Y-128268433D01*
X144705027Y-128156762D01*
X144535748Y-128070509D01*
X144535745Y-128070508D01*
X144355062Y-128011802D01*
X144261237Y-127996941D01*
X144167414Y-127982081D01*
X143977428Y-127982081D01*
X143914879Y-127991988D01*
X143789779Y-128011802D01*
X143609096Y-128070508D01*
X143609093Y-128070509D01*
X143439814Y-128156762D01*
X143352122Y-128220474D01*
X143286113Y-128268433D01*
X143286111Y-128268435D01*
X143286110Y-128268435D01*
X143151775Y-128402770D01*
X143151775Y-128402771D01*
X143151773Y-128402773D01*
X143139454Y-128419729D01*
X143040102Y-128556474D01*
X142953849Y-128725753D01*
X142953848Y-128725756D01*
X142895142Y-128906439D01*
X142895142Y-128906441D01*
X142865421Y-129094088D01*
X119740281Y-129094088D01*
X119740281Y-126248387D01*
X119740507Y-126240900D01*
X119756492Y-125976637D01*
X119758297Y-125961772D01*
X119792378Y-125775803D01*
X119805343Y-125705048D01*
X119808927Y-125690514D01*
X119886571Y-125441345D01*
X119891873Y-125427363D01*
X119998993Y-125189350D01*
X120005952Y-125176092D01*
X120007493Y-125173543D01*
X120140980Y-124952729D01*
X120149467Y-124940433D01*
X120310443Y-124734962D01*
X120320358Y-124723771D01*
X120504915Y-124539214D01*
X120516106Y-124529299D01*
X120721577Y-124368323D01*
X120733873Y-124359836D01*
X120957236Y-124224807D01*
X120970495Y-124217849D01*
X121208507Y-124110729D01*
X121222489Y-124105427D01*
X121471663Y-124027781D01*
X121486192Y-124024199D01*
X121742920Y-123977152D01*
X121757778Y-123975348D01*
X122022045Y-123959363D01*
X122029532Y-123959137D01*
X122070656Y-123959137D01*
X295208906Y-123959137D01*
X295250030Y-123959137D01*
X295257517Y-123959363D01*
G37*
%TD.AperFunction*%
%TD*%
M02*
