M48
; DRILL file {KiCad 9.0.7} date 2026-02-13T04:40:40-0800
; FORMAT={-:-/ absolute / inch / decimal}
; #@! TF.CreationDate,2026-02-13T04:40:40-08:00
; #@! TF.GenerationSoftware,Kicad,Pcbnew,9.0.7
; #@! TF.FileFunction,Plated,1,4,PTH
FMAT,2
INCH
; #@! TA.AperFunction,Plated,PTH,ViaDrill
T1C0.0118
; #@! TA.AperFunction,Plated,PTH,ComponentDrill
T2C0.0630
; #@! TA.AperFunction,Plated,PTH,ComponentDrill
T3C0.1378
%
G90
G05
T1
X4.0301Y-4.4895
X4.04Y-4.835
X4.1161Y-4.8411
X4.185Y-4.285
X4.195Y-4.615
X4.245Y-4.565
X4.39Y-4.115
X4.6179Y-4.8525
X4.66Y-4.415
X4.7783Y-4.5425
X4.7876Y-4.875
X4.865Y-4.86
X5.03Y-5.395
X5.155Y-5.83
X5.195Y-5.525
X5.2Y-5.79
X5.23Y-5.38
X5.275Y-5.55
X5.2816Y-4.8434
X5.355Y-4.675
X5.36Y-5.615
X5.38Y-5.225
X5.4422Y-4.3715
X5.4513Y-4.8613
X5.52Y-5.51
X5.53Y-4.825
X5.575Y-4.8975
X5.72Y-5.09
X5.725Y-4.535
X5.73Y-4.77
X5.765Y-5.195
X5.84Y-4.975
X5.8427Y-4.8077
X5.8744Y-5.3606
X5.875Y-5.29
X5.995Y-4.695
X6.1268Y-5.1068
X6.21Y-4.83
X6.305Y-5.21
X6.4695Y-5.7995
X6.495Y-4.945
X6.5Y-5.015
X6.7Y-4.56
X6.7169Y-4.85
X6.8243Y-4.85
X6.98Y-5.79
X7.2969Y-4.85
X7.4043Y-4.85
X7.7589Y-4.85
X7.8663Y-4.85
X8.2239Y-4.845
X8.295Y-4.23
X8.295Y-4.395
X8.3313Y-4.845
X8.3731Y-4.2381
X8.4141Y-5.5559
X8.5173Y-5.7444
X8.5173Y-5.7744
X8.5473Y-5.7444
X8.5473Y-5.7744
X8.5773Y-5.7444
X8.5773Y-5.7744
X8.6126Y-5.744
X8.6126Y-5.774
X8.6126Y-5.804
X8.64Y-4.24
X8.6426Y-5.744
X8.6426Y-5.774
X8.6426Y-5.804
X8.6757Y-5.7767
X8.6757Y-5.8067
X8.705Y-5.515
X8.7057Y-5.7767
X8.7057Y-5.8067
X8.7059Y-4.8791
X8.7189Y-4.2389
X8.7357Y-5.7767
X8.7357Y-5.8067
X8.785Y-5.245
X8.8167Y-4.865
X8.96Y-4.195
X9.025Y-4.375
X9.101Y-4.3634
X9.18Y-4.365
X9.225Y-4.3
X9.2637Y-4.849
X9.405Y-5.02
X9.4652Y-4.195
X9.4802Y-5.0205
X9.5287Y-4.954
X9.53Y-4.375
X9.6062Y-4.3634
X9.6852Y-4.365
X9.7302Y-4.3
X9.7737Y-4.859
X9.915Y-5.03
X9.9576Y-4.195
X10.005Y-5.015
X10.0231Y-4.3739
X10.0387Y-4.964
X10.0987Y-4.3634
X10.1776Y-4.365
X10.2226Y-4.3
T2
X4.6683Y-5.9282
X4.6683Y-6.1582
X4.8983Y-5.9282
X4.8983Y-6.1582
X5.1283Y-5.9282
X5.1283Y-6.1582
X5.3583Y-5.9282
X5.3583Y-6.1582
X5.5883Y-5.9282
X5.5883Y-6.1582
X5.8183Y-5.9282
X5.8183Y-6.1582
X6.0483Y-5.9282
X6.0483Y-6.1582
X6.2783Y-5.9282
X6.2783Y-6.1582
X8.1373Y-5.9282
X8.1373Y-6.1582
X8.3673Y-5.9282
X8.3673Y-6.1582
X8.5973Y-5.9282
X8.5973Y-6.1582
X8.8273Y-5.9282
X8.8273Y-6.1582
X9.0573Y-5.9282
X9.0573Y-6.1582
X9.2873Y-5.9282
X9.2873Y-6.1582
X9.5173Y-5.9282
X9.5173Y-6.1582
X9.7473Y-5.9282
X9.7473Y-6.1582
T3
X3.9453Y-3.9622
X3.9453Y-5.4742
X10.4653Y-3.9622
X10.4653Y-5.4742
M30
