%TF.GenerationSoftware,KiCad,Pcbnew,9.0.7*%
%TF.CreationDate,2026-02-13T04:40:40-08:00*%
%TF.ProjectId,Shutdown,53687574-646f-4776-9e2e-6b696361645f,rev?*%
%TF.SameCoordinates,Original*%
%TF.FileFunction,Copper,L3,Inr*%
%TF.FilePolarity,Positive*%
%FSLAX46Y46*%
G04 Gerber Fmt 4.6, Leading zero omitted, Abs format (unit mm)*
G04 Created by KiCad (PCBNEW 9.0.7) date 2026-02-13 04:40:40*
%MOMM*%
%LPD*%
G01*
G04 APERTURE LIST*
%TA.AperFunction,ComponentPad*%
%ADD10C,3.900000*%
%TD*%
%TA.AperFunction,ComponentPad*%
%ADD11C,2.108200*%
%TD*%
%TA.AperFunction,ViaPad*%
%ADD12C,0.600000*%
%TD*%
G04 APERTURE END LIST*
D10*
%TO.N,unconnected-(MH2-Pad1)_1*%
%TO.C,MH2*%
X265817819Y-100638919D03*
%TD*%
D11*
%TO.N,/BSPD-FAULT-VCU*%
%TO.C,J1*%
X118574579Y-150577519D03*
%TO.N,/BYPASS-BTN*%
X124416579Y-150577519D03*
%TO.N,/HVILS-A*%
X130258579Y-150577519D03*
%TO.N,/CRASH-SW-A*%
X136100579Y-150577519D03*
%TO.N,/BOTS-B*%
X141942579Y-150577519D03*
%TO.N,/SD-POWER*%
X147784579Y-150577519D03*
X153626579Y-150577519D03*
%TO.N,GND*%
X159468579Y-150577519D03*
%TO.N,/BMS-FAULT*%
X118574579Y-156419519D03*
%TO.N,/IMD-FAULT*%
X124416579Y-156419519D03*
%TO.N,/BMS-FAULT-VCU-BUF*%
X130258579Y-156419519D03*
%TO.N,/IMD-FAULT-VCU-BUF*%
X136100579Y-156419519D03*
%TO.N,/BOTS-A*%
X141942579Y-156419519D03*
%TO.N,/BOTS-B*%
X147784579Y-156419519D03*
%TO.N,/CRASH-SW-A*%
X153626579Y-156419519D03*
%TO.N,/BOTS-A*%
X159468579Y-156419519D03*
%TD*%
D10*
%TO.N,unconnected-(MH1-Pad1)_2*%
%TO.C,MH1*%
X100209819Y-100638919D03*
%TD*%
D11*
%TO.N,/TRACTIVE-FAN-ON*%
%TO.C,J2*%
X206687179Y-150577519D03*
%TO.N,/ACCY-FAN-ON*%
X212529179Y-150577519D03*
%TO.N,BATT+*%
X218371179Y-150577519D03*
X224213179Y-150577519D03*
%TO.N,GND*%
X230055179Y-150577519D03*
%TO.N,unconnected-(J2-Pad6)*%
X235897179Y-150577519D03*
%TO.N,unconnected-(J2-Pad7)*%
X241739179Y-150577519D03*
%TO.N,unconnected-(J2-Pad8)*%
X247581179Y-150577519D03*
%TO.N,/PRECHARGE-DEBUG*%
X206687179Y-156419519D03*
%TO.N,/POS-AIRS-DEBUG*%
X212529179Y-156419519D03*
%TO.N,/NEG-AIRS-DEBUG*%
X218371179Y-156419519D03*
%TO.N,/TSSI-STATUS*%
X224213179Y-156419519D03*
%TO.N,GND*%
X230055179Y-156419519D03*
%TO.N,unconnected-(J2-Pad14)*%
X235897179Y-156419519D03*
%TO.N,unconnected-(J2-Pad15)*%
X241739179Y-156419519D03*
%TO.N,unconnected-(J2-Pad16)*%
X247581179Y-156419519D03*
%TD*%
D10*
%TO.N,unconnected-(MH3-Pad1)_2*%
%TO.C,MH3*%
X265817819Y-139043972D03*
%TD*%
%TO.N,unconnected-(MH4-Pad1)_1*%
%TO.C,MH4*%
X100209819Y-139043972D03*
%TD*%
D12*
%TO.N,GND*%
X221129213Y-123929787D03*
X252923789Y-106553000D03*
X134152777Y-123022223D03*
X212677570Y-107648570D03*
X233172000Y-110871000D03*
X254127000Y-127381000D03*
X221107000Y-140081000D03*
X208886089Y-123063000D03*
X160147000Y-132334000D03*
X248252039Y-123417995D03*
X227584000Y-106553000D03*
X102363981Y-114033517D03*
X106299000Y-108839000D03*
X197075089Y-123190000D03*
X185340588Y-123190000D03*
X157734000Y-122682000D03*
X146431000Y-131953000D03*
X145415000Y-115189000D03*
X240797770Y-127519644D03*
X117294765Y-123252279D03*
X149225000Y-134366000D03*
X235298039Y-123163995D03*
X155620251Y-129712251D03*
X213717500Y-141120500D03*
X240416145Y-106553000D03*
X140208000Y-139954000D03*
X136144000Y-142621000D03*
X246004145Y-110871000D03*
X104549395Y-122964395D03*
X258511789Y-110871000D03*
X170608588Y-123190000D03*
X145542000Y-121158000D03*
%TO.N,BATT+PROT*%
X165100000Y-127381000D03*
X145288000Y-129286000D03*
X242029039Y-125830995D03*
X148336000Y-126365000D03*
X221123903Y-146728188D03*
X118364000Y-112141000D03*
X221123903Y-147490188D03*
X221885903Y-147490188D03*
X138463714Y-123477714D03*
X219522006Y-146659268D03*
X247147145Y-109220000D03*
X218760006Y-146659268D03*
X219522006Y-147421268D03*
X219456000Y-107696000D03*
X111506000Y-104521000D03*
X234315000Y-109220000D03*
X220361903Y-146728188D03*
X216338999Y-146669542D03*
X220361903Y-147490188D03*
X254983039Y-126084995D03*
X127762000Y-137033000D03*
X106553000Y-117221000D03*
X149210421Y-136158579D03*
X216338999Y-145907542D03*
X221885903Y-146728188D03*
X107823000Y-115951000D03*
X217100999Y-146669542D03*
X259654789Y-109220000D03*
X121605750Y-123825000D03*
X218760006Y-145897268D03*
X217100999Y-145907542D03*
X218760006Y-147421268D03*
X217862999Y-145907542D03*
X217862999Y-146669542D03*
X219522006Y-145897268D03*
%TO.N,/BYPASS-BTN*%
X221459969Y-107667969D03*
X164973000Y-125603000D03*
X130937000Y-148082000D03*
%TO.N,/HVILS-A*%
X170180000Y-115824000D03*
X132080000Y-147066000D03*
%TO.N,/IMD-FAULT*%
X148404751Y-122115751D03*
%TO.N,/SD-POWER*%
X223945087Y-123571000D03*
X177292000Y-147066000D03*
X164325197Y-147307197D03*
%TO.N,/BMS-FAULT*%
X133985000Y-140970000D03*
X121368787Y-115379500D03*
%TO.N,BATT+*%
X223139000Y-133223000D03*
X210693000Y-111633000D03*
X210693000Y-107442000D03*
%TO.N,/POS-AIRS-DEBUG*%
X242062000Y-111125000D03*
%TO.N,/NEG-AIRS-DEBUG*%
X254586759Y-111096468D03*
%TO.N,/PRECHARGE-DEBUG*%
X229235000Y-111125000D03*
%TO.N,Net-(D1-A)*%
X231166581Y-110829651D03*
%TO.N,Net-(D7-A)*%
X243998726Y-110829651D03*
%TO.N,Net-(D10-A)*%
X256506370Y-110829651D03*
%TO.N,/IMD-Fault-Passthru/OUTPUT*%
X136017000Y-118745000D03*
X152273000Y-119253000D03*
%TO.N,Net-(D22-K)*%
X123571000Y-123444000D03*
%TO.N,Net-(D26-K)*%
X141605000Y-124395465D03*
X140462000Y-122555000D03*
%TO.N,Net-(D30-K)*%
X131953000Y-140335000D03*
X132842000Y-136652000D03*
%TO.N,Net-(D47-A)*%
X102616000Y-122809000D03*
%TO.N,Net-(Q5-S)*%
X238887000Y-127508000D03*
%TO.N,Net-(Q6-S)*%
X251841000Y-127762000D03*
%TO.N,/IMD-FAULT-VCU*%
X136652000Y-132715000D03*
X138231454Y-111035121D03*
%TO.N,Net-(Q18-D)*%
X173336588Y-123190000D03*
%TO.N,Net-(Q19-D)*%
X188068588Y-123190000D03*
%TO.N,Net-(Q20-D)*%
X199803089Y-123190000D03*
%TO.N,Net-(Q21-D)*%
X211614089Y-123063000D03*
%TD*%
%TA.AperFunction,Conductor*%
%TO.N,BATT+PROT*%
G36*
X271789322Y-94543545D02*
G01*
X271856359Y-94563230D01*
X271902113Y-94616034D01*
X271913319Y-94667545D01*
X271913319Y-161525472D01*
X271893634Y-161592511D01*
X271840830Y-161638266D01*
X271789319Y-161649472D01*
X94238319Y-161649472D01*
X94171280Y-161629787D01*
X94125525Y-161576983D01*
X94114319Y-161525472D01*
X94114319Y-156324526D01*
X117367579Y-156324526D01*
X117367579Y-156514511D01*
X117397300Y-156702160D01*
X117456006Y-156882843D01*
X117456007Y-156882846D01*
X117542260Y-157052125D01*
X117653931Y-157205827D01*
X117788271Y-157340167D01*
X117941973Y-157451838D01*
X118024999Y-157494141D01*
X118111251Y-157538090D01*
X118111254Y-157538091D01*
X118201595Y-157567444D01*
X118291939Y-157596798D01*
X118479586Y-157626519D01*
X118479587Y-157626519D01*
X118669571Y-157626519D01*
X118669572Y-157626519D01*
X118857219Y-157596798D01*
X119037906Y-157538090D01*
X119207185Y-157451838D01*
X119360887Y-157340167D01*
X119495227Y-157205827D01*
X119606898Y-157052125D01*
X119693150Y-156882846D01*
X119751858Y-156702159D01*
X119781579Y-156514512D01*
X119781579Y-156324526D01*
X123209579Y-156324526D01*
X123209579Y-156514511D01*
X123239300Y-156702160D01*
X123298006Y-156882843D01*
X123298007Y-156882846D01*
X123384260Y-157052125D01*
X123495931Y-157205827D01*
X123630271Y-157340167D01*
X123783973Y-157451838D01*
X123866999Y-157494141D01*
X123953251Y-157538090D01*
X123953254Y-157538091D01*
X124043595Y-157567444D01*
X124133939Y-157596798D01*
X124321586Y-157626519D01*
X124321587Y-157626519D01*
X124511571Y-157626519D01*
X124511572Y-157626519D01*
X124699219Y-157596798D01*
X124879906Y-157538090D01*
X125049185Y-157451838D01*
X125202887Y-157340167D01*
X125337227Y-157205827D01*
X125448898Y-157052125D01*
X125535150Y-156882846D01*
X125593858Y-156702159D01*
X125623579Y-156514512D01*
X125623579Y-156324526D01*
X129051579Y-156324526D01*
X129051579Y-156514511D01*
X129081300Y-156702160D01*
X129140006Y-156882843D01*
X129140007Y-156882846D01*
X129226260Y-157052125D01*
X129337931Y-157205827D01*
X129472271Y-157340167D01*
X129625973Y-157451838D01*
X129708999Y-157494141D01*
X129795251Y-157538090D01*
X129795254Y-157538091D01*
X129885595Y-157567444D01*
X129975939Y-157596798D01*
X130163586Y-157626519D01*
X130163587Y-157626519D01*
X130353571Y-157626519D01*
X130353572Y-157626519D01*
X130541219Y-157596798D01*
X130721906Y-157538090D01*
X130891185Y-157451838D01*
X131044887Y-157340167D01*
X131179227Y-157205827D01*
X131290898Y-157052125D01*
X131377150Y-156882846D01*
X131435858Y-156702159D01*
X131465579Y-156514512D01*
X131465579Y-156324526D01*
X134893579Y-156324526D01*
X134893579Y-156514511D01*
X134923300Y-156702160D01*
X134982006Y-156882843D01*
X134982007Y-156882846D01*
X135068260Y-157052125D01*
X135179931Y-157205827D01*
X135314271Y-157340167D01*
X135467973Y-157451838D01*
X135550999Y-157494141D01*
X135637251Y-157538090D01*
X135637254Y-157538091D01*
X135727595Y-157567444D01*
X135817939Y-157596798D01*
X136005586Y-157626519D01*
X136005587Y-157626519D01*
X136195571Y-157626519D01*
X136195572Y-157626519D01*
X136383219Y-157596798D01*
X136563906Y-157538090D01*
X136733185Y-157451838D01*
X136886887Y-157340167D01*
X137021227Y-157205827D01*
X137132898Y-157052125D01*
X137219150Y-156882846D01*
X137277858Y-156702159D01*
X137307579Y-156514512D01*
X137307579Y-156324526D01*
X140735579Y-156324526D01*
X140735579Y-156514511D01*
X140765300Y-156702160D01*
X140824006Y-156882843D01*
X140824007Y-156882846D01*
X140910260Y-157052125D01*
X141021931Y-157205827D01*
X141156271Y-157340167D01*
X141309973Y-157451838D01*
X141392999Y-157494141D01*
X141479251Y-157538090D01*
X141479254Y-157538091D01*
X141569595Y-157567444D01*
X141659939Y-157596798D01*
X141847586Y-157626519D01*
X141847587Y-157626519D01*
X142037571Y-157626519D01*
X142037572Y-157626519D01*
X142225219Y-157596798D01*
X142405906Y-157538090D01*
X142575185Y-157451838D01*
X142728887Y-157340167D01*
X142863227Y-157205827D01*
X142974898Y-157052125D01*
X143061150Y-156882846D01*
X143119858Y-156702159D01*
X143149579Y-156514512D01*
X143149579Y-156324526D01*
X146577579Y-156324526D01*
X146577579Y-156514511D01*
X146607300Y-156702160D01*
X146666006Y-156882843D01*
X146666007Y-156882846D01*
X146752260Y-157052125D01*
X146863931Y-157205827D01*
X146998271Y-157340167D01*
X147151973Y-157451838D01*
X147234999Y-157494141D01*
X147321251Y-157538090D01*
X147321254Y-157538091D01*
X147411595Y-157567444D01*
X147501939Y-157596798D01*
X147689586Y-157626519D01*
X147689587Y-157626519D01*
X147879571Y-157626519D01*
X147879572Y-157626519D01*
X148067219Y-157596798D01*
X148247906Y-157538090D01*
X148417185Y-157451838D01*
X148570887Y-157340167D01*
X148705227Y-157205827D01*
X148816898Y-157052125D01*
X148903150Y-156882846D01*
X148961858Y-156702159D01*
X148991579Y-156514512D01*
X148991579Y-156324526D01*
X152419579Y-156324526D01*
X152419579Y-156514511D01*
X152449300Y-156702160D01*
X152508006Y-156882843D01*
X152508007Y-156882846D01*
X152594260Y-157052125D01*
X152705931Y-157205827D01*
X152840271Y-157340167D01*
X152993973Y-157451838D01*
X153076999Y-157494141D01*
X153163251Y-157538090D01*
X153163254Y-157538091D01*
X153253595Y-157567444D01*
X153343939Y-157596798D01*
X153531586Y-157626519D01*
X153531587Y-157626519D01*
X153721571Y-157626519D01*
X153721572Y-157626519D01*
X153909219Y-157596798D01*
X154089906Y-157538090D01*
X154259185Y-157451838D01*
X154412887Y-157340167D01*
X154547227Y-157205827D01*
X154658898Y-157052125D01*
X154745150Y-156882846D01*
X154803858Y-156702159D01*
X154833579Y-156514512D01*
X154833579Y-156324526D01*
X158261579Y-156324526D01*
X158261579Y-156514511D01*
X158291300Y-156702160D01*
X158350006Y-156882843D01*
X158350007Y-156882846D01*
X158436260Y-157052125D01*
X158547931Y-157205827D01*
X158682271Y-157340167D01*
X158835973Y-157451838D01*
X158918999Y-157494141D01*
X159005251Y-157538090D01*
X159005254Y-157538091D01*
X159095595Y-157567444D01*
X159185939Y-157596798D01*
X159373586Y-157626519D01*
X159373587Y-157626519D01*
X159563571Y-157626519D01*
X159563572Y-157626519D01*
X159751219Y-157596798D01*
X159931906Y-157538090D01*
X160101185Y-157451838D01*
X160254887Y-157340167D01*
X160389227Y-157205827D01*
X160500898Y-157052125D01*
X160587150Y-156882846D01*
X160645858Y-156702159D01*
X160675579Y-156514512D01*
X160675579Y-156324526D01*
X205480179Y-156324526D01*
X205480179Y-156514511D01*
X205509900Y-156702160D01*
X205568606Y-156882843D01*
X205568607Y-156882846D01*
X205654860Y-157052125D01*
X205766531Y-157205827D01*
X205900871Y-157340167D01*
X206054573Y-157451838D01*
X206137599Y-157494141D01*
X206223851Y-157538090D01*
X206223854Y-157538091D01*
X206314195Y-157567444D01*
X206404539Y-157596798D01*
X206592186Y-157626519D01*
X206592187Y-157626519D01*
X206782171Y-157626519D01*
X206782172Y-157626519D01*
X206969819Y-157596798D01*
X207150506Y-157538090D01*
X207319785Y-157451838D01*
X207473487Y-157340167D01*
X207607827Y-157205827D01*
X207719498Y-157052125D01*
X207805750Y-156882846D01*
X207864458Y-156702159D01*
X207894179Y-156514512D01*
X207894179Y-156324526D01*
X211322179Y-156324526D01*
X211322179Y-156514511D01*
X211351900Y-156702160D01*
X211410606Y-156882843D01*
X211410607Y-156882846D01*
X211496860Y-157052125D01*
X211608531Y-157205827D01*
X211742871Y-157340167D01*
X211896573Y-157451838D01*
X211979599Y-157494141D01*
X212065851Y-157538090D01*
X212065854Y-157538091D01*
X212156195Y-157567444D01*
X212246539Y-157596798D01*
X212434186Y-157626519D01*
X212434187Y-157626519D01*
X212624171Y-157626519D01*
X212624172Y-157626519D01*
X212811819Y-157596798D01*
X212992506Y-157538090D01*
X213161785Y-157451838D01*
X213315487Y-157340167D01*
X213449827Y-157205827D01*
X213561498Y-157052125D01*
X213647750Y-156882846D01*
X213706458Y-156702159D01*
X213736179Y-156514512D01*
X213736179Y-156324526D01*
X217164179Y-156324526D01*
X217164179Y-156514511D01*
X217193900Y-156702160D01*
X217252606Y-156882843D01*
X217252607Y-156882846D01*
X217338860Y-157052125D01*
X217450531Y-157205827D01*
X217584871Y-157340167D01*
X217738573Y-157451838D01*
X217821599Y-157494141D01*
X217907851Y-157538090D01*
X217907854Y-157538091D01*
X217998195Y-157567444D01*
X218088539Y-157596798D01*
X218276186Y-157626519D01*
X218276187Y-157626519D01*
X218466171Y-157626519D01*
X218466172Y-157626519D01*
X218653819Y-157596798D01*
X218834506Y-157538090D01*
X219003785Y-157451838D01*
X219157487Y-157340167D01*
X219291827Y-157205827D01*
X219403498Y-157052125D01*
X219489750Y-156882846D01*
X219548458Y-156702159D01*
X219578179Y-156514512D01*
X219578179Y-156324526D01*
X223006179Y-156324526D01*
X223006179Y-156514511D01*
X223035900Y-156702160D01*
X223094606Y-156882843D01*
X223094607Y-156882846D01*
X223180860Y-157052125D01*
X223292531Y-157205827D01*
X223426871Y-157340167D01*
X223580573Y-157451838D01*
X223663599Y-157494141D01*
X223749851Y-157538090D01*
X223749854Y-157538091D01*
X223840195Y-157567444D01*
X223930539Y-157596798D01*
X224118186Y-157626519D01*
X224118187Y-157626519D01*
X224308171Y-157626519D01*
X224308172Y-157626519D01*
X224495819Y-157596798D01*
X224676506Y-157538090D01*
X224845785Y-157451838D01*
X224999487Y-157340167D01*
X225133827Y-157205827D01*
X225245498Y-157052125D01*
X225331750Y-156882846D01*
X225390458Y-156702159D01*
X225420179Y-156514512D01*
X225420179Y-156324526D01*
X228848179Y-156324526D01*
X228848179Y-156514511D01*
X228877900Y-156702160D01*
X228936606Y-156882843D01*
X228936607Y-156882846D01*
X229022860Y-157052125D01*
X229134531Y-157205827D01*
X229268871Y-157340167D01*
X229422573Y-157451838D01*
X229505599Y-157494141D01*
X229591851Y-157538090D01*
X229591854Y-157538091D01*
X229682195Y-157567444D01*
X229772539Y-157596798D01*
X229960186Y-157626519D01*
X229960187Y-157626519D01*
X230150171Y-157626519D01*
X230150172Y-157626519D01*
X230337819Y-157596798D01*
X230518506Y-157538090D01*
X230687785Y-157451838D01*
X230841487Y-157340167D01*
X230975827Y-157205827D01*
X231087498Y-157052125D01*
X231173750Y-156882846D01*
X231232458Y-156702159D01*
X231262179Y-156514512D01*
X231262179Y-156324526D01*
X234690179Y-156324526D01*
X234690179Y-156514511D01*
X234719900Y-156702160D01*
X234778606Y-156882843D01*
X234778607Y-156882846D01*
X234864860Y-157052125D01*
X234976531Y-157205827D01*
X235110871Y-157340167D01*
X235264573Y-157451838D01*
X235347599Y-157494141D01*
X235433851Y-157538090D01*
X235433854Y-157538091D01*
X235524195Y-157567444D01*
X235614539Y-157596798D01*
X235802186Y-157626519D01*
X235802187Y-157626519D01*
X235992171Y-157626519D01*
X235992172Y-157626519D01*
X236179819Y-157596798D01*
X236360506Y-157538090D01*
X236529785Y-157451838D01*
X236683487Y-157340167D01*
X236817827Y-157205827D01*
X236929498Y-157052125D01*
X237015750Y-156882846D01*
X237074458Y-156702159D01*
X237104179Y-156514512D01*
X237104179Y-156324526D01*
X240532179Y-156324526D01*
X240532179Y-156514511D01*
X240561900Y-156702160D01*
X240620606Y-156882843D01*
X240620607Y-156882846D01*
X240706860Y-157052125D01*
X240818531Y-157205827D01*
X240952871Y-157340167D01*
X241106573Y-157451838D01*
X241189599Y-157494141D01*
X241275851Y-157538090D01*
X241275854Y-157538091D01*
X241366195Y-157567444D01*
X241456539Y-157596798D01*
X241644186Y-157626519D01*
X241644187Y-157626519D01*
X241834171Y-157626519D01*
X241834172Y-157626519D01*
X242021819Y-157596798D01*
X242202506Y-157538090D01*
X242371785Y-157451838D01*
X242525487Y-157340167D01*
X242659827Y-157205827D01*
X242771498Y-157052125D01*
X242857750Y-156882846D01*
X242916458Y-156702159D01*
X242946179Y-156514512D01*
X242946179Y-156324526D01*
X246374179Y-156324526D01*
X246374179Y-156514511D01*
X246403900Y-156702160D01*
X246462606Y-156882843D01*
X246462607Y-156882846D01*
X246548860Y-157052125D01*
X246660531Y-157205827D01*
X246794871Y-157340167D01*
X246948573Y-157451838D01*
X247031599Y-157494141D01*
X247117851Y-157538090D01*
X247117854Y-157538091D01*
X247208195Y-157567444D01*
X247298539Y-157596798D01*
X247486186Y-157626519D01*
X247486187Y-157626519D01*
X247676171Y-157626519D01*
X247676172Y-157626519D01*
X247863819Y-157596798D01*
X248044506Y-157538090D01*
X248213785Y-157451838D01*
X248367487Y-157340167D01*
X248501827Y-157205827D01*
X248613498Y-157052125D01*
X248699750Y-156882846D01*
X248758458Y-156702159D01*
X248788179Y-156514512D01*
X248788179Y-156324526D01*
X248758458Y-156136879D01*
X248699750Y-155956192D01*
X248699750Y-155956191D01*
X248613497Y-155786912D01*
X248593164Y-155758926D01*
X248501827Y-155633211D01*
X248367487Y-155498871D01*
X248213785Y-155387200D01*
X248044506Y-155300947D01*
X248044503Y-155300946D01*
X247863820Y-155242240D01*
X247720045Y-155219468D01*
X247676172Y-155212519D01*
X247486186Y-155212519D01*
X247442319Y-155219467D01*
X247298537Y-155242240D01*
X247117854Y-155300946D01*
X247117851Y-155300947D01*
X246948572Y-155387200D01*
X246860880Y-155450912D01*
X246794871Y-155498871D01*
X246794869Y-155498873D01*
X246794868Y-155498873D01*
X246660533Y-155633208D01*
X246660533Y-155633209D01*
X246660531Y-155633211D01*
X246612572Y-155699220D01*
X246548860Y-155786912D01*
X246462607Y-155956191D01*
X246462606Y-155956194D01*
X246403900Y-156136877D01*
X246374179Y-156324526D01*
X242946179Y-156324526D01*
X242916458Y-156136879D01*
X242857750Y-155956192D01*
X242857750Y-155956191D01*
X242771497Y-155786912D01*
X242751164Y-155758926D01*
X242659827Y-155633211D01*
X242525487Y-155498871D01*
X242371785Y-155387200D01*
X242202506Y-155300947D01*
X242202503Y-155300946D01*
X242021820Y-155242240D01*
X241878045Y-155219468D01*
X241834172Y-155212519D01*
X241644186Y-155212519D01*
X241600319Y-155219467D01*
X241456537Y-155242240D01*
X241275854Y-155300946D01*
X241275851Y-155300947D01*
X241106572Y-155387200D01*
X241018880Y-155450912D01*
X240952871Y-155498871D01*
X240952869Y-155498873D01*
X240952868Y-155498873D01*
X240818533Y-155633208D01*
X240818533Y-155633209D01*
X240818531Y-155633211D01*
X240770572Y-155699220D01*
X240706860Y-155786912D01*
X240620607Y-155956191D01*
X240620606Y-155956194D01*
X240561900Y-156136877D01*
X240532179Y-156324526D01*
X237104179Y-156324526D01*
X237074458Y-156136879D01*
X237015750Y-155956192D01*
X237015750Y-155956191D01*
X236929497Y-155786912D01*
X236909164Y-155758926D01*
X236817827Y-155633211D01*
X236683487Y-155498871D01*
X236529785Y-155387200D01*
X236360506Y-155300947D01*
X236360503Y-155300946D01*
X236179820Y-155242240D01*
X236036045Y-155219468D01*
X235992172Y-155212519D01*
X235802186Y-155212519D01*
X235758319Y-155219467D01*
X235614537Y-155242240D01*
X235433854Y-155300946D01*
X235433851Y-155300947D01*
X235264572Y-155387200D01*
X235176880Y-155450912D01*
X235110871Y-155498871D01*
X235110869Y-155498873D01*
X235110868Y-155498873D01*
X234976533Y-155633208D01*
X234976533Y-155633209D01*
X234976531Y-155633211D01*
X234928572Y-155699220D01*
X234864860Y-155786912D01*
X234778607Y-155956191D01*
X234778606Y-155956194D01*
X234719900Y-156136877D01*
X234690179Y-156324526D01*
X231262179Y-156324526D01*
X231232458Y-156136879D01*
X231173750Y-155956192D01*
X231173750Y-155956191D01*
X231087497Y-155786912D01*
X231067164Y-155758926D01*
X230975827Y-155633211D01*
X230841487Y-155498871D01*
X230687785Y-155387200D01*
X230518506Y-155300947D01*
X230518503Y-155300946D01*
X230337820Y-155242240D01*
X230194045Y-155219468D01*
X230150172Y-155212519D01*
X229960186Y-155212519D01*
X229916319Y-155219467D01*
X229772537Y-155242240D01*
X229591854Y-155300946D01*
X229591851Y-155300947D01*
X229422572Y-155387200D01*
X229334880Y-155450912D01*
X229268871Y-155498871D01*
X229268869Y-155498873D01*
X229268868Y-155498873D01*
X229134533Y-155633208D01*
X229134533Y-155633209D01*
X229134531Y-155633211D01*
X229086572Y-155699220D01*
X229022860Y-155786912D01*
X228936607Y-155956191D01*
X228936606Y-155956194D01*
X228877900Y-156136877D01*
X228848179Y-156324526D01*
X225420179Y-156324526D01*
X225390458Y-156136879D01*
X225331750Y-155956192D01*
X225331750Y-155956191D01*
X225245497Y-155786912D01*
X225225164Y-155758926D01*
X225133827Y-155633211D01*
X224999487Y-155498871D01*
X224845785Y-155387200D01*
X224676506Y-155300947D01*
X224676503Y-155300946D01*
X224495820Y-155242240D01*
X224352045Y-155219468D01*
X224308172Y-155212519D01*
X224118186Y-155212519D01*
X224074319Y-155219467D01*
X223930537Y-155242240D01*
X223749854Y-155300946D01*
X223749851Y-155300947D01*
X223580572Y-155387200D01*
X223492880Y-155450912D01*
X223426871Y-155498871D01*
X223426869Y-155498873D01*
X223426868Y-155498873D01*
X223292533Y-155633208D01*
X223292533Y-155633209D01*
X223292531Y-155633211D01*
X223244572Y-155699220D01*
X223180860Y-155786912D01*
X223094607Y-155956191D01*
X223094606Y-155956194D01*
X223035900Y-156136877D01*
X223006179Y-156324526D01*
X219578179Y-156324526D01*
X219548458Y-156136879D01*
X219489750Y-155956192D01*
X219489750Y-155956191D01*
X219403497Y-155786912D01*
X219383164Y-155758926D01*
X219291827Y-155633211D01*
X219157487Y-155498871D01*
X219003785Y-155387200D01*
X218834506Y-155300947D01*
X218834503Y-155300946D01*
X218653820Y-155242240D01*
X218510045Y-155219468D01*
X218466172Y-155212519D01*
X218276186Y-155212519D01*
X218232319Y-155219467D01*
X218088537Y-155242240D01*
X217907854Y-155300946D01*
X217907851Y-155300947D01*
X217738572Y-155387200D01*
X217650880Y-155450912D01*
X217584871Y-155498871D01*
X217584869Y-155498873D01*
X217584868Y-155498873D01*
X217450533Y-155633208D01*
X217450533Y-155633209D01*
X217450531Y-155633211D01*
X217402572Y-155699220D01*
X217338860Y-155786912D01*
X217252607Y-155956191D01*
X217252606Y-155956194D01*
X217193900Y-156136877D01*
X217164179Y-156324526D01*
X213736179Y-156324526D01*
X213706458Y-156136879D01*
X213647750Y-155956192D01*
X213647750Y-155956191D01*
X213561497Y-155786912D01*
X213541164Y-155758926D01*
X213449827Y-155633211D01*
X213315487Y-155498871D01*
X213161785Y-155387200D01*
X212992506Y-155300947D01*
X212992503Y-155300946D01*
X212811820Y-155242240D01*
X212668045Y-155219468D01*
X212624172Y-155212519D01*
X212434186Y-155212519D01*
X212390319Y-155219467D01*
X212246537Y-155242240D01*
X212065854Y-155300946D01*
X212065851Y-155300947D01*
X211896572Y-155387200D01*
X211808880Y-155450912D01*
X211742871Y-155498871D01*
X211742869Y-155498873D01*
X211742868Y-155498873D01*
X211608533Y-155633208D01*
X211608533Y-155633209D01*
X211608531Y-155633211D01*
X211560572Y-155699220D01*
X211496860Y-155786912D01*
X211410607Y-155956191D01*
X211410606Y-155956194D01*
X211351900Y-156136877D01*
X211322179Y-156324526D01*
X207894179Y-156324526D01*
X207864458Y-156136879D01*
X207805750Y-155956192D01*
X207805750Y-155956191D01*
X207719497Y-155786912D01*
X207699164Y-155758926D01*
X207607827Y-155633211D01*
X207473487Y-155498871D01*
X207319785Y-155387200D01*
X207150506Y-155300947D01*
X207150503Y-155300946D01*
X206969820Y-155242240D01*
X206826045Y-155219468D01*
X206782172Y-155212519D01*
X206592186Y-155212519D01*
X206548319Y-155219467D01*
X206404537Y-155242240D01*
X206223854Y-155300946D01*
X206223851Y-155300947D01*
X206054572Y-155387200D01*
X205966880Y-155450912D01*
X205900871Y-155498871D01*
X205900869Y-155498873D01*
X205900868Y-155498873D01*
X205766533Y-155633208D01*
X205766533Y-155633209D01*
X205766531Y-155633211D01*
X205718572Y-155699220D01*
X205654860Y-155786912D01*
X205568607Y-155956191D01*
X205568606Y-155956194D01*
X205509900Y-156136877D01*
X205480179Y-156324526D01*
X160675579Y-156324526D01*
X160645858Y-156136879D01*
X160587150Y-155956192D01*
X160587150Y-155956191D01*
X160500897Y-155786912D01*
X160480564Y-155758926D01*
X160389227Y-155633211D01*
X160254887Y-155498871D01*
X160101185Y-155387200D01*
X159931906Y-155300947D01*
X159931903Y-155300946D01*
X159751220Y-155242240D01*
X159607445Y-155219468D01*
X159563572Y-155212519D01*
X159373586Y-155212519D01*
X159329719Y-155219467D01*
X159185937Y-155242240D01*
X159005254Y-155300946D01*
X159005251Y-155300947D01*
X158835972Y-155387200D01*
X158748280Y-155450912D01*
X158682271Y-155498871D01*
X158682269Y-155498873D01*
X158682268Y-155498873D01*
X158547933Y-155633208D01*
X158547933Y-155633209D01*
X158547931Y-155633211D01*
X158499972Y-155699220D01*
X158436260Y-155786912D01*
X158350007Y-155956191D01*
X158350006Y-155956194D01*
X158291300Y-156136877D01*
X158261579Y-156324526D01*
X154833579Y-156324526D01*
X154803858Y-156136879D01*
X154745150Y-155956192D01*
X154745150Y-155956191D01*
X154658897Y-155786912D01*
X154638564Y-155758926D01*
X154547227Y-155633211D01*
X154412887Y-155498871D01*
X154259185Y-155387200D01*
X154089906Y-155300947D01*
X154089903Y-155300946D01*
X153909220Y-155242240D01*
X153765445Y-155219468D01*
X153721572Y-155212519D01*
X153531586Y-155212519D01*
X153487719Y-155219467D01*
X153343937Y-155242240D01*
X153163254Y-155300946D01*
X153163251Y-155300947D01*
X152993972Y-155387200D01*
X152906280Y-155450912D01*
X152840271Y-155498871D01*
X152840269Y-155498873D01*
X152840268Y-155498873D01*
X152705933Y-155633208D01*
X152705933Y-155633209D01*
X152705931Y-155633211D01*
X152657972Y-155699220D01*
X152594260Y-155786912D01*
X152508007Y-155956191D01*
X152508006Y-155956194D01*
X152449300Y-156136877D01*
X152419579Y-156324526D01*
X148991579Y-156324526D01*
X148961858Y-156136879D01*
X148903150Y-155956192D01*
X148903150Y-155956191D01*
X148816897Y-155786912D01*
X148796564Y-155758926D01*
X148705227Y-155633211D01*
X148570887Y-155498871D01*
X148417185Y-155387200D01*
X148247906Y-155300947D01*
X148247903Y-155300946D01*
X148067220Y-155242240D01*
X147923445Y-155219468D01*
X147879572Y-155212519D01*
X147689586Y-155212519D01*
X147645719Y-155219467D01*
X147501937Y-155242240D01*
X147321254Y-155300946D01*
X147321251Y-155300947D01*
X147151972Y-155387200D01*
X147064280Y-155450912D01*
X146998271Y-155498871D01*
X146998269Y-155498873D01*
X146998268Y-155498873D01*
X146863933Y-155633208D01*
X146863933Y-155633209D01*
X146863931Y-155633211D01*
X146815972Y-155699220D01*
X146752260Y-155786912D01*
X146666007Y-155956191D01*
X146666006Y-155956194D01*
X146607300Y-156136877D01*
X146577579Y-156324526D01*
X143149579Y-156324526D01*
X143119858Y-156136879D01*
X143061150Y-155956192D01*
X143061150Y-155956191D01*
X142974897Y-155786912D01*
X142954564Y-155758926D01*
X142863227Y-155633211D01*
X142728887Y-155498871D01*
X142575185Y-155387200D01*
X142405906Y-155300947D01*
X142405903Y-155300946D01*
X142225220Y-155242240D01*
X142081445Y-155219468D01*
X142037572Y-155212519D01*
X141847586Y-155212519D01*
X141803719Y-155219467D01*
X141659937Y-155242240D01*
X141479254Y-155300946D01*
X141479251Y-155300947D01*
X141309972Y-155387200D01*
X141222280Y-155450912D01*
X141156271Y-155498871D01*
X141156269Y-155498873D01*
X141156268Y-155498873D01*
X141021933Y-155633208D01*
X141021933Y-155633209D01*
X141021931Y-155633211D01*
X140973972Y-155699220D01*
X140910260Y-155786912D01*
X140824007Y-155956191D01*
X140824006Y-155956194D01*
X140765300Y-156136877D01*
X140735579Y-156324526D01*
X137307579Y-156324526D01*
X137277858Y-156136879D01*
X137219150Y-155956192D01*
X137219150Y-155956191D01*
X137132897Y-155786912D01*
X137112564Y-155758926D01*
X137021227Y-155633211D01*
X136886887Y-155498871D01*
X136733185Y-155387200D01*
X136563906Y-155300947D01*
X136563903Y-155300946D01*
X136383220Y-155242240D01*
X136239445Y-155219468D01*
X136195572Y-155212519D01*
X136005586Y-155212519D01*
X135961719Y-155219467D01*
X135817937Y-155242240D01*
X135637254Y-155300946D01*
X135637251Y-155300947D01*
X135467972Y-155387200D01*
X135380280Y-155450912D01*
X135314271Y-155498871D01*
X135314269Y-155498873D01*
X135314268Y-155498873D01*
X135179933Y-155633208D01*
X135179933Y-155633209D01*
X135179931Y-155633211D01*
X135131972Y-155699220D01*
X135068260Y-155786912D01*
X134982007Y-155956191D01*
X134982006Y-155956194D01*
X134923300Y-156136877D01*
X134893579Y-156324526D01*
X131465579Y-156324526D01*
X131435858Y-156136879D01*
X131377150Y-155956192D01*
X131377150Y-155956191D01*
X131290897Y-155786912D01*
X131270564Y-155758926D01*
X131179227Y-155633211D01*
X131044887Y-155498871D01*
X130891185Y-155387200D01*
X130721906Y-155300947D01*
X130721903Y-155300946D01*
X130541220Y-155242240D01*
X130397445Y-155219468D01*
X130353572Y-155212519D01*
X130163586Y-155212519D01*
X130119719Y-155219467D01*
X129975937Y-155242240D01*
X129795254Y-155300946D01*
X129795251Y-155300947D01*
X129625972Y-155387200D01*
X129538280Y-155450912D01*
X129472271Y-155498871D01*
X129472269Y-155498873D01*
X129472268Y-155498873D01*
X129337933Y-155633208D01*
X129337933Y-155633209D01*
X129337931Y-155633211D01*
X129289972Y-155699220D01*
X129226260Y-155786912D01*
X129140007Y-155956191D01*
X129140006Y-155956194D01*
X129081300Y-156136877D01*
X129051579Y-156324526D01*
X125623579Y-156324526D01*
X125593858Y-156136879D01*
X125535150Y-155956192D01*
X125535150Y-155956191D01*
X125448897Y-155786912D01*
X125428564Y-155758926D01*
X125337227Y-155633211D01*
X125202887Y-155498871D01*
X125049185Y-155387200D01*
X124879906Y-155300947D01*
X124879903Y-155300946D01*
X124699220Y-155242240D01*
X124555445Y-155219468D01*
X124511572Y-155212519D01*
X124321586Y-155212519D01*
X124277719Y-155219467D01*
X124133937Y-155242240D01*
X123953254Y-155300946D01*
X123953251Y-155300947D01*
X123783972Y-155387200D01*
X123696280Y-155450912D01*
X123630271Y-155498871D01*
X123630269Y-155498873D01*
X123630268Y-155498873D01*
X123495933Y-155633208D01*
X123495933Y-155633209D01*
X123495931Y-155633211D01*
X123447972Y-155699220D01*
X123384260Y-155786912D01*
X123298007Y-155956191D01*
X123298006Y-155956194D01*
X123239300Y-156136877D01*
X123209579Y-156324526D01*
X119781579Y-156324526D01*
X119751858Y-156136879D01*
X119693150Y-155956192D01*
X119693150Y-155956191D01*
X119606897Y-155786912D01*
X119586564Y-155758926D01*
X119495227Y-155633211D01*
X119360887Y-155498871D01*
X119207185Y-155387200D01*
X119037906Y-155300947D01*
X119037903Y-155300946D01*
X118857220Y-155242240D01*
X118713445Y-155219468D01*
X118669572Y-155212519D01*
X118479586Y-155212519D01*
X118435719Y-155219467D01*
X118291937Y-155242240D01*
X118111254Y-155300946D01*
X118111251Y-155300947D01*
X117941972Y-155387200D01*
X117854280Y-155450912D01*
X117788271Y-155498871D01*
X117788269Y-155498873D01*
X117788268Y-155498873D01*
X117653933Y-155633208D01*
X117653933Y-155633209D01*
X117653931Y-155633211D01*
X117605972Y-155699220D01*
X117542260Y-155786912D01*
X117456007Y-155956191D01*
X117456006Y-155956194D01*
X117397300Y-156136877D01*
X117367579Y-156324526D01*
X94114319Y-156324526D01*
X94114319Y-153353701D01*
X98038179Y-153353701D01*
X98038179Y-153643336D01*
X98070603Y-153931116D01*
X98070606Y-153931134D01*
X98135051Y-154213487D01*
X98135056Y-154213503D01*
X98230707Y-154486854D01*
X98230716Y-154486876D01*
X98356368Y-154747796D01*
X98356372Y-154747802D01*
X98510460Y-154993032D01*
X98691037Y-155219468D01*
X98895830Y-155424261D01*
X99122266Y-155604838D01*
X99367496Y-155758926D01*
X99367501Y-155758929D01*
X99628421Y-155884581D01*
X99628430Y-155884584D01*
X99628437Y-155884588D01*
X99628443Y-155884590D01*
X99901794Y-155980241D01*
X99901799Y-155980242D01*
X99901806Y-155980245D01*
X100184167Y-156044692D01*
X100184173Y-156044692D01*
X100184181Y-156044694D01*
X100376034Y-156066310D01*
X100471962Y-156077118D01*
X100471965Y-156077119D01*
X100471968Y-156077119D01*
X100761593Y-156077119D01*
X100761594Y-156077118D01*
X100908673Y-156060546D01*
X101049376Y-156044694D01*
X101049381Y-156044693D01*
X101049391Y-156044692D01*
X101331752Y-155980245D01*
X101605121Y-155884588D01*
X101866062Y-155758926D01*
X102111292Y-155604838D01*
X102337728Y-155424261D01*
X102542521Y-155219468D01*
X102723098Y-154993032D01*
X102877186Y-154747802D01*
X103002848Y-154486861D01*
X103098505Y-154213492D01*
X103162952Y-153931131D01*
X103195379Y-153643330D01*
X103195379Y-153353708D01*
X103195378Y-153353701D01*
X174847779Y-153353701D01*
X174847779Y-153643336D01*
X174880203Y-153931116D01*
X174880206Y-153931134D01*
X174944651Y-154213487D01*
X174944656Y-154213503D01*
X175040307Y-154486854D01*
X175040316Y-154486876D01*
X175165968Y-154747796D01*
X175165972Y-154747802D01*
X175320060Y-154993032D01*
X175500637Y-155219468D01*
X175705430Y-155424261D01*
X175931866Y-155604838D01*
X176177096Y-155758926D01*
X176177101Y-155758929D01*
X176438021Y-155884581D01*
X176438030Y-155884584D01*
X176438037Y-155884588D01*
X176438043Y-155884590D01*
X176711394Y-155980241D01*
X176711399Y-155980242D01*
X176711406Y-155980245D01*
X176993767Y-156044692D01*
X176993773Y-156044692D01*
X176993781Y-156044694D01*
X177185634Y-156066310D01*
X177281562Y-156077118D01*
X177281565Y-156077119D01*
X177281568Y-156077119D01*
X177571193Y-156077119D01*
X177571194Y-156077118D01*
X177718273Y-156060546D01*
X177858976Y-156044694D01*
X177858981Y-156044693D01*
X177858991Y-156044692D01*
X178141352Y-155980245D01*
X178414721Y-155884588D01*
X178675662Y-155758926D01*
X178920892Y-155604838D01*
X179147328Y-155424261D01*
X179352121Y-155219468D01*
X179532698Y-154993032D01*
X179686786Y-154747802D01*
X179812448Y-154486861D01*
X179908105Y-154213492D01*
X179972552Y-153931131D01*
X180004979Y-153643330D01*
X180004979Y-153353708D01*
X180004978Y-153353701D01*
X186150779Y-153353701D01*
X186150779Y-153643336D01*
X186183203Y-153931116D01*
X186183206Y-153931134D01*
X186247651Y-154213487D01*
X186247656Y-154213503D01*
X186343307Y-154486854D01*
X186343316Y-154486876D01*
X186468968Y-154747796D01*
X186468972Y-154747802D01*
X186623060Y-154993032D01*
X186803637Y-155219468D01*
X187008430Y-155424261D01*
X187234866Y-155604838D01*
X187480096Y-155758926D01*
X187480101Y-155758929D01*
X187741021Y-155884581D01*
X187741030Y-155884584D01*
X187741037Y-155884588D01*
X187741043Y-155884590D01*
X188014394Y-155980241D01*
X188014399Y-155980242D01*
X188014406Y-155980245D01*
X188296767Y-156044692D01*
X188296773Y-156044692D01*
X188296781Y-156044694D01*
X188488634Y-156066310D01*
X188584562Y-156077118D01*
X188584565Y-156077119D01*
X188584568Y-156077119D01*
X188874193Y-156077119D01*
X188874194Y-156077118D01*
X189021273Y-156060546D01*
X189161976Y-156044694D01*
X189161981Y-156044693D01*
X189161991Y-156044692D01*
X189444352Y-155980245D01*
X189717721Y-155884588D01*
X189978662Y-155758926D01*
X190223892Y-155604838D01*
X190450328Y-155424261D01*
X190655121Y-155219468D01*
X190835698Y-154993032D01*
X190989786Y-154747802D01*
X191115448Y-154486861D01*
X191211105Y-154213492D01*
X191275552Y-153931131D01*
X191307979Y-153643330D01*
X191307979Y-153353708D01*
X191307978Y-153353701D01*
X262960379Y-153353701D01*
X262960379Y-153643336D01*
X262992803Y-153931116D01*
X262992806Y-153931134D01*
X263057251Y-154213487D01*
X263057256Y-154213503D01*
X263152907Y-154486854D01*
X263152916Y-154486876D01*
X263278568Y-154747796D01*
X263278572Y-154747802D01*
X263432660Y-154993032D01*
X263613237Y-155219468D01*
X263818030Y-155424261D01*
X264044466Y-155604838D01*
X264289696Y-155758926D01*
X264289701Y-155758929D01*
X264550621Y-155884581D01*
X264550630Y-155884584D01*
X264550637Y-155884588D01*
X264550643Y-155884590D01*
X264823994Y-155980241D01*
X264823999Y-155980242D01*
X264824006Y-155980245D01*
X265106367Y-156044692D01*
X265106373Y-156044692D01*
X265106381Y-156044694D01*
X265298234Y-156066310D01*
X265394162Y-156077118D01*
X265394165Y-156077119D01*
X265394168Y-156077119D01*
X265683793Y-156077119D01*
X265683794Y-156077118D01*
X265830873Y-156060546D01*
X265971576Y-156044694D01*
X265971581Y-156044693D01*
X265971591Y-156044692D01*
X266253952Y-155980245D01*
X266527321Y-155884588D01*
X266788262Y-155758926D01*
X267033492Y-155604838D01*
X267259928Y-155424261D01*
X267464721Y-155219468D01*
X267645298Y-154993032D01*
X267799386Y-154747802D01*
X267925048Y-154486861D01*
X268020705Y-154213492D01*
X268085152Y-153931131D01*
X268117579Y-153643330D01*
X268117579Y-153353708D01*
X268085152Y-153065907D01*
X268020705Y-152783546D01*
X267925048Y-152510177D01*
X267925044Y-152510170D01*
X267925041Y-152510161D01*
X267799389Y-152249241D01*
X267799386Y-152249236D01*
X267645298Y-152004006D01*
X267464721Y-151777570D01*
X267259928Y-151572777D01*
X267033492Y-151392200D01*
X266788262Y-151238112D01*
X266788263Y-151238112D01*
X266788256Y-151238108D01*
X266527336Y-151112456D01*
X266527314Y-151112447D01*
X266253963Y-151016796D01*
X266253947Y-151016791D01*
X265971594Y-150952346D01*
X265971576Y-150952343D01*
X265683796Y-150919919D01*
X265683790Y-150919919D01*
X265394168Y-150919919D01*
X265394161Y-150919919D01*
X265106381Y-150952343D01*
X265106363Y-150952346D01*
X264824010Y-151016791D01*
X264823994Y-151016796D01*
X264550643Y-151112447D01*
X264550621Y-151112456D01*
X264289701Y-151238108D01*
X264044467Y-151392199D01*
X263818030Y-151572776D01*
X263613236Y-151777570D01*
X263432659Y-152004007D01*
X263278568Y-152249241D01*
X263152916Y-152510161D01*
X263152907Y-152510183D01*
X263057256Y-152783534D01*
X263057251Y-152783550D01*
X262992806Y-153065903D01*
X262992803Y-153065921D01*
X262960379Y-153353701D01*
X191307978Y-153353701D01*
X191275552Y-153065907D01*
X191211105Y-152783546D01*
X191115448Y-152510177D01*
X191115444Y-152510170D01*
X191115441Y-152510161D01*
X190989789Y-152249241D01*
X190989786Y-152249236D01*
X190835698Y-152004006D01*
X190655121Y-151777570D01*
X190450328Y-151572777D01*
X190223892Y-151392200D01*
X189978662Y-151238112D01*
X189978663Y-151238112D01*
X189978656Y-151238108D01*
X189717736Y-151112456D01*
X189717714Y-151112447D01*
X189444363Y-151016796D01*
X189444347Y-151016791D01*
X189161994Y-150952346D01*
X189161976Y-150952343D01*
X188874196Y-150919919D01*
X188874190Y-150919919D01*
X188584568Y-150919919D01*
X188584561Y-150919919D01*
X188296781Y-150952343D01*
X188296763Y-150952346D01*
X188014410Y-151016791D01*
X188014394Y-151016796D01*
X187741043Y-151112447D01*
X187741021Y-151112456D01*
X187480101Y-151238108D01*
X187234867Y-151392199D01*
X187008430Y-151572776D01*
X186803636Y-151777570D01*
X186623059Y-152004007D01*
X186468968Y-152249241D01*
X186343316Y-152510161D01*
X186343307Y-152510183D01*
X186247656Y-152783534D01*
X186247651Y-152783550D01*
X186183206Y-153065903D01*
X186183203Y-153065921D01*
X186150779Y-153353701D01*
X180004978Y-153353701D01*
X179972552Y-153065907D01*
X179908105Y-152783546D01*
X179812448Y-152510177D01*
X179812444Y-152510170D01*
X179812441Y-152510161D01*
X179686789Y-152249241D01*
X179686786Y-152249236D01*
X179532698Y-152004006D01*
X179352121Y-151777570D01*
X179147328Y-151572777D01*
X178920892Y-151392200D01*
X178675662Y-151238112D01*
X178675663Y-151238112D01*
X178675656Y-151238108D01*
X178414736Y-151112456D01*
X178414714Y-151112447D01*
X178141363Y-151016796D01*
X178141347Y-151016791D01*
X177858994Y-150952346D01*
X177858976Y-150952343D01*
X177571196Y-150919919D01*
X177571190Y-150919919D01*
X177281568Y-150919919D01*
X177281561Y-150919919D01*
X176993781Y-150952343D01*
X176993763Y-150952346D01*
X176711410Y-151016791D01*
X176711394Y-151016796D01*
X176438043Y-151112447D01*
X176438021Y-151112456D01*
X176177101Y-151238108D01*
X175931867Y-151392199D01*
X175705430Y-151572776D01*
X175500636Y-151777570D01*
X175320059Y-152004007D01*
X175165968Y-152249241D01*
X175040316Y-152510161D01*
X175040307Y-152510183D01*
X174944656Y-152783534D01*
X174944651Y-152783550D01*
X174880206Y-153065903D01*
X174880203Y-153065921D01*
X174847779Y-153353701D01*
X103195378Y-153353701D01*
X103162952Y-153065907D01*
X103098505Y-152783546D01*
X103002848Y-152510177D01*
X103002844Y-152510170D01*
X103002841Y-152510161D01*
X102877189Y-152249241D01*
X102877186Y-152249236D01*
X102723098Y-152004006D01*
X102542521Y-151777570D01*
X102337728Y-151572777D01*
X102111292Y-151392200D01*
X101866062Y-151238112D01*
X101866063Y-151238112D01*
X101866056Y-151238108D01*
X101605136Y-151112456D01*
X101605114Y-151112447D01*
X101331763Y-151016796D01*
X101331747Y-151016791D01*
X101049394Y-150952346D01*
X101049376Y-150952343D01*
X100761596Y-150919919D01*
X100761590Y-150919919D01*
X100471968Y-150919919D01*
X100471961Y-150919919D01*
X100184181Y-150952343D01*
X100184163Y-150952346D01*
X99901810Y-151016791D01*
X99901794Y-151016796D01*
X99628443Y-151112447D01*
X99628421Y-151112456D01*
X99367501Y-151238108D01*
X99122267Y-151392199D01*
X98895830Y-151572776D01*
X98691036Y-151777570D01*
X98510459Y-152004007D01*
X98356368Y-152249241D01*
X98230716Y-152510161D01*
X98230707Y-152510183D01*
X98135056Y-152783534D01*
X98135051Y-152783550D01*
X98070606Y-153065903D01*
X98070603Y-153065921D01*
X98038179Y-153353701D01*
X94114319Y-153353701D01*
X94114319Y-150482526D01*
X117367579Y-150482526D01*
X117367579Y-150672511D01*
X117397300Y-150860160D01*
X117456006Y-151040843D01*
X117456007Y-151040846D01*
X117492492Y-151112450D01*
X117542260Y-151210125D01*
X117653931Y-151363827D01*
X117788271Y-151498167D01*
X117941973Y-151609838D01*
X118024999Y-151652141D01*
X118111251Y-151696090D01*
X118111254Y-151696091D01*
X118201595Y-151725444D01*
X118291939Y-151754798D01*
X118479586Y-151784519D01*
X118479587Y-151784519D01*
X118669571Y-151784519D01*
X118669572Y-151784519D01*
X118857219Y-151754798D01*
X119037906Y-151696090D01*
X119207185Y-151609838D01*
X119360887Y-151498167D01*
X119495227Y-151363827D01*
X119606898Y-151210125D01*
X119693150Y-151040846D01*
X119751858Y-150860159D01*
X119781579Y-150672512D01*
X119781579Y-150482526D01*
X123209579Y-150482526D01*
X123209579Y-150672511D01*
X123239300Y-150860160D01*
X123298006Y-151040843D01*
X123298007Y-151040846D01*
X123334492Y-151112450D01*
X123384260Y-151210125D01*
X123495931Y-151363827D01*
X123630271Y-151498167D01*
X123783973Y-151609838D01*
X123866999Y-151652141D01*
X123953251Y-151696090D01*
X123953254Y-151696091D01*
X124043595Y-151725444D01*
X124133939Y-151754798D01*
X124321586Y-151784519D01*
X124321587Y-151784519D01*
X124511571Y-151784519D01*
X124511572Y-151784519D01*
X124699219Y-151754798D01*
X124879906Y-151696090D01*
X125049185Y-151609838D01*
X125202887Y-151498167D01*
X125337227Y-151363827D01*
X125448898Y-151210125D01*
X125535150Y-151040846D01*
X125593858Y-150860159D01*
X125623579Y-150672512D01*
X125623579Y-150482526D01*
X129051579Y-150482526D01*
X129051579Y-150672511D01*
X129081300Y-150860160D01*
X129140006Y-151040843D01*
X129140007Y-151040846D01*
X129176492Y-151112450D01*
X129226260Y-151210125D01*
X129337931Y-151363827D01*
X129472271Y-151498167D01*
X129625973Y-151609838D01*
X129708999Y-151652141D01*
X129795251Y-151696090D01*
X129795254Y-151696091D01*
X129885595Y-151725444D01*
X129975939Y-151754798D01*
X130163586Y-151784519D01*
X130163587Y-151784519D01*
X130353571Y-151784519D01*
X130353572Y-151784519D01*
X130541219Y-151754798D01*
X130721906Y-151696090D01*
X130891185Y-151609838D01*
X131044887Y-151498167D01*
X131179227Y-151363827D01*
X131290898Y-151210125D01*
X131377150Y-151040846D01*
X131435858Y-150860159D01*
X131465579Y-150672512D01*
X131465579Y-150482526D01*
X134893579Y-150482526D01*
X134893579Y-150672511D01*
X134923300Y-150860160D01*
X134982006Y-151040843D01*
X134982007Y-151040846D01*
X135018492Y-151112450D01*
X135068260Y-151210125D01*
X135179931Y-151363827D01*
X135314271Y-151498167D01*
X135467973Y-151609838D01*
X135550999Y-151652141D01*
X135637251Y-151696090D01*
X135637254Y-151696091D01*
X135727595Y-151725444D01*
X135817939Y-151754798D01*
X136005586Y-151784519D01*
X136005587Y-151784519D01*
X136195571Y-151784519D01*
X136195572Y-151784519D01*
X136383219Y-151754798D01*
X136563906Y-151696090D01*
X136733185Y-151609838D01*
X136886887Y-151498167D01*
X137021227Y-151363827D01*
X137132898Y-151210125D01*
X137219150Y-151040846D01*
X137277858Y-150860159D01*
X137307579Y-150672512D01*
X137307579Y-150482526D01*
X140735579Y-150482526D01*
X140735579Y-150672511D01*
X140765300Y-150860160D01*
X140824006Y-151040843D01*
X140824007Y-151040846D01*
X140860492Y-151112450D01*
X140910260Y-151210125D01*
X141021931Y-151363827D01*
X141156271Y-151498167D01*
X141309973Y-151609838D01*
X141392999Y-151652141D01*
X141479251Y-151696090D01*
X141479254Y-151696091D01*
X141569595Y-151725444D01*
X141659939Y-151754798D01*
X141847586Y-151784519D01*
X141847587Y-151784519D01*
X142037571Y-151784519D01*
X142037572Y-151784519D01*
X142225219Y-151754798D01*
X142405906Y-151696090D01*
X142575185Y-151609838D01*
X142728887Y-151498167D01*
X142863227Y-151363827D01*
X142974898Y-151210125D01*
X143061150Y-151040846D01*
X143119858Y-150860159D01*
X143149579Y-150672512D01*
X143149579Y-150482526D01*
X146577579Y-150482526D01*
X146577579Y-150672511D01*
X146607300Y-150860160D01*
X146666006Y-151040843D01*
X146666007Y-151040846D01*
X146702492Y-151112450D01*
X146752260Y-151210125D01*
X146863931Y-151363827D01*
X146998271Y-151498167D01*
X147151973Y-151609838D01*
X147234999Y-151652141D01*
X147321251Y-151696090D01*
X147321254Y-151696091D01*
X147411595Y-151725444D01*
X147501939Y-151754798D01*
X147689586Y-151784519D01*
X147689587Y-151784519D01*
X147879571Y-151784519D01*
X147879572Y-151784519D01*
X148067219Y-151754798D01*
X148247906Y-151696090D01*
X148417185Y-151609838D01*
X148570887Y-151498167D01*
X148705227Y-151363827D01*
X148816898Y-151210125D01*
X148903150Y-151040846D01*
X148961858Y-150860159D01*
X148991579Y-150672512D01*
X148991579Y-150482526D01*
X152419579Y-150482526D01*
X152419579Y-150672511D01*
X152449300Y-150860160D01*
X152508006Y-151040843D01*
X152508007Y-151040846D01*
X152544492Y-151112450D01*
X152594260Y-151210125D01*
X152705931Y-151363827D01*
X152840271Y-151498167D01*
X152993973Y-151609838D01*
X153076999Y-151652141D01*
X153163251Y-151696090D01*
X153163254Y-151696091D01*
X153253595Y-151725444D01*
X153343939Y-151754798D01*
X153531586Y-151784519D01*
X153531587Y-151784519D01*
X153721571Y-151784519D01*
X153721572Y-151784519D01*
X153909219Y-151754798D01*
X154089906Y-151696090D01*
X154259185Y-151609838D01*
X154412887Y-151498167D01*
X154547227Y-151363827D01*
X154658898Y-151210125D01*
X154745150Y-151040846D01*
X154803858Y-150860159D01*
X154833579Y-150672512D01*
X154833579Y-150482526D01*
X158261579Y-150482526D01*
X158261579Y-150672511D01*
X158291300Y-150860160D01*
X158350006Y-151040843D01*
X158350007Y-151040846D01*
X158386492Y-151112450D01*
X158436260Y-151210125D01*
X158547931Y-151363827D01*
X158682271Y-151498167D01*
X158835973Y-151609838D01*
X158918999Y-151652141D01*
X159005251Y-151696090D01*
X159005254Y-151696091D01*
X159095595Y-151725444D01*
X159185939Y-151754798D01*
X159373586Y-151784519D01*
X159373587Y-151784519D01*
X159563571Y-151784519D01*
X159563572Y-151784519D01*
X159751219Y-151754798D01*
X159931906Y-151696090D01*
X160101185Y-151609838D01*
X160254887Y-151498167D01*
X160389227Y-151363827D01*
X160500898Y-151210125D01*
X160587150Y-151040846D01*
X160645858Y-150860159D01*
X160675579Y-150672512D01*
X160675579Y-150482526D01*
X205480179Y-150482526D01*
X205480179Y-150672511D01*
X205509900Y-150860160D01*
X205568606Y-151040843D01*
X205568607Y-151040846D01*
X205605092Y-151112450D01*
X205654860Y-151210125D01*
X205766531Y-151363827D01*
X205900871Y-151498167D01*
X206054573Y-151609838D01*
X206137599Y-151652141D01*
X206223851Y-151696090D01*
X206223854Y-151696091D01*
X206314195Y-151725444D01*
X206404539Y-151754798D01*
X206592186Y-151784519D01*
X206592187Y-151784519D01*
X206782171Y-151784519D01*
X206782172Y-151784519D01*
X206969819Y-151754798D01*
X207150506Y-151696090D01*
X207319785Y-151609838D01*
X207473487Y-151498167D01*
X207607827Y-151363827D01*
X207719498Y-151210125D01*
X207805750Y-151040846D01*
X207864458Y-150860159D01*
X207894179Y-150672512D01*
X207894179Y-150482526D01*
X211322179Y-150482526D01*
X211322179Y-150672511D01*
X211351900Y-150860160D01*
X211410606Y-151040843D01*
X211410607Y-151040846D01*
X211447092Y-151112450D01*
X211496860Y-151210125D01*
X211608531Y-151363827D01*
X211742871Y-151498167D01*
X211896573Y-151609838D01*
X211979599Y-151652141D01*
X212065851Y-151696090D01*
X212065854Y-151696091D01*
X212156195Y-151725444D01*
X212246539Y-151754798D01*
X212434186Y-151784519D01*
X212434187Y-151784519D01*
X212624171Y-151784519D01*
X212624172Y-151784519D01*
X212811819Y-151754798D01*
X212992506Y-151696090D01*
X213161785Y-151609838D01*
X213315487Y-151498167D01*
X213449827Y-151363827D01*
X213561498Y-151210125D01*
X213647750Y-151040846D01*
X213706458Y-150860159D01*
X213736179Y-150672512D01*
X213736179Y-150482526D01*
X217164179Y-150482526D01*
X217164179Y-150672511D01*
X217193900Y-150860160D01*
X217252606Y-151040843D01*
X217252607Y-151040846D01*
X217289092Y-151112450D01*
X217338860Y-151210125D01*
X217450531Y-151363827D01*
X217584871Y-151498167D01*
X217738573Y-151609838D01*
X217821599Y-151652141D01*
X217907851Y-151696090D01*
X217907854Y-151696091D01*
X217998195Y-151725444D01*
X218088539Y-151754798D01*
X218276186Y-151784519D01*
X218276187Y-151784519D01*
X218466171Y-151784519D01*
X218466172Y-151784519D01*
X218653819Y-151754798D01*
X218834506Y-151696090D01*
X219003785Y-151609838D01*
X219157487Y-151498167D01*
X219291827Y-151363827D01*
X219403498Y-151210125D01*
X219489750Y-151040846D01*
X219548458Y-150860159D01*
X219578179Y-150672512D01*
X219578179Y-150482526D01*
X223006179Y-150482526D01*
X223006179Y-150672511D01*
X223035900Y-150860160D01*
X223094606Y-151040843D01*
X223094607Y-151040846D01*
X223131092Y-151112450D01*
X223180860Y-151210125D01*
X223292531Y-151363827D01*
X223426871Y-151498167D01*
X223580573Y-151609838D01*
X223663599Y-151652141D01*
X223749851Y-151696090D01*
X223749854Y-151696091D01*
X223840195Y-151725444D01*
X223930539Y-151754798D01*
X224118186Y-151784519D01*
X224118187Y-151784519D01*
X224308171Y-151784519D01*
X224308172Y-151784519D01*
X224495819Y-151754798D01*
X224676506Y-151696090D01*
X224845785Y-151609838D01*
X224999487Y-151498167D01*
X225133827Y-151363827D01*
X225245498Y-151210125D01*
X225331750Y-151040846D01*
X225390458Y-150860159D01*
X225420179Y-150672512D01*
X225420179Y-150482526D01*
X228848179Y-150482526D01*
X228848179Y-150672511D01*
X228877900Y-150860160D01*
X228936606Y-151040843D01*
X228936607Y-151040846D01*
X228973092Y-151112450D01*
X229022860Y-151210125D01*
X229134531Y-151363827D01*
X229268871Y-151498167D01*
X229422573Y-151609838D01*
X229505599Y-151652141D01*
X229591851Y-151696090D01*
X229591854Y-151696091D01*
X229682195Y-151725444D01*
X229772539Y-151754798D01*
X229960186Y-151784519D01*
X229960187Y-151784519D01*
X230150171Y-151784519D01*
X230150172Y-151784519D01*
X230337819Y-151754798D01*
X230518506Y-151696090D01*
X230687785Y-151609838D01*
X230841487Y-151498167D01*
X230975827Y-151363827D01*
X231087498Y-151210125D01*
X231173750Y-151040846D01*
X231232458Y-150860159D01*
X231262179Y-150672512D01*
X231262179Y-150482526D01*
X234690179Y-150482526D01*
X234690179Y-150672511D01*
X234719900Y-150860160D01*
X234778606Y-151040843D01*
X234778607Y-151040846D01*
X234815092Y-151112450D01*
X234864860Y-151210125D01*
X234976531Y-151363827D01*
X235110871Y-151498167D01*
X235264573Y-151609838D01*
X235347599Y-151652141D01*
X235433851Y-151696090D01*
X235433854Y-151696091D01*
X235524195Y-151725444D01*
X235614539Y-151754798D01*
X235802186Y-151784519D01*
X235802187Y-151784519D01*
X235992171Y-151784519D01*
X235992172Y-151784519D01*
X236179819Y-151754798D01*
X236360506Y-151696090D01*
X236529785Y-151609838D01*
X236683487Y-151498167D01*
X236817827Y-151363827D01*
X236929498Y-151210125D01*
X237015750Y-151040846D01*
X237074458Y-150860159D01*
X237104179Y-150672512D01*
X237104179Y-150482526D01*
X240532179Y-150482526D01*
X240532179Y-150672511D01*
X240561900Y-150860160D01*
X240620606Y-151040843D01*
X240620607Y-151040846D01*
X240657092Y-151112450D01*
X240706860Y-151210125D01*
X240818531Y-151363827D01*
X240952871Y-151498167D01*
X241106573Y-151609838D01*
X241189599Y-151652141D01*
X241275851Y-151696090D01*
X241275854Y-151696091D01*
X241366195Y-151725444D01*
X241456539Y-151754798D01*
X241644186Y-151784519D01*
X241644187Y-151784519D01*
X241834171Y-151784519D01*
X241834172Y-151784519D01*
X242021819Y-151754798D01*
X242202506Y-151696090D01*
X242371785Y-151609838D01*
X242525487Y-151498167D01*
X242659827Y-151363827D01*
X242771498Y-151210125D01*
X242857750Y-151040846D01*
X242916458Y-150860159D01*
X242946179Y-150672512D01*
X242946179Y-150482526D01*
X246374179Y-150482526D01*
X246374179Y-150672511D01*
X246403900Y-150860160D01*
X246462606Y-151040843D01*
X246462607Y-151040846D01*
X246499092Y-151112450D01*
X246548860Y-151210125D01*
X246660531Y-151363827D01*
X246794871Y-151498167D01*
X246948573Y-151609838D01*
X247031599Y-151652141D01*
X247117851Y-151696090D01*
X247117854Y-151696091D01*
X247208195Y-151725444D01*
X247298539Y-151754798D01*
X247486186Y-151784519D01*
X247486187Y-151784519D01*
X247676171Y-151784519D01*
X247676172Y-151784519D01*
X247863819Y-151754798D01*
X248044506Y-151696090D01*
X248213785Y-151609838D01*
X248367487Y-151498167D01*
X248501827Y-151363827D01*
X248613498Y-151210125D01*
X248699750Y-151040846D01*
X248758458Y-150860159D01*
X248788179Y-150672512D01*
X248788179Y-150482526D01*
X248758458Y-150294879D01*
X248699750Y-150114192D01*
X248699750Y-150114191D01*
X248613497Y-149944912D01*
X248501827Y-149791211D01*
X248367487Y-149656871D01*
X248213785Y-149545200D01*
X248044506Y-149458947D01*
X248044503Y-149458946D01*
X247863820Y-149400240D01*
X247769995Y-149385379D01*
X247676172Y-149370519D01*
X247486186Y-149370519D01*
X247423637Y-149380426D01*
X247298537Y-149400240D01*
X247117854Y-149458946D01*
X247117851Y-149458947D01*
X246948572Y-149545200D01*
X246860880Y-149608912D01*
X246794871Y-149656871D01*
X246794869Y-149656873D01*
X246794868Y-149656873D01*
X246660533Y-149791208D01*
X246660533Y-149791209D01*
X246660531Y-149791211D01*
X246612572Y-149857220D01*
X246548860Y-149944912D01*
X246462607Y-150114191D01*
X246462606Y-150114194D01*
X246403900Y-150294877D01*
X246374179Y-150482526D01*
X242946179Y-150482526D01*
X242916458Y-150294879D01*
X242857750Y-150114192D01*
X242857750Y-150114191D01*
X242771497Y-149944912D01*
X242659827Y-149791211D01*
X242525487Y-149656871D01*
X242371785Y-149545200D01*
X242202506Y-149458947D01*
X242202503Y-149458946D01*
X242021820Y-149400240D01*
X241927995Y-149385379D01*
X241834172Y-149370519D01*
X241644186Y-149370519D01*
X241581637Y-149380426D01*
X241456537Y-149400240D01*
X241275854Y-149458946D01*
X241275851Y-149458947D01*
X241106572Y-149545200D01*
X241018880Y-149608912D01*
X240952871Y-149656871D01*
X240952869Y-149656873D01*
X240952868Y-149656873D01*
X240818533Y-149791208D01*
X240818533Y-149791209D01*
X240818531Y-149791211D01*
X240770572Y-149857220D01*
X240706860Y-149944912D01*
X240620607Y-150114191D01*
X240620606Y-150114194D01*
X240561900Y-150294877D01*
X240532179Y-150482526D01*
X237104179Y-150482526D01*
X237074458Y-150294879D01*
X237015750Y-150114192D01*
X237015750Y-150114191D01*
X236929497Y-149944912D01*
X236817827Y-149791211D01*
X236683487Y-149656871D01*
X236529785Y-149545200D01*
X236360506Y-149458947D01*
X236360503Y-149458946D01*
X236179820Y-149400240D01*
X236085995Y-149385379D01*
X235992172Y-149370519D01*
X235802186Y-149370519D01*
X235739637Y-149380426D01*
X235614537Y-149400240D01*
X235433854Y-149458946D01*
X235433851Y-149458947D01*
X235264572Y-149545200D01*
X235176880Y-149608912D01*
X235110871Y-149656871D01*
X235110869Y-149656873D01*
X235110868Y-149656873D01*
X234976533Y-149791208D01*
X234976533Y-149791209D01*
X234976531Y-149791211D01*
X234928572Y-149857220D01*
X234864860Y-149944912D01*
X234778607Y-150114191D01*
X234778606Y-150114194D01*
X234719900Y-150294877D01*
X234690179Y-150482526D01*
X231262179Y-150482526D01*
X231232458Y-150294879D01*
X231173750Y-150114192D01*
X231173750Y-150114191D01*
X231087497Y-149944912D01*
X230975827Y-149791211D01*
X230841487Y-149656871D01*
X230687785Y-149545200D01*
X230518506Y-149458947D01*
X230518503Y-149458946D01*
X230337820Y-149400240D01*
X230243995Y-149385379D01*
X230150172Y-149370519D01*
X229960186Y-149370519D01*
X229897637Y-149380426D01*
X229772537Y-149400240D01*
X229591854Y-149458946D01*
X229591851Y-149458947D01*
X229422572Y-149545200D01*
X229334880Y-149608912D01*
X229268871Y-149656871D01*
X229268869Y-149656873D01*
X229268868Y-149656873D01*
X229134533Y-149791208D01*
X229134533Y-149791209D01*
X229134531Y-149791211D01*
X229086572Y-149857220D01*
X229022860Y-149944912D01*
X228936607Y-150114191D01*
X228936606Y-150114194D01*
X228877900Y-150294877D01*
X228848179Y-150482526D01*
X225420179Y-150482526D01*
X225390458Y-150294879D01*
X225331750Y-150114192D01*
X225331750Y-150114191D01*
X225245497Y-149944912D01*
X225133827Y-149791211D01*
X224999487Y-149656871D01*
X224845785Y-149545200D01*
X224676506Y-149458947D01*
X224676503Y-149458946D01*
X224495820Y-149400240D01*
X224401995Y-149385379D01*
X224308172Y-149370519D01*
X224118186Y-149370519D01*
X224055637Y-149380426D01*
X223930537Y-149400240D01*
X223749854Y-149458946D01*
X223749851Y-149458947D01*
X223580572Y-149545200D01*
X223492880Y-149608912D01*
X223426871Y-149656871D01*
X223426869Y-149656873D01*
X223426868Y-149656873D01*
X223292533Y-149791208D01*
X223292533Y-149791209D01*
X223292531Y-149791211D01*
X223244572Y-149857220D01*
X223180860Y-149944912D01*
X223094607Y-150114191D01*
X223094606Y-150114194D01*
X223035900Y-150294877D01*
X223006179Y-150482526D01*
X219578179Y-150482526D01*
X219548458Y-150294879D01*
X219489750Y-150114192D01*
X219489750Y-150114191D01*
X219403497Y-149944912D01*
X219291827Y-149791211D01*
X219157487Y-149656871D01*
X219003785Y-149545200D01*
X218834506Y-149458947D01*
X218834503Y-149458946D01*
X218653820Y-149400240D01*
X218559995Y-149385379D01*
X218466172Y-149370519D01*
X218276186Y-149370519D01*
X218213637Y-149380426D01*
X218088537Y-149400240D01*
X217907854Y-149458946D01*
X217907851Y-149458947D01*
X217738572Y-149545200D01*
X217650880Y-149608912D01*
X217584871Y-149656871D01*
X217584869Y-149656873D01*
X217584868Y-149656873D01*
X217450533Y-149791208D01*
X217450533Y-149791209D01*
X217450531Y-149791211D01*
X217402572Y-149857220D01*
X217338860Y-149944912D01*
X217252607Y-150114191D01*
X217252606Y-150114194D01*
X217193900Y-150294877D01*
X217164179Y-150482526D01*
X213736179Y-150482526D01*
X213706458Y-150294879D01*
X213647750Y-150114192D01*
X213647750Y-150114191D01*
X213561497Y-149944912D01*
X213449827Y-149791211D01*
X213315487Y-149656871D01*
X213161785Y-149545200D01*
X212992506Y-149458947D01*
X212992503Y-149458946D01*
X212811820Y-149400240D01*
X212717995Y-149385379D01*
X212624172Y-149370519D01*
X212434186Y-149370519D01*
X212371637Y-149380426D01*
X212246537Y-149400240D01*
X212065854Y-149458946D01*
X212065851Y-149458947D01*
X211896572Y-149545200D01*
X211808880Y-149608912D01*
X211742871Y-149656871D01*
X211742869Y-149656873D01*
X211742868Y-149656873D01*
X211608533Y-149791208D01*
X211608533Y-149791209D01*
X211608531Y-149791211D01*
X211560572Y-149857220D01*
X211496860Y-149944912D01*
X211410607Y-150114191D01*
X211410606Y-150114194D01*
X211351900Y-150294877D01*
X211322179Y-150482526D01*
X207894179Y-150482526D01*
X207864458Y-150294879D01*
X207805750Y-150114192D01*
X207805750Y-150114191D01*
X207719497Y-149944912D01*
X207607827Y-149791211D01*
X207473487Y-149656871D01*
X207319785Y-149545200D01*
X207150506Y-149458947D01*
X207150503Y-149458946D01*
X206969820Y-149400240D01*
X206875995Y-149385379D01*
X206782172Y-149370519D01*
X206592186Y-149370519D01*
X206529637Y-149380426D01*
X206404537Y-149400240D01*
X206223854Y-149458946D01*
X206223851Y-149458947D01*
X206054572Y-149545200D01*
X205966880Y-149608912D01*
X205900871Y-149656871D01*
X205900869Y-149656873D01*
X205900868Y-149656873D01*
X205766533Y-149791208D01*
X205766533Y-149791209D01*
X205766531Y-149791211D01*
X205718572Y-149857220D01*
X205654860Y-149944912D01*
X205568607Y-150114191D01*
X205568606Y-150114194D01*
X205509900Y-150294877D01*
X205480179Y-150482526D01*
X160675579Y-150482526D01*
X160645858Y-150294879D01*
X160587150Y-150114192D01*
X160587150Y-150114191D01*
X160500897Y-149944912D01*
X160389227Y-149791211D01*
X160254887Y-149656871D01*
X160101185Y-149545200D01*
X159931906Y-149458947D01*
X159931903Y-149458946D01*
X159751220Y-149400240D01*
X159657395Y-149385379D01*
X159563572Y-149370519D01*
X159373586Y-149370519D01*
X159311037Y-149380426D01*
X159185937Y-149400240D01*
X159005254Y-149458946D01*
X159005251Y-149458947D01*
X158835972Y-149545200D01*
X158748280Y-149608912D01*
X158682271Y-149656871D01*
X158682269Y-149656873D01*
X158682268Y-149656873D01*
X158547933Y-149791208D01*
X158547933Y-149791209D01*
X158547931Y-149791211D01*
X158499972Y-149857220D01*
X158436260Y-149944912D01*
X158350007Y-150114191D01*
X158350006Y-150114194D01*
X158291300Y-150294877D01*
X158261579Y-150482526D01*
X154833579Y-150482526D01*
X154803858Y-150294879D01*
X154745150Y-150114192D01*
X154745150Y-150114191D01*
X154658897Y-149944912D01*
X154547227Y-149791211D01*
X154412887Y-149656871D01*
X154259185Y-149545200D01*
X154089906Y-149458947D01*
X154089903Y-149458946D01*
X153909220Y-149400240D01*
X153815395Y-149385379D01*
X153721572Y-149370519D01*
X153531586Y-149370519D01*
X153469037Y-149380426D01*
X153343937Y-149400240D01*
X153163254Y-149458946D01*
X153163251Y-149458947D01*
X152993972Y-149545200D01*
X152906280Y-149608912D01*
X152840271Y-149656871D01*
X152840269Y-149656873D01*
X152840268Y-149656873D01*
X152705933Y-149791208D01*
X152705933Y-149791209D01*
X152705931Y-149791211D01*
X152657972Y-149857220D01*
X152594260Y-149944912D01*
X152508007Y-150114191D01*
X152508006Y-150114194D01*
X152449300Y-150294877D01*
X152419579Y-150482526D01*
X148991579Y-150482526D01*
X148961858Y-150294879D01*
X148903150Y-150114192D01*
X148903150Y-150114191D01*
X148816897Y-149944912D01*
X148705227Y-149791211D01*
X148570887Y-149656871D01*
X148417185Y-149545200D01*
X148247906Y-149458947D01*
X148247903Y-149458946D01*
X148067220Y-149400240D01*
X147973395Y-149385379D01*
X147879572Y-149370519D01*
X147689586Y-149370519D01*
X147627037Y-149380426D01*
X147501937Y-149400240D01*
X147321254Y-149458946D01*
X147321251Y-149458947D01*
X147151972Y-149545200D01*
X147064280Y-149608912D01*
X146998271Y-149656871D01*
X146998269Y-149656873D01*
X146998268Y-149656873D01*
X146863933Y-149791208D01*
X146863933Y-149791209D01*
X146863931Y-149791211D01*
X146815972Y-149857220D01*
X146752260Y-149944912D01*
X146666007Y-150114191D01*
X146666006Y-150114194D01*
X146607300Y-150294877D01*
X146577579Y-150482526D01*
X143149579Y-150482526D01*
X143119858Y-150294879D01*
X143061150Y-150114192D01*
X143061150Y-150114191D01*
X142974897Y-149944912D01*
X142863227Y-149791211D01*
X142728887Y-149656871D01*
X142575185Y-149545200D01*
X142405906Y-149458947D01*
X142405903Y-149458946D01*
X142225220Y-149400240D01*
X142131395Y-149385379D01*
X142037572Y-149370519D01*
X141847586Y-149370519D01*
X141785037Y-149380426D01*
X141659937Y-149400240D01*
X141479254Y-149458946D01*
X141479251Y-149458947D01*
X141309972Y-149545200D01*
X141222280Y-149608912D01*
X141156271Y-149656871D01*
X141156269Y-149656873D01*
X141156268Y-149656873D01*
X141021933Y-149791208D01*
X141021933Y-149791209D01*
X141021931Y-149791211D01*
X140973972Y-149857220D01*
X140910260Y-149944912D01*
X140824007Y-150114191D01*
X140824006Y-150114194D01*
X140765300Y-150294877D01*
X140735579Y-150482526D01*
X137307579Y-150482526D01*
X137277858Y-150294879D01*
X137219150Y-150114192D01*
X137219150Y-150114191D01*
X137132897Y-149944912D01*
X137021227Y-149791211D01*
X136886887Y-149656871D01*
X136733185Y-149545200D01*
X136563906Y-149458947D01*
X136563903Y-149458946D01*
X136383220Y-149400240D01*
X136289395Y-149385379D01*
X136195572Y-149370519D01*
X136005586Y-149370519D01*
X135943037Y-149380426D01*
X135817937Y-149400240D01*
X135637254Y-149458946D01*
X135637251Y-149458947D01*
X135467972Y-149545200D01*
X135380280Y-149608912D01*
X135314271Y-149656871D01*
X135314269Y-149656873D01*
X135314268Y-149656873D01*
X135179933Y-149791208D01*
X135179933Y-149791209D01*
X135179931Y-149791211D01*
X135131972Y-149857220D01*
X135068260Y-149944912D01*
X134982007Y-150114191D01*
X134982006Y-150114194D01*
X134923300Y-150294877D01*
X134893579Y-150482526D01*
X131465579Y-150482526D01*
X131435858Y-150294879D01*
X131377150Y-150114192D01*
X131377150Y-150114191D01*
X131290897Y-149944912D01*
X131179227Y-149791211D01*
X131044887Y-149656871D01*
X130891185Y-149545200D01*
X130721906Y-149458947D01*
X130721903Y-149458946D01*
X130541220Y-149400240D01*
X130447395Y-149385379D01*
X130353572Y-149370519D01*
X130163586Y-149370519D01*
X130101037Y-149380426D01*
X129975937Y-149400240D01*
X129795254Y-149458946D01*
X129795251Y-149458947D01*
X129625972Y-149545200D01*
X129538280Y-149608912D01*
X129472271Y-149656871D01*
X129472269Y-149656873D01*
X129472268Y-149656873D01*
X129337933Y-149791208D01*
X129337933Y-149791209D01*
X129337931Y-149791211D01*
X129289972Y-149857220D01*
X129226260Y-149944912D01*
X129140007Y-150114191D01*
X129140006Y-150114194D01*
X129081300Y-150294877D01*
X129051579Y-150482526D01*
X125623579Y-150482526D01*
X125593858Y-150294879D01*
X125535150Y-150114192D01*
X125535150Y-150114191D01*
X125448897Y-149944912D01*
X125337227Y-149791211D01*
X125202887Y-149656871D01*
X125049185Y-149545200D01*
X124879906Y-149458947D01*
X124879903Y-149458946D01*
X124699220Y-149400240D01*
X124605395Y-149385379D01*
X124511572Y-149370519D01*
X124321586Y-149370519D01*
X124259037Y-149380426D01*
X124133937Y-149400240D01*
X123953254Y-149458946D01*
X123953251Y-149458947D01*
X123783972Y-149545200D01*
X123696280Y-149608912D01*
X123630271Y-149656871D01*
X123630269Y-149656873D01*
X123630268Y-149656873D01*
X123495933Y-149791208D01*
X123495933Y-149791209D01*
X123495931Y-149791211D01*
X123447972Y-149857220D01*
X123384260Y-149944912D01*
X123298007Y-150114191D01*
X123298006Y-150114194D01*
X123239300Y-150294877D01*
X123209579Y-150482526D01*
X119781579Y-150482526D01*
X119751858Y-150294879D01*
X119693150Y-150114192D01*
X119693150Y-150114191D01*
X119606897Y-149944912D01*
X119495227Y-149791211D01*
X119360887Y-149656871D01*
X119207185Y-149545200D01*
X119037906Y-149458947D01*
X119037903Y-149458946D01*
X118857220Y-149400240D01*
X118763395Y-149385379D01*
X118669572Y-149370519D01*
X118479586Y-149370519D01*
X118417037Y-149380426D01*
X118291937Y-149400240D01*
X118111254Y-149458946D01*
X118111251Y-149458947D01*
X117941972Y-149545200D01*
X117854280Y-149608912D01*
X117788271Y-149656871D01*
X117788269Y-149656873D01*
X117788268Y-149656873D01*
X117653933Y-149791208D01*
X117653933Y-149791209D01*
X117653931Y-149791211D01*
X117605972Y-149857220D01*
X117542260Y-149944912D01*
X117456007Y-150114191D01*
X117456006Y-150114194D01*
X117397300Y-150294877D01*
X117367579Y-150482526D01*
X94114319Y-150482526D01*
X94114319Y-148022375D01*
X130484100Y-148022375D01*
X130484100Y-148141624D01*
X130514964Y-148256814D01*
X130544777Y-148308450D01*
X130574590Y-148360087D01*
X130658913Y-148444410D01*
X130762187Y-148504036D01*
X130877375Y-148534900D01*
X130877377Y-148534900D01*
X130996623Y-148534900D01*
X130996625Y-148534900D01*
X131111813Y-148504036D01*
X131215087Y-148444410D01*
X131299410Y-148360087D01*
X131359036Y-148256813D01*
X131389900Y-148141625D01*
X131389900Y-148022375D01*
X131359036Y-147907187D01*
X131299410Y-147803913D01*
X131215087Y-147719590D01*
X131163450Y-147689777D01*
X131111814Y-147659964D01*
X131054219Y-147644532D01*
X130996625Y-147629100D01*
X130877375Y-147629100D01*
X130762185Y-147659964D01*
X130658913Y-147719590D01*
X130658910Y-147719592D01*
X130574592Y-147803910D01*
X130574590Y-147803913D01*
X130514964Y-147907185D01*
X130484100Y-148022375D01*
X94114319Y-148022375D01*
X94114319Y-147006375D01*
X131627100Y-147006375D01*
X131627100Y-147125624D01*
X131657964Y-147240814D01*
X131687777Y-147292450D01*
X131717590Y-147344087D01*
X131801913Y-147428410D01*
X131891348Y-147480046D01*
X131894751Y-147482011D01*
X131905187Y-147488036D01*
X132020375Y-147518900D01*
X132020377Y-147518900D01*
X132139623Y-147518900D01*
X132139625Y-147518900D01*
X132254813Y-147488036D01*
X132358087Y-147428410D01*
X132442410Y-147344087D01*
X132498134Y-147247572D01*
X163872297Y-147247572D01*
X163872297Y-147366821D01*
X163903161Y-147482011D01*
X163906640Y-147488036D01*
X163962787Y-147585284D01*
X164047110Y-147669607D01*
X164150384Y-147729233D01*
X164265572Y-147760097D01*
X164265574Y-147760097D01*
X164384820Y-147760097D01*
X164384822Y-147760097D01*
X164500010Y-147729233D01*
X164603284Y-147669607D01*
X164687607Y-147585284D01*
X164747233Y-147482010D01*
X164778097Y-147366822D01*
X164778097Y-147247572D01*
X164747233Y-147132384D01*
X164743329Y-147125623D01*
X164705585Y-147060249D01*
X164687607Y-147029110D01*
X164664872Y-147006375D01*
X176839100Y-147006375D01*
X176839100Y-147125624D01*
X176869964Y-147240814D01*
X176899777Y-147292450D01*
X176929590Y-147344087D01*
X177013913Y-147428410D01*
X177103348Y-147480046D01*
X177106751Y-147482011D01*
X177117187Y-147488036D01*
X177232375Y-147518900D01*
X177232377Y-147518900D01*
X177351623Y-147518900D01*
X177351625Y-147518900D01*
X177466813Y-147488036D01*
X177570087Y-147428410D01*
X177654410Y-147344087D01*
X177714036Y-147240813D01*
X177744900Y-147125625D01*
X177744900Y-147006375D01*
X177714036Y-146891187D01*
X177654410Y-146787913D01*
X177570087Y-146703590D01*
X177518450Y-146673777D01*
X177466814Y-146643964D01*
X177409219Y-146628532D01*
X177351625Y-146613100D01*
X177232375Y-146613100D01*
X177117185Y-146643964D01*
X177013913Y-146703590D01*
X177013910Y-146703592D01*
X176929592Y-146787910D01*
X176929590Y-146787913D01*
X176869964Y-146891185D01*
X176839100Y-147006375D01*
X164664872Y-147006375D01*
X164603284Y-146944787D01*
X164551647Y-146914974D01*
X164500011Y-146885161D01*
X164442416Y-146869729D01*
X164384822Y-146854297D01*
X164265572Y-146854297D01*
X164150382Y-146885161D01*
X164047110Y-146944787D01*
X164047107Y-146944789D01*
X163962789Y-147029107D01*
X163962787Y-147029110D01*
X163903161Y-147132382D01*
X163872297Y-147247572D01*
X132498134Y-147247572D01*
X132502036Y-147240813D01*
X132532900Y-147125625D01*
X132532900Y-147006375D01*
X132502036Y-146891187D01*
X132442410Y-146787913D01*
X132358087Y-146703590D01*
X132306450Y-146673777D01*
X132254814Y-146643964D01*
X132197219Y-146628532D01*
X132139625Y-146613100D01*
X132020375Y-146613100D01*
X131905185Y-146643964D01*
X131801913Y-146703590D01*
X131801910Y-146703592D01*
X131717592Y-146787910D01*
X131717590Y-146787913D01*
X131657964Y-146891185D01*
X131627100Y-147006375D01*
X94114319Y-147006375D01*
X94114319Y-142561375D01*
X135691100Y-142561375D01*
X135691100Y-142680624D01*
X135721964Y-142795814D01*
X135751777Y-142847450D01*
X135781590Y-142899087D01*
X135865913Y-142983410D01*
X135969187Y-143043036D01*
X136084375Y-143073900D01*
X136084377Y-143073900D01*
X136203623Y-143073900D01*
X136203625Y-143073900D01*
X136318813Y-143043036D01*
X136422087Y-142983410D01*
X136506410Y-142899087D01*
X136566036Y-142795813D01*
X136596900Y-142680625D01*
X136596900Y-142561375D01*
X136566036Y-142446187D01*
X136506410Y-142342913D01*
X136422087Y-142258590D01*
X136370450Y-142228777D01*
X136318814Y-142198964D01*
X136261219Y-142183532D01*
X136203625Y-142168100D01*
X136084375Y-142168100D01*
X135969185Y-142198964D01*
X135865913Y-142258590D01*
X135865910Y-142258592D01*
X135781592Y-142342910D01*
X135781590Y-142342913D01*
X135721964Y-142446185D01*
X135691100Y-142561375D01*
X94114319Y-142561375D01*
X94114319Y-138906141D01*
X98106919Y-138906141D01*
X98106919Y-139181803D01*
X98142900Y-139455108D01*
X98179471Y-139591592D01*
X98214247Y-139721377D01*
X98319736Y-139976049D01*
X98319740Y-139976059D01*
X98457569Y-140214786D01*
X98625381Y-140433483D01*
X98625387Y-140433490D01*
X98820300Y-140628403D01*
X98820307Y-140628409D01*
X99039004Y-140796221D01*
X99277731Y-140934050D01*
X99277732Y-140934050D01*
X99277735Y-140934052D01*
X99532414Y-141039544D01*
X99798683Y-141110891D01*
X100071988Y-141146872D01*
X100071995Y-141146872D01*
X100347643Y-141146872D01*
X100347650Y-141146872D01*
X100620955Y-141110891D01*
X100887224Y-141039544D01*
X101141903Y-140934052D01*
X101182913Y-140910375D01*
X133532100Y-140910375D01*
X133532100Y-141029625D01*
X133534758Y-141039544D01*
X133562964Y-141144814D01*
X133592777Y-141196450D01*
X133622590Y-141248087D01*
X133706913Y-141332410D01*
X133810187Y-141392036D01*
X133925375Y-141422900D01*
X133925377Y-141422900D01*
X134044623Y-141422900D01*
X134044625Y-141422900D01*
X134159813Y-141392036D01*
X134263087Y-141332410D01*
X134347410Y-141248087D01*
X134407036Y-141144813D01*
X134429527Y-141060875D01*
X213264600Y-141060875D01*
X213264600Y-141180124D01*
X213295464Y-141295314D01*
X213316882Y-141332410D01*
X213355090Y-141398587D01*
X213439413Y-141482910D01*
X213542687Y-141542536D01*
X213657875Y-141573400D01*
X213657877Y-141573400D01*
X213777123Y-141573400D01*
X213777125Y-141573400D01*
X213892313Y-141542536D01*
X213995587Y-141482910D01*
X214079910Y-141398587D01*
X214139536Y-141295313D01*
X214170400Y-141180125D01*
X214170400Y-141060875D01*
X214139536Y-140945687D01*
X214079910Y-140842413D01*
X213995587Y-140758090D01*
X213943950Y-140728277D01*
X213892314Y-140698464D01*
X213834719Y-140683032D01*
X213777125Y-140667600D01*
X213657875Y-140667600D01*
X213542685Y-140698464D01*
X213439413Y-140758090D01*
X213439410Y-140758092D01*
X213355092Y-140842410D01*
X213355090Y-140842413D01*
X213295464Y-140945685D01*
X213264600Y-141060875D01*
X134429527Y-141060875D01*
X134437900Y-141029625D01*
X134437900Y-140910375D01*
X134407036Y-140795187D01*
X134347410Y-140691913D01*
X134263087Y-140607590D01*
X134211450Y-140577777D01*
X134159814Y-140547964D01*
X134102219Y-140532532D01*
X134044625Y-140517100D01*
X133925375Y-140517100D01*
X133810185Y-140547964D01*
X133706913Y-140607590D01*
X133706910Y-140607592D01*
X133622592Y-140691910D01*
X133622590Y-140691913D01*
X133562964Y-140795185D01*
X133550311Y-140842410D01*
X133532100Y-140910375D01*
X101182913Y-140910375D01*
X101380634Y-140796221D01*
X101599332Y-140628408D01*
X101794255Y-140433485D01*
X101915577Y-140275375D01*
X131500100Y-140275375D01*
X131500100Y-140394624D01*
X131530964Y-140509814D01*
X131552991Y-140547964D01*
X131590590Y-140613087D01*
X131674913Y-140697410D01*
X131778187Y-140757036D01*
X131893375Y-140787900D01*
X131893377Y-140787900D01*
X132012623Y-140787900D01*
X132012625Y-140787900D01*
X132127813Y-140757036D01*
X132231087Y-140697410D01*
X132315410Y-140613087D01*
X132375036Y-140509813D01*
X132405900Y-140394625D01*
X132405900Y-140275375D01*
X132375036Y-140160187D01*
X132315410Y-140056913D01*
X132231087Y-139972590D01*
X132179450Y-139942777D01*
X132127814Y-139912964D01*
X132058437Y-139894375D01*
X139755100Y-139894375D01*
X139755100Y-140013624D01*
X139785964Y-140128814D01*
X139804077Y-140160185D01*
X139845590Y-140232087D01*
X139929913Y-140316410D01*
X140033187Y-140376036D01*
X140148375Y-140406900D01*
X140148377Y-140406900D01*
X140267623Y-140406900D01*
X140267625Y-140406900D01*
X140382813Y-140376036D01*
X140486087Y-140316410D01*
X140570410Y-140232087D01*
X140630036Y-140128813D01*
X140658823Y-140021375D01*
X220654100Y-140021375D01*
X220654100Y-140140624D01*
X220684964Y-140255814D01*
X220696258Y-140275375D01*
X220744590Y-140359087D01*
X220828913Y-140443410D01*
X220932187Y-140503036D01*
X221047375Y-140533900D01*
X221047377Y-140533900D01*
X221166623Y-140533900D01*
X221166625Y-140533900D01*
X221281813Y-140503036D01*
X221385087Y-140443410D01*
X221469410Y-140359087D01*
X221529036Y-140255813D01*
X221559900Y-140140625D01*
X221559900Y-140021375D01*
X221529036Y-139906187D01*
X221469410Y-139802913D01*
X221385087Y-139718590D01*
X221333450Y-139688777D01*
X221281814Y-139658964D01*
X221224219Y-139643532D01*
X221166625Y-139628100D01*
X221047375Y-139628100D01*
X220932185Y-139658964D01*
X220828913Y-139718590D01*
X220828910Y-139718592D01*
X220744592Y-139802910D01*
X220744590Y-139802913D01*
X220684964Y-139906185D01*
X220654100Y-140021375D01*
X140658823Y-140021375D01*
X140660900Y-140013625D01*
X140660900Y-139894375D01*
X140630036Y-139779187D01*
X140570410Y-139675913D01*
X140486087Y-139591590D01*
X140434450Y-139561777D01*
X140382814Y-139531964D01*
X140325219Y-139516532D01*
X140267625Y-139501100D01*
X140148375Y-139501100D01*
X140033185Y-139531964D01*
X139929913Y-139591590D01*
X139929910Y-139591592D01*
X139845592Y-139675910D01*
X139845590Y-139675913D01*
X139785964Y-139779185D01*
X139755100Y-139894375D01*
X132058437Y-139894375D01*
X132012625Y-139882100D01*
X131893375Y-139882100D01*
X131778185Y-139912964D01*
X131674913Y-139972590D01*
X131674910Y-139972592D01*
X131590592Y-140056910D01*
X131590590Y-140056913D01*
X131530964Y-140160185D01*
X131500100Y-140275375D01*
X101915577Y-140275375D01*
X101962068Y-140214787D01*
X101964973Y-140209754D01*
X101967577Y-140205246D01*
X101967577Y-140205245D01*
X102073734Y-140021375D01*
X102099899Y-139976056D01*
X102205391Y-139721377D01*
X102276738Y-139455108D01*
X102312719Y-139181803D01*
X102312719Y-138906141D01*
X263714919Y-138906141D01*
X263714919Y-139181803D01*
X263750900Y-139455108D01*
X263787471Y-139591592D01*
X263822247Y-139721377D01*
X263927736Y-139976049D01*
X263927740Y-139976059D01*
X264065569Y-140214786D01*
X264233381Y-140433483D01*
X264233387Y-140433490D01*
X264428300Y-140628403D01*
X264428307Y-140628409D01*
X264647004Y-140796221D01*
X264885731Y-140934050D01*
X264885732Y-140934050D01*
X264885735Y-140934052D01*
X265140414Y-141039544D01*
X265406683Y-141110891D01*
X265679988Y-141146872D01*
X265679995Y-141146872D01*
X265955643Y-141146872D01*
X265955650Y-141146872D01*
X266228955Y-141110891D01*
X266495224Y-141039544D01*
X266749903Y-140934052D01*
X266988634Y-140796221D01*
X267207332Y-140628408D01*
X267402255Y-140433485D01*
X267570068Y-140214787D01*
X267707899Y-139976056D01*
X267813391Y-139721377D01*
X267884738Y-139455108D01*
X267920719Y-139181803D01*
X267920719Y-138906141D01*
X267884738Y-138632836D01*
X267813391Y-138366567D01*
X267707899Y-138111888D01*
X267570068Y-137873157D01*
X267402255Y-137654459D01*
X267402250Y-137654453D01*
X267207337Y-137459540D01*
X267207330Y-137459534D01*
X266988633Y-137291722D01*
X266749906Y-137153893D01*
X266749896Y-137153889D01*
X266495224Y-137048400D01*
X266228951Y-136977052D01*
X265955660Y-136941073D01*
X265955655Y-136941072D01*
X265955650Y-136941072D01*
X265679988Y-136941072D01*
X265679982Y-136941072D01*
X265679977Y-136941073D01*
X265406686Y-136977052D01*
X265140413Y-137048400D01*
X264885741Y-137153889D01*
X264885731Y-137153893D01*
X264647004Y-137291722D01*
X264428307Y-137459534D01*
X264428300Y-137459540D01*
X264233387Y-137654453D01*
X264233381Y-137654460D01*
X264065569Y-137873157D01*
X263927740Y-138111884D01*
X263927736Y-138111894D01*
X263822247Y-138366566D01*
X263750899Y-138632839D01*
X263714920Y-138906130D01*
X263714919Y-138906141D01*
X102312719Y-138906141D01*
X102276738Y-138632836D01*
X102205391Y-138366567D01*
X102099899Y-138111888D01*
X101962068Y-137873157D01*
X101794255Y-137654459D01*
X101794250Y-137654453D01*
X101599337Y-137459540D01*
X101599330Y-137459534D01*
X101380633Y-137291722D01*
X101141906Y-137153893D01*
X101141896Y-137153889D01*
X100887224Y-137048400D01*
X100620951Y-136977052D01*
X100347660Y-136941073D01*
X100347655Y-136941072D01*
X100347650Y-136941072D01*
X100071988Y-136941072D01*
X100071982Y-136941072D01*
X100071977Y-136941073D01*
X99798686Y-136977052D01*
X99532413Y-137048400D01*
X99277741Y-137153889D01*
X99277731Y-137153893D01*
X99039004Y-137291722D01*
X98820307Y-137459534D01*
X98820300Y-137459540D01*
X98625387Y-137654453D01*
X98625381Y-137654460D01*
X98457569Y-137873157D01*
X98319740Y-138111884D01*
X98319736Y-138111894D01*
X98214247Y-138366566D01*
X98142899Y-138632839D01*
X98106920Y-138906130D01*
X98106919Y-138906141D01*
X94114319Y-138906141D01*
X94114319Y-136592375D01*
X132389100Y-136592375D01*
X132389100Y-136711624D01*
X132419964Y-136826814D01*
X132449777Y-136878450D01*
X132479590Y-136930087D01*
X132563913Y-137014410D01*
X132667187Y-137074036D01*
X132782375Y-137104900D01*
X132782377Y-137104900D01*
X132901623Y-137104900D01*
X132901625Y-137104900D01*
X133016813Y-137074036D01*
X133120087Y-137014410D01*
X133204410Y-136930087D01*
X133264036Y-136826813D01*
X133294900Y-136711625D01*
X133294900Y-136592375D01*
X133264036Y-136477187D01*
X133204410Y-136373913D01*
X133120087Y-136289590D01*
X133068450Y-136259777D01*
X133016814Y-136229964D01*
X132959219Y-136214532D01*
X132901625Y-136199100D01*
X132782375Y-136199100D01*
X132667185Y-136229964D01*
X132563913Y-136289590D01*
X132563910Y-136289592D01*
X132479592Y-136373910D01*
X132479590Y-136373913D01*
X132419964Y-136477185D01*
X132389100Y-136592375D01*
X94114319Y-136592375D01*
X94114319Y-134306375D01*
X148772100Y-134306375D01*
X148772100Y-134425624D01*
X148802964Y-134540814D01*
X148832777Y-134592450D01*
X148862590Y-134644087D01*
X148946913Y-134728410D01*
X149050187Y-134788036D01*
X149165375Y-134818900D01*
X149165377Y-134818900D01*
X149284623Y-134818900D01*
X149284625Y-134818900D01*
X149399813Y-134788036D01*
X149503087Y-134728410D01*
X149587410Y-134644087D01*
X149647036Y-134540813D01*
X149677900Y-134425625D01*
X149677900Y-134306375D01*
X149647036Y-134191187D01*
X149587410Y-134087913D01*
X149503087Y-134003590D01*
X149451450Y-133973777D01*
X149399814Y-133943964D01*
X149342219Y-133928532D01*
X149284625Y-133913100D01*
X149165375Y-133913100D01*
X149050185Y-133943964D01*
X148946913Y-134003590D01*
X148946910Y-134003592D01*
X148862592Y-134087910D01*
X148862590Y-134087913D01*
X148802964Y-134191185D01*
X148772100Y-134306375D01*
X94114319Y-134306375D01*
X94114319Y-132655375D01*
X136199100Y-132655375D01*
X136199100Y-132774625D01*
X136214532Y-132832219D01*
X136229964Y-132889814D01*
X136259777Y-132941450D01*
X136289590Y-132993087D01*
X136373913Y-133077410D01*
X136477187Y-133137036D01*
X136592375Y-133167900D01*
X136592377Y-133167900D01*
X136711623Y-133167900D01*
X136711625Y-133167900D01*
X136728513Y-133163375D01*
X222686100Y-133163375D01*
X222686100Y-133282624D01*
X222716964Y-133397814D01*
X222746777Y-133449450D01*
X222776590Y-133501087D01*
X222860913Y-133585410D01*
X222964187Y-133645036D01*
X223079375Y-133675900D01*
X223079377Y-133675900D01*
X223198623Y-133675900D01*
X223198625Y-133675900D01*
X223313813Y-133645036D01*
X223417087Y-133585410D01*
X223501410Y-133501087D01*
X223561036Y-133397813D01*
X223591900Y-133282625D01*
X223591900Y-133163375D01*
X223561036Y-133048187D01*
X223501410Y-132944913D01*
X223417087Y-132860590D01*
X223365450Y-132830777D01*
X223313814Y-132800964D01*
X223256219Y-132785532D01*
X223198625Y-132770100D01*
X223079375Y-132770100D01*
X222964185Y-132800964D01*
X222860913Y-132860590D01*
X222860910Y-132860592D01*
X222776592Y-132944910D01*
X222776590Y-132944913D01*
X222716964Y-133048185D01*
X222686100Y-133163375D01*
X136728513Y-133163375D01*
X136826813Y-133137036D01*
X136930087Y-133077410D01*
X137014410Y-132993087D01*
X137074036Y-132889813D01*
X137104900Y-132774625D01*
X137104900Y-132655375D01*
X137074036Y-132540187D01*
X137014410Y-132436913D01*
X136930087Y-132352590D01*
X136865690Y-132315410D01*
X136826814Y-132292964D01*
X136757437Y-132274375D01*
X136711625Y-132262100D01*
X136592375Y-132262100D01*
X136477185Y-132292964D01*
X136373913Y-132352590D01*
X136373910Y-132352592D01*
X136289592Y-132436910D01*
X136289590Y-132436913D01*
X136229964Y-132540185D01*
X136210699Y-132612086D01*
X136199100Y-132655375D01*
X94114319Y-132655375D01*
X94114319Y-131893375D01*
X145978100Y-131893375D01*
X145978100Y-132012624D01*
X146008964Y-132127814D01*
X146027077Y-132159185D01*
X146068590Y-132231087D01*
X146152913Y-132315410D01*
X146256187Y-132375036D01*
X146371375Y-132405900D01*
X146371377Y-132405900D01*
X146490623Y-132405900D01*
X146490625Y-132405900D01*
X146605813Y-132375036D01*
X146709087Y-132315410D01*
X146750122Y-132274375D01*
X159694100Y-132274375D01*
X159694100Y-132393624D01*
X159724964Y-132508814D01*
X159743077Y-132540185D01*
X159784590Y-132612087D01*
X159868913Y-132696410D01*
X159972187Y-132756036D01*
X160087375Y-132786900D01*
X160087377Y-132786900D01*
X160206623Y-132786900D01*
X160206625Y-132786900D01*
X160321813Y-132756036D01*
X160425087Y-132696410D01*
X160509410Y-132612087D01*
X160569036Y-132508813D01*
X160599900Y-132393625D01*
X160599900Y-132274375D01*
X160569036Y-132159187D01*
X160509410Y-132055913D01*
X160425087Y-131971590D01*
X160373450Y-131941777D01*
X160321814Y-131911964D01*
X160252437Y-131893375D01*
X160206625Y-131881100D01*
X160087375Y-131881100D01*
X159972185Y-131911964D01*
X159868913Y-131971590D01*
X159868910Y-131971592D01*
X159784592Y-132055910D01*
X159784590Y-132055913D01*
X159724964Y-132159185D01*
X159694100Y-132274375D01*
X146750122Y-132274375D01*
X146793410Y-132231087D01*
X146853036Y-132127813D01*
X146883900Y-132012625D01*
X146883900Y-131893375D01*
X146853036Y-131778187D01*
X146793410Y-131674913D01*
X146709087Y-131590590D01*
X146657450Y-131560777D01*
X146605814Y-131530964D01*
X146548219Y-131515532D01*
X146490625Y-131500100D01*
X146371375Y-131500100D01*
X146256185Y-131530964D01*
X146152913Y-131590590D01*
X146152910Y-131590592D01*
X146068592Y-131674910D01*
X146068590Y-131674913D01*
X146008964Y-131778185D01*
X145978100Y-131893375D01*
X94114319Y-131893375D01*
X94114319Y-129652626D01*
X155167351Y-129652626D01*
X155167351Y-129771875D01*
X155198215Y-129887065D01*
X155228028Y-129938701D01*
X155257841Y-129990338D01*
X155342164Y-130074661D01*
X155445438Y-130134287D01*
X155560626Y-130165151D01*
X155560628Y-130165151D01*
X155679874Y-130165151D01*
X155679876Y-130165151D01*
X155795064Y-130134287D01*
X155898338Y-130074661D01*
X155982661Y-129990338D01*
X156042287Y-129887064D01*
X156073151Y-129771876D01*
X156073151Y-129652626D01*
X156042287Y-129537438D01*
X155982661Y-129434164D01*
X155898338Y-129349841D01*
X155846701Y-129320028D01*
X155795065Y-129290215D01*
X155737470Y-129274783D01*
X155679876Y-129259351D01*
X155560626Y-129259351D01*
X155445436Y-129290215D01*
X155342164Y-129349841D01*
X155342161Y-129349843D01*
X155257843Y-129434161D01*
X155257841Y-129434164D01*
X155198215Y-129537436D01*
X155167351Y-129652626D01*
X94114319Y-129652626D01*
X94114319Y-127448375D01*
X238434100Y-127448375D01*
X238434100Y-127567625D01*
X238437220Y-127579268D01*
X238464964Y-127682814D01*
X238471687Y-127694458D01*
X238524590Y-127786087D01*
X238608913Y-127870410D01*
X238712187Y-127930036D01*
X238827375Y-127960900D01*
X238827377Y-127960900D01*
X238946623Y-127960900D01*
X238946625Y-127960900D01*
X239061813Y-127930036D01*
X239165087Y-127870410D01*
X239249410Y-127786087D01*
X239309036Y-127682813D01*
X239339900Y-127567625D01*
X239339900Y-127460019D01*
X240344870Y-127460019D01*
X240344870Y-127579268D01*
X240375734Y-127694458D01*
X240403996Y-127743407D01*
X240435360Y-127797731D01*
X240519683Y-127882054D01*
X240622957Y-127941680D01*
X240738145Y-127972544D01*
X240738147Y-127972544D01*
X240857393Y-127972544D01*
X240857395Y-127972544D01*
X240972583Y-127941680D01*
X241075857Y-127882054D01*
X241160180Y-127797731D01*
X241215234Y-127702375D01*
X251388100Y-127702375D01*
X251388100Y-127821624D01*
X251418964Y-127936814D01*
X251448777Y-127988450D01*
X251478590Y-128040087D01*
X251562913Y-128124410D01*
X251666187Y-128184036D01*
X251781375Y-128214900D01*
X251781377Y-128214900D01*
X251900623Y-128214900D01*
X251900625Y-128214900D01*
X252015813Y-128184036D01*
X252119087Y-128124410D01*
X252203410Y-128040087D01*
X252263036Y-127936813D01*
X252293900Y-127821625D01*
X252293900Y-127702375D01*
X252263036Y-127587187D01*
X252258464Y-127579269D01*
X252251741Y-127567623D01*
X252203410Y-127483913D01*
X252119087Y-127399590D01*
X252067450Y-127369777D01*
X252015814Y-127339964D01*
X251946437Y-127321375D01*
X253674100Y-127321375D01*
X253674100Y-127440624D01*
X253704964Y-127555814D01*
X253718505Y-127579267D01*
X253764590Y-127659087D01*
X253848913Y-127743410D01*
X253938348Y-127795046D01*
X253942998Y-127797731D01*
X253952187Y-127803036D01*
X254067375Y-127833900D01*
X254067377Y-127833900D01*
X254186623Y-127833900D01*
X254186625Y-127833900D01*
X254301813Y-127803036D01*
X254405087Y-127743410D01*
X254489410Y-127659087D01*
X254549036Y-127555813D01*
X254579900Y-127440625D01*
X254579900Y-127321375D01*
X254549036Y-127206187D01*
X254489410Y-127102913D01*
X254405087Y-127018590D01*
X254353450Y-126988777D01*
X254301814Y-126958964D01*
X254244219Y-126943532D01*
X254186625Y-126928100D01*
X254067375Y-126928100D01*
X253952185Y-126958964D01*
X253848913Y-127018590D01*
X253848910Y-127018592D01*
X253764592Y-127102910D01*
X253764590Y-127102913D01*
X253704964Y-127206185D01*
X253674100Y-127321375D01*
X251946437Y-127321375D01*
X251900625Y-127309100D01*
X251781375Y-127309100D01*
X251666185Y-127339964D01*
X251562913Y-127399590D01*
X251562910Y-127399592D01*
X251478592Y-127483910D01*
X251478590Y-127483913D01*
X251418964Y-127587185D01*
X251388100Y-127702375D01*
X241215234Y-127702375D01*
X241219806Y-127694457D01*
X241250670Y-127579269D01*
X241250670Y-127460019D01*
X241219806Y-127344831D01*
X241160180Y-127241557D01*
X241075857Y-127157234D01*
X241024220Y-127127421D01*
X240972584Y-127097608D01*
X240914989Y-127082176D01*
X240857395Y-127066744D01*
X240738145Y-127066744D01*
X240622955Y-127097608D01*
X240519683Y-127157234D01*
X240519680Y-127157236D01*
X240435362Y-127241554D01*
X240435360Y-127241557D01*
X240375734Y-127344829D01*
X240344870Y-127460019D01*
X239339900Y-127460019D01*
X239339900Y-127448375D01*
X239309036Y-127333187D01*
X239249410Y-127229913D01*
X239165087Y-127145590D01*
X239113450Y-127115777D01*
X239061814Y-127085964D01*
X238990082Y-127066744D01*
X238946625Y-127055100D01*
X238827375Y-127055100D01*
X238712185Y-127085964D01*
X238608913Y-127145590D01*
X238608910Y-127145592D01*
X238524592Y-127229910D01*
X238524590Y-127229913D01*
X238464964Y-127333185D01*
X238447171Y-127399592D01*
X238434100Y-127448375D01*
X94114319Y-127448375D01*
X94114319Y-125543375D01*
X164520100Y-125543375D01*
X164520100Y-125662624D01*
X164550964Y-125777814D01*
X164580777Y-125829450D01*
X164610590Y-125881087D01*
X164694913Y-125965410D01*
X164798187Y-126025036D01*
X164913375Y-126055900D01*
X164913377Y-126055900D01*
X165032623Y-126055900D01*
X165032625Y-126055900D01*
X165147813Y-126025036D01*
X165251087Y-125965410D01*
X165335410Y-125881087D01*
X165395036Y-125777813D01*
X165425900Y-125662625D01*
X165425900Y-125543375D01*
X165395036Y-125428187D01*
X165335410Y-125324913D01*
X165251087Y-125240590D01*
X165199450Y-125210777D01*
X165147814Y-125180964D01*
X165090219Y-125165532D01*
X165032625Y-125150100D01*
X164913375Y-125150100D01*
X164798185Y-125180964D01*
X164694913Y-125240590D01*
X164694910Y-125240592D01*
X164610592Y-125324910D01*
X164610590Y-125324913D01*
X164550964Y-125428185D01*
X164520100Y-125543375D01*
X94114319Y-125543375D01*
X94114319Y-124335840D01*
X141152100Y-124335840D01*
X141152100Y-124455089D01*
X141182964Y-124570279D01*
X141212777Y-124621915D01*
X141242590Y-124673552D01*
X141326913Y-124757875D01*
X141430187Y-124817501D01*
X141545375Y-124848365D01*
X141545377Y-124848365D01*
X141664623Y-124848365D01*
X141664625Y-124848365D01*
X141779813Y-124817501D01*
X141883087Y-124757875D01*
X141967410Y-124673552D01*
X142027036Y-124570278D01*
X142057900Y-124455090D01*
X142057900Y-124335840D01*
X142027036Y-124220652D01*
X141967410Y-124117378D01*
X141883087Y-124033055D01*
X141813773Y-123993036D01*
X141779814Y-123973429D01*
X141722219Y-123957997D01*
X141664625Y-123942565D01*
X141545375Y-123942565D01*
X141430185Y-123973429D01*
X141326913Y-124033055D01*
X141326910Y-124033057D01*
X141242592Y-124117375D01*
X141242590Y-124117378D01*
X141182964Y-124220650D01*
X141152100Y-124335840D01*
X94114319Y-124335840D01*
X94114319Y-122749375D01*
X102163100Y-122749375D01*
X102163100Y-122868624D01*
X102193964Y-122983814D01*
X102212077Y-123015185D01*
X102253590Y-123087087D01*
X102337913Y-123171410D01*
X102441187Y-123231036D01*
X102556375Y-123261900D01*
X102556377Y-123261900D01*
X102675623Y-123261900D01*
X102675625Y-123261900D01*
X102790813Y-123231036D01*
X102894087Y-123171410D01*
X102978410Y-123087087D01*
X103038036Y-122983813D01*
X103059215Y-122904770D01*
X104096495Y-122904770D01*
X104096495Y-123024020D01*
X104110815Y-123077464D01*
X104127359Y-123139209D01*
X104142777Y-123165913D01*
X104186985Y-123242482D01*
X104271308Y-123326805D01*
X104337139Y-123364813D01*
X104371462Y-123384630D01*
X104374582Y-123386431D01*
X104489770Y-123417295D01*
X104489772Y-123417295D01*
X104609018Y-123417295D01*
X104609020Y-123417295D01*
X104724208Y-123386431D01*
X104827482Y-123326805D01*
X104911805Y-123242482D01*
X104940574Y-123192654D01*
X116841865Y-123192654D01*
X116841865Y-123311904D01*
X116854315Y-123358370D01*
X116872729Y-123427093D01*
X116901901Y-123477618D01*
X116932355Y-123530366D01*
X117016678Y-123614689D01*
X117119952Y-123674315D01*
X117235140Y-123705179D01*
X117235142Y-123705179D01*
X117354388Y-123705179D01*
X117354390Y-123705179D01*
X117469578Y-123674315D01*
X117572852Y-123614689D01*
X117657175Y-123530366D01*
X117716801Y-123427092D01*
X117728247Y-123384375D01*
X123118100Y-123384375D01*
X123118100Y-123503624D01*
X123148964Y-123618814D01*
X123178777Y-123670450D01*
X123208590Y-123722087D01*
X123292913Y-123806410D01*
X123396187Y-123866036D01*
X123511375Y-123896900D01*
X123511377Y-123896900D01*
X123630623Y-123896900D01*
X123630625Y-123896900D01*
X123730414Y-123870162D01*
X220676313Y-123870162D01*
X220676313Y-123989412D01*
X220691745Y-124047006D01*
X220707177Y-124104601D01*
X220714554Y-124117378D01*
X220766803Y-124207874D01*
X220851126Y-124292197D01*
X220954400Y-124351823D01*
X221069588Y-124382687D01*
X221069590Y-124382687D01*
X221188836Y-124382687D01*
X221188838Y-124382687D01*
X221304026Y-124351823D01*
X221407300Y-124292197D01*
X221491623Y-124207874D01*
X221551249Y-124104600D01*
X221582113Y-123989412D01*
X221582113Y-123870162D01*
X221551249Y-123754974D01*
X221491623Y-123651700D01*
X221407300Y-123567377D01*
X221355663Y-123537564D01*
X221310304Y-123511375D01*
X223492187Y-123511375D01*
X223492187Y-123630625D01*
X223507619Y-123688219D01*
X223523051Y-123745814D01*
X223528339Y-123754972D01*
X223582677Y-123849087D01*
X223667000Y-123933410D01*
X223770274Y-123993036D01*
X223885462Y-124023900D01*
X223885464Y-124023900D01*
X224004710Y-124023900D01*
X224004712Y-124023900D01*
X224119900Y-123993036D01*
X224223174Y-123933410D01*
X224307497Y-123849087D01*
X224367123Y-123745813D01*
X224397987Y-123630625D01*
X224397987Y-123511375D01*
X224367123Y-123396187D01*
X224360450Y-123384630D01*
X224359133Y-123382348D01*
X224307497Y-123292913D01*
X224223174Y-123208590D01*
X224119900Y-123148964D01*
X224004712Y-123118100D01*
X223885462Y-123118100D01*
X223770272Y-123148964D01*
X223667000Y-123208590D01*
X223666997Y-123208592D01*
X223582679Y-123292910D01*
X223582677Y-123292913D01*
X223523051Y-123396185D01*
X223501428Y-123476887D01*
X223492187Y-123511375D01*
X221310304Y-123511375D01*
X221304027Y-123507751D01*
X221219247Y-123485035D01*
X221188838Y-123476887D01*
X221069588Y-123476887D01*
X220954398Y-123507751D01*
X220851126Y-123567377D01*
X220851123Y-123567379D01*
X220766805Y-123651697D01*
X220766803Y-123651700D01*
X220707177Y-123754972D01*
X220693396Y-123806407D01*
X220676313Y-123870162D01*
X123730414Y-123870162D01*
X123745813Y-123866036D01*
X123849087Y-123806410D01*
X123933410Y-123722087D01*
X123993036Y-123618813D01*
X124023900Y-123503625D01*
X124023900Y-123384375D01*
X123993036Y-123269187D01*
X123933410Y-123165913D01*
X123849087Y-123081590D01*
X123784690Y-123044410D01*
X123745814Y-123021964D01*
X123648759Y-122995959D01*
X123630625Y-122991100D01*
X123511375Y-122991100D01*
X123396185Y-123021964D01*
X123292913Y-123081590D01*
X123292910Y-123081592D01*
X123208592Y-123165910D01*
X123208590Y-123165913D01*
X123148964Y-123269185D01*
X123118100Y-123384375D01*
X117728247Y-123384375D01*
X117747665Y-123311904D01*
X117747665Y-123192654D01*
X117716801Y-123077466D01*
X117657175Y-122974192D01*
X117645581Y-122962598D01*
X133699877Y-122962598D01*
X133699877Y-123081848D01*
X133710803Y-123122624D01*
X133730741Y-123197037D01*
X133750371Y-123231036D01*
X133790367Y-123300310D01*
X133874690Y-123384633D01*
X133948232Y-123427093D01*
X133974191Y-123442081D01*
X133977964Y-123444259D01*
X134093152Y-123475123D01*
X134093154Y-123475123D01*
X134212400Y-123475123D01*
X134212402Y-123475123D01*
X134327590Y-123444259D01*
X134430864Y-123384633D01*
X134515187Y-123300310D01*
X134574813Y-123197036D01*
X134605677Y-123081848D01*
X134605677Y-122962598D01*
X134574813Y-122847410D01*
X134515187Y-122744136D01*
X134430864Y-122659813D01*
X134366024Y-122622377D01*
X134327591Y-122600187D01*
X134269996Y-122584755D01*
X134212402Y-122569323D01*
X134093152Y-122569323D01*
X133977962Y-122600187D01*
X133874690Y-122659813D01*
X133874687Y-122659815D01*
X133790369Y-122744133D01*
X133790367Y-122744136D01*
X133730741Y-122847408D01*
X133711985Y-122917409D01*
X133699877Y-122962598D01*
X117645581Y-122962598D01*
X117572852Y-122889869D01*
X117499312Y-122847410D01*
X117469579Y-122830243D01*
X117411984Y-122814811D01*
X117354390Y-122799379D01*
X117235140Y-122799379D01*
X117119950Y-122830243D01*
X117016678Y-122889869D01*
X117016675Y-122889871D01*
X116932357Y-122974189D01*
X116932355Y-122974192D01*
X116872729Y-123077464D01*
X116856185Y-123139209D01*
X116841865Y-123192654D01*
X104940574Y-123192654D01*
X104971431Y-123139208D01*
X105002295Y-123024020D01*
X105002295Y-122904770D01*
X104971431Y-122789582D01*
X104911805Y-122686308D01*
X104827482Y-122601985D01*
X104775845Y-122572172D01*
X104724209Y-122542359D01*
X104666614Y-122526927D01*
X104609020Y-122511495D01*
X104489770Y-122511495D01*
X104374580Y-122542359D01*
X104271308Y-122601985D01*
X104271305Y-122601987D01*
X104186987Y-122686305D01*
X104186985Y-122686308D01*
X104127359Y-122789580D01*
X104106180Y-122868623D01*
X104096495Y-122904770D01*
X103059215Y-122904770D01*
X103068900Y-122868625D01*
X103068900Y-122749375D01*
X103038036Y-122634187D01*
X102978410Y-122530913D01*
X102942872Y-122495375D01*
X140009100Y-122495375D01*
X140009100Y-122614625D01*
X140021208Y-122659813D01*
X140039964Y-122729814D01*
X140048233Y-122744136D01*
X140099590Y-122833087D01*
X140183913Y-122917410D01*
X140287187Y-122977036D01*
X140402375Y-123007900D01*
X140402377Y-123007900D01*
X140521623Y-123007900D01*
X140521625Y-123007900D01*
X140636813Y-122977036D01*
X140740087Y-122917410D01*
X140824410Y-122833087D01*
X140884036Y-122729813D01*
X140912823Y-122622375D01*
X157281100Y-122622375D01*
X157281100Y-122741625D01*
X157292698Y-122784910D01*
X157311964Y-122856814D01*
X157328760Y-122885905D01*
X157371590Y-122960087D01*
X157455913Y-123044410D01*
X157559187Y-123104036D01*
X157674375Y-123134900D01*
X157674377Y-123134900D01*
X157793623Y-123134900D01*
X157793625Y-123134900D01*
X157810513Y-123130375D01*
X170155688Y-123130375D01*
X170155688Y-123249624D01*
X170186552Y-123364814D01*
X170199033Y-123386431D01*
X170246178Y-123468087D01*
X170330501Y-123552410D01*
X170433775Y-123612036D01*
X170548963Y-123642900D01*
X170548965Y-123642900D01*
X170668211Y-123642900D01*
X170668213Y-123642900D01*
X170783401Y-123612036D01*
X170886675Y-123552410D01*
X170970998Y-123468087D01*
X171030624Y-123364813D01*
X171061488Y-123249625D01*
X171061488Y-123130375D01*
X172883688Y-123130375D01*
X172883688Y-123249624D01*
X172914552Y-123364814D01*
X172927033Y-123386431D01*
X172974178Y-123468087D01*
X173058501Y-123552410D01*
X173161775Y-123612036D01*
X173276963Y-123642900D01*
X173276965Y-123642900D01*
X173396211Y-123642900D01*
X173396213Y-123642900D01*
X173511401Y-123612036D01*
X173614675Y-123552410D01*
X173698998Y-123468087D01*
X173758624Y-123364813D01*
X173789488Y-123249625D01*
X173789488Y-123130375D01*
X184887688Y-123130375D01*
X184887688Y-123249624D01*
X184918552Y-123364814D01*
X184931033Y-123386431D01*
X184978178Y-123468087D01*
X185062501Y-123552410D01*
X185165775Y-123612036D01*
X185280963Y-123642900D01*
X185280965Y-123642900D01*
X185400211Y-123642900D01*
X185400213Y-123642900D01*
X185515401Y-123612036D01*
X185618675Y-123552410D01*
X185702998Y-123468087D01*
X185762624Y-123364813D01*
X185793488Y-123249625D01*
X185793488Y-123130375D01*
X187615688Y-123130375D01*
X187615688Y-123249624D01*
X187646552Y-123364814D01*
X187659033Y-123386431D01*
X187706178Y-123468087D01*
X187790501Y-123552410D01*
X187893775Y-123612036D01*
X188008963Y-123642900D01*
X188008965Y-123642900D01*
X188128211Y-123642900D01*
X188128213Y-123642900D01*
X188243401Y-123612036D01*
X188346675Y-123552410D01*
X188430998Y-123468087D01*
X188490624Y-123364813D01*
X188521488Y-123249625D01*
X188521488Y-123130375D01*
X196622189Y-123130375D01*
X196622189Y-123249624D01*
X196653053Y-123364814D01*
X196665534Y-123386431D01*
X196712679Y-123468087D01*
X196797002Y-123552410D01*
X196900276Y-123612036D01*
X197015464Y-123642900D01*
X197015466Y-123642900D01*
X197134712Y-123642900D01*
X197134714Y-123642900D01*
X197249902Y-123612036D01*
X197353176Y-123552410D01*
X197437499Y-123468087D01*
X197497125Y-123364813D01*
X197527989Y-123249625D01*
X197527989Y-123130375D01*
X199350189Y-123130375D01*
X199350189Y-123249624D01*
X199381053Y-123364814D01*
X199393534Y-123386431D01*
X199440679Y-123468087D01*
X199525002Y-123552410D01*
X199628276Y-123612036D01*
X199743464Y-123642900D01*
X199743466Y-123642900D01*
X199862712Y-123642900D01*
X199862714Y-123642900D01*
X199977902Y-123612036D01*
X200081176Y-123552410D01*
X200165499Y-123468087D01*
X200225125Y-123364813D01*
X200255989Y-123249625D01*
X200255989Y-123130375D01*
X200225125Y-123015187D01*
X200218305Y-123003375D01*
X208433189Y-123003375D01*
X208433189Y-123122625D01*
X208444787Y-123165910D01*
X208464053Y-123237814D01*
X208482166Y-123269185D01*
X208523679Y-123341087D01*
X208608002Y-123425410D01*
X208711276Y-123485036D01*
X208826464Y-123515900D01*
X208826466Y-123515900D01*
X208945712Y-123515900D01*
X208945714Y-123515900D01*
X209060902Y-123485036D01*
X209164176Y-123425410D01*
X209248499Y-123341087D01*
X209308125Y-123237813D01*
X209338989Y-123122625D01*
X209338989Y-123003375D01*
X211161189Y-123003375D01*
X211161189Y-123122625D01*
X211172787Y-123165910D01*
X211192053Y-123237814D01*
X211210166Y-123269185D01*
X211251679Y-123341087D01*
X211336002Y-123425410D01*
X211439276Y-123485036D01*
X211554464Y-123515900D01*
X211554466Y-123515900D01*
X211673712Y-123515900D01*
X211673714Y-123515900D01*
X211788902Y-123485036D01*
X211892176Y-123425410D01*
X211976499Y-123341087D01*
X212036125Y-123237813D01*
X212066989Y-123122625D01*
X212066989Y-123104370D01*
X234845139Y-123104370D01*
X234845139Y-123223620D01*
X234852107Y-123249624D01*
X234876003Y-123338809D01*
X234902311Y-123384375D01*
X234935629Y-123442082D01*
X235019952Y-123526405D01*
X235123226Y-123586031D01*
X235238414Y-123616895D01*
X235238416Y-123616895D01*
X235357662Y-123616895D01*
X235357664Y-123616895D01*
X235472852Y-123586031D01*
X235576126Y-123526405D01*
X235660449Y-123442082D01*
X235708781Y-123358370D01*
X247799139Y-123358370D01*
X247799139Y-123477620D01*
X247808184Y-123511377D01*
X247830003Y-123592809D01*
X247851836Y-123630623D01*
X247889629Y-123696082D01*
X247973952Y-123780405D01*
X248077226Y-123840031D01*
X248192414Y-123870895D01*
X248192416Y-123870895D01*
X248311662Y-123870895D01*
X248311664Y-123870895D01*
X248426852Y-123840031D01*
X248530126Y-123780405D01*
X248614449Y-123696082D01*
X248674075Y-123592808D01*
X248704939Y-123477620D01*
X248704939Y-123358370D01*
X248674075Y-123243182D01*
X248614449Y-123139908D01*
X248530126Y-123055585D01*
X248478489Y-123025772D01*
X248426853Y-122995959D01*
X248345615Y-122974192D01*
X248311664Y-122965095D01*
X248192414Y-122965095D01*
X248077224Y-122995959D01*
X247973952Y-123055585D01*
X247973949Y-123055587D01*
X247889631Y-123139905D01*
X247889629Y-123139908D01*
X247830003Y-123243180D01*
X247804380Y-123338809D01*
X247799139Y-123358370D01*
X235708781Y-123358370D01*
X235720075Y-123338808D01*
X235750939Y-123223620D01*
X235750939Y-123104370D01*
X235720075Y-122989182D01*
X235660449Y-122885908D01*
X235576126Y-122801585D01*
X235524489Y-122771772D01*
X235472853Y-122741959D01*
X235415258Y-122726527D01*
X235357664Y-122711095D01*
X235238414Y-122711095D01*
X235123224Y-122741959D01*
X235019952Y-122801585D01*
X235019949Y-122801587D01*
X234935631Y-122885905D01*
X234935629Y-122885908D01*
X234876003Y-122989180D01*
X234858210Y-123055587D01*
X234845139Y-123104370D01*
X212066989Y-123104370D01*
X212066989Y-123003375D01*
X212036125Y-122888187D01*
X212034807Y-122885905D01*
X212024830Y-122868623D01*
X211976499Y-122784913D01*
X211892176Y-122700590D01*
X211840539Y-122670777D01*
X211788903Y-122640964D01*
X211719526Y-122622375D01*
X211673714Y-122610100D01*
X211554464Y-122610100D01*
X211439274Y-122640964D01*
X211336002Y-122700590D01*
X211335999Y-122700592D01*
X211251681Y-122784910D01*
X211251679Y-122784913D01*
X211192053Y-122888185D01*
X211166430Y-122983814D01*
X211161189Y-123003375D01*
X209338989Y-123003375D01*
X209308125Y-122888187D01*
X209306807Y-122885905D01*
X209296830Y-122868623D01*
X209248499Y-122784913D01*
X209164176Y-122700590D01*
X209112539Y-122670777D01*
X209060903Y-122640964D01*
X208991526Y-122622375D01*
X208945714Y-122610100D01*
X208826464Y-122610100D01*
X208711274Y-122640964D01*
X208608002Y-122700590D01*
X208607999Y-122700592D01*
X208523681Y-122784910D01*
X208523679Y-122784913D01*
X208464053Y-122888185D01*
X208438430Y-122983814D01*
X208433189Y-123003375D01*
X200218305Y-123003375D01*
X200165499Y-122911913D01*
X200081176Y-122827590D01*
X200015342Y-122789580D01*
X199977903Y-122767964D01*
X199888973Y-122744136D01*
X199862714Y-122737100D01*
X199743464Y-122737100D01*
X199628274Y-122767964D01*
X199525002Y-122827590D01*
X199524999Y-122827592D01*
X199440681Y-122911910D01*
X199440679Y-122911913D01*
X199381053Y-123015185D01*
X199350189Y-123130375D01*
X197527989Y-123130375D01*
X197497125Y-123015187D01*
X197437499Y-122911913D01*
X197353176Y-122827590D01*
X197287342Y-122789580D01*
X197249903Y-122767964D01*
X197160973Y-122744136D01*
X197134714Y-122737100D01*
X197015464Y-122737100D01*
X196900274Y-122767964D01*
X196797002Y-122827590D01*
X196796999Y-122827592D01*
X196712681Y-122911910D01*
X196712679Y-122911913D01*
X196653053Y-123015185D01*
X196622189Y-123130375D01*
X188521488Y-123130375D01*
X188490624Y-123015187D01*
X188430998Y-122911913D01*
X188346675Y-122827590D01*
X188280841Y-122789580D01*
X188243402Y-122767964D01*
X188154472Y-122744136D01*
X188128213Y-122737100D01*
X188008963Y-122737100D01*
X187893773Y-122767964D01*
X187790501Y-122827590D01*
X187790498Y-122827592D01*
X187706180Y-122911910D01*
X187706178Y-122911913D01*
X187646552Y-123015185D01*
X187615688Y-123130375D01*
X185793488Y-123130375D01*
X185762624Y-123015187D01*
X185702998Y-122911913D01*
X185618675Y-122827590D01*
X185552841Y-122789580D01*
X185515402Y-122767964D01*
X185426472Y-122744136D01*
X185400213Y-122737100D01*
X185280963Y-122737100D01*
X185165773Y-122767964D01*
X185062501Y-122827590D01*
X185062498Y-122827592D01*
X184978180Y-122911910D01*
X184978178Y-122911913D01*
X184918552Y-123015185D01*
X184887688Y-123130375D01*
X173789488Y-123130375D01*
X173758624Y-123015187D01*
X173698998Y-122911913D01*
X173614675Y-122827590D01*
X173548841Y-122789580D01*
X173511402Y-122767964D01*
X173422472Y-122744136D01*
X173396213Y-122737100D01*
X173276963Y-122737100D01*
X173161773Y-122767964D01*
X173058501Y-122827590D01*
X173058498Y-122827592D01*
X172974180Y-122911910D01*
X172974178Y-122911913D01*
X172914552Y-123015185D01*
X172883688Y-123130375D01*
X171061488Y-123130375D01*
X171030624Y-123015187D01*
X170970998Y-122911913D01*
X170886675Y-122827590D01*
X170820841Y-122789580D01*
X170783402Y-122767964D01*
X170694472Y-122744136D01*
X170668213Y-122737100D01*
X170548963Y-122737100D01*
X170433773Y-122767964D01*
X170330501Y-122827590D01*
X170330498Y-122827592D01*
X170246180Y-122911910D01*
X170246178Y-122911913D01*
X170186552Y-123015185D01*
X170155688Y-123130375D01*
X157810513Y-123130375D01*
X157908813Y-123104036D01*
X158012087Y-123044410D01*
X158096410Y-122960087D01*
X158156036Y-122856813D01*
X158186900Y-122741625D01*
X158186900Y-122622375D01*
X158156036Y-122507187D01*
X158096410Y-122403913D01*
X158012087Y-122319590D01*
X157960450Y-122289777D01*
X157908814Y-122259964D01*
X157851219Y-122244532D01*
X157793625Y-122229100D01*
X157674375Y-122229100D01*
X157559185Y-122259964D01*
X157455913Y-122319590D01*
X157455910Y-122319592D01*
X157371592Y-122403910D01*
X157371590Y-122403913D01*
X157311964Y-122507185D01*
X157295495Y-122568650D01*
X157281100Y-122622375D01*
X140912823Y-122622375D01*
X140914900Y-122614625D01*
X140914900Y-122495375D01*
X140884036Y-122380187D01*
X140824410Y-122276913D01*
X140740087Y-122192590D01*
X140636813Y-122132964D01*
X140521625Y-122102100D01*
X140402375Y-122102100D01*
X140287185Y-122132964D01*
X140183913Y-122192590D01*
X140183910Y-122192592D01*
X140099592Y-122276910D01*
X140099590Y-122276913D01*
X140039964Y-122380185D01*
X140022171Y-122446592D01*
X140009100Y-122495375D01*
X102942872Y-122495375D01*
X102894087Y-122446590D01*
X102842450Y-122416777D01*
X102790814Y-122386964D01*
X102733219Y-122371532D01*
X102675625Y-122356100D01*
X102556375Y-122356100D01*
X102441185Y-122386964D01*
X102337913Y-122446590D01*
X102337910Y-122446592D01*
X102253592Y-122530910D01*
X102253590Y-122530913D01*
X102193964Y-122634185D01*
X102163100Y-122749375D01*
X94114319Y-122749375D01*
X94114319Y-122056126D01*
X147951851Y-122056126D01*
X147951851Y-122175376D01*
X147956464Y-122192592D01*
X147982715Y-122290565D01*
X148012528Y-122342201D01*
X148042341Y-122393838D01*
X148126664Y-122478161D01*
X148229938Y-122537787D01*
X148345126Y-122568651D01*
X148345128Y-122568651D01*
X148464374Y-122568651D01*
X148464376Y-122568651D01*
X148579564Y-122537787D01*
X148682838Y-122478161D01*
X148767161Y-122393838D01*
X148826787Y-122290564D01*
X148857651Y-122175376D01*
X148857651Y-122056126D01*
X148826787Y-121940938D01*
X148767161Y-121837664D01*
X148682838Y-121753341D01*
X148631201Y-121723528D01*
X148579565Y-121693715D01*
X148521970Y-121678283D01*
X148464376Y-121662851D01*
X148345126Y-121662851D01*
X148229936Y-121693715D01*
X148126664Y-121753341D01*
X148126661Y-121753343D01*
X148042343Y-121837661D01*
X148042341Y-121837664D01*
X147982715Y-121940936D01*
X147951851Y-122056126D01*
X94114319Y-122056126D01*
X94114319Y-121098375D01*
X145089100Y-121098375D01*
X145089100Y-121217624D01*
X145119964Y-121332814D01*
X145149777Y-121384450D01*
X145179590Y-121436087D01*
X145263913Y-121520410D01*
X145367187Y-121580036D01*
X145482375Y-121610900D01*
X145482377Y-121610900D01*
X145601623Y-121610900D01*
X145601625Y-121610900D01*
X145716813Y-121580036D01*
X145820087Y-121520410D01*
X145904410Y-121436087D01*
X145964036Y-121332813D01*
X145994900Y-121217625D01*
X145994900Y-121098375D01*
X145964036Y-120983187D01*
X145904410Y-120879913D01*
X145820087Y-120795590D01*
X145768450Y-120765777D01*
X145716814Y-120735964D01*
X145659219Y-120720532D01*
X145601625Y-120705100D01*
X145482375Y-120705100D01*
X145367185Y-120735964D01*
X145263913Y-120795590D01*
X145263910Y-120795592D01*
X145179592Y-120879910D01*
X145179590Y-120879913D01*
X145119964Y-120983185D01*
X145089100Y-121098375D01*
X94114319Y-121098375D01*
X94114319Y-118685375D01*
X135564100Y-118685375D01*
X135564100Y-118804625D01*
X135579532Y-118862219D01*
X135594964Y-118919814D01*
X135624777Y-118971450D01*
X135654590Y-119023087D01*
X135738913Y-119107410D01*
X135842187Y-119167036D01*
X135957375Y-119197900D01*
X135957377Y-119197900D01*
X136076623Y-119197900D01*
X136076625Y-119197900D01*
X136093513Y-119193375D01*
X151820100Y-119193375D01*
X151820100Y-119312624D01*
X151850964Y-119427814D01*
X151880777Y-119479450D01*
X151910590Y-119531087D01*
X151994913Y-119615410D01*
X152098187Y-119675036D01*
X152213375Y-119705900D01*
X152213377Y-119705900D01*
X152332623Y-119705900D01*
X152332625Y-119705900D01*
X152447813Y-119675036D01*
X152551087Y-119615410D01*
X152635410Y-119531087D01*
X152695036Y-119427813D01*
X152725900Y-119312625D01*
X152725900Y-119193375D01*
X152695036Y-119078187D01*
X152635410Y-118974913D01*
X152551087Y-118890590D01*
X152499450Y-118860777D01*
X152447814Y-118830964D01*
X152390219Y-118815532D01*
X152332625Y-118800100D01*
X152213375Y-118800100D01*
X152098185Y-118830964D01*
X151994913Y-118890590D01*
X151994910Y-118890592D01*
X151910592Y-118974910D01*
X151910590Y-118974913D01*
X151850964Y-119078185D01*
X151820100Y-119193375D01*
X136093513Y-119193375D01*
X136191813Y-119167036D01*
X136295087Y-119107410D01*
X136379410Y-119023087D01*
X136439036Y-118919813D01*
X136469900Y-118804625D01*
X136469900Y-118685375D01*
X136439036Y-118570187D01*
X136379410Y-118466913D01*
X136295087Y-118382590D01*
X136243450Y-118352777D01*
X136191814Y-118322964D01*
X136134219Y-118307532D01*
X136076625Y-118292100D01*
X135957375Y-118292100D01*
X135842185Y-118322964D01*
X135738913Y-118382590D01*
X135738910Y-118382592D01*
X135654592Y-118466910D01*
X135654590Y-118466913D01*
X135594964Y-118570185D01*
X135564100Y-118685375D01*
X94114319Y-118685375D01*
X94114319Y-115319875D01*
X120915887Y-115319875D01*
X120915887Y-115439125D01*
X120921907Y-115461592D01*
X120946751Y-115554314D01*
X120976564Y-115605950D01*
X121006377Y-115657587D01*
X121090700Y-115741910D01*
X121193974Y-115801536D01*
X121309162Y-115832400D01*
X121309164Y-115832400D01*
X121428410Y-115832400D01*
X121428412Y-115832400D01*
X121543600Y-115801536D01*
X121607964Y-115764375D01*
X169727100Y-115764375D01*
X169727100Y-115883624D01*
X169757964Y-115998814D01*
X169787777Y-116050450D01*
X169817590Y-116102087D01*
X169901913Y-116186410D01*
X170005187Y-116246036D01*
X170120375Y-116276900D01*
X170120377Y-116276900D01*
X170239623Y-116276900D01*
X170239625Y-116276900D01*
X170354813Y-116246036D01*
X170458087Y-116186410D01*
X170542410Y-116102087D01*
X170602036Y-115998813D01*
X170632900Y-115883625D01*
X170632900Y-115764375D01*
X170602036Y-115649187D01*
X170542410Y-115545913D01*
X170458087Y-115461590D01*
X170406450Y-115431777D01*
X170354814Y-115401964D01*
X170297219Y-115386532D01*
X170239625Y-115371100D01*
X170120375Y-115371100D01*
X170005185Y-115401964D01*
X169901913Y-115461590D01*
X169901910Y-115461592D01*
X169817592Y-115545910D01*
X169817590Y-115545913D01*
X169757964Y-115649185D01*
X169727100Y-115764375D01*
X121607964Y-115764375D01*
X121646874Y-115741910D01*
X121731197Y-115657587D01*
X121790823Y-115554313D01*
X121821687Y-115439125D01*
X121821687Y-115319875D01*
X121790823Y-115204687D01*
X121790822Y-115204685D01*
X121790822Y-115204684D01*
X121778446Y-115183250D01*
X121747341Y-115129375D01*
X144962100Y-115129375D01*
X144962100Y-115248624D01*
X144992964Y-115363814D01*
X144997171Y-115371100D01*
X145052590Y-115467087D01*
X145136913Y-115551410D01*
X145240187Y-115611036D01*
X145355375Y-115641900D01*
X145355377Y-115641900D01*
X145474623Y-115641900D01*
X145474625Y-115641900D01*
X145589813Y-115611036D01*
X145693087Y-115551410D01*
X145777410Y-115467087D01*
X145837036Y-115363813D01*
X145867900Y-115248625D01*
X145867900Y-115129375D01*
X145837036Y-115014187D01*
X145777410Y-114910913D01*
X145693087Y-114826590D01*
X145641450Y-114796777D01*
X145589814Y-114766964D01*
X145532219Y-114751532D01*
X145474625Y-114736100D01*
X145355375Y-114736100D01*
X145240185Y-114766964D01*
X145136913Y-114826590D01*
X145136910Y-114826592D01*
X145052592Y-114910910D01*
X145052590Y-114910913D01*
X144992964Y-115014185D01*
X144962100Y-115129375D01*
X121747341Y-115129375D01*
X121731197Y-115101413D01*
X121646874Y-115017090D01*
X121595237Y-114987277D01*
X121543601Y-114957464D01*
X121486006Y-114942032D01*
X121428412Y-114926600D01*
X121309162Y-114926600D01*
X121193972Y-114957464D01*
X121090700Y-115017090D01*
X121090697Y-115017092D01*
X121006379Y-115101410D01*
X121006377Y-115101413D01*
X120946751Y-115204685D01*
X120934978Y-115248624D01*
X120915887Y-115319875D01*
X94114319Y-115319875D01*
X94114319Y-113973892D01*
X101911081Y-113973892D01*
X101911081Y-114093141D01*
X101941945Y-114208331D01*
X101971758Y-114259967D01*
X102001571Y-114311604D01*
X102085894Y-114395927D01*
X102189168Y-114455553D01*
X102304356Y-114486417D01*
X102304358Y-114486417D01*
X102423604Y-114486417D01*
X102423606Y-114486417D01*
X102538794Y-114455553D01*
X102642068Y-114395927D01*
X102726391Y-114311604D01*
X102786017Y-114208330D01*
X102816881Y-114093142D01*
X102816881Y-113973892D01*
X102786017Y-113858704D01*
X102726391Y-113755430D01*
X102642068Y-113671107D01*
X102590431Y-113641294D01*
X102538795Y-113611481D01*
X102481200Y-113596049D01*
X102423606Y-113580617D01*
X102304356Y-113580617D01*
X102189166Y-113611481D01*
X102085894Y-113671107D01*
X102085891Y-113671109D01*
X102001573Y-113755427D01*
X102001571Y-113755430D01*
X101941945Y-113858702D01*
X101911081Y-113973892D01*
X94114319Y-113973892D01*
X94114319Y-111573375D01*
X210240100Y-111573375D01*
X210240100Y-111692624D01*
X210270964Y-111807814D01*
X210300777Y-111859450D01*
X210330590Y-111911087D01*
X210414913Y-111995410D01*
X210518187Y-112055036D01*
X210633375Y-112085900D01*
X210633377Y-112085900D01*
X210752623Y-112085900D01*
X210752625Y-112085900D01*
X210867813Y-112055036D01*
X210971087Y-111995410D01*
X211055410Y-111911087D01*
X211115036Y-111807813D01*
X211145900Y-111692625D01*
X211145900Y-111573375D01*
X211115036Y-111458187D01*
X211055410Y-111354913D01*
X210971087Y-111270590D01*
X210906690Y-111233410D01*
X210867814Y-111210964D01*
X210797261Y-111192060D01*
X210752625Y-111180100D01*
X210633375Y-111180100D01*
X210518185Y-111210964D01*
X210414913Y-111270590D01*
X210414910Y-111270592D01*
X210330592Y-111354910D01*
X210330590Y-111354913D01*
X210270964Y-111458185D01*
X210240100Y-111573375D01*
X94114319Y-111573375D01*
X94114319Y-110975496D01*
X137778554Y-110975496D01*
X137778554Y-111094745D01*
X137809418Y-111209935D01*
X137822970Y-111233407D01*
X137869044Y-111313208D01*
X137953367Y-111397531D01*
X138056641Y-111457157D01*
X138171829Y-111488021D01*
X138171831Y-111488021D01*
X138291077Y-111488021D01*
X138291079Y-111488021D01*
X138406267Y-111457157D01*
X138509541Y-111397531D01*
X138593864Y-111313208D01*
X138653490Y-111209934D01*
X138684354Y-111094746D01*
X138684354Y-111065375D01*
X228782100Y-111065375D01*
X228782100Y-111184625D01*
X228795171Y-111233407D01*
X228812964Y-111299814D01*
X228842777Y-111351450D01*
X228872590Y-111403087D01*
X228956913Y-111487410D01*
X229060187Y-111547036D01*
X229175375Y-111577900D01*
X229175377Y-111577900D01*
X229294623Y-111577900D01*
X229294625Y-111577900D01*
X229409813Y-111547036D01*
X229513087Y-111487410D01*
X229597410Y-111403087D01*
X229657036Y-111299813D01*
X229687900Y-111184625D01*
X229687900Y-111065375D01*
X229657036Y-110950187D01*
X229597410Y-110846913D01*
X229520523Y-110770026D01*
X230713681Y-110770026D01*
X230713681Y-110889275D01*
X230744545Y-111004465D01*
X230763239Y-111036843D01*
X230804171Y-111107738D01*
X230888494Y-111192061D01*
X230991768Y-111251687D01*
X231106956Y-111282551D01*
X231106958Y-111282551D01*
X231226204Y-111282551D01*
X231226206Y-111282551D01*
X231341394Y-111251687D01*
X231444668Y-111192061D01*
X231528991Y-111107738D01*
X231588617Y-111004464D01*
X231619481Y-110889276D01*
X231619481Y-110811375D01*
X232719100Y-110811375D01*
X232719100Y-110930625D01*
X232734532Y-110988219D01*
X232749964Y-111045814D01*
X232761258Y-111065375D01*
X232809590Y-111149087D01*
X232893913Y-111233410D01*
X232997187Y-111293036D01*
X233112375Y-111323900D01*
X233112377Y-111323900D01*
X233231623Y-111323900D01*
X233231625Y-111323900D01*
X233346813Y-111293036D01*
X233450087Y-111233410D01*
X233534410Y-111149087D01*
X233582742Y-111065375D01*
X241609100Y-111065375D01*
X241609100Y-111184625D01*
X241622171Y-111233407D01*
X241639964Y-111299814D01*
X241669777Y-111351450D01*
X241699590Y-111403087D01*
X241783913Y-111487410D01*
X241887187Y-111547036D01*
X242002375Y-111577900D01*
X242002377Y-111577900D01*
X242121623Y-111577900D01*
X242121625Y-111577900D01*
X242236813Y-111547036D01*
X242340087Y-111487410D01*
X242424410Y-111403087D01*
X242484036Y-111299813D01*
X242514900Y-111184625D01*
X242514900Y-111065375D01*
X242484036Y-110950187D01*
X242424410Y-110846913D01*
X242347523Y-110770026D01*
X243545826Y-110770026D01*
X243545826Y-110889275D01*
X243576690Y-111004465D01*
X243595384Y-111036843D01*
X243636316Y-111107738D01*
X243720639Y-111192061D01*
X243823913Y-111251687D01*
X243939101Y-111282551D01*
X243939103Y-111282551D01*
X244058349Y-111282551D01*
X244058351Y-111282551D01*
X244173539Y-111251687D01*
X244276813Y-111192061D01*
X244361136Y-111107738D01*
X244420762Y-111004464D01*
X244451626Y-110889276D01*
X244451626Y-110811375D01*
X245551245Y-110811375D01*
X245551245Y-110930625D01*
X245566677Y-110988219D01*
X245582109Y-111045814D01*
X245593403Y-111065375D01*
X245641735Y-111149087D01*
X245726058Y-111233410D01*
X245829332Y-111293036D01*
X245944520Y-111323900D01*
X245944522Y-111323900D01*
X246063768Y-111323900D01*
X246063770Y-111323900D01*
X246178958Y-111293036D01*
X246282232Y-111233410D01*
X246366555Y-111149087D01*
X246426181Y-111045813D01*
X246428584Y-111036843D01*
X254133859Y-111036843D01*
X254133859Y-111156093D01*
X254148285Y-111209934D01*
X254164723Y-111271282D01*
X254188929Y-111313207D01*
X254224349Y-111374555D01*
X254308672Y-111458878D01*
X254411946Y-111518504D01*
X254527134Y-111549368D01*
X254527136Y-111549368D01*
X254646382Y-111549368D01*
X254646384Y-111549368D01*
X254761572Y-111518504D01*
X254864846Y-111458878D01*
X254949169Y-111374555D01*
X255008795Y-111271281D01*
X255039659Y-111156093D01*
X255039659Y-111036843D01*
X255008795Y-110921655D01*
X254952354Y-110823897D01*
X254949173Y-110818387D01*
X254949170Y-110818384D01*
X254949169Y-110818381D01*
X254900814Y-110770026D01*
X256053470Y-110770026D01*
X256053470Y-110889275D01*
X256084334Y-111004465D01*
X256103028Y-111036843D01*
X256143960Y-111107738D01*
X256228283Y-111192061D01*
X256331557Y-111251687D01*
X256446745Y-111282551D01*
X256446747Y-111282551D01*
X256565993Y-111282551D01*
X256565995Y-111282551D01*
X256681183Y-111251687D01*
X256784457Y-111192061D01*
X256868780Y-111107738D01*
X256928406Y-111004464D01*
X256959270Y-110889276D01*
X256959270Y-110811375D01*
X258058889Y-110811375D01*
X258058889Y-110930625D01*
X258074321Y-110988219D01*
X258089753Y-111045814D01*
X258101047Y-111065375D01*
X258149379Y-111149087D01*
X258233702Y-111233410D01*
X258336976Y-111293036D01*
X258452164Y-111323900D01*
X258452166Y-111323900D01*
X258571412Y-111323900D01*
X258571414Y-111323900D01*
X258686602Y-111293036D01*
X258789876Y-111233410D01*
X258874199Y-111149087D01*
X258933825Y-111045813D01*
X258964689Y-110930625D01*
X258964689Y-110811375D01*
X258933825Y-110696187D01*
X258874199Y-110592913D01*
X258789876Y-110508590D01*
X258718262Y-110467243D01*
X258686603Y-110448964D01*
X258629008Y-110433532D01*
X258571414Y-110418100D01*
X258452164Y-110418100D01*
X258336974Y-110448964D01*
X258233702Y-110508590D01*
X258233699Y-110508592D01*
X258149381Y-110592910D01*
X258149379Y-110592913D01*
X258089753Y-110696185D01*
X258071960Y-110762592D01*
X258058889Y-110811375D01*
X256959270Y-110811375D01*
X256959270Y-110770026D01*
X256928406Y-110654838D01*
X256868780Y-110551564D01*
X256784457Y-110467241D01*
X256732820Y-110437428D01*
X256681184Y-110407615D01*
X256623589Y-110392183D01*
X256565995Y-110376751D01*
X256446745Y-110376751D01*
X256331555Y-110407615D01*
X256228283Y-110467241D01*
X256228280Y-110467243D01*
X256143962Y-110551561D01*
X256143960Y-110551564D01*
X256084334Y-110654836D01*
X256053470Y-110770026D01*
X254900814Y-110770026D01*
X254864846Y-110734058D01*
X254810990Y-110702964D01*
X254761573Y-110674432D01*
X254688437Y-110654836D01*
X254646384Y-110643568D01*
X254527134Y-110643568D01*
X254411944Y-110674432D01*
X254308672Y-110734058D01*
X254308669Y-110734060D01*
X254224351Y-110818378D01*
X254224349Y-110818381D01*
X254164723Y-110921653D01*
X254136991Y-111025153D01*
X254133859Y-111036843D01*
X246428584Y-111036843D01*
X246457045Y-110930625D01*
X246457045Y-110811375D01*
X246426181Y-110696187D01*
X246366555Y-110592913D01*
X246282232Y-110508590D01*
X246210618Y-110467243D01*
X246178959Y-110448964D01*
X246121364Y-110433532D01*
X246063770Y-110418100D01*
X245944520Y-110418100D01*
X245829330Y-110448964D01*
X245726058Y-110508590D01*
X245726055Y-110508592D01*
X245641737Y-110592910D01*
X245641735Y-110592913D01*
X245582109Y-110696185D01*
X245564316Y-110762592D01*
X245551245Y-110811375D01*
X244451626Y-110811375D01*
X244451626Y-110770026D01*
X244420762Y-110654838D01*
X244361136Y-110551564D01*
X244276813Y-110467241D01*
X244225176Y-110437428D01*
X244173540Y-110407615D01*
X244115945Y-110392183D01*
X244058351Y-110376751D01*
X243939101Y-110376751D01*
X243823911Y-110407615D01*
X243720639Y-110467241D01*
X243720636Y-110467243D01*
X243636318Y-110551561D01*
X243636316Y-110551564D01*
X243576690Y-110654836D01*
X243545826Y-110770026D01*
X242347523Y-110770026D01*
X242340087Y-110762590D01*
X242288450Y-110732777D01*
X242236814Y-110702964D01*
X242179219Y-110687532D01*
X242121625Y-110672100D01*
X242002375Y-110672100D01*
X241887185Y-110702964D01*
X241783913Y-110762590D01*
X241783910Y-110762592D01*
X241699592Y-110846910D01*
X241699590Y-110846913D01*
X241639964Y-110950185D01*
X241614341Y-111045814D01*
X241609100Y-111065375D01*
X233582742Y-111065375D01*
X233594036Y-111045813D01*
X233624900Y-110930625D01*
X233624900Y-110811375D01*
X233594036Y-110696187D01*
X233534410Y-110592913D01*
X233450087Y-110508590D01*
X233378473Y-110467243D01*
X233346814Y-110448964D01*
X233289219Y-110433532D01*
X233231625Y-110418100D01*
X233112375Y-110418100D01*
X232997185Y-110448964D01*
X232893913Y-110508590D01*
X232893910Y-110508592D01*
X232809592Y-110592910D01*
X232809590Y-110592913D01*
X232749964Y-110696185D01*
X232732171Y-110762592D01*
X232719100Y-110811375D01*
X231619481Y-110811375D01*
X231619481Y-110770026D01*
X231588617Y-110654838D01*
X231528991Y-110551564D01*
X231444668Y-110467241D01*
X231393031Y-110437428D01*
X231341395Y-110407615D01*
X231283800Y-110392183D01*
X231226206Y-110376751D01*
X231106956Y-110376751D01*
X230991766Y-110407615D01*
X230888494Y-110467241D01*
X230888491Y-110467243D01*
X230804173Y-110551561D01*
X230804171Y-110551564D01*
X230744545Y-110654836D01*
X230713681Y-110770026D01*
X229520523Y-110770026D01*
X229513087Y-110762590D01*
X229461450Y-110732777D01*
X229409814Y-110702964D01*
X229352219Y-110687532D01*
X229294625Y-110672100D01*
X229175375Y-110672100D01*
X229060185Y-110702964D01*
X228956913Y-110762590D01*
X228956910Y-110762592D01*
X228872592Y-110846910D01*
X228872590Y-110846913D01*
X228812964Y-110950185D01*
X228787341Y-111045814D01*
X228782100Y-111065375D01*
X138684354Y-111065375D01*
X138684354Y-110975496D01*
X138653490Y-110860308D01*
X138593864Y-110757034D01*
X138509541Y-110672711D01*
X138457904Y-110642898D01*
X138406268Y-110613085D01*
X138348673Y-110597653D01*
X138291079Y-110582221D01*
X138171829Y-110582221D01*
X138056639Y-110613085D01*
X137953367Y-110672711D01*
X137953364Y-110672713D01*
X137869046Y-110757031D01*
X137869044Y-110757034D01*
X137809418Y-110860306D01*
X137778554Y-110975496D01*
X94114319Y-110975496D01*
X94114319Y-108779375D01*
X105846100Y-108779375D01*
X105846100Y-108898624D01*
X105876964Y-109013814D01*
X105906777Y-109065450D01*
X105936590Y-109117087D01*
X106020913Y-109201410D01*
X106124187Y-109261036D01*
X106239375Y-109291900D01*
X106239377Y-109291900D01*
X106358623Y-109291900D01*
X106358625Y-109291900D01*
X106473813Y-109261036D01*
X106577087Y-109201410D01*
X106661410Y-109117087D01*
X106721036Y-109013813D01*
X106751900Y-108898625D01*
X106751900Y-108779375D01*
X106721036Y-108664187D01*
X106661410Y-108560913D01*
X106577087Y-108476590D01*
X106525450Y-108446777D01*
X106473814Y-108416964D01*
X106416219Y-108401532D01*
X106358625Y-108386100D01*
X106239375Y-108386100D01*
X106124185Y-108416964D01*
X106020913Y-108476590D01*
X106020910Y-108476592D01*
X105936592Y-108560910D01*
X105936590Y-108560913D01*
X105876964Y-108664185D01*
X105846100Y-108779375D01*
X94114319Y-108779375D01*
X94114319Y-107382375D01*
X210240100Y-107382375D01*
X210240100Y-107501625D01*
X210255532Y-107559219D01*
X210270964Y-107616814D01*
X210300777Y-107668450D01*
X210330590Y-107720087D01*
X210414913Y-107804410D01*
X210518187Y-107864036D01*
X210633375Y-107894900D01*
X210633377Y-107894900D01*
X210752623Y-107894900D01*
X210752625Y-107894900D01*
X210867813Y-107864036D01*
X210971087Y-107804410D01*
X211055410Y-107720087D01*
X211115036Y-107616813D01*
X211122503Y-107588945D01*
X212224670Y-107588945D01*
X212224670Y-107708195D01*
X212227857Y-107720089D01*
X212255534Y-107823384D01*
X212279005Y-107864035D01*
X212315160Y-107926657D01*
X212399483Y-108010980D01*
X212502757Y-108070606D01*
X212617945Y-108101470D01*
X212617947Y-108101470D01*
X212737193Y-108101470D01*
X212737195Y-108101470D01*
X212852383Y-108070606D01*
X212955657Y-108010980D01*
X213039980Y-107926657D01*
X213099606Y-107823383D01*
X213130470Y-107708195D01*
X213130470Y-107608344D01*
X221007069Y-107608344D01*
X221007069Y-107727593D01*
X221037933Y-107842783D01*
X221050204Y-107864036D01*
X221097559Y-107946056D01*
X221181882Y-108030379D01*
X221285156Y-108090005D01*
X221400344Y-108120869D01*
X221400346Y-108120869D01*
X221519592Y-108120869D01*
X221519594Y-108120869D01*
X221634782Y-108090005D01*
X221738056Y-108030379D01*
X221822379Y-107946056D01*
X221882005Y-107842782D01*
X221912869Y-107727594D01*
X221912869Y-107608344D01*
X221882005Y-107493156D01*
X221822379Y-107389882D01*
X221738056Y-107305559D01*
X221671591Y-107267185D01*
X221634783Y-107245933D01*
X221577188Y-107230501D01*
X221519594Y-107215069D01*
X221400344Y-107215069D01*
X221285154Y-107245933D01*
X221181882Y-107305559D01*
X221181879Y-107305561D01*
X221097561Y-107389879D01*
X221097559Y-107389882D01*
X221037933Y-107493154D01*
X221007069Y-107608344D01*
X213130470Y-107608344D01*
X213130470Y-107588945D01*
X213099606Y-107473757D01*
X213039980Y-107370483D01*
X212955657Y-107286160D01*
X212885983Y-107245933D01*
X212852384Y-107226534D01*
X212794789Y-107211102D01*
X212737195Y-107195670D01*
X212617945Y-107195670D01*
X212502755Y-107226534D01*
X212399483Y-107286160D01*
X212399480Y-107286162D01*
X212315162Y-107370480D01*
X212315160Y-107370483D01*
X212255534Y-107473755D01*
X212248067Y-107501624D01*
X212224670Y-107588945D01*
X211122503Y-107588945D01*
X211145900Y-107501625D01*
X211145900Y-107382375D01*
X211115036Y-107267187D01*
X211055410Y-107163913D01*
X210971087Y-107079590D01*
X210919450Y-107049777D01*
X210867814Y-107019964D01*
X210810219Y-107004532D01*
X210752625Y-106989100D01*
X210633375Y-106989100D01*
X210518185Y-107019964D01*
X210414913Y-107079590D01*
X210414910Y-107079592D01*
X210330592Y-107163910D01*
X210330590Y-107163913D01*
X210270964Y-107267185D01*
X210260682Y-107305559D01*
X210240100Y-107382375D01*
X94114319Y-107382375D01*
X94114319Y-106493375D01*
X227131100Y-106493375D01*
X227131100Y-106612624D01*
X227161964Y-106727814D01*
X227191777Y-106779450D01*
X227221590Y-106831087D01*
X227305913Y-106915410D01*
X227409187Y-106975036D01*
X227524375Y-107005900D01*
X227524377Y-107005900D01*
X227643623Y-107005900D01*
X227643625Y-107005900D01*
X227758813Y-106975036D01*
X227862087Y-106915410D01*
X227946410Y-106831087D01*
X228006036Y-106727813D01*
X228036900Y-106612625D01*
X228036900Y-106493375D01*
X239963245Y-106493375D01*
X239963245Y-106612624D01*
X239994109Y-106727814D01*
X240023922Y-106779450D01*
X240053735Y-106831087D01*
X240138058Y-106915410D01*
X240241332Y-106975036D01*
X240356520Y-107005900D01*
X240356522Y-107005900D01*
X240475768Y-107005900D01*
X240475770Y-107005900D01*
X240590958Y-106975036D01*
X240694232Y-106915410D01*
X240778555Y-106831087D01*
X240838181Y-106727813D01*
X240869045Y-106612625D01*
X240869045Y-106493375D01*
X252470889Y-106493375D01*
X252470889Y-106612624D01*
X252501753Y-106727814D01*
X252531566Y-106779450D01*
X252561379Y-106831087D01*
X252645702Y-106915410D01*
X252748976Y-106975036D01*
X252864164Y-107005900D01*
X252864166Y-107005900D01*
X252983412Y-107005900D01*
X252983414Y-107005900D01*
X253098602Y-106975036D01*
X253201876Y-106915410D01*
X253286199Y-106831087D01*
X253345825Y-106727813D01*
X253376689Y-106612625D01*
X253376689Y-106493375D01*
X253345825Y-106378187D01*
X253286199Y-106274913D01*
X253201876Y-106190590D01*
X253150239Y-106160777D01*
X253098603Y-106130964D01*
X253041008Y-106115532D01*
X252983414Y-106100100D01*
X252864164Y-106100100D01*
X252748974Y-106130964D01*
X252645702Y-106190590D01*
X252645699Y-106190592D01*
X252561381Y-106274910D01*
X252561379Y-106274913D01*
X252501753Y-106378185D01*
X252470889Y-106493375D01*
X240869045Y-106493375D01*
X240838181Y-106378187D01*
X240778555Y-106274913D01*
X240694232Y-106190590D01*
X240642595Y-106160777D01*
X240590959Y-106130964D01*
X240533364Y-106115532D01*
X240475770Y-106100100D01*
X240356520Y-106100100D01*
X240241330Y-106130964D01*
X240138058Y-106190590D01*
X240138055Y-106190592D01*
X240053737Y-106274910D01*
X240053735Y-106274913D01*
X239994109Y-106378185D01*
X239963245Y-106493375D01*
X228036900Y-106493375D01*
X228006036Y-106378187D01*
X227946410Y-106274913D01*
X227862087Y-106190590D01*
X227810450Y-106160777D01*
X227758814Y-106130964D01*
X227701219Y-106115532D01*
X227643625Y-106100100D01*
X227524375Y-106100100D01*
X227409185Y-106130964D01*
X227305913Y-106190590D01*
X227305910Y-106190592D01*
X227221592Y-106274910D01*
X227221590Y-106274913D01*
X227161964Y-106378185D01*
X227131100Y-106493375D01*
X94114319Y-106493375D01*
X94114319Y-100501094D01*
X98106919Y-100501094D01*
X98106919Y-100776743D01*
X98106920Y-100776760D01*
X98142899Y-101050051D01*
X98214247Y-101316324D01*
X98319736Y-101570996D01*
X98319740Y-101571006D01*
X98457569Y-101809733D01*
X98625381Y-102028430D01*
X98625387Y-102028437D01*
X98820300Y-102223350D01*
X98820307Y-102223356D01*
X99039004Y-102391168D01*
X99277731Y-102528997D01*
X99277732Y-102528997D01*
X99277735Y-102528999D01*
X99532414Y-102634491D01*
X99798683Y-102705838D01*
X100071988Y-102741819D01*
X100071995Y-102741819D01*
X100347643Y-102741819D01*
X100347650Y-102741819D01*
X100620955Y-102705838D01*
X100887224Y-102634491D01*
X101141903Y-102528999D01*
X101380634Y-102391168D01*
X101599332Y-102223355D01*
X101794255Y-102028432D01*
X101962068Y-101809734D01*
X102099899Y-101571003D01*
X102205391Y-101316324D01*
X102276738Y-101050055D01*
X102312719Y-100776750D01*
X102312719Y-100501094D01*
X263714919Y-100501094D01*
X263714919Y-100776743D01*
X263714920Y-100776760D01*
X263750899Y-101050051D01*
X263822247Y-101316324D01*
X263927736Y-101570996D01*
X263927740Y-101571006D01*
X264065569Y-101809733D01*
X264233381Y-102028430D01*
X264233387Y-102028437D01*
X264428300Y-102223350D01*
X264428307Y-102223356D01*
X264647004Y-102391168D01*
X264885731Y-102528997D01*
X264885732Y-102528997D01*
X264885735Y-102528999D01*
X265140414Y-102634491D01*
X265406683Y-102705838D01*
X265679988Y-102741819D01*
X265679995Y-102741819D01*
X265955643Y-102741819D01*
X265955650Y-102741819D01*
X266228955Y-102705838D01*
X266495224Y-102634491D01*
X266749903Y-102528999D01*
X266988634Y-102391168D01*
X267207332Y-102223355D01*
X267402255Y-102028432D01*
X267570068Y-101809734D01*
X267707899Y-101571003D01*
X267813391Y-101316324D01*
X267884738Y-101050055D01*
X267920719Y-100776750D01*
X267920719Y-100501088D01*
X267884738Y-100227783D01*
X267813391Y-99961514D01*
X267707899Y-99706835D01*
X267570068Y-99468104D01*
X267402255Y-99249406D01*
X267402250Y-99249400D01*
X267207337Y-99054487D01*
X267207330Y-99054481D01*
X266988633Y-98886669D01*
X266749906Y-98748840D01*
X266749896Y-98748836D01*
X266495224Y-98643347D01*
X266228951Y-98571999D01*
X265955660Y-98536020D01*
X265955655Y-98536019D01*
X265955650Y-98536019D01*
X265679988Y-98536019D01*
X265679982Y-98536019D01*
X265679977Y-98536020D01*
X265406686Y-98571999D01*
X265140413Y-98643347D01*
X264885741Y-98748836D01*
X264885731Y-98748840D01*
X264647004Y-98886669D01*
X264428307Y-99054481D01*
X264428300Y-99054487D01*
X264233387Y-99249400D01*
X264233381Y-99249407D01*
X264065569Y-99468104D01*
X263927740Y-99706831D01*
X263927736Y-99706841D01*
X263822247Y-99961513D01*
X263750899Y-100227786D01*
X263714920Y-100501077D01*
X263714919Y-100501094D01*
X102312719Y-100501094D01*
X102312719Y-100501088D01*
X102276738Y-100227783D01*
X102205391Y-99961514D01*
X102099899Y-99706835D01*
X101962068Y-99468104D01*
X101794255Y-99249406D01*
X101794250Y-99249400D01*
X101599337Y-99054487D01*
X101599330Y-99054481D01*
X101380633Y-98886669D01*
X101141906Y-98748840D01*
X101141896Y-98748836D01*
X100887224Y-98643347D01*
X100620951Y-98571999D01*
X100347660Y-98536020D01*
X100347655Y-98536019D01*
X100347650Y-98536019D01*
X100071988Y-98536019D01*
X100071982Y-98536019D01*
X100071977Y-98536020D01*
X99798686Y-98571999D01*
X99532413Y-98643347D01*
X99277741Y-98748836D01*
X99277731Y-98748840D01*
X99039004Y-98886669D01*
X98820307Y-99054481D01*
X98820300Y-99054487D01*
X98625387Y-99249400D01*
X98625381Y-99249407D01*
X98457569Y-99468104D01*
X98319740Y-99706831D01*
X98319736Y-99706841D01*
X98214247Y-99961513D01*
X98142899Y-100227786D01*
X98106920Y-100501077D01*
X98106919Y-100501094D01*
X94114319Y-100501094D01*
X94114319Y-94667419D01*
X94134004Y-94600380D01*
X94186808Y-94554625D01*
X94238318Y-94543419D01*
X271789322Y-94543545D01*
G37*
%TD.AperFunction*%
%TD*%
M02*
