%TF.GenerationSoftware,KiCad,Pcbnew,9.0.7*%
%TF.CreationDate,2026-02-13T04:40:40-08:00*%
%TF.ProjectId,Shutdown,53687574-646f-4776-9e2e-6b696361645f,rev?*%
%TF.SameCoordinates,Original*%
%TF.FileFunction,Copper,L2,Inr*%
%TF.FilePolarity,Positive*%
%FSLAX46Y46*%
G04 Gerber Fmt 4.6, Leading zero omitted, Abs format (unit mm)*
G04 Created by KiCad (PCBNEW 9.0.7) date 2026-02-13 04:40:40*
%MOMM*%
%LPD*%
G01*
G04 APERTURE LIST*
%TA.AperFunction,ComponentPad*%
%ADD10C,3.900000*%
%TD*%
%TA.AperFunction,ComponentPad*%
%ADD11C,2.108200*%
%TD*%
%TA.AperFunction,ViaPad*%
%ADD12C,0.600000*%
%TD*%
G04 APERTURE END LIST*
D10*
%TO.N,unconnected-(MH2-Pad1)_1*%
%TO.C,MH2*%
X265817819Y-100638919D03*
%TD*%
D11*
%TO.N,/BSPD-FAULT-VCU*%
%TO.C,J1*%
X118574579Y-150577519D03*
%TO.N,/BYPASS-BTN*%
X124416579Y-150577519D03*
%TO.N,/HVILS-A*%
X130258579Y-150577519D03*
%TO.N,/CRASH-SW-A*%
X136100579Y-150577519D03*
%TO.N,/BOTS-B*%
X141942579Y-150577519D03*
%TO.N,/SD-POWER*%
X147784579Y-150577519D03*
X153626579Y-150577519D03*
%TO.N,GND*%
X159468579Y-150577519D03*
%TO.N,/BMS-FAULT*%
X118574579Y-156419519D03*
%TO.N,/IMD-FAULT*%
X124416579Y-156419519D03*
%TO.N,/BMS-FAULT-VCU-BUF*%
X130258579Y-156419519D03*
%TO.N,/IMD-FAULT-VCU-BUF*%
X136100579Y-156419519D03*
%TO.N,/BOTS-A*%
X141942579Y-156419519D03*
%TO.N,/BOTS-B*%
X147784579Y-156419519D03*
%TO.N,/CRASH-SW-A*%
X153626579Y-156419519D03*
%TO.N,/BOTS-A*%
X159468579Y-156419519D03*
%TD*%
D10*
%TO.N,unconnected-(MH1-Pad1)_2*%
%TO.C,MH1*%
X100209819Y-100638919D03*
%TD*%
D11*
%TO.N,/TRACTIVE-FAN-ON*%
%TO.C,J2*%
X206687179Y-150577519D03*
%TO.N,/ACCY-FAN-ON*%
X212529179Y-150577519D03*
%TO.N,BATT+*%
X218371179Y-150577519D03*
X224213179Y-150577519D03*
%TO.N,GND*%
X230055179Y-150577519D03*
%TO.N,unconnected-(J2-Pad6)*%
X235897179Y-150577519D03*
%TO.N,unconnected-(J2-Pad7)*%
X241739179Y-150577519D03*
%TO.N,unconnected-(J2-Pad8)*%
X247581179Y-150577519D03*
%TO.N,/PRECHARGE-DEBUG*%
X206687179Y-156419519D03*
%TO.N,/POS-AIRS-DEBUG*%
X212529179Y-156419519D03*
%TO.N,/NEG-AIRS-DEBUG*%
X218371179Y-156419519D03*
%TO.N,/TSSI-STATUS*%
X224213179Y-156419519D03*
%TO.N,GND*%
X230055179Y-156419519D03*
%TO.N,unconnected-(J2-Pad14)*%
X235897179Y-156419519D03*
%TO.N,unconnected-(J2-Pad15)*%
X241739179Y-156419519D03*
%TO.N,unconnected-(J2-Pad16)*%
X247581179Y-156419519D03*
%TD*%
D10*
%TO.N,unconnected-(MH3-Pad1)_2*%
%TO.C,MH3*%
X265817819Y-139043972D03*
%TD*%
%TO.N,unconnected-(MH4-Pad1)_1*%
%TO.C,MH4*%
X100209819Y-139043972D03*
%TD*%
D12*
%TO.N,GND*%
X221129213Y-123929787D03*
X252923789Y-106553000D03*
X134152777Y-123022223D03*
X212677570Y-107648570D03*
X233172000Y-110871000D03*
X254127000Y-127381000D03*
X221107000Y-140081000D03*
X208886089Y-123063000D03*
X160147000Y-132334000D03*
X248252039Y-123417995D03*
X227584000Y-106553000D03*
X102363981Y-114033517D03*
X106299000Y-108839000D03*
X197075089Y-123190000D03*
X185340588Y-123190000D03*
X157734000Y-122682000D03*
X146431000Y-131953000D03*
X145415000Y-115189000D03*
X240797770Y-127519644D03*
X117294765Y-123252279D03*
X149225000Y-134366000D03*
X235298039Y-123163995D03*
X155620251Y-129712251D03*
X213717500Y-141120500D03*
X240416145Y-106553000D03*
X140208000Y-139954000D03*
X136144000Y-142621000D03*
X246004145Y-110871000D03*
X104549395Y-122964395D03*
X258511789Y-110871000D03*
X170608588Y-123190000D03*
X145542000Y-121158000D03*
%TO.N,BATT+PROT*%
X165100000Y-127381000D03*
X145288000Y-129286000D03*
X242029039Y-125830995D03*
X148336000Y-126365000D03*
X221123903Y-146728188D03*
X118364000Y-112141000D03*
X221123903Y-147490188D03*
X221885903Y-147490188D03*
X138463714Y-123477714D03*
X219522006Y-146659268D03*
X247147145Y-109220000D03*
X218760006Y-146659268D03*
X219522006Y-147421268D03*
X219456000Y-107696000D03*
X111506000Y-104521000D03*
X234315000Y-109220000D03*
X220361903Y-146728188D03*
X216338999Y-146669542D03*
X220361903Y-147490188D03*
X254983039Y-126084995D03*
X127762000Y-137033000D03*
X106553000Y-117221000D03*
X149210421Y-136158579D03*
X216338999Y-145907542D03*
X221885903Y-146728188D03*
X107823000Y-115951000D03*
X217100999Y-146669542D03*
X259654789Y-109220000D03*
X121605750Y-123825000D03*
X218760006Y-145897268D03*
X217100999Y-145907542D03*
X218760006Y-147421268D03*
X217862999Y-145907542D03*
X217862999Y-146669542D03*
X219522006Y-145897268D03*
%TO.N,/BYPASS-BTN*%
X221459969Y-107667969D03*
X164973000Y-125603000D03*
X130937000Y-148082000D03*
%TO.N,/HVILS-A*%
X170180000Y-115824000D03*
X132080000Y-147066000D03*
%TO.N,/IMD-FAULT*%
X148404751Y-122115751D03*
%TO.N,/SD-POWER*%
X223945087Y-123571000D03*
X177292000Y-147066000D03*
X164325197Y-147307197D03*
%TO.N,/BMS-FAULT*%
X133985000Y-140970000D03*
X121368787Y-115379500D03*
%TO.N,BATT+*%
X223139000Y-133223000D03*
X210693000Y-111633000D03*
X210693000Y-107442000D03*
%TO.N,/POS-AIRS-DEBUG*%
X242062000Y-111125000D03*
%TO.N,/NEG-AIRS-DEBUG*%
X254586759Y-111096468D03*
%TO.N,/PRECHARGE-DEBUG*%
X229235000Y-111125000D03*
%TO.N,Net-(D1-A)*%
X231166581Y-110829651D03*
%TO.N,Net-(D7-A)*%
X243998726Y-110829651D03*
%TO.N,Net-(D10-A)*%
X256506370Y-110829651D03*
%TO.N,/IMD-Fault-Passthru/OUTPUT*%
X136017000Y-118745000D03*
X152273000Y-119253000D03*
%TO.N,Net-(D22-K)*%
X123571000Y-123444000D03*
%TO.N,Net-(D26-K)*%
X141605000Y-124395465D03*
X140462000Y-122555000D03*
%TO.N,Net-(D30-K)*%
X131953000Y-140335000D03*
X132842000Y-136652000D03*
%TO.N,Net-(D47-A)*%
X102616000Y-122809000D03*
%TO.N,Net-(Q5-S)*%
X238887000Y-127508000D03*
%TO.N,Net-(Q6-S)*%
X251841000Y-127762000D03*
%TO.N,/IMD-FAULT-VCU*%
X136652000Y-132715000D03*
X138231454Y-111035121D03*
%TO.N,Net-(Q18-D)*%
X173336588Y-123190000D03*
%TO.N,Net-(Q19-D)*%
X188068588Y-123190000D03*
%TO.N,Net-(Q20-D)*%
X199803089Y-123190000D03*
%TO.N,Net-(Q21-D)*%
X211614089Y-123063000D03*
%TD*%
%TA.AperFunction,Conductor*%
%TO.N,GND*%
G36*
X271789322Y-94543545D02*
G01*
X271856359Y-94563230D01*
X271902113Y-94616034D01*
X271913319Y-94667545D01*
X271913319Y-161525472D01*
X271893634Y-161592511D01*
X271840830Y-161638266D01*
X271789319Y-161649472D01*
X94238319Y-161649472D01*
X94171280Y-161629787D01*
X94125525Y-161576983D01*
X94114319Y-161525472D01*
X94114319Y-156324526D01*
X117367579Y-156324526D01*
X117367579Y-156514512D01*
X117382439Y-156608335D01*
X117397300Y-156702160D01*
X117456006Y-156882843D01*
X117456007Y-156882846D01*
X117479806Y-156929553D01*
X117542260Y-157052125D01*
X117653931Y-157205827D01*
X117788271Y-157340167D01*
X117941973Y-157451838D01*
X118024999Y-157494141D01*
X118111251Y-157538090D01*
X118111254Y-157538091D01*
X118201595Y-157567444D01*
X118291939Y-157596798D01*
X118479586Y-157626519D01*
X118479587Y-157626519D01*
X118669571Y-157626519D01*
X118669572Y-157626519D01*
X118857219Y-157596798D01*
X119037906Y-157538090D01*
X119207185Y-157451838D01*
X119360887Y-157340167D01*
X119495227Y-157205827D01*
X119606898Y-157052125D01*
X119693150Y-156882846D01*
X119751858Y-156702159D01*
X119781579Y-156514512D01*
X119781579Y-156324526D01*
X123209579Y-156324526D01*
X123209579Y-156514512D01*
X123224439Y-156608335D01*
X123239300Y-156702160D01*
X123298006Y-156882843D01*
X123298007Y-156882846D01*
X123321806Y-156929553D01*
X123384260Y-157052125D01*
X123495931Y-157205827D01*
X123630271Y-157340167D01*
X123783973Y-157451838D01*
X123866999Y-157494141D01*
X123953251Y-157538090D01*
X123953254Y-157538091D01*
X124043595Y-157567444D01*
X124133939Y-157596798D01*
X124321586Y-157626519D01*
X124321587Y-157626519D01*
X124511571Y-157626519D01*
X124511572Y-157626519D01*
X124699219Y-157596798D01*
X124879906Y-157538090D01*
X125049185Y-157451838D01*
X125202887Y-157340167D01*
X125337227Y-157205827D01*
X125448898Y-157052125D01*
X125535150Y-156882846D01*
X125593858Y-156702159D01*
X125623579Y-156514512D01*
X125623579Y-156324526D01*
X129051579Y-156324526D01*
X129051579Y-156514512D01*
X129066439Y-156608335D01*
X129081300Y-156702160D01*
X129140006Y-156882843D01*
X129140007Y-156882846D01*
X129163806Y-156929553D01*
X129226260Y-157052125D01*
X129337931Y-157205827D01*
X129472271Y-157340167D01*
X129625973Y-157451838D01*
X129708999Y-157494141D01*
X129795251Y-157538090D01*
X129795254Y-157538091D01*
X129885595Y-157567444D01*
X129975939Y-157596798D01*
X130163586Y-157626519D01*
X130163587Y-157626519D01*
X130353571Y-157626519D01*
X130353572Y-157626519D01*
X130541219Y-157596798D01*
X130721906Y-157538090D01*
X130891185Y-157451838D01*
X131044887Y-157340167D01*
X131179227Y-157205827D01*
X131290898Y-157052125D01*
X131377150Y-156882846D01*
X131435858Y-156702159D01*
X131465579Y-156514512D01*
X131465579Y-156324526D01*
X134893579Y-156324526D01*
X134893579Y-156514512D01*
X134908439Y-156608335D01*
X134923300Y-156702160D01*
X134982006Y-156882843D01*
X134982007Y-156882846D01*
X135005806Y-156929553D01*
X135068260Y-157052125D01*
X135179931Y-157205827D01*
X135314271Y-157340167D01*
X135467973Y-157451838D01*
X135550999Y-157494141D01*
X135637251Y-157538090D01*
X135637254Y-157538091D01*
X135727595Y-157567444D01*
X135817939Y-157596798D01*
X136005586Y-157626519D01*
X136005587Y-157626519D01*
X136195571Y-157626519D01*
X136195572Y-157626519D01*
X136383219Y-157596798D01*
X136563906Y-157538090D01*
X136733185Y-157451838D01*
X136886887Y-157340167D01*
X137021227Y-157205827D01*
X137132898Y-157052125D01*
X137219150Y-156882846D01*
X137277858Y-156702159D01*
X137307579Y-156514512D01*
X137307579Y-156324526D01*
X140735579Y-156324526D01*
X140735579Y-156514512D01*
X140750439Y-156608335D01*
X140765300Y-156702160D01*
X140824006Y-156882843D01*
X140824007Y-156882846D01*
X140847806Y-156929553D01*
X140910260Y-157052125D01*
X141021931Y-157205827D01*
X141156271Y-157340167D01*
X141309973Y-157451838D01*
X141392999Y-157494141D01*
X141479251Y-157538090D01*
X141479254Y-157538091D01*
X141569595Y-157567444D01*
X141659939Y-157596798D01*
X141847586Y-157626519D01*
X141847587Y-157626519D01*
X142037571Y-157626519D01*
X142037572Y-157626519D01*
X142225219Y-157596798D01*
X142405906Y-157538090D01*
X142575185Y-157451838D01*
X142728887Y-157340167D01*
X142863227Y-157205827D01*
X142974898Y-157052125D01*
X143061150Y-156882846D01*
X143119858Y-156702159D01*
X143149579Y-156514512D01*
X143149579Y-156324526D01*
X146577579Y-156324526D01*
X146577579Y-156514512D01*
X146592439Y-156608335D01*
X146607300Y-156702160D01*
X146666006Y-156882843D01*
X146666007Y-156882846D01*
X146689806Y-156929553D01*
X146752260Y-157052125D01*
X146863931Y-157205827D01*
X146998271Y-157340167D01*
X147151973Y-157451838D01*
X147234999Y-157494141D01*
X147321251Y-157538090D01*
X147321254Y-157538091D01*
X147411595Y-157567444D01*
X147501939Y-157596798D01*
X147689586Y-157626519D01*
X147689587Y-157626519D01*
X147879571Y-157626519D01*
X147879572Y-157626519D01*
X148067219Y-157596798D01*
X148247906Y-157538090D01*
X148417185Y-157451838D01*
X148570887Y-157340167D01*
X148705227Y-157205827D01*
X148816898Y-157052125D01*
X148903150Y-156882846D01*
X148961858Y-156702159D01*
X148991579Y-156514512D01*
X148991579Y-156324526D01*
X152419579Y-156324526D01*
X152419579Y-156514512D01*
X152434439Y-156608335D01*
X152449300Y-156702160D01*
X152508006Y-156882843D01*
X152508007Y-156882846D01*
X152531806Y-156929553D01*
X152594260Y-157052125D01*
X152705931Y-157205827D01*
X152840271Y-157340167D01*
X152993973Y-157451838D01*
X153076999Y-157494141D01*
X153163251Y-157538090D01*
X153163254Y-157538091D01*
X153253595Y-157567444D01*
X153343939Y-157596798D01*
X153531586Y-157626519D01*
X153531587Y-157626519D01*
X153721571Y-157626519D01*
X153721572Y-157626519D01*
X153909219Y-157596798D01*
X154089906Y-157538090D01*
X154259185Y-157451838D01*
X154412887Y-157340167D01*
X154547227Y-157205827D01*
X154658898Y-157052125D01*
X154745150Y-156882846D01*
X154803858Y-156702159D01*
X154833579Y-156514512D01*
X154833579Y-156324526D01*
X158261579Y-156324526D01*
X158261579Y-156514512D01*
X158276439Y-156608335D01*
X158291300Y-156702160D01*
X158350006Y-156882843D01*
X158350007Y-156882846D01*
X158373806Y-156929553D01*
X158436260Y-157052125D01*
X158547931Y-157205827D01*
X158682271Y-157340167D01*
X158835973Y-157451838D01*
X158918999Y-157494141D01*
X159005251Y-157538090D01*
X159005254Y-157538091D01*
X159095595Y-157567444D01*
X159185939Y-157596798D01*
X159373586Y-157626519D01*
X159373587Y-157626519D01*
X159563571Y-157626519D01*
X159563572Y-157626519D01*
X159751219Y-157596798D01*
X159931906Y-157538090D01*
X160101185Y-157451838D01*
X160254887Y-157340167D01*
X160389227Y-157205827D01*
X160500898Y-157052125D01*
X160587150Y-156882846D01*
X160645858Y-156702159D01*
X160675579Y-156514512D01*
X160675579Y-156324526D01*
X205480179Y-156324526D01*
X205480179Y-156514512D01*
X205495039Y-156608335D01*
X205509900Y-156702160D01*
X205568606Y-156882843D01*
X205568607Y-156882846D01*
X205592406Y-156929553D01*
X205654860Y-157052125D01*
X205766531Y-157205827D01*
X205900871Y-157340167D01*
X206054573Y-157451838D01*
X206137599Y-157494141D01*
X206223851Y-157538090D01*
X206223854Y-157538091D01*
X206314195Y-157567444D01*
X206404539Y-157596798D01*
X206592186Y-157626519D01*
X206592187Y-157626519D01*
X206782171Y-157626519D01*
X206782172Y-157626519D01*
X206969819Y-157596798D01*
X207150506Y-157538090D01*
X207319785Y-157451838D01*
X207473487Y-157340167D01*
X207607827Y-157205827D01*
X207719498Y-157052125D01*
X207805750Y-156882846D01*
X207864458Y-156702159D01*
X207894179Y-156514512D01*
X207894179Y-156324526D01*
X211322179Y-156324526D01*
X211322179Y-156514512D01*
X211337039Y-156608335D01*
X211351900Y-156702160D01*
X211410606Y-156882843D01*
X211410607Y-156882846D01*
X211434406Y-156929553D01*
X211496860Y-157052125D01*
X211608531Y-157205827D01*
X211742871Y-157340167D01*
X211896573Y-157451838D01*
X211979599Y-157494141D01*
X212065851Y-157538090D01*
X212065854Y-157538091D01*
X212156195Y-157567444D01*
X212246539Y-157596798D01*
X212434186Y-157626519D01*
X212434187Y-157626519D01*
X212624171Y-157626519D01*
X212624172Y-157626519D01*
X212811819Y-157596798D01*
X212992506Y-157538090D01*
X213161785Y-157451838D01*
X213315487Y-157340167D01*
X213449827Y-157205827D01*
X213561498Y-157052125D01*
X213647750Y-156882846D01*
X213706458Y-156702159D01*
X213736179Y-156514512D01*
X213736179Y-156324526D01*
X217164179Y-156324526D01*
X217164179Y-156514512D01*
X217179039Y-156608335D01*
X217193900Y-156702160D01*
X217252606Y-156882843D01*
X217252607Y-156882846D01*
X217276406Y-156929553D01*
X217338860Y-157052125D01*
X217450531Y-157205827D01*
X217584871Y-157340167D01*
X217738573Y-157451838D01*
X217821599Y-157494141D01*
X217907851Y-157538090D01*
X217907854Y-157538091D01*
X217998195Y-157567444D01*
X218088539Y-157596798D01*
X218276186Y-157626519D01*
X218276187Y-157626519D01*
X218466171Y-157626519D01*
X218466172Y-157626519D01*
X218653819Y-157596798D01*
X218834506Y-157538090D01*
X219003785Y-157451838D01*
X219157487Y-157340167D01*
X219291827Y-157205827D01*
X219403498Y-157052125D01*
X219489750Y-156882846D01*
X219548458Y-156702159D01*
X219578179Y-156514512D01*
X219578179Y-156324526D01*
X223006179Y-156324526D01*
X223006179Y-156514512D01*
X223021039Y-156608335D01*
X223035900Y-156702160D01*
X223094606Y-156882843D01*
X223094607Y-156882846D01*
X223118406Y-156929553D01*
X223180860Y-157052125D01*
X223292531Y-157205827D01*
X223426871Y-157340167D01*
X223580573Y-157451838D01*
X223663599Y-157494141D01*
X223749851Y-157538090D01*
X223749854Y-157538091D01*
X223840195Y-157567444D01*
X223930539Y-157596798D01*
X224118186Y-157626519D01*
X224118187Y-157626519D01*
X224308171Y-157626519D01*
X224308172Y-157626519D01*
X224495819Y-157596798D01*
X224676506Y-157538090D01*
X224845785Y-157451838D01*
X224999487Y-157340167D01*
X225133827Y-157205827D01*
X225245498Y-157052125D01*
X225331750Y-156882846D01*
X225390458Y-156702159D01*
X225420179Y-156514512D01*
X225420179Y-156324526D01*
X225415851Y-156297203D01*
X228501079Y-156297203D01*
X228501079Y-156541834D01*
X228539345Y-156783438D01*
X228614940Y-157016090D01*
X228725993Y-157234045D01*
X228793788Y-157327355D01*
X228793788Y-157327356D01*
X229339256Y-156781888D01*
X229346140Y-156798508D01*
X229433701Y-156929553D01*
X229545145Y-157040997D01*
X229676190Y-157128558D01*
X229692808Y-157135441D01*
X229147340Y-157680908D01*
X229240652Y-157748704D01*
X229458607Y-157859757D01*
X229691259Y-157935352D01*
X229932864Y-157973619D01*
X230177494Y-157973619D01*
X230419098Y-157935352D01*
X230651750Y-157859757D01*
X230869705Y-157748704D01*
X230963016Y-157680908D01*
X230417549Y-157135441D01*
X230434168Y-157128558D01*
X230565213Y-157040997D01*
X230676657Y-156929553D01*
X230764218Y-156798508D01*
X230771101Y-156781888D01*
X231316568Y-157327355D01*
X231384364Y-157234045D01*
X231495417Y-157016090D01*
X231571012Y-156783438D01*
X231609279Y-156541834D01*
X231609279Y-156324526D01*
X234690179Y-156324526D01*
X234690179Y-156514512D01*
X234705039Y-156608335D01*
X234719900Y-156702160D01*
X234778606Y-156882843D01*
X234778607Y-156882846D01*
X234802406Y-156929553D01*
X234864860Y-157052125D01*
X234976531Y-157205827D01*
X235110871Y-157340167D01*
X235264573Y-157451838D01*
X235347599Y-157494141D01*
X235433851Y-157538090D01*
X235433854Y-157538091D01*
X235524195Y-157567444D01*
X235614539Y-157596798D01*
X235802186Y-157626519D01*
X235802187Y-157626519D01*
X235992171Y-157626519D01*
X235992172Y-157626519D01*
X236179819Y-157596798D01*
X236360506Y-157538090D01*
X236529785Y-157451838D01*
X236683487Y-157340167D01*
X236817827Y-157205827D01*
X236929498Y-157052125D01*
X237015750Y-156882846D01*
X237074458Y-156702159D01*
X237104179Y-156514512D01*
X237104179Y-156324526D01*
X240532179Y-156324526D01*
X240532179Y-156514512D01*
X240547039Y-156608335D01*
X240561900Y-156702160D01*
X240620606Y-156882843D01*
X240620607Y-156882846D01*
X240644406Y-156929553D01*
X240706860Y-157052125D01*
X240818531Y-157205827D01*
X240952871Y-157340167D01*
X241106573Y-157451838D01*
X241189599Y-157494141D01*
X241275851Y-157538090D01*
X241275854Y-157538091D01*
X241366195Y-157567444D01*
X241456539Y-157596798D01*
X241644186Y-157626519D01*
X241644187Y-157626519D01*
X241834171Y-157626519D01*
X241834172Y-157626519D01*
X242021819Y-157596798D01*
X242202506Y-157538090D01*
X242371785Y-157451838D01*
X242525487Y-157340167D01*
X242659827Y-157205827D01*
X242771498Y-157052125D01*
X242857750Y-156882846D01*
X242916458Y-156702159D01*
X242946179Y-156514512D01*
X242946179Y-156324526D01*
X246374179Y-156324526D01*
X246374179Y-156514512D01*
X246389039Y-156608335D01*
X246403900Y-156702160D01*
X246462606Y-156882843D01*
X246462607Y-156882846D01*
X246486406Y-156929553D01*
X246548860Y-157052125D01*
X246660531Y-157205827D01*
X246794871Y-157340167D01*
X246948573Y-157451838D01*
X247031599Y-157494141D01*
X247117851Y-157538090D01*
X247117854Y-157538091D01*
X247208195Y-157567444D01*
X247298539Y-157596798D01*
X247486186Y-157626519D01*
X247486187Y-157626519D01*
X247676171Y-157626519D01*
X247676172Y-157626519D01*
X247863819Y-157596798D01*
X248044506Y-157538090D01*
X248213785Y-157451838D01*
X248367487Y-157340167D01*
X248501827Y-157205827D01*
X248613498Y-157052125D01*
X248699750Y-156882846D01*
X248758458Y-156702159D01*
X248788179Y-156514512D01*
X248788179Y-156324526D01*
X248758458Y-156136879D01*
X248699750Y-155956192D01*
X248699750Y-155956191D01*
X248613497Y-155786912D01*
X248593164Y-155758926D01*
X248501827Y-155633211D01*
X248367487Y-155498871D01*
X248213785Y-155387200D01*
X248044506Y-155300947D01*
X248044503Y-155300946D01*
X247863820Y-155242240D01*
X247720045Y-155219468D01*
X247676172Y-155212519D01*
X247486186Y-155212519D01*
X247442319Y-155219467D01*
X247298537Y-155242240D01*
X247117854Y-155300946D01*
X247117851Y-155300947D01*
X246948572Y-155387200D01*
X246860880Y-155450912D01*
X246794871Y-155498871D01*
X246794869Y-155498873D01*
X246794868Y-155498873D01*
X246660533Y-155633208D01*
X246660533Y-155633209D01*
X246660531Y-155633211D01*
X246648212Y-155650167D01*
X246548860Y-155786912D01*
X246462607Y-155956191D01*
X246462606Y-155956194D01*
X246403900Y-156136877D01*
X246403900Y-156136879D01*
X246374179Y-156324526D01*
X242946179Y-156324526D01*
X242916458Y-156136879D01*
X242857750Y-155956192D01*
X242857750Y-155956191D01*
X242771497Y-155786912D01*
X242751164Y-155758926D01*
X242659827Y-155633211D01*
X242525487Y-155498871D01*
X242371785Y-155387200D01*
X242202506Y-155300947D01*
X242202503Y-155300946D01*
X242021820Y-155242240D01*
X241878045Y-155219468D01*
X241834172Y-155212519D01*
X241644186Y-155212519D01*
X241600319Y-155219467D01*
X241456537Y-155242240D01*
X241275854Y-155300946D01*
X241275851Y-155300947D01*
X241106572Y-155387200D01*
X241018880Y-155450912D01*
X240952871Y-155498871D01*
X240952869Y-155498873D01*
X240952868Y-155498873D01*
X240818533Y-155633208D01*
X240818533Y-155633209D01*
X240818531Y-155633211D01*
X240806212Y-155650167D01*
X240706860Y-155786912D01*
X240620607Y-155956191D01*
X240620606Y-155956194D01*
X240561900Y-156136877D01*
X240561900Y-156136879D01*
X240532179Y-156324526D01*
X237104179Y-156324526D01*
X237074458Y-156136879D01*
X237015750Y-155956192D01*
X237015750Y-155956191D01*
X236929497Y-155786912D01*
X236909164Y-155758926D01*
X236817827Y-155633211D01*
X236683487Y-155498871D01*
X236529785Y-155387200D01*
X236360506Y-155300947D01*
X236360503Y-155300946D01*
X236179820Y-155242240D01*
X236036045Y-155219468D01*
X235992172Y-155212519D01*
X235802186Y-155212519D01*
X235758319Y-155219467D01*
X235614537Y-155242240D01*
X235433854Y-155300946D01*
X235433851Y-155300947D01*
X235264572Y-155387200D01*
X235176880Y-155450912D01*
X235110871Y-155498871D01*
X235110869Y-155498873D01*
X235110868Y-155498873D01*
X234976533Y-155633208D01*
X234976533Y-155633209D01*
X234976531Y-155633211D01*
X234964212Y-155650167D01*
X234864860Y-155786912D01*
X234778607Y-155956191D01*
X234778606Y-155956194D01*
X234719900Y-156136877D01*
X234719900Y-156136879D01*
X234690179Y-156324526D01*
X231609279Y-156324526D01*
X231609279Y-156297203D01*
X231571012Y-156055599D01*
X231495417Y-155822947D01*
X231384364Y-155604992D01*
X231316568Y-155511681D01*
X231316568Y-155511680D01*
X230771101Y-156057147D01*
X230764218Y-156040530D01*
X230676657Y-155909485D01*
X230565213Y-155798041D01*
X230434168Y-155710480D01*
X230417547Y-155703595D01*
X230963016Y-155158128D01*
X230869705Y-155090333D01*
X230651750Y-154979280D01*
X230419098Y-154903685D01*
X230177494Y-154865419D01*
X229932864Y-154865419D01*
X229691259Y-154903685D01*
X229458607Y-154979280D01*
X229240648Y-155090335D01*
X229147341Y-155158126D01*
X229147340Y-155158128D01*
X229692808Y-155703596D01*
X229676190Y-155710480D01*
X229545145Y-155798041D01*
X229433701Y-155909485D01*
X229346140Y-156040530D01*
X229339256Y-156057148D01*
X228793788Y-155511680D01*
X228793786Y-155511681D01*
X228725995Y-155604988D01*
X228614940Y-155822947D01*
X228539345Y-156055599D01*
X228501079Y-156297203D01*
X225415851Y-156297203D01*
X225390458Y-156136879D01*
X225331750Y-155956192D01*
X225331750Y-155956191D01*
X225245497Y-155786912D01*
X225225164Y-155758926D01*
X225133827Y-155633211D01*
X224999487Y-155498871D01*
X224845785Y-155387200D01*
X224705798Y-155315873D01*
X224676506Y-155300947D01*
X224676503Y-155300946D01*
X224495820Y-155242240D01*
X224352045Y-155219468D01*
X224308172Y-155212519D01*
X224118186Y-155212519D01*
X224074319Y-155219467D01*
X223930537Y-155242240D01*
X223749854Y-155300946D01*
X223749851Y-155300947D01*
X223580572Y-155387200D01*
X223492880Y-155450912D01*
X223426871Y-155498871D01*
X223426869Y-155498873D01*
X223426868Y-155498873D01*
X223292533Y-155633208D01*
X223292533Y-155633209D01*
X223292531Y-155633211D01*
X223280212Y-155650167D01*
X223180860Y-155786912D01*
X223094607Y-155956191D01*
X223094606Y-155956194D01*
X223035900Y-156136877D01*
X223035900Y-156136879D01*
X223006179Y-156324526D01*
X219578179Y-156324526D01*
X219548458Y-156136879D01*
X219489750Y-155956192D01*
X219489750Y-155956191D01*
X219403497Y-155786912D01*
X219383164Y-155758926D01*
X219291827Y-155633211D01*
X219157487Y-155498871D01*
X219003785Y-155387200D01*
X218834506Y-155300947D01*
X218834503Y-155300946D01*
X218653820Y-155242240D01*
X218510045Y-155219468D01*
X218466172Y-155212519D01*
X218276186Y-155212519D01*
X218232319Y-155219467D01*
X218088537Y-155242240D01*
X217907854Y-155300946D01*
X217907851Y-155300947D01*
X217738572Y-155387200D01*
X217650880Y-155450912D01*
X217584871Y-155498871D01*
X217584869Y-155498873D01*
X217584868Y-155498873D01*
X217450533Y-155633208D01*
X217450533Y-155633209D01*
X217450531Y-155633211D01*
X217438212Y-155650167D01*
X217338860Y-155786912D01*
X217252607Y-155956191D01*
X217252606Y-155956194D01*
X217193900Y-156136877D01*
X217193900Y-156136879D01*
X217164179Y-156324526D01*
X213736179Y-156324526D01*
X213706458Y-156136879D01*
X213647750Y-155956192D01*
X213647750Y-155956191D01*
X213561497Y-155786912D01*
X213541164Y-155758926D01*
X213449827Y-155633211D01*
X213315487Y-155498871D01*
X213161785Y-155387200D01*
X212992506Y-155300947D01*
X212992503Y-155300946D01*
X212811820Y-155242240D01*
X212668045Y-155219468D01*
X212624172Y-155212519D01*
X212434186Y-155212519D01*
X212390319Y-155219467D01*
X212246537Y-155242240D01*
X212065854Y-155300946D01*
X212065851Y-155300947D01*
X211896572Y-155387200D01*
X211808880Y-155450912D01*
X211742871Y-155498871D01*
X211742869Y-155498873D01*
X211742868Y-155498873D01*
X211608533Y-155633208D01*
X211608533Y-155633209D01*
X211608531Y-155633211D01*
X211596212Y-155650167D01*
X211496860Y-155786912D01*
X211410607Y-155956191D01*
X211410606Y-155956194D01*
X211351900Y-156136877D01*
X211351900Y-156136879D01*
X211322179Y-156324526D01*
X207894179Y-156324526D01*
X207864458Y-156136879D01*
X207805750Y-155956192D01*
X207805750Y-155956191D01*
X207719497Y-155786912D01*
X207699164Y-155758926D01*
X207607827Y-155633211D01*
X207473487Y-155498871D01*
X207319785Y-155387200D01*
X207150506Y-155300947D01*
X207150503Y-155300946D01*
X206969820Y-155242240D01*
X206826045Y-155219468D01*
X206782172Y-155212519D01*
X206592186Y-155212519D01*
X206548319Y-155219467D01*
X206404537Y-155242240D01*
X206223854Y-155300946D01*
X206223851Y-155300947D01*
X206054572Y-155387200D01*
X205966880Y-155450912D01*
X205900871Y-155498871D01*
X205900869Y-155498873D01*
X205900868Y-155498873D01*
X205766533Y-155633208D01*
X205766533Y-155633209D01*
X205766531Y-155633211D01*
X205754212Y-155650167D01*
X205654860Y-155786912D01*
X205568607Y-155956191D01*
X205568606Y-155956194D01*
X205509900Y-156136877D01*
X205509900Y-156136879D01*
X205480179Y-156324526D01*
X160675579Y-156324526D01*
X160645858Y-156136879D01*
X160587150Y-155956192D01*
X160587150Y-155956191D01*
X160500897Y-155786912D01*
X160480564Y-155758926D01*
X160389227Y-155633211D01*
X160254887Y-155498871D01*
X160101185Y-155387200D01*
X159931906Y-155300947D01*
X159931903Y-155300946D01*
X159751220Y-155242240D01*
X159607445Y-155219468D01*
X159563572Y-155212519D01*
X159373586Y-155212519D01*
X159329719Y-155219467D01*
X159185937Y-155242240D01*
X159005254Y-155300946D01*
X159005251Y-155300947D01*
X158835972Y-155387200D01*
X158748280Y-155450912D01*
X158682271Y-155498871D01*
X158682269Y-155498873D01*
X158682268Y-155498873D01*
X158547933Y-155633208D01*
X158547933Y-155633209D01*
X158547931Y-155633211D01*
X158535612Y-155650167D01*
X158436260Y-155786912D01*
X158350007Y-155956191D01*
X158350006Y-155956194D01*
X158291300Y-156136877D01*
X158291300Y-156136879D01*
X158261579Y-156324526D01*
X154833579Y-156324526D01*
X154803858Y-156136879D01*
X154745150Y-155956192D01*
X154745150Y-155956191D01*
X154658897Y-155786912D01*
X154638564Y-155758926D01*
X154547227Y-155633211D01*
X154412887Y-155498871D01*
X154259185Y-155387200D01*
X154089906Y-155300947D01*
X154089903Y-155300946D01*
X153909220Y-155242240D01*
X153765445Y-155219468D01*
X153721572Y-155212519D01*
X153531586Y-155212519D01*
X153487719Y-155219467D01*
X153343937Y-155242240D01*
X153163254Y-155300946D01*
X153163251Y-155300947D01*
X152993972Y-155387200D01*
X152906280Y-155450912D01*
X152840271Y-155498871D01*
X152840269Y-155498873D01*
X152840268Y-155498873D01*
X152705933Y-155633208D01*
X152705933Y-155633209D01*
X152705931Y-155633211D01*
X152693612Y-155650167D01*
X152594260Y-155786912D01*
X152508007Y-155956191D01*
X152508006Y-155956194D01*
X152449300Y-156136877D01*
X152449300Y-156136879D01*
X152419579Y-156324526D01*
X148991579Y-156324526D01*
X148961858Y-156136879D01*
X148903150Y-155956192D01*
X148903150Y-155956191D01*
X148816897Y-155786912D01*
X148796564Y-155758926D01*
X148705227Y-155633211D01*
X148570887Y-155498871D01*
X148417185Y-155387200D01*
X148247906Y-155300947D01*
X148247903Y-155300946D01*
X148067220Y-155242240D01*
X147923445Y-155219468D01*
X147879572Y-155212519D01*
X147689586Y-155212519D01*
X147645719Y-155219467D01*
X147501937Y-155242240D01*
X147321254Y-155300946D01*
X147321251Y-155300947D01*
X147151972Y-155387200D01*
X147064280Y-155450912D01*
X146998271Y-155498871D01*
X146998269Y-155498873D01*
X146998268Y-155498873D01*
X146863933Y-155633208D01*
X146863933Y-155633209D01*
X146863931Y-155633211D01*
X146851612Y-155650167D01*
X146752260Y-155786912D01*
X146666007Y-155956191D01*
X146666006Y-155956194D01*
X146607300Y-156136877D01*
X146607300Y-156136879D01*
X146577579Y-156324526D01*
X143149579Y-156324526D01*
X143119858Y-156136879D01*
X143061150Y-155956192D01*
X143061150Y-155956191D01*
X142974897Y-155786912D01*
X142954564Y-155758926D01*
X142863227Y-155633211D01*
X142728887Y-155498871D01*
X142575185Y-155387200D01*
X142405906Y-155300947D01*
X142405903Y-155300946D01*
X142225220Y-155242240D01*
X142081445Y-155219468D01*
X142037572Y-155212519D01*
X141847586Y-155212519D01*
X141803719Y-155219467D01*
X141659937Y-155242240D01*
X141479254Y-155300946D01*
X141479251Y-155300947D01*
X141309972Y-155387200D01*
X141222280Y-155450912D01*
X141156271Y-155498871D01*
X141156269Y-155498873D01*
X141156268Y-155498873D01*
X141021933Y-155633208D01*
X141021933Y-155633209D01*
X141021931Y-155633211D01*
X141009612Y-155650167D01*
X140910260Y-155786912D01*
X140824007Y-155956191D01*
X140824006Y-155956194D01*
X140765300Y-156136877D01*
X140765300Y-156136879D01*
X140735579Y-156324526D01*
X137307579Y-156324526D01*
X137277858Y-156136879D01*
X137219150Y-155956192D01*
X137219150Y-155956191D01*
X137132897Y-155786912D01*
X137112564Y-155758926D01*
X137021227Y-155633211D01*
X136886887Y-155498871D01*
X136733185Y-155387200D01*
X136563906Y-155300947D01*
X136563903Y-155300946D01*
X136383220Y-155242240D01*
X136239445Y-155219468D01*
X136195572Y-155212519D01*
X136005586Y-155212519D01*
X135961719Y-155219467D01*
X135817937Y-155242240D01*
X135637254Y-155300946D01*
X135637251Y-155300947D01*
X135467972Y-155387200D01*
X135380280Y-155450912D01*
X135314271Y-155498871D01*
X135314269Y-155498873D01*
X135314268Y-155498873D01*
X135179933Y-155633208D01*
X135179933Y-155633209D01*
X135179931Y-155633211D01*
X135167612Y-155650167D01*
X135068260Y-155786912D01*
X134982007Y-155956191D01*
X134982006Y-155956194D01*
X134923300Y-156136877D01*
X134923300Y-156136879D01*
X134893579Y-156324526D01*
X131465579Y-156324526D01*
X131435858Y-156136879D01*
X131377150Y-155956192D01*
X131377150Y-155956191D01*
X131290897Y-155786912D01*
X131270564Y-155758926D01*
X131179227Y-155633211D01*
X131044887Y-155498871D01*
X130891185Y-155387200D01*
X130721906Y-155300947D01*
X130721903Y-155300946D01*
X130541220Y-155242240D01*
X130397445Y-155219468D01*
X130353572Y-155212519D01*
X130163586Y-155212519D01*
X130119719Y-155219467D01*
X129975937Y-155242240D01*
X129795254Y-155300946D01*
X129795251Y-155300947D01*
X129625972Y-155387200D01*
X129538280Y-155450912D01*
X129472271Y-155498871D01*
X129472269Y-155498873D01*
X129472268Y-155498873D01*
X129337933Y-155633208D01*
X129337933Y-155633209D01*
X129337931Y-155633211D01*
X129325612Y-155650167D01*
X129226260Y-155786912D01*
X129140007Y-155956191D01*
X129140006Y-155956194D01*
X129081300Y-156136877D01*
X129081300Y-156136879D01*
X129051579Y-156324526D01*
X125623579Y-156324526D01*
X125593858Y-156136879D01*
X125535150Y-155956192D01*
X125535150Y-155956191D01*
X125448897Y-155786912D01*
X125428564Y-155758926D01*
X125337227Y-155633211D01*
X125202887Y-155498871D01*
X125049185Y-155387200D01*
X124879906Y-155300947D01*
X124879903Y-155300946D01*
X124699220Y-155242240D01*
X124555445Y-155219468D01*
X124511572Y-155212519D01*
X124321586Y-155212519D01*
X124277719Y-155219467D01*
X124133937Y-155242240D01*
X123953254Y-155300946D01*
X123953251Y-155300947D01*
X123783972Y-155387200D01*
X123696280Y-155450912D01*
X123630271Y-155498871D01*
X123630269Y-155498873D01*
X123630268Y-155498873D01*
X123495933Y-155633208D01*
X123495933Y-155633209D01*
X123495931Y-155633211D01*
X123483612Y-155650167D01*
X123384260Y-155786912D01*
X123298007Y-155956191D01*
X123298006Y-155956194D01*
X123239300Y-156136877D01*
X123239300Y-156136879D01*
X123209579Y-156324526D01*
X119781579Y-156324526D01*
X119751858Y-156136879D01*
X119693150Y-155956192D01*
X119693150Y-155956191D01*
X119606897Y-155786912D01*
X119586564Y-155758926D01*
X119495227Y-155633211D01*
X119360887Y-155498871D01*
X119207185Y-155387200D01*
X119037906Y-155300947D01*
X119037903Y-155300946D01*
X118857220Y-155242240D01*
X118713445Y-155219468D01*
X118669572Y-155212519D01*
X118479586Y-155212519D01*
X118435719Y-155219467D01*
X118291937Y-155242240D01*
X118111254Y-155300946D01*
X118111251Y-155300947D01*
X117941972Y-155387200D01*
X117854280Y-155450912D01*
X117788271Y-155498871D01*
X117788269Y-155498873D01*
X117788268Y-155498873D01*
X117653933Y-155633208D01*
X117653933Y-155633209D01*
X117653931Y-155633211D01*
X117641612Y-155650167D01*
X117542260Y-155786912D01*
X117456007Y-155956191D01*
X117456006Y-155956194D01*
X117397300Y-156136877D01*
X117397300Y-156136879D01*
X117367579Y-156324526D01*
X94114319Y-156324526D01*
X94114319Y-153353701D01*
X98038179Y-153353701D01*
X98038179Y-153643336D01*
X98070603Y-153931116D01*
X98070606Y-153931134D01*
X98135051Y-154213487D01*
X98135056Y-154213503D01*
X98230707Y-154486854D01*
X98230716Y-154486876D01*
X98356368Y-154747796D01*
X98356372Y-154747802D01*
X98510460Y-154993032D01*
X98691037Y-155219468D01*
X98895830Y-155424261D01*
X99122266Y-155604838D01*
X99290395Y-155710480D01*
X99367501Y-155758929D01*
X99628421Y-155884581D01*
X99628430Y-155884584D01*
X99628437Y-155884588D01*
X99628443Y-155884590D01*
X99901794Y-155980241D01*
X99901799Y-155980242D01*
X99901806Y-155980245D01*
X100184167Y-156044692D01*
X100184173Y-156044692D01*
X100184181Y-156044694D01*
X100372972Y-156065965D01*
X100471962Y-156077118D01*
X100471965Y-156077119D01*
X100471968Y-156077119D01*
X100761593Y-156077119D01*
X100761594Y-156077118D01*
X100952588Y-156055599D01*
X101049376Y-156044694D01*
X101049381Y-156044693D01*
X101049391Y-156044692D01*
X101331752Y-155980245D01*
X101605121Y-155884588D01*
X101733121Y-155822947D01*
X101866056Y-155758929D01*
X101866056Y-155758928D01*
X101866062Y-155758926D01*
X102111292Y-155604838D01*
X102337728Y-155424261D01*
X102542521Y-155219468D01*
X102723098Y-154993032D01*
X102877186Y-154747802D01*
X103002848Y-154486861D01*
X103098505Y-154213492D01*
X103162952Y-153931131D01*
X103195379Y-153643330D01*
X103195379Y-153353708D01*
X103195378Y-153353701D01*
X174847779Y-153353701D01*
X174847779Y-153643336D01*
X174880203Y-153931116D01*
X174880206Y-153931134D01*
X174944651Y-154213487D01*
X174944656Y-154213503D01*
X175040307Y-154486854D01*
X175040316Y-154486876D01*
X175165968Y-154747796D01*
X175165972Y-154747802D01*
X175320060Y-154993032D01*
X175500637Y-155219468D01*
X175705430Y-155424261D01*
X175931866Y-155604838D01*
X176099995Y-155710480D01*
X176177101Y-155758929D01*
X176438021Y-155884581D01*
X176438030Y-155884584D01*
X176438037Y-155884588D01*
X176438043Y-155884590D01*
X176711394Y-155980241D01*
X176711399Y-155980242D01*
X176711406Y-155980245D01*
X176993767Y-156044692D01*
X176993773Y-156044692D01*
X176993781Y-156044694D01*
X177182572Y-156065965D01*
X177281562Y-156077118D01*
X177281565Y-156077119D01*
X177281568Y-156077119D01*
X177571193Y-156077119D01*
X177571194Y-156077118D01*
X177762188Y-156055599D01*
X177858976Y-156044694D01*
X177858981Y-156044693D01*
X177858991Y-156044692D01*
X178141352Y-155980245D01*
X178414721Y-155884588D01*
X178542721Y-155822947D01*
X178675656Y-155758929D01*
X178675656Y-155758928D01*
X178675662Y-155758926D01*
X178920892Y-155604838D01*
X179147328Y-155424261D01*
X179352121Y-155219468D01*
X179532698Y-154993032D01*
X179686786Y-154747802D01*
X179812448Y-154486861D01*
X179908105Y-154213492D01*
X179972552Y-153931131D01*
X180004979Y-153643330D01*
X180004979Y-153353708D01*
X180004978Y-153353701D01*
X186150779Y-153353701D01*
X186150779Y-153643336D01*
X186183203Y-153931116D01*
X186183206Y-153931134D01*
X186247651Y-154213487D01*
X186247656Y-154213503D01*
X186343307Y-154486854D01*
X186343316Y-154486876D01*
X186468968Y-154747796D01*
X186468972Y-154747802D01*
X186623060Y-154993032D01*
X186803637Y-155219468D01*
X187008430Y-155424261D01*
X187234866Y-155604838D01*
X187402995Y-155710480D01*
X187480101Y-155758929D01*
X187741021Y-155884581D01*
X187741030Y-155884584D01*
X187741037Y-155884588D01*
X187741043Y-155884590D01*
X188014394Y-155980241D01*
X188014399Y-155980242D01*
X188014406Y-155980245D01*
X188296767Y-156044692D01*
X188296773Y-156044692D01*
X188296781Y-156044694D01*
X188485572Y-156065965D01*
X188584562Y-156077118D01*
X188584565Y-156077119D01*
X188584568Y-156077119D01*
X188874193Y-156077119D01*
X188874194Y-156077118D01*
X189065188Y-156055599D01*
X189161976Y-156044694D01*
X189161981Y-156044693D01*
X189161991Y-156044692D01*
X189444352Y-155980245D01*
X189717721Y-155884588D01*
X189845721Y-155822947D01*
X189978656Y-155758929D01*
X189978656Y-155758928D01*
X189978662Y-155758926D01*
X190223892Y-155604838D01*
X190450328Y-155424261D01*
X190655121Y-155219468D01*
X190835698Y-154993032D01*
X190989786Y-154747802D01*
X191115448Y-154486861D01*
X191211105Y-154213492D01*
X191275552Y-153931131D01*
X191307979Y-153643330D01*
X191307979Y-153353708D01*
X191307978Y-153353701D01*
X262960379Y-153353701D01*
X262960379Y-153643336D01*
X262992803Y-153931116D01*
X262992806Y-153931134D01*
X263057251Y-154213487D01*
X263057256Y-154213503D01*
X263152907Y-154486854D01*
X263152916Y-154486876D01*
X263278568Y-154747796D01*
X263278572Y-154747802D01*
X263432660Y-154993032D01*
X263613237Y-155219468D01*
X263818030Y-155424261D01*
X264044466Y-155604838D01*
X264212595Y-155710480D01*
X264289701Y-155758929D01*
X264550621Y-155884581D01*
X264550630Y-155884584D01*
X264550637Y-155884588D01*
X264550643Y-155884590D01*
X264823994Y-155980241D01*
X264823999Y-155980242D01*
X264824006Y-155980245D01*
X265106367Y-156044692D01*
X265106373Y-156044692D01*
X265106381Y-156044694D01*
X265295172Y-156065965D01*
X265394162Y-156077118D01*
X265394165Y-156077119D01*
X265394168Y-156077119D01*
X265683793Y-156077119D01*
X265683794Y-156077118D01*
X265874788Y-156055599D01*
X265971576Y-156044694D01*
X265971581Y-156044693D01*
X265971591Y-156044692D01*
X266253952Y-155980245D01*
X266527321Y-155884588D01*
X266655321Y-155822947D01*
X266788256Y-155758929D01*
X266788256Y-155758928D01*
X266788262Y-155758926D01*
X267033492Y-155604838D01*
X267259928Y-155424261D01*
X267464721Y-155219468D01*
X267645298Y-154993032D01*
X267799386Y-154747802D01*
X267925048Y-154486861D01*
X268020705Y-154213492D01*
X268085152Y-153931131D01*
X268117579Y-153643330D01*
X268117579Y-153353708D01*
X268085152Y-153065907D01*
X268020705Y-152783546D01*
X267925048Y-152510177D01*
X267925044Y-152510170D01*
X267925041Y-152510161D01*
X267799389Y-152249241D01*
X267725482Y-152131619D01*
X267645298Y-152004006D01*
X267464721Y-151777570D01*
X267259928Y-151572777D01*
X267033492Y-151392200D01*
X266904138Y-151310922D01*
X266788256Y-151238108D01*
X266527336Y-151112456D01*
X266527314Y-151112447D01*
X266253963Y-151016796D01*
X266253947Y-151016791D01*
X265971594Y-150952346D01*
X265971576Y-150952343D01*
X265683796Y-150919919D01*
X265683790Y-150919919D01*
X265394168Y-150919919D01*
X265394161Y-150919919D01*
X265106381Y-150952343D01*
X265106363Y-150952346D01*
X264824010Y-151016791D01*
X264823994Y-151016796D01*
X264550643Y-151112447D01*
X264550621Y-151112456D01*
X264289701Y-151238108D01*
X264044467Y-151392199D01*
X263818030Y-151572776D01*
X263613236Y-151777570D01*
X263432659Y-152004007D01*
X263278568Y-152249241D01*
X263152916Y-152510161D01*
X263152907Y-152510183D01*
X263057256Y-152783534D01*
X263057251Y-152783550D01*
X262992806Y-153065903D01*
X262992803Y-153065921D01*
X262960379Y-153353701D01*
X191307978Y-153353701D01*
X191275552Y-153065907D01*
X191211105Y-152783546D01*
X191115448Y-152510177D01*
X191115444Y-152510170D01*
X191115441Y-152510161D01*
X190989789Y-152249241D01*
X190915882Y-152131619D01*
X190835698Y-152004006D01*
X190655121Y-151777570D01*
X190450328Y-151572777D01*
X190223892Y-151392200D01*
X190094538Y-151310922D01*
X189978656Y-151238108D01*
X189717736Y-151112456D01*
X189717714Y-151112447D01*
X189444363Y-151016796D01*
X189444347Y-151016791D01*
X189161994Y-150952346D01*
X189161976Y-150952343D01*
X188874196Y-150919919D01*
X188874190Y-150919919D01*
X188584568Y-150919919D01*
X188584561Y-150919919D01*
X188296781Y-150952343D01*
X188296763Y-150952346D01*
X188014410Y-151016791D01*
X188014394Y-151016796D01*
X187741043Y-151112447D01*
X187741021Y-151112456D01*
X187480101Y-151238108D01*
X187234867Y-151392199D01*
X187008430Y-151572776D01*
X186803636Y-151777570D01*
X186623059Y-152004007D01*
X186468968Y-152249241D01*
X186343316Y-152510161D01*
X186343307Y-152510183D01*
X186247656Y-152783534D01*
X186247651Y-152783550D01*
X186183206Y-153065903D01*
X186183203Y-153065921D01*
X186150779Y-153353701D01*
X180004978Y-153353701D01*
X179972552Y-153065907D01*
X179908105Y-152783546D01*
X179812448Y-152510177D01*
X179812444Y-152510170D01*
X179812441Y-152510161D01*
X179686789Y-152249241D01*
X179612882Y-152131619D01*
X179532698Y-152004006D01*
X179352121Y-151777570D01*
X179147328Y-151572777D01*
X178920892Y-151392200D01*
X178791538Y-151310922D01*
X178675656Y-151238108D01*
X178414736Y-151112456D01*
X178414714Y-151112447D01*
X178141363Y-151016796D01*
X178141347Y-151016791D01*
X177858994Y-150952346D01*
X177858976Y-150952343D01*
X177571196Y-150919919D01*
X177571190Y-150919919D01*
X177281568Y-150919919D01*
X177281561Y-150919919D01*
X176993781Y-150952343D01*
X176993763Y-150952346D01*
X176711410Y-151016791D01*
X176711394Y-151016796D01*
X176438043Y-151112447D01*
X176438021Y-151112456D01*
X176177101Y-151238108D01*
X175931867Y-151392199D01*
X175705430Y-151572776D01*
X175500636Y-151777570D01*
X175320059Y-152004007D01*
X175165968Y-152249241D01*
X175040316Y-152510161D01*
X175040307Y-152510183D01*
X174944656Y-152783534D01*
X174944651Y-152783550D01*
X174880206Y-153065903D01*
X174880203Y-153065921D01*
X174847779Y-153353701D01*
X103195378Y-153353701D01*
X103162952Y-153065907D01*
X103098505Y-152783546D01*
X103002848Y-152510177D01*
X103002844Y-152510170D01*
X103002841Y-152510161D01*
X102877189Y-152249241D01*
X102803282Y-152131619D01*
X102723098Y-152004006D01*
X102542521Y-151777570D01*
X102337728Y-151572777D01*
X102111292Y-151392200D01*
X101981938Y-151310922D01*
X101866056Y-151238108D01*
X101605136Y-151112456D01*
X101605114Y-151112447D01*
X101331763Y-151016796D01*
X101331747Y-151016791D01*
X101049394Y-150952346D01*
X101049376Y-150952343D01*
X100761596Y-150919919D01*
X100761590Y-150919919D01*
X100471968Y-150919919D01*
X100471961Y-150919919D01*
X100184181Y-150952343D01*
X100184163Y-150952346D01*
X99901810Y-151016791D01*
X99901794Y-151016796D01*
X99628443Y-151112447D01*
X99628421Y-151112456D01*
X99367501Y-151238108D01*
X99122267Y-151392199D01*
X98895830Y-151572776D01*
X98691036Y-151777570D01*
X98510459Y-152004007D01*
X98356368Y-152249241D01*
X98230716Y-152510161D01*
X98230707Y-152510183D01*
X98135056Y-152783534D01*
X98135051Y-152783550D01*
X98070606Y-153065903D01*
X98070603Y-153065921D01*
X98038179Y-153353701D01*
X94114319Y-153353701D01*
X94114319Y-150482526D01*
X117367579Y-150482526D01*
X117367579Y-150672512D01*
X117382439Y-150766335D01*
X117397300Y-150860160D01*
X117456006Y-151040843D01*
X117456007Y-151040846D01*
X117492492Y-151112450D01*
X117542260Y-151210125D01*
X117653931Y-151363827D01*
X117788271Y-151498167D01*
X117941973Y-151609838D01*
X118024999Y-151652141D01*
X118111251Y-151696090D01*
X118111254Y-151696091D01*
X118201595Y-151725444D01*
X118291939Y-151754798D01*
X118479586Y-151784519D01*
X118479587Y-151784519D01*
X118669571Y-151784519D01*
X118669572Y-151784519D01*
X118857219Y-151754798D01*
X119037906Y-151696090D01*
X119207185Y-151609838D01*
X119360887Y-151498167D01*
X119495227Y-151363827D01*
X119606898Y-151210125D01*
X119693150Y-151040846D01*
X119751858Y-150860159D01*
X119781579Y-150672512D01*
X119781579Y-150482526D01*
X123209579Y-150482526D01*
X123209579Y-150672512D01*
X123224439Y-150766335D01*
X123239300Y-150860160D01*
X123298006Y-151040843D01*
X123298007Y-151040846D01*
X123334492Y-151112450D01*
X123384260Y-151210125D01*
X123495931Y-151363827D01*
X123630271Y-151498167D01*
X123783973Y-151609838D01*
X123866999Y-151652141D01*
X123953251Y-151696090D01*
X123953254Y-151696091D01*
X124043595Y-151725444D01*
X124133939Y-151754798D01*
X124321586Y-151784519D01*
X124321587Y-151784519D01*
X124511571Y-151784519D01*
X124511572Y-151784519D01*
X124699219Y-151754798D01*
X124879906Y-151696090D01*
X125049185Y-151609838D01*
X125202887Y-151498167D01*
X125337227Y-151363827D01*
X125448898Y-151210125D01*
X125535150Y-151040846D01*
X125593858Y-150860159D01*
X125623579Y-150672512D01*
X125623579Y-150482526D01*
X129051579Y-150482526D01*
X129051579Y-150672512D01*
X129066439Y-150766335D01*
X129081300Y-150860160D01*
X129140006Y-151040843D01*
X129140007Y-151040846D01*
X129176492Y-151112450D01*
X129226260Y-151210125D01*
X129337931Y-151363827D01*
X129472271Y-151498167D01*
X129625973Y-151609838D01*
X129708999Y-151652141D01*
X129795251Y-151696090D01*
X129795254Y-151696091D01*
X129885595Y-151725444D01*
X129975939Y-151754798D01*
X130163586Y-151784519D01*
X130163587Y-151784519D01*
X130353571Y-151784519D01*
X130353572Y-151784519D01*
X130541219Y-151754798D01*
X130721906Y-151696090D01*
X130891185Y-151609838D01*
X131044887Y-151498167D01*
X131179227Y-151363827D01*
X131290898Y-151210125D01*
X131377150Y-151040846D01*
X131435858Y-150860159D01*
X131465579Y-150672512D01*
X131465579Y-150482526D01*
X134893579Y-150482526D01*
X134893579Y-150672512D01*
X134908439Y-150766335D01*
X134923300Y-150860160D01*
X134982006Y-151040843D01*
X134982007Y-151040846D01*
X135018492Y-151112450D01*
X135068260Y-151210125D01*
X135179931Y-151363827D01*
X135314271Y-151498167D01*
X135467973Y-151609838D01*
X135550999Y-151652141D01*
X135637251Y-151696090D01*
X135637254Y-151696091D01*
X135727595Y-151725444D01*
X135817939Y-151754798D01*
X136005586Y-151784519D01*
X136005587Y-151784519D01*
X136195571Y-151784519D01*
X136195572Y-151784519D01*
X136383219Y-151754798D01*
X136563906Y-151696090D01*
X136733185Y-151609838D01*
X136886887Y-151498167D01*
X137021227Y-151363827D01*
X137132898Y-151210125D01*
X137219150Y-151040846D01*
X137277858Y-150860159D01*
X137307579Y-150672512D01*
X137307579Y-150482526D01*
X140735579Y-150482526D01*
X140735579Y-150672512D01*
X140750439Y-150766335D01*
X140765300Y-150860160D01*
X140824006Y-151040843D01*
X140824007Y-151040846D01*
X140860492Y-151112450D01*
X140910260Y-151210125D01*
X141021931Y-151363827D01*
X141156271Y-151498167D01*
X141309973Y-151609838D01*
X141392999Y-151652141D01*
X141479251Y-151696090D01*
X141479254Y-151696091D01*
X141569595Y-151725444D01*
X141659939Y-151754798D01*
X141847586Y-151784519D01*
X141847587Y-151784519D01*
X142037571Y-151784519D01*
X142037572Y-151784519D01*
X142225219Y-151754798D01*
X142405906Y-151696090D01*
X142575185Y-151609838D01*
X142728887Y-151498167D01*
X142863227Y-151363827D01*
X142974898Y-151210125D01*
X143061150Y-151040846D01*
X143119858Y-150860159D01*
X143149579Y-150672512D01*
X143149579Y-150482526D01*
X146577579Y-150482526D01*
X146577579Y-150672512D01*
X146592439Y-150766335D01*
X146607300Y-150860160D01*
X146666006Y-151040843D01*
X146666007Y-151040846D01*
X146702492Y-151112450D01*
X146752260Y-151210125D01*
X146863931Y-151363827D01*
X146998271Y-151498167D01*
X147151973Y-151609838D01*
X147234999Y-151652141D01*
X147321251Y-151696090D01*
X147321254Y-151696091D01*
X147411595Y-151725444D01*
X147501939Y-151754798D01*
X147689586Y-151784519D01*
X147689587Y-151784519D01*
X147879571Y-151784519D01*
X147879572Y-151784519D01*
X148067219Y-151754798D01*
X148247906Y-151696090D01*
X148417185Y-151609838D01*
X148570887Y-151498167D01*
X148705227Y-151363827D01*
X148816898Y-151210125D01*
X148903150Y-151040846D01*
X148961858Y-150860159D01*
X148991579Y-150672512D01*
X148991579Y-150482526D01*
X152419579Y-150482526D01*
X152419579Y-150672512D01*
X152434439Y-150766335D01*
X152449300Y-150860160D01*
X152508006Y-151040843D01*
X152508007Y-151040846D01*
X152544492Y-151112450D01*
X152594260Y-151210125D01*
X152705931Y-151363827D01*
X152840271Y-151498167D01*
X152993973Y-151609838D01*
X153076999Y-151652141D01*
X153163251Y-151696090D01*
X153163254Y-151696091D01*
X153253595Y-151725444D01*
X153343939Y-151754798D01*
X153531586Y-151784519D01*
X153531587Y-151784519D01*
X153721571Y-151784519D01*
X153721572Y-151784519D01*
X153909219Y-151754798D01*
X154089906Y-151696090D01*
X154259185Y-151609838D01*
X154412887Y-151498167D01*
X154547227Y-151363827D01*
X154658898Y-151210125D01*
X154745150Y-151040846D01*
X154803858Y-150860159D01*
X154833579Y-150672512D01*
X154833579Y-150482526D01*
X154829251Y-150455203D01*
X157914479Y-150455203D01*
X157914479Y-150699834D01*
X157952745Y-150941438D01*
X158028340Y-151174090D01*
X158139393Y-151392045D01*
X158207188Y-151485355D01*
X158207188Y-151485356D01*
X158752655Y-150939888D01*
X158759540Y-150956508D01*
X158847101Y-151087553D01*
X158958545Y-151198997D01*
X159089590Y-151286558D01*
X159106208Y-151293441D01*
X158560740Y-151838908D01*
X158654052Y-151906704D01*
X158872007Y-152017757D01*
X159104659Y-152093352D01*
X159346264Y-152131619D01*
X159590894Y-152131619D01*
X159832498Y-152093352D01*
X160065150Y-152017757D01*
X160283105Y-151906704D01*
X160376416Y-151838908D01*
X159830949Y-151293441D01*
X159847568Y-151286558D01*
X159978613Y-151198997D01*
X160090057Y-151087553D01*
X160177618Y-150956508D01*
X160184501Y-150939888D01*
X160729968Y-151485355D01*
X160797764Y-151392045D01*
X160908817Y-151174090D01*
X160984412Y-150941438D01*
X161022679Y-150699834D01*
X161022679Y-150482526D01*
X205480179Y-150482526D01*
X205480179Y-150672512D01*
X205495039Y-150766335D01*
X205509900Y-150860160D01*
X205568606Y-151040843D01*
X205568607Y-151040846D01*
X205605092Y-151112450D01*
X205654860Y-151210125D01*
X205766531Y-151363827D01*
X205900871Y-151498167D01*
X206054573Y-151609838D01*
X206137599Y-151652141D01*
X206223851Y-151696090D01*
X206223854Y-151696091D01*
X206314195Y-151725444D01*
X206404539Y-151754798D01*
X206592186Y-151784519D01*
X206592187Y-151784519D01*
X206782171Y-151784519D01*
X206782172Y-151784519D01*
X206969819Y-151754798D01*
X207150506Y-151696090D01*
X207319785Y-151609838D01*
X207473487Y-151498167D01*
X207607827Y-151363827D01*
X207719498Y-151210125D01*
X207805750Y-151040846D01*
X207864458Y-150860159D01*
X207894179Y-150672512D01*
X207894179Y-150482526D01*
X211322179Y-150482526D01*
X211322179Y-150672512D01*
X211337039Y-150766335D01*
X211351900Y-150860160D01*
X211410606Y-151040843D01*
X211410607Y-151040846D01*
X211447092Y-151112450D01*
X211496860Y-151210125D01*
X211608531Y-151363827D01*
X211742871Y-151498167D01*
X211896573Y-151609838D01*
X211979599Y-151652141D01*
X212065851Y-151696090D01*
X212065854Y-151696091D01*
X212156195Y-151725444D01*
X212246539Y-151754798D01*
X212434186Y-151784519D01*
X212434187Y-151784519D01*
X212624171Y-151784519D01*
X212624172Y-151784519D01*
X212811819Y-151754798D01*
X212992506Y-151696090D01*
X213161785Y-151609838D01*
X213315487Y-151498167D01*
X213449827Y-151363827D01*
X213561498Y-151210125D01*
X213647750Y-151040846D01*
X213706458Y-150860159D01*
X213736179Y-150672512D01*
X213736179Y-150482526D01*
X217164179Y-150482526D01*
X217164179Y-150672512D01*
X217179039Y-150766335D01*
X217193900Y-150860160D01*
X217252606Y-151040843D01*
X217252607Y-151040846D01*
X217289092Y-151112450D01*
X217338860Y-151210125D01*
X217450531Y-151363827D01*
X217584871Y-151498167D01*
X217738573Y-151609838D01*
X217821599Y-151652141D01*
X217907851Y-151696090D01*
X217907854Y-151696091D01*
X217998195Y-151725444D01*
X218088539Y-151754798D01*
X218276186Y-151784519D01*
X218276187Y-151784519D01*
X218466171Y-151784519D01*
X218466172Y-151784519D01*
X218653819Y-151754798D01*
X218834506Y-151696090D01*
X219003785Y-151609838D01*
X219157487Y-151498167D01*
X219291827Y-151363827D01*
X219403498Y-151210125D01*
X219489750Y-151040846D01*
X219548458Y-150860159D01*
X219578179Y-150672512D01*
X219578179Y-150482526D01*
X223006179Y-150482526D01*
X223006179Y-150672512D01*
X223021039Y-150766335D01*
X223035900Y-150860160D01*
X223094606Y-151040843D01*
X223094607Y-151040846D01*
X223131092Y-151112450D01*
X223180860Y-151210125D01*
X223292531Y-151363827D01*
X223426871Y-151498167D01*
X223580573Y-151609838D01*
X223663599Y-151652141D01*
X223749851Y-151696090D01*
X223749854Y-151696091D01*
X223840195Y-151725444D01*
X223930539Y-151754798D01*
X224118186Y-151784519D01*
X224118187Y-151784519D01*
X224308171Y-151784519D01*
X224308172Y-151784519D01*
X224495819Y-151754798D01*
X224676506Y-151696090D01*
X224845785Y-151609838D01*
X224999487Y-151498167D01*
X225133827Y-151363827D01*
X225245498Y-151210125D01*
X225331750Y-151040846D01*
X225390458Y-150860159D01*
X225420179Y-150672512D01*
X225420179Y-150482526D01*
X225415851Y-150455203D01*
X228501079Y-150455203D01*
X228501079Y-150699834D01*
X228539345Y-150941438D01*
X228614940Y-151174090D01*
X228725993Y-151392045D01*
X228793788Y-151485355D01*
X228793788Y-151485356D01*
X229339256Y-150939888D01*
X229346140Y-150956508D01*
X229433701Y-151087553D01*
X229545145Y-151198997D01*
X229676190Y-151286558D01*
X229692808Y-151293441D01*
X229147340Y-151838908D01*
X229240652Y-151906704D01*
X229458607Y-152017757D01*
X229691259Y-152093352D01*
X229932864Y-152131619D01*
X230177494Y-152131619D01*
X230419098Y-152093352D01*
X230651750Y-152017757D01*
X230869705Y-151906704D01*
X230963015Y-151838908D01*
X230417548Y-151293441D01*
X230434168Y-151286558D01*
X230565213Y-151198997D01*
X230676657Y-151087553D01*
X230764218Y-150956508D01*
X230771101Y-150939888D01*
X231316568Y-151485355D01*
X231384364Y-151392045D01*
X231495417Y-151174090D01*
X231571012Y-150941438D01*
X231609279Y-150699834D01*
X231609279Y-150482526D01*
X234690179Y-150482526D01*
X234690179Y-150672512D01*
X234705039Y-150766335D01*
X234719900Y-150860160D01*
X234778606Y-151040843D01*
X234778607Y-151040846D01*
X234815092Y-151112450D01*
X234864860Y-151210125D01*
X234976531Y-151363827D01*
X235110871Y-151498167D01*
X235264573Y-151609838D01*
X235347599Y-151652141D01*
X235433851Y-151696090D01*
X235433854Y-151696091D01*
X235524195Y-151725444D01*
X235614539Y-151754798D01*
X235802186Y-151784519D01*
X235802187Y-151784519D01*
X235992171Y-151784519D01*
X235992172Y-151784519D01*
X236179819Y-151754798D01*
X236360506Y-151696090D01*
X236529785Y-151609838D01*
X236683487Y-151498167D01*
X236817827Y-151363827D01*
X236929498Y-151210125D01*
X237015750Y-151040846D01*
X237074458Y-150860159D01*
X237104179Y-150672512D01*
X237104179Y-150482526D01*
X240532179Y-150482526D01*
X240532179Y-150672512D01*
X240547039Y-150766335D01*
X240561900Y-150860160D01*
X240620606Y-151040843D01*
X240620607Y-151040846D01*
X240657092Y-151112450D01*
X240706860Y-151210125D01*
X240818531Y-151363827D01*
X240952871Y-151498167D01*
X241106573Y-151609838D01*
X241189599Y-151652141D01*
X241275851Y-151696090D01*
X241275854Y-151696091D01*
X241366195Y-151725444D01*
X241456539Y-151754798D01*
X241644186Y-151784519D01*
X241644187Y-151784519D01*
X241834171Y-151784519D01*
X241834172Y-151784519D01*
X242021819Y-151754798D01*
X242202506Y-151696090D01*
X242371785Y-151609838D01*
X242525487Y-151498167D01*
X242659827Y-151363827D01*
X242771498Y-151210125D01*
X242857750Y-151040846D01*
X242916458Y-150860159D01*
X242946179Y-150672512D01*
X242946179Y-150482526D01*
X246374179Y-150482526D01*
X246374179Y-150672512D01*
X246389039Y-150766335D01*
X246403900Y-150860160D01*
X246462606Y-151040843D01*
X246462607Y-151040846D01*
X246499092Y-151112450D01*
X246548860Y-151210125D01*
X246660531Y-151363827D01*
X246794871Y-151498167D01*
X246948573Y-151609838D01*
X247031599Y-151652141D01*
X247117851Y-151696090D01*
X247117854Y-151696091D01*
X247208195Y-151725444D01*
X247298539Y-151754798D01*
X247486186Y-151784519D01*
X247486187Y-151784519D01*
X247676171Y-151784519D01*
X247676172Y-151784519D01*
X247863819Y-151754798D01*
X248044506Y-151696090D01*
X248213785Y-151609838D01*
X248367487Y-151498167D01*
X248501827Y-151363827D01*
X248613498Y-151210125D01*
X248699750Y-151040846D01*
X248758458Y-150860159D01*
X248788179Y-150672512D01*
X248788179Y-150482526D01*
X248758458Y-150294879D01*
X248699750Y-150114192D01*
X248699750Y-150114191D01*
X248613497Y-149944912D01*
X248501827Y-149791211D01*
X248367487Y-149656871D01*
X248213785Y-149545200D01*
X248044506Y-149458947D01*
X248044503Y-149458946D01*
X247863820Y-149400240D01*
X247769995Y-149385379D01*
X247676172Y-149370519D01*
X247486186Y-149370519D01*
X247423637Y-149380426D01*
X247298537Y-149400240D01*
X247117854Y-149458946D01*
X247117851Y-149458947D01*
X246948572Y-149545200D01*
X246860880Y-149608912D01*
X246794871Y-149656871D01*
X246794869Y-149656873D01*
X246794868Y-149656873D01*
X246660533Y-149791208D01*
X246660533Y-149791209D01*
X246660531Y-149791211D01*
X246648212Y-149808167D01*
X246548860Y-149944912D01*
X246462607Y-150114191D01*
X246462606Y-150114194D01*
X246403900Y-150294877D01*
X246403900Y-150294879D01*
X246374179Y-150482526D01*
X242946179Y-150482526D01*
X242916458Y-150294879D01*
X242857750Y-150114192D01*
X242857750Y-150114191D01*
X242771497Y-149944912D01*
X242659827Y-149791211D01*
X242525487Y-149656871D01*
X242371785Y-149545200D01*
X242202506Y-149458947D01*
X242202503Y-149458946D01*
X242021820Y-149400240D01*
X241927995Y-149385379D01*
X241834172Y-149370519D01*
X241644186Y-149370519D01*
X241581637Y-149380426D01*
X241456537Y-149400240D01*
X241275854Y-149458946D01*
X241275851Y-149458947D01*
X241106572Y-149545200D01*
X241018880Y-149608912D01*
X240952871Y-149656871D01*
X240952869Y-149656873D01*
X240952868Y-149656873D01*
X240818533Y-149791208D01*
X240818533Y-149791209D01*
X240818531Y-149791211D01*
X240806212Y-149808167D01*
X240706860Y-149944912D01*
X240620607Y-150114191D01*
X240620606Y-150114194D01*
X240561900Y-150294877D01*
X240561900Y-150294879D01*
X240532179Y-150482526D01*
X237104179Y-150482526D01*
X237074458Y-150294879D01*
X237015750Y-150114192D01*
X237015750Y-150114191D01*
X236929497Y-149944912D01*
X236817827Y-149791211D01*
X236683487Y-149656871D01*
X236529785Y-149545200D01*
X236360506Y-149458947D01*
X236360503Y-149458946D01*
X236179820Y-149400240D01*
X236085995Y-149385379D01*
X235992172Y-149370519D01*
X235802186Y-149370519D01*
X235739637Y-149380426D01*
X235614537Y-149400240D01*
X235433854Y-149458946D01*
X235433851Y-149458947D01*
X235264572Y-149545200D01*
X235176880Y-149608912D01*
X235110871Y-149656871D01*
X235110869Y-149656873D01*
X235110868Y-149656873D01*
X234976533Y-149791208D01*
X234976533Y-149791209D01*
X234976531Y-149791211D01*
X234964212Y-149808167D01*
X234864860Y-149944912D01*
X234778607Y-150114191D01*
X234778606Y-150114194D01*
X234719900Y-150294877D01*
X234719900Y-150294879D01*
X234690179Y-150482526D01*
X231609279Y-150482526D01*
X231609279Y-150455203D01*
X231571012Y-150213599D01*
X231495417Y-149980947D01*
X231384364Y-149762992D01*
X231316568Y-149669681D01*
X231316568Y-149669680D01*
X230771101Y-150215147D01*
X230764218Y-150198530D01*
X230676657Y-150067485D01*
X230565213Y-149956041D01*
X230434168Y-149868480D01*
X230417547Y-149861595D01*
X230963016Y-149316128D01*
X230869705Y-149248333D01*
X230651750Y-149137280D01*
X230419098Y-149061685D01*
X230177494Y-149023419D01*
X229932864Y-149023419D01*
X229691259Y-149061685D01*
X229458607Y-149137280D01*
X229240648Y-149248335D01*
X229147341Y-149316126D01*
X229147340Y-149316128D01*
X229692808Y-149861596D01*
X229676190Y-149868480D01*
X229545145Y-149956041D01*
X229433701Y-150067485D01*
X229346140Y-150198530D01*
X229339256Y-150215148D01*
X228793788Y-149669680D01*
X228793786Y-149669681D01*
X228725995Y-149762988D01*
X228614940Y-149980947D01*
X228539345Y-150213599D01*
X228501079Y-150455203D01*
X225415851Y-150455203D01*
X225390458Y-150294879D01*
X225331750Y-150114192D01*
X225331750Y-150114191D01*
X225245497Y-149944912D01*
X225133827Y-149791211D01*
X224999487Y-149656871D01*
X224845785Y-149545200D01*
X224705798Y-149473873D01*
X224676506Y-149458947D01*
X224676503Y-149458946D01*
X224495820Y-149400240D01*
X224401995Y-149385379D01*
X224308172Y-149370519D01*
X224118186Y-149370519D01*
X224055637Y-149380426D01*
X223930537Y-149400240D01*
X223749854Y-149458946D01*
X223749851Y-149458947D01*
X223580572Y-149545200D01*
X223492880Y-149608912D01*
X223426871Y-149656871D01*
X223426869Y-149656873D01*
X223426868Y-149656873D01*
X223292533Y-149791208D01*
X223292533Y-149791209D01*
X223292531Y-149791211D01*
X223280212Y-149808167D01*
X223180860Y-149944912D01*
X223094607Y-150114191D01*
X223094606Y-150114194D01*
X223035900Y-150294877D01*
X223035900Y-150294879D01*
X223006179Y-150482526D01*
X219578179Y-150482526D01*
X219548458Y-150294879D01*
X219489750Y-150114192D01*
X219489750Y-150114191D01*
X219403497Y-149944912D01*
X219291827Y-149791211D01*
X219157487Y-149656871D01*
X219003785Y-149545200D01*
X218834506Y-149458947D01*
X218834503Y-149458946D01*
X218653820Y-149400240D01*
X218559995Y-149385379D01*
X218466172Y-149370519D01*
X218276186Y-149370519D01*
X218213637Y-149380426D01*
X218088537Y-149400240D01*
X217907854Y-149458946D01*
X217907851Y-149458947D01*
X217738572Y-149545200D01*
X217650880Y-149608912D01*
X217584871Y-149656871D01*
X217584869Y-149656873D01*
X217584868Y-149656873D01*
X217450533Y-149791208D01*
X217450533Y-149791209D01*
X217450531Y-149791211D01*
X217438212Y-149808167D01*
X217338860Y-149944912D01*
X217252607Y-150114191D01*
X217252606Y-150114194D01*
X217193900Y-150294877D01*
X217193900Y-150294879D01*
X217164179Y-150482526D01*
X213736179Y-150482526D01*
X213706458Y-150294879D01*
X213647750Y-150114192D01*
X213647750Y-150114191D01*
X213561497Y-149944912D01*
X213449827Y-149791211D01*
X213315487Y-149656871D01*
X213161785Y-149545200D01*
X212992506Y-149458947D01*
X212992503Y-149458946D01*
X212811820Y-149400240D01*
X212717995Y-149385379D01*
X212624172Y-149370519D01*
X212434186Y-149370519D01*
X212371637Y-149380426D01*
X212246537Y-149400240D01*
X212065854Y-149458946D01*
X212065851Y-149458947D01*
X211896572Y-149545200D01*
X211808880Y-149608912D01*
X211742871Y-149656871D01*
X211742869Y-149656873D01*
X211742868Y-149656873D01*
X211608533Y-149791208D01*
X211608533Y-149791209D01*
X211608531Y-149791211D01*
X211596212Y-149808167D01*
X211496860Y-149944912D01*
X211410607Y-150114191D01*
X211410606Y-150114194D01*
X211351900Y-150294877D01*
X211351900Y-150294879D01*
X211322179Y-150482526D01*
X207894179Y-150482526D01*
X207864458Y-150294879D01*
X207805750Y-150114192D01*
X207805750Y-150114191D01*
X207719497Y-149944912D01*
X207607827Y-149791211D01*
X207473487Y-149656871D01*
X207319785Y-149545200D01*
X207150506Y-149458947D01*
X207150503Y-149458946D01*
X206969820Y-149400240D01*
X206875995Y-149385379D01*
X206782172Y-149370519D01*
X206592186Y-149370519D01*
X206529637Y-149380426D01*
X206404537Y-149400240D01*
X206223854Y-149458946D01*
X206223851Y-149458947D01*
X206054572Y-149545200D01*
X205966880Y-149608912D01*
X205900871Y-149656871D01*
X205900869Y-149656873D01*
X205900868Y-149656873D01*
X205766533Y-149791208D01*
X205766533Y-149791209D01*
X205766531Y-149791211D01*
X205754212Y-149808167D01*
X205654860Y-149944912D01*
X205568607Y-150114191D01*
X205568606Y-150114194D01*
X205509900Y-150294877D01*
X205509900Y-150294879D01*
X205480179Y-150482526D01*
X161022679Y-150482526D01*
X161022679Y-150455203D01*
X160984412Y-150213599D01*
X160908817Y-149980947D01*
X160797764Y-149762992D01*
X160729968Y-149669681D01*
X160729968Y-149669680D01*
X160184501Y-150215147D01*
X160177618Y-150198530D01*
X160090057Y-150067485D01*
X159978613Y-149956041D01*
X159847568Y-149868480D01*
X159830947Y-149861595D01*
X160376416Y-149316128D01*
X160283105Y-149248333D01*
X160065150Y-149137280D01*
X159832498Y-149061685D01*
X159590894Y-149023419D01*
X159346264Y-149023419D01*
X159104659Y-149061685D01*
X158872007Y-149137280D01*
X158654048Y-149248335D01*
X158560741Y-149316126D01*
X158560740Y-149316128D01*
X159106208Y-149861596D01*
X159089590Y-149868480D01*
X158958545Y-149956041D01*
X158847101Y-150067485D01*
X158759540Y-150198530D01*
X158752656Y-150215148D01*
X158207188Y-149669680D01*
X158207186Y-149669681D01*
X158139395Y-149762988D01*
X158028340Y-149980947D01*
X157952745Y-150213599D01*
X157914479Y-150455203D01*
X154829251Y-150455203D01*
X154803858Y-150294879D01*
X154745150Y-150114192D01*
X154745150Y-150114191D01*
X154658897Y-149944912D01*
X154547227Y-149791211D01*
X154412887Y-149656871D01*
X154259185Y-149545200D01*
X154119198Y-149473873D01*
X154089906Y-149458947D01*
X154089903Y-149458946D01*
X153909220Y-149400240D01*
X153815395Y-149385379D01*
X153721572Y-149370519D01*
X153531586Y-149370519D01*
X153469037Y-149380426D01*
X153343937Y-149400240D01*
X153163254Y-149458946D01*
X153163251Y-149458947D01*
X152993972Y-149545200D01*
X152906280Y-149608912D01*
X152840271Y-149656871D01*
X152840269Y-149656873D01*
X152840268Y-149656873D01*
X152705933Y-149791208D01*
X152705933Y-149791209D01*
X152705931Y-149791211D01*
X152693612Y-149808167D01*
X152594260Y-149944912D01*
X152508007Y-150114191D01*
X152508006Y-150114194D01*
X152449300Y-150294877D01*
X152449300Y-150294879D01*
X152419579Y-150482526D01*
X148991579Y-150482526D01*
X148961858Y-150294879D01*
X148903150Y-150114192D01*
X148903150Y-150114191D01*
X148816897Y-149944912D01*
X148705227Y-149791211D01*
X148570887Y-149656871D01*
X148417185Y-149545200D01*
X148247906Y-149458947D01*
X148247903Y-149458946D01*
X148067220Y-149400240D01*
X147973395Y-149385379D01*
X147879572Y-149370519D01*
X147689586Y-149370519D01*
X147627037Y-149380426D01*
X147501937Y-149400240D01*
X147321254Y-149458946D01*
X147321251Y-149458947D01*
X147151972Y-149545200D01*
X147064280Y-149608912D01*
X146998271Y-149656871D01*
X146998269Y-149656873D01*
X146998268Y-149656873D01*
X146863933Y-149791208D01*
X146863933Y-149791209D01*
X146863931Y-149791211D01*
X146851612Y-149808167D01*
X146752260Y-149944912D01*
X146666007Y-150114191D01*
X146666006Y-150114194D01*
X146607300Y-150294877D01*
X146607300Y-150294879D01*
X146577579Y-150482526D01*
X143149579Y-150482526D01*
X143119858Y-150294879D01*
X143061150Y-150114192D01*
X143061150Y-150114191D01*
X142974897Y-149944912D01*
X142863227Y-149791211D01*
X142728887Y-149656871D01*
X142575185Y-149545200D01*
X142405906Y-149458947D01*
X142405903Y-149458946D01*
X142225220Y-149400240D01*
X142131395Y-149385379D01*
X142037572Y-149370519D01*
X141847586Y-149370519D01*
X141785037Y-149380426D01*
X141659937Y-149400240D01*
X141479254Y-149458946D01*
X141479251Y-149458947D01*
X141309972Y-149545200D01*
X141222280Y-149608912D01*
X141156271Y-149656871D01*
X141156269Y-149656873D01*
X141156268Y-149656873D01*
X141021933Y-149791208D01*
X141021933Y-149791209D01*
X141021931Y-149791211D01*
X141009612Y-149808167D01*
X140910260Y-149944912D01*
X140824007Y-150114191D01*
X140824006Y-150114194D01*
X140765300Y-150294877D01*
X140765300Y-150294879D01*
X140735579Y-150482526D01*
X137307579Y-150482526D01*
X137277858Y-150294879D01*
X137219150Y-150114192D01*
X137219150Y-150114191D01*
X137132897Y-149944912D01*
X137021227Y-149791211D01*
X136886887Y-149656871D01*
X136733185Y-149545200D01*
X136563906Y-149458947D01*
X136563903Y-149458946D01*
X136383220Y-149400240D01*
X136289395Y-149385379D01*
X136195572Y-149370519D01*
X136005586Y-149370519D01*
X135943037Y-149380426D01*
X135817937Y-149400240D01*
X135637254Y-149458946D01*
X135637251Y-149458947D01*
X135467972Y-149545200D01*
X135380280Y-149608912D01*
X135314271Y-149656871D01*
X135314269Y-149656873D01*
X135314268Y-149656873D01*
X135179933Y-149791208D01*
X135179933Y-149791209D01*
X135179931Y-149791211D01*
X135167612Y-149808167D01*
X135068260Y-149944912D01*
X134982007Y-150114191D01*
X134982006Y-150114194D01*
X134923300Y-150294877D01*
X134923300Y-150294879D01*
X134893579Y-150482526D01*
X131465579Y-150482526D01*
X131435858Y-150294879D01*
X131377150Y-150114192D01*
X131377150Y-150114191D01*
X131290897Y-149944912D01*
X131179227Y-149791211D01*
X131044887Y-149656871D01*
X130891185Y-149545200D01*
X130721906Y-149458947D01*
X130721903Y-149458946D01*
X130541220Y-149400240D01*
X130447395Y-149385379D01*
X130353572Y-149370519D01*
X130163586Y-149370519D01*
X130101037Y-149380426D01*
X129975937Y-149400240D01*
X129795254Y-149458946D01*
X129795251Y-149458947D01*
X129625972Y-149545200D01*
X129538280Y-149608912D01*
X129472271Y-149656871D01*
X129472269Y-149656873D01*
X129472268Y-149656873D01*
X129337933Y-149791208D01*
X129337933Y-149791209D01*
X129337931Y-149791211D01*
X129325612Y-149808167D01*
X129226260Y-149944912D01*
X129140007Y-150114191D01*
X129140006Y-150114194D01*
X129081300Y-150294877D01*
X129081300Y-150294879D01*
X129051579Y-150482526D01*
X125623579Y-150482526D01*
X125593858Y-150294879D01*
X125535150Y-150114192D01*
X125535150Y-150114191D01*
X125448897Y-149944912D01*
X125337227Y-149791211D01*
X125202887Y-149656871D01*
X125049185Y-149545200D01*
X124879906Y-149458947D01*
X124879903Y-149458946D01*
X124699220Y-149400240D01*
X124605395Y-149385379D01*
X124511572Y-149370519D01*
X124321586Y-149370519D01*
X124259037Y-149380426D01*
X124133937Y-149400240D01*
X123953254Y-149458946D01*
X123953251Y-149458947D01*
X123783972Y-149545200D01*
X123696280Y-149608912D01*
X123630271Y-149656871D01*
X123630269Y-149656873D01*
X123630268Y-149656873D01*
X123495933Y-149791208D01*
X123495933Y-149791209D01*
X123495931Y-149791211D01*
X123483612Y-149808167D01*
X123384260Y-149944912D01*
X123298007Y-150114191D01*
X123298006Y-150114194D01*
X123239300Y-150294877D01*
X123239300Y-150294879D01*
X123209579Y-150482526D01*
X119781579Y-150482526D01*
X119751858Y-150294879D01*
X119693150Y-150114192D01*
X119693150Y-150114191D01*
X119606897Y-149944912D01*
X119495227Y-149791211D01*
X119360887Y-149656871D01*
X119207185Y-149545200D01*
X119037906Y-149458947D01*
X119037903Y-149458946D01*
X118857220Y-149400240D01*
X118763395Y-149385379D01*
X118669572Y-149370519D01*
X118479586Y-149370519D01*
X118417037Y-149380426D01*
X118291937Y-149400240D01*
X118111254Y-149458946D01*
X118111251Y-149458947D01*
X117941972Y-149545200D01*
X117854280Y-149608912D01*
X117788271Y-149656871D01*
X117788269Y-149656873D01*
X117788268Y-149656873D01*
X117653933Y-149791208D01*
X117653933Y-149791209D01*
X117653931Y-149791211D01*
X117641612Y-149808167D01*
X117542260Y-149944912D01*
X117456007Y-150114191D01*
X117456006Y-150114194D01*
X117397300Y-150294877D01*
X117397300Y-150294879D01*
X117367579Y-150482526D01*
X94114319Y-150482526D01*
X94114319Y-148022375D01*
X130484100Y-148022375D01*
X130484100Y-148141624D01*
X130514964Y-148256814D01*
X130544777Y-148308450D01*
X130574590Y-148360087D01*
X130658913Y-148444410D01*
X130762187Y-148504036D01*
X130877375Y-148534900D01*
X130877377Y-148534900D01*
X130996623Y-148534900D01*
X130996625Y-148534900D01*
X131111813Y-148504036D01*
X131215087Y-148444410D01*
X131299410Y-148360087D01*
X131359036Y-148256813D01*
X131389900Y-148141625D01*
X131389900Y-148022375D01*
X131359036Y-147907187D01*
X131299410Y-147803913D01*
X131215087Y-147719590D01*
X131163450Y-147689777D01*
X131111814Y-147659964D01*
X131054219Y-147644532D01*
X130996625Y-147629100D01*
X130877375Y-147629100D01*
X130762185Y-147659964D01*
X130658913Y-147719590D01*
X130658910Y-147719592D01*
X130574592Y-147803910D01*
X130574590Y-147803913D01*
X130514964Y-147907185D01*
X130484100Y-148022375D01*
X94114319Y-148022375D01*
X94114319Y-147006375D01*
X131627100Y-147006375D01*
X131627100Y-147125624D01*
X131657964Y-147240814D01*
X131685548Y-147288589D01*
X131717590Y-147344087D01*
X131801913Y-147428410D01*
X131891348Y-147480046D01*
X131894751Y-147482011D01*
X131905187Y-147488036D01*
X132020375Y-147518900D01*
X132020377Y-147518900D01*
X132139623Y-147518900D01*
X132139625Y-147518900D01*
X132254813Y-147488036D01*
X132358087Y-147428410D01*
X132442410Y-147344087D01*
X132498134Y-147247572D01*
X163872297Y-147247572D01*
X163872297Y-147366821D01*
X163903161Y-147482011D01*
X163906640Y-147488036D01*
X163962787Y-147585284D01*
X164047110Y-147669607D01*
X164150384Y-147729233D01*
X164265572Y-147760097D01*
X164265574Y-147760097D01*
X164384820Y-147760097D01*
X164384822Y-147760097D01*
X164500010Y-147729233D01*
X164603284Y-147669607D01*
X164687607Y-147585284D01*
X164747233Y-147482010D01*
X164778097Y-147366822D01*
X164778097Y-147247572D01*
X164747233Y-147132384D01*
X164743329Y-147125623D01*
X164723673Y-147091577D01*
X164687607Y-147029110D01*
X164664872Y-147006375D01*
X176839100Y-147006375D01*
X176839100Y-147125624D01*
X176869964Y-147240814D01*
X176897548Y-147288589D01*
X176929590Y-147344087D01*
X177013913Y-147428410D01*
X177103348Y-147480046D01*
X177106751Y-147482011D01*
X177117187Y-147488036D01*
X177232375Y-147518900D01*
X177232377Y-147518900D01*
X177351623Y-147518900D01*
X177351625Y-147518900D01*
X177466813Y-147488036D01*
X177570087Y-147428410D01*
X177654410Y-147344087D01*
X177714036Y-147240813D01*
X177744900Y-147125625D01*
X177744900Y-147006375D01*
X177714036Y-146891187D01*
X177654410Y-146787913D01*
X177570087Y-146703590D01*
X177509419Y-146668563D01*
X177466814Y-146643964D01*
X177409219Y-146628532D01*
X177351625Y-146613100D01*
X177232375Y-146613100D01*
X177117185Y-146643964D01*
X177013913Y-146703590D01*
X177013910Y-146703592D01*
X176929592Y-146787910D01*
X176929590Y-146787913D01*
X176869964Y-146891185D01*
X176839100Y-147006375D01*
X164664872Y-147006375D01*
X164603284Y-146944787D01*
X164534642Y-146905156D01*
X164500011Y-146885161D01*
X164409338Y-146860866D01*
X164384822Y-146854297D01*
X164265572Y-146854297D01*
X164150382Y-146885161D01*
X164047110Y-146944787D01*
X164047107Y-146944789D01*
X163962789Y-147029107D01*
X163962787Y-147029110D01*
X163903161Y-147132382D01*
X163872297Y-147247572D01*
X132498134Y-147247572D01*
X132502036Y-147240813D01*
X132532900Y-147125625D01*
X132532900Y-147006375D01*
X132502036Y-146891187D01*
X132442410Y-146787913D01*
X132358087Y-146703590D01*
X132297419Y-146668563D01*
X132254814Y-146643964D01*
X132197219Y-146628532D01*
X132139625Y-146613100D01*
X132020375Y-146613100D01*
X131905185Y-146643964D01*
X131801913Y-146703590D01*
X131801910Y-146703592D01*
X131717592Y-146787910D01*
X131717590Y-146787913D01*
X131657964Y-146891185D01*
X131627100Y-147006375D01*
X94114319Y-147006375D01*
X94114319Y-145847917D01*
X215886099Y-145847917D01*
X215886099Y-145967166D01*
X215916963Y-146082356D01*
X215946776Y-146133992D01*
X215976589Y-146185629D01*
X215976592Y-146185632D01*
X215991822Y-146200863D01*
X216025306Y-146262187D01*
X216020320Y-146331878D01*
X215991822Y-146376221D01*
X215976592Y-146391451D01*
X215976589Y-146391455D01*
X215916963Y-146494727D01*
X215886099Y-146609917D01*
X215886099Y-146729166D01*
X215916963Y-146844356D01*
X215940523Y-146885161D01*
X215976589Y-146947629D01*
X216060912Y-147031952D01*
X216150347Y-147083588D01*
X216162488Y-147090598D01*
X216164186Y-147091578D01*
X216279374Y-147122442D01*
X216279376Y-147122442D01*
X216398622Y-147122442D01*
X216398624Y-147122442D01*
X216513812Y-147091578D01*
X216617086Y-147031952D01*
X216632318Y-147016720D01*
X216693641Y-146983235D01*
X216763333Y-146988219D01*
X216807680Y-147016720D01*
X216822912Y-147031952D01*
X216912347Y-147083588D01*
X216924488Y-147090598D01*
X216926186Y-147091578D01*
X217041374Y-147122442D01*
X217041376Y-147122442D01*
X217160622Y-147122442D01*
X217160624Y-147122442D01*
X217275812Y-147091578D01*
X217379086Y-147031952D01*
X217394318Y-147016720D01*
X217455641Y-146983235D01*
X217525333Y-146988219D01*
X217569680Y-147016720D01*
X217584912Y-147031952D01*
X217674347Y-147083588D01*
X217686488Y-147090598D01*
X217688186Y-147091578D01*
X217803374Y-147122442D01*
X217803376Y-147122442D01*
X217922622Y-147122442D01*
X217922624Y-147122442D01*
X218037812Y-147091578D01*
X218141086Y-147031952D01*
X218225409Y-146947629D01*
X218225411Y-146947624D01*
X218228957Y-146944079D01*
X218236906Y-146939738D01*
X218242334Y-146932489D01*
X218267089Y-146923257D01*
X218290280Y-146910594D01*
X218299313Y-146911239D01*
X218307800Y-146908075D01*
X218333620Y-146913693D01*
X218359972Y-146915578D01*
X218369027Y-146921398D01*
X218376072Y-146922931D01*
X218404325Y-146944084D01*
X218412832Y-146952592D01*
X218446314Y-147013917D01*
X218441325Y-147083608D01*
X218412829Y-147127947D01*
X218397599Y-147143177D01*
X218397596Y-147143181D01*
X218337970Y-147246453D01*
X218337670Y-147247574D01*
X218307106Y-147361643D01*
X218307106Y-147480893D01*
X218307406Y-147482011D01*
X218337970Y-147596082D01*
X218357034Y-147629100D01*
X218397596Y-147699355D01*
X218481919Y-147783678D01*
X218585193Y-147843304D01*
X218700381Y-147874168D01*
X218700383Y-147874168D01*
X218819629Y-147874168D01*
X218819631Y-147874168D01*
X218934819Y-147843304D01*
X219038093Y-147783678D01*
X219053325Y-147768446D01*
X219114648Y-147734961D01*
X219184340Y-147739945D01*
X219228687Y-147768446D01*
X219243919Y-147783678D01*
X219347193Y-147843304D01*
X219462381Y-147874168D01*
X219462383Y-147874168D01*
X219581629Y-147874168D01*
X219581631Y-147874168D01*
X219696819Y-147843304D01*
X219800093Y-147783678D01*
X219819815Y-147763955D01*
X219881134Y-147730472D01*
X219950825Y-147735455D01*
X219995175Y-147763957D01*
X219999492Y-147768274D01*
X219999493Y-147768275D01*
X220083816Y-147852598D01*
X220187090Y-147912224D01*
X220302278Y-147943088D01*
X220302280Y-147943088D01*
X220421526Y-147943088D01*
X220421528Y-147943088D01*
X220536716Y-147912224D01*
X220639990Y-147852598D01*
X220655222Y-147837366D01*
X220716545Y-147803881D01*
X220786237Y-147808865D01*
X220830584Y-147837366D01*
X220845816Y-147852598D01*
X220949090Y-147912224D01*
X221064278Y-147943088D01*
X221064280Y-147943088D01*
X221183526Y-147943088D01*
X221183528Y-147943088D01*
X221298716Y-147912224D01*
X221401990Y-147852598D01*
X221417222Y-147837366D01*
X221478545Y-147803881D01*
X221548237Y-147808865D01*
X221592584Y-147837366D01*
X221607816Y-147852598D01*
X221711090Y-147912224D01*
X221826278Y-147943088D01*
X221826280Y-147943088D01*
X221945526Y-147943088D01*
X221945528Y-147943088D01*
X222060716Y-147912224D01*
X222163990Y-147852598D01*
X222248313Y-147768275D01*
X222307939Y-147665001D01*
X222338803Y-147549813D01*
X222338803Y-147430563D01*
X222307939Y-147315375D01*
X222248313Y-147212101D01*
X222233081Y-147196869D01*
X222199596Y-147135546D01*
X222204580Y-147065854D01*
X222233081Y-147021507D01*
X222240671Y-147013917D01*
X222248313Y-147006275D01*
X222307939Y-146903001D01*
X222338803Y-146787813D01*
X222338803Y-146668563D01*
X222307939Y-146553375D01*
X222248313Y-146450101D01*
X222163990Y-146365778D01*
X222105274Y-146331878D01*
X222060717Y-146306152D01*
X221994993Y-146288542D01*
X221945528Y-146275288D01*
X221826278Y-146275288D01*
X221711088Y-146306152D01*
X221607816Y-146365778D01*
X221607812Y-146365781D01*
X221592582Y-146381011D01*
X221531258Y-146414495D01*
X221461567Y-146409509D01*
X221417224Y-146381011D01*
X221401993Y-146365781D01*
X221401992Y-146365780D01*
X221401990Y-146365778D01*
X221343274Y-146331878D01*
X221298717Y-146306152D01*
X221232993Y-146288542D01*
X221183528Y-146275288D01*
X221064278Y-146275288D01*
X220949088Y-146306152D01*
X220845816Y-146365778D01*
X220845812Y-146365781D01*
X220830582Y-146381011D01*
X220769258Y-146414495D01*
X220699567Y-146409509D01*
X220655224Y-146381011D01*
X220639993Y-146365781D01*
X220639992Y-146365780D01*
X220639990Y-146365778D01*
X220581274Y-146331878D01*
X220536717Y-146306152D01*
X220470993Y-146288542D01*
X220421528Y-146275288D01*
X220302278Y-146275288D01*
X220187088Y-146306152D01*
X220083816Y-146365778D01*
X220064094Y-146385500D01*
X220056147Y-146389838D01*
X220050724Y-146397084D01*
X220025967Y-146406317D01*
X220002770Y-146418984D01*
X219993740Y-146418337D01*
X219985260Y-146421501D01*
X219959439Y-146415883D01*
X219933078Y-146413998D01*
X219924025Y-146408180D01*
X219916987Y-146406649D01*
X219888733Y-146385498D01*
X219869184Y-146365949D01*
X219835699Y-146304626D01*
X219840683Y-146234934D01*
X219869184Y-146190587D01*
X219874143Y-146185628D01*
X219884416Y-146175355D01*
X219944042Y-146072081D01*
X219974906Y-145956893D01*
X219974906Y-145837643D01*
X219944042Y-145722455D01*
X219884416Y-145619181D01*
X219800093Y-145534858D01*
X219748456Y-145505045D01*
X219696820Y-145475232D01*
X219639225Y-145459800D01*
X219581631Y-145444368D01*
X219462381Y-145444368D01*
X219347191Y-145475232D01*
X219243919Y-145534858D01*
X219243915Y-145534861D01*
X219228685Y-145550091D01*
X219167361Y-145583575D01*
X219097670Y-145578589D01*
X219053327Y-145550091D01*
X219038096Y-145534861D01*
X219038095Y-145534860D01*
X219038093Y-145534858D01*
X218986456Y-145505045D01*
X218934820Y-145475232D01*
X218877225Y-145459800D01*
X218819631Y-145444368D01*
X218700381Y-145444368D01*
X218585191Y-145475232D01*
X218481919Y-145534857D01*
X218394046Y-145622731D01*
X218332722Y-145656215D01*
X218263031Y-145651231D01*
X218218684Y-145622730D01*
X218141088Y-145545134D01*
X218141086Y-145545132D01*
X218089449Y-145515319D01*
X218037813Y-145485506D01*
X217980218Y-145470074D01*
X217922624Y-145454642D01*
X217803374Y-145454642D01*
X217688184Y-145485506D01*
X217584912Y-145545132D01*
X217584908Y-145545135D01*
X217569678Y-145560365D01*
X217508354Y-145593849D01*
X217438663Y-145588863D01*
X217394320Y-145560365D01*
X217379089Y-145545135D01*
X217379088Y-145545134D01*
X217379086Y-145545132D01*
X217327449Y-145515319D01*
X217275813Y-145485506D01*
X217218218Y-145470074D01*
X217160624Y-145454642D01*
X217041374Y-145454642D01*
X216926184Y-145485506D01*
X216822912Y-145545132D01*
X216822908Y-145545135D01*
X216807678Y-145560365D01*
X216746354Y-145593849D01*
X216676663Y-145588863D01*
X216632320Y-145560365D01*
X216617089Y-145545135D01*
X216617088Y-145545134D01*
X216617086Y-145545132D01*
X216565449Y-145515319D01*
X216513813Y-145485506D01*
X216456218Y-145470074D01*
X216398624Y-145454642D01*
X216279374Y-145454642D01*
X216164184Y-145485506D01*
X216060912Y-145545132D01*
X216060909Y-145545134D01*
X215976591Y-145629452D01*
X215976589Y-145629455D01*
X215916963Y-145732727D01*
X215886099Y-145847917D01*
X94114319Y-145847917D01*
X94114319Y-138906147D01*
X98106919Y-138906147D01*
X98106919Y-139181796D01*
X98106920Y-139181813D01*
X98142899Y-139455104D01*
X98214247Y-139721377D01*
X98319736Y-139976049D01*
X98319740Y-139976059D01*
X98457569Y-140214786D01*
X98625381Y-140433483D01*
X98625387Y-140433490D01*
X98820300Y-140628403D01*
X98820307Y-140628409D01*
X99039004Y-140796221D01*
X99277731Y-140934050D01*
X99277732Y-140934050D01*
X99277735Y-140934052D01*
X99532414Y-141039544D01*
X99798683Y-141110891D01*
X100071988Y-141146872D01*
X100071995Y-141146872D01*
X100347643Y-141146872D01*
X100347650Y-141146872D01*
X100620955Y-141110891D01*
X100887224Y-141039544D01*
X101141903Y-140934052D01*
X101182913Y-140910375D01*
X133532100Y-140910375D01*
X133532100Y-141029625D01*
X133534758Y-141039544D01*
X133562964Y-141144814D01*
X133592777Y-141196450D01*
X133622590Y-141248087D01*
X133706913Y-141332410D01*
X133810187Y-141392036D01*
X133925375Y-141422900D01*
X133925377Y-141422900D01*
X134044623Y-141422900D01*
X134044625Y-141422900D01*
X134159813Y-141392036D01*
X134263087Y-141332410D01*
X134347410Y-141248087D01*
X134407036Y-141144813D01*
X134437900Y-141029625D01*
X134437900Y-140910375D01*
X134407036Y-140795187D01*
X134347410Y-140691913D01*
X134263087Y-140607590D01*
X134211450Y-140577777D01*
X134159814Y-140547964D01*
X134102219Y-140532532D01*
X134044625Y-140517100D01*
X133925375Y-140517100D01*
X133810185Y-140547964D01*
X133706913Y-140607590D01*
X133706910Y-140607592D01*
X133622592Y-140691910D01*
X133622590Y-140691913D01*
X133562964Y-140795185D01*
X133532100Y-140910375D01*
X101182913Y-140910375D01*
X101380634Y-140796221D01*
X101599332Y-140628408D01*
X101794255Y-140433485D01*
X101915577Y-140275375D01*
X131500100Y-140275375D01*
X131500100Y-140394624D01*
X131530964Y-140509814D01*
X131535171Y-140517100D01*
X131590590Y-140613087D01*
X131674913Y-140697410D01*
X131778187Y-140757036D01*
X131893375Y-140787900D01*
X131893377Y-140787900D01*
X132012623Y-140787900D01*
X132012625Y-140787900D01*
X132127813Y-140757036D01*
X132231087Y-140697410D01*
X132315410Y-140613087D01*
X132375036Y-140509813D01*
X132405900Y-140394625D01*
X132405900Y-140275375D01*
X132375036Y-140160187D01*
X132315410Y-140056913D01*
X132231087Y-139972590D01*
X132179450Y-139942777D01*
X132127814Y-139912964D01*
X132070219Y-139897532D01*
X132012625Y-139882100D01*
X131893375Y-139882100D01*
X131778185Y-139912964D01*
X131674913Y-139972590D01*
X131674910Y-139972592D01*
X131590592Y-140056910D01*
X131590590Y-140056913D01*
X131530964Y-140160185D01*
X131500100Y-140275375D01*
X101915577Y-140275375D01*
X101962068Y-140214787D01*
X101964973Y-140209754D01*
X101967577Y-140205246D01*
X101967577Y-140205245D01*
X102099897Y-139976059D01*
X102099899Y-139976056D01*
X102205391Y-139721377D01*
X102276738Y-139455108D01*
X102312719Y-139181803D01*
X102312719Y-138906147D01*
X263714919Y-138906147D01*
X263714919Y-139181796D01*
X263714920Y-139181813D01*
X263750899Y-139455104D01*
X263822247Y-139721377D01*
X263927736Y-139976049D01*
X263927740Y-139976059D01*
X264065569Y-140214786D01*
X264233381Y-140433483D01*
X264233387Y-140433490D01*
X264428300Y-140628403D01*
X264428307Y-140628409D01*
X264647004Y-140796221D01*
X264885731Y-140934050D01*
X264885732Y-140934050D01*
X264885735Y-140934052D01*
X265140414Y-141039544D01*
X265406683Y-141110891D01*
X265679988Y-141146872D01*
X265679995Y-141146872D01*
X265955643Y-141146872D01*
X265955650Y-141146872D01*
X266228955Y-141110891D01*
X266495224Y-141039544D01*
X266749903Y-140934052D01*
X266988634Y-140796221D01*
X267207332Y-140628408D01*
X267402255Y-140433485D01*
X267570068Y-140214787D01*
X267707899Y-139976056D01*
X267813391Y-139721377D01*
X267884738Y-139455108D01*
X267920719Y-139181803D01*
X267920719Y-138906141D01*
X267884738Y-138632836D01*
X267813391Y-138366567D01*
X267707899Y-138111888D01*
X267570068Y-137873157D01*
X267402255Y-137654459D01*
X267402250Y-137654453D01*
X267207337Y-137459540D01*
X267207330Y-137459534D01*
X266988633Y-137291722D01*
X266749906Y-137153893D01*
X266749896Y-137153889D01*
X266495224Y-137048400D01*
X266228951Y-136977052D01*
X265955660Y-136941073D01*
X265955655Y-136941072D01*
X265955650Y-136941072D01*
X265679988Y-136941072D01*
X265679982Y-136941072D01*
X265679977Y-136941073D01*
X265406686Y-136977052D01*
X265140413Y-137048400D01*
X264885741Y-137153889D01*
X264885731Y-137153893D01*
X264647004Y-137291722D01*
X264428307Y-137459534D01*
X264428300Y-137459540D01*
X264233387Y-137654453D01*
X264233381Y-137654460D01*
X264065569Y-137873157D01*
X263927740Y-138111884D01*
X263927736Y-138111894D01*
X263822247Y-138366566D01*
X263750899Y-138632839D01*
X263714920Y-138906130D01*
X263714919Y-138906147D01*
X102312719Y-138906147D01*
X102312719Y-138906141D01*
X102276738Y-138632836D01*
X102205391Y-138366567D01*
X102099899Y-138111888D01*
X101962068Y-137873157D01*
X101794255Y-137654459D01*
X101794250Y-137654453D01*
X101599337Y-137459540D01*
X101599330Y-137459534D01*
X101380633Y-137291722D01*
X101141906Y-137153893D01*
X101141896Y-137153889D01*
X100993992Y-137092625D01*
X100887224Y-137048400D01*
X100620955Y-136977053D01*
X100620954Y-136977052D01*
X100620951Y-136977052D01*
X100593021Y-136973375D01*
X127309100Y-136973375D01*
X127309100Y-137092624D01*
X127339964Y-137207814D01*
X127369777Y-137259450D01*
X127399590Y-137311087D01*
X127483913Y-137395410D01*
X127587187Y-137455036D01*
X127702375Y-137485900D01*
X127702377Y-137485900D01*
X127821623Y-137485900D01*
X127821625Y-137485900D01*
X127936813Y-137455036D01*
X128040087Y-137395410D01*
X128124410Y-137311087D01*
X128184036Y-137207813D01*
X128214900Y-137092625D01*
X128214900Y-136973375D01*
X128184036Y-136858187D01*
X128124410Y-136754913D01*
X128040087Y-136670590D01*
X127988450Y-136640777D01*
X127936814Y-136610964D01*
X127867437Y-136592375D01*
X132389100Y-136592375D01*
X132389100Y-136711624D01*
X132419964Y-136826814D01*
X132438077Y-136858185D01*
X132479590Y-136930087D01*
X132563913Y-137014410D01*
X132667187Y-137074036D01*
X132782375Y-137104900D01*
X132782377Y-137104900D01*
X132901623Y-137104900D01*
X132901625Y-137104900D01*
X133016813Y-137074036D01*
X133120087Y-137014410D01*
X133204410Y-136930087D01*
X133264036Y-136826813D01*
X133294900Y-136711625D01*
X133294900Y-136592375D01*
X133264036Y-136477187D01*
X133204410Y-136373913D01*
X133120087Y-136289590D01*
X133068450Y-136259777D01*
X133016814Y-136229964D01*
X132972923Y-136218204D01*
X132901625Y-136199100D01*
X132782375Y-136199100D01*
X132667185Y-136229964D01*
X132563913Y-136289590D01*
X132563910Y-136289592D01*
X132479592Y-136373910D01*
X132479590Y-136373913D01*
X132419964Y-136477185D01*
X132389100Y-136592375D01*
X127867437Y-136592375D01*
X127821625Y-136580100D01*
X127702375Y-136580100D01*
X127587185Y-136610964D01*
X127483913Y-136670590D01*
X127483910Y-136670592D01*
X127399592Y-136754910D01*
X127399590Y-136754913D01*
X127339964Y-136858185D01*
X127309100Y-136973375D01*
X100593021Y-136973375D01*
X100347660Y-136941073D01*
X100347655Y-136941072D01*
X100347650Y-136941072D01*
X100071988Y-136941072D01*
X100071982Y-136941072D01*
X100071977Y-136941073D01*
X99798686Y-136977052D01*
X99532413Y-137048400D01*
X99277741Y-137153889D01*
X99277731Y-137153893D01*
X99039004Y-137291722D01*
X98820307Y-137459534D01*
X98820300Y-137459540D01*
X98625387Y-137654453D01*
X98625381Y-137654460D01*
X98457569Y-137873157D01*
X98319740Y-138111884D01*
X98319736Y-138111894D01*
X98214247Y-138366566D01*
X98142899Y-138632839D01*
X98106920Y-138906130D01*
X98106919Y-138906147D01*
X94114319Y-138906147D01*
X94114319Y-136098954D01*
X148757521Y-136098954D01*
X148757521Y-136218203D01*
X148788385Y-136333393D01*
X148811778Y-136373910D01*
X148848011Y-136436666D01*
X148932334Y-136520989D01*
X149035608Y-136580615D01*
X149150796Y-136611479D01*
X149150798Y-136611479D01*
X149270044Y-136611479D01*
X149270046Y-136611479D01*
X149385234Y-136580615D01*
X149488508Y-136520989D01*
X149572831Y-136436666D01*
X149632457Y-136333392D01*
X149663321Y-136218204D01*
X149663321Y-136098954D01*
X149632457Y-135983766D01*
X149572831Y-135880492D01*
X149488508Y-135796169D01*
X149436871Y-135766356D01*
X149385235Y-135736543D01*
X149327640Y-135721111D01*
X149270046Y-135705679D01*
X149150796Y-135705679D01*
X149035606Y-135736543D01*
X148932334Y-135796169D01*
X148932331Y-135796171D01*
X148848013Y-135880489D01*
X148848011Y-135880492D01*
X148788385Y-135983764D01*
X148757521Y-136098954D01*
X94114319Y-136098954D01*
X94114319Y-132655375D01*
X136199100Y-132655375D01*
X136199100Y-132774625D01*
X136214532Y-132832219D01*
X136229964Y-132889814D01*
X136259777Y-132941450D01*
X136289590Y-132993087D01*
X136373913Y-133077410D01*
X136477187Y-133137036D01*
X136592375Y-133167900D01*
X136592377Y-133167900D01*
X136711623Y-133167900D01*
X136711625Y-133167900D01*
X136728513Y-133163375D01*
X222686100Y-133163375D01*
X222686100Y-133282624D01*
X222716964Y-133397814D01*
X222746777Y-133449450D01*
X222776590Y-133501087D01*
X222860913Y-133585410D01*
X222964187Y-133645036D01*
X223079375Y-133675900D01*
X223079377Y-133675900D01*
X223198623Y-133675900D01*
X223198625Y-133675900D01*
X223313813Y-133645036D01*
X223417087Y-133585410D01*
X223501410Y-133501087D01*
X223561036Y-133397813D01*
X223591900Y-133282625D01*
X223591900Y-133163375D01*
X223561036Y-133048187D01*
X223501410Y-132944913D01*
X223417087Y-132860590D01*
X223365450Y-132830777D01*
X223313814Y-132800964D01*
X223256219Y-132785532D01*
X223198625Y-132770100D01*
X223079375Y-132770100D01*
X222964185Y-132800964D01*
X222860913Y-132860590D01*
X222860910Y-132860592D01*
X222776592Y-132944910D01*
X222776590Y-132944913D01*
X222716964Y-133048185D01*
X222686100Y-133163375D01*
X136728513Y-133163375D01*
X136826813Y-133137036D01*
X136930087Y-133077410D01*
X137014410Y-132993087D01*
X137074036Y-132889813D01*
X137104900Y-132774625D01*
X137104900Y-132655375D01*
X137074036Y-132540187D01*
X137014410Y-132436913D01*
X136930087Y-132352590D01*
X136878450Y-132322777D01*
X136826814Y-132292964D01*
X136769219Y-132277532D01*
X136711625Y-132262100D01*
X136592375Y-132262100D01*
X136477185Y-132292964D01*
X136373913Y-132352590D01*
X136373910Y-132352592D01*
X136289592Y-132436910D01*
X136289590Y-132436913D01*
X136229964Y-132540185D01*
X136199100Y-132655375D01*
X94114319Y-132655375D01*
X94114319Y-129226375D01*
X144835100Y-129226375D01*
X144835100Y-129345624D01*
X144865964Y-129460814D01*
X144895777Y-129512450D01*
X144925590Y-129564087D01*
X145009913Y-129648410D01*
X145113187Y-129708036D01*
X145228375Y-129738900D01*
X145228377Y-129738900D01*
X145347623Y-129738900D01*
X145347625Y-129738900D01*
X145462813Y-129708036D01*
X145566087Y-129648410D01*
X145650410Y-129564087D01*
X145710036Y-129460813D01*
X145740900Y-129345625D01*
X145740900Y-129226375D01*
X145710036Y-129111187D01*
X145650410Y-129007913D01*
X145566087Y-128923590D01*
X145514450Y-128893777D01*
X145462814Y-128863964D01*
X145405219Y-128848532D01*
X145347625Y-128833100D01*
X145228375Y-128833100D01*
X145113185Y-128863964D01*
X145009913Y-128923590D01*
X145009910Y-128923592D01*
X144925592Y-129007910D01*
X144925590Y-129007913D01*
X144865964Y-129111185D01*
X144835100Y-129226375D01*
X94114319Y-129226375D01*
X94114319Y-127321375D01*
X164647100Y-127321375D01*
X164647100Y-127440624D01*
X164677964Y-127555814D01*
X164696077Y-127587185D01*
X164737590Y-127659087D01*
X164821913Y-127743410D01*
X164925187Y-127803036D01*
X165040375Y-127833900D01*
X165040377Y-127833900D01*
X165159623Y-127833900D01*
X165159625Y-127833900D01*
X165274813Y-127803036D01*
X165378087Y-127743410D01*
X165462410Y-127659087D01*
X165522036Y-127555813D01*
X165550823Y-127448375D01*
X238434100Y-127448375D01*
X238434100Y-127567624D01*
X238464964Y-127682814D01*
X238476258Y-127702375D01*
X238524590Y-127786087D01*
X238608913Y-127870410D01*
X238712187Y-127930036D01*
X238827375Y-127960900D01*
X238827377Y-127960900D01*
X238946623Y-127960900D01*
X238946625Y-127960900D01*
X239061813Y-127930036D01*
X239165087Y-127870410D01*
X239249410Y-127786087D01*
X239297742Y-127702375D01*
X251388100Y-127702375D01*
X251388100Y-127821624D01*
X251418964Y-127936814D01*
X251448777Y-127988450D01*
X251478590Y-128040087D01*
X251562913Y-128124410D01*
X251666187Y-128184036D01*
X251781375Y-128214900D01*
X251781377Y-128214900D01*
X251900623Y-128214900D01*
X251900625Y-128214900D01*
X252015813Y-128184036D01*
X252119087Y-128124410D01*
X252203410Y-128040087D01*
X252263036Y-127936813D01*
X252293900Y-127821625D01*
X252293900Y-127702375D01*
X252263036Y-127587187D01*
X252203410Y-127483913D01*
X252119087Y-127399590D01*
X252067450Y-127369777D01*
X252015814Y-127339964D01*
X251946437Y-127321375D01*
X251900625Y-127309100D01*
X251781375Y-127309100D01*
X251666185Y-127339964D01*
X251562913Y-127399590D01*
X251562910Y-127399592D01*
X251478592Y-127483910D01*
X251478590Y-127483913D01*
X251418964Y-127587185D01*
X251388100Y-127702375D01*
X239297742Y-127702375D01*
X239309036Y-127682813D01*
X239339900Y-127567625D01*
X239339900Y-127448375D01*
X239309036Y-127333187D01*
X239249410Y-127229913D01*
X239165087Y-127145590D01*
X239113450Y-127115777D01*
X239061814Y-127085964D01*
X239004219Y-127070532D01*
X238946625Y-127055100D01*
X238827375Y-127055100D01*
X238712185Y-127085964D01*
X238608913Y-127145590D01*
X238608910Y-127145592D01*
X238524592Y-127229910D01*
X238524590Y-127229913D01*
X238464964Y-127333185D01*
X238434100Y-127448375D01*
X165550823Y-127448375D01*
X165552900Y-127440625D01*
X165552900Y-127321375D01*
X165522036Y-127206187D01*
X165462410Y-127102913D01*
X165378087Y-127018590D01*
X165326450Y-126988777D01*
X165274814Y-126958964D01*
X165217219Y-126943532D01*
X165159625Y-126928100D01*
X165040375Y-126928100D01*
X164925185Y-126958964D01*
X164821913Y-127018590D01*
X164821910Y-127018592D01*
X164737592Y-127102910D01*
X164737590Y-127102913D01*
X164677964Y-127206185D01*
X164647100Y-127321375D01*
X94114319Y-127321375D01*
X94114319Y-126305375D01*
X147883100Y-126305375D01*
X147883100Y-126424624D01*
X147913964Y-126539814D01*
X147943777Y-126591450D01*
X147973590Y-126643087D01*
X148057913Y-126727410D01*
X148161187Y-126787036D01*
X148276375Y-126817900D01*
X148276377Y-126817900D01*
X148395623Y-126817900D01*
X148395625Y-126817900D01*
X148510813Y-126787036D01*
X148614087Y-126727410D01*
X148698410Y-126643087D01*
X148758036Y-126539813D01*
X148788900Y-126424625D01*
X148788900Y-126305375D01*
X148758036Y-126190187D01*
X148698410Y-126086913D01*
X148614087Y-126002590D01*
X148549690Y-125965410D01*
X148510814Y-125942964D01*
X148453219Y-125927532D01*
X148395625Y-125912100D01*
X148276375Y-125912100D01*
X148161185Y-125942964D01*
X148057913Y-126002590D01*
X148057910Y-126002592D01*
X147973592Y-126086910D01*
X147973590Y-126086913D01*
X147913964Y-126190185D01*
X147883100Y-126305375D01*
X94114319Y-126305375D01*
X94114319Y-125543375D01*
X164520100Y-125543375D01*
X164520100Y-125662625D01*
X164535532Y-125720219D01*
X164550964Y-125777814D01*
X164567760Y-125806905D01*
X164610590Y-125881087D01*
X164694913Y-125965410D01*
X164798187Y-126025036D01*
X164913375Y-126055900D01*
X164913377Y-126055900D01*
X165032623Y-126055900D01*
X165032625Y-126055900D01*
X165147813Y-126025036D01*
X165251087Y-125965410D01*
X165335410Y-125881087D01*
X165395036Y-125777813D01*
X165396762Y-125771370D01*
X241576139Y-125771370D01*
X241576139Y-125890620D01*
X241590164Y-125942964D01*
X241607003Y-126005809D01*
X241618104Y-126025036D01*
X241666629Y-126109082D01*
X241750952Y-126193405D01*
X241854226Y-126253031D01*
X241969414Y-126283895D01*
X241969416Y-126283895D01*
X242088662Y-126283895D01*
X242088664Y-126283895D01*
X242203852Y-126253031D01*
X242307126Y-126193405D01*
X242391449Y-126109082D01*
X242439781Y-126025370D01*
X254530139Y-126025370D01*
X254530139Y-126144619D01*
X254561003Y-126259809D01*
X254587311Y-126305375D01*
X254620629Y-126363082D01*
X254704952Y-126447405D01*
X254808226Y-126507031D01*
X254923414Y-126537895D01*
X254923416Y-126537895D01*
X255042662Y-126537895D01*
X255042664Y-126537895D01*
X255157852Y-126507031D01*
X255261126Y-126447405D01*
X255345449Y-126363082D01*
X255405075Y-126259808D01*
X255435939Y-126144620D01*
X255435939Y-126025370D01*
X255405075Y-125910182D01*
X255345449Y-125806908D01*
X255261126Y-125722585D01*
X255209489Y-125692772D01*
X255157853Y-125662959D01*
X255100258Y-125647527D01*
X255042664Y-125632095D01*
X254923414Y-125632095D01*
X254808224Y-125662959D01*
X254704952Y-125722585D01*
X254704949Y-125722587D01*
X254620631Y-125806905D01*
X254620629Y-125806908D01*
X254561003Y-125910180D01*
X254530139Y-126025370D01*
X242439781Y-126025370D01*
X242451075Y-126005808D01*
X242481939Y-125890620D01*
X242481939Y-125771370D01*
X242451075Y-125656182D01*
X242391449Y-125552908D01*
X242307126Y-125468585D01*
X242255489Y-125438772D01*
X242203853Y-125408959D01*
X242146258Y-125393527D01*
X242088664Y-125378095D01*
X241969414Y-125378095D01*
X241854224Y-125408959D01*
X241750952Y-125468585D01*
X241750949Y-125468587D01*
X241666631Y-125552905D01*
X241666629Y-125552908D01*
X241607003Y-125656180D01*
X241589210Y-125722587D01*
X241576139Y-125771370D01*
X165396762Y-125771370D01*
X165425900Y-125662625D01*
X165425900Y-125543375D01*
X165395036Y-125428187D01*
X165335410Y-125324913D01*
X165251087Y-125240590D01*
X165199450Y-125210777D01*
X165147814Y-125180964D01*
X165090219Y-125165532D01*
X165032625Y-125150100D01*
X164913375Y-125150100D01*
X164798185Y-125180964D01*
X164694913Y-125240590D01*
X164694910Y-125240592D01*
X164610592Y-125324910D01*
X164610590Y-125324913D01*
X164550964Y-125428185D01*
X164540139Y-125468587D01*
X164520100Y-125543375D01*
X94114319Y-125543375D01*
X94114319Y-124335840D01*
X141152100Y-124335840D01*
X141152100Y-124455089D01*
X141182964Y-124570279D01*
X141212777Y-124621915D01*
X141242590Y-124673552D01*
X141326913Y-124757875D01*
X141430187Y-124817501D01*
X141545375Y-124848365D01*
X141545377Y-124848365D01*
X141664623Y-124848365D01*
X141664625Y-124848365D01*
X141779813Y-124817501D01*
X141883087Y-124757875D01*
X141967410Y-124673552D01*
X142027036Y-124570278D01*
X142057900Y-124455090D01*
X142057900Y-124335840D01*
X142027036Y-124220652D01*
X141967410Y-124117378D01*
X141883087Y-124033055D01*
X141813773Y-123993036D01*
X141779814Y-123973429D01*
X141722219Y-123957997D01*
X141664625Y-123942565D01*
X141545375Y-123942565D01*
X141430185Y-123973429D01*
X141326913Y-124033055D01*
X141326910Y-124033057D01*
X141242592Y-124117375D01*
X141242590Y-124117378D01*
X141182964Y-124220650D01*
X141152100Y-124335840D01*
X94114319Y-124335840D01*
X94114319Y-123765375D01*
X121152850Y-123765375D01*
X121152850Y-123884625D01*
X121156903Y-123899750D01*
X121183714Y-123999814D01*
X121213527Y-124051450D01*
X121243340Y-124103087D01*
X121327663Y-124187410D01*
X121430937Y-124247036D01*
X121546125Y-124277900D01*
X121546127Y-124277900D01*
X121665373Y-124277900D01*
X121665375Y-124277900D01*
X121780563Y-124247036D01*
X121883837Y-124187410D01*
X121968160Y-124103087D01*
X122027786Y-123999813D01*
X122058650Y-123884625D01*
X122058650Y-123765375D01*
X122027786Y-123650187D01*
X121968160Y-123546913D01*
X121883837Y-123462590D01*
X121819440Y-123425410D01*
X121780564Y-123402964D01*
X121711187Y-123384375D01*
X123118100Y-123384375D01*
X123118100Y-123503625D01*
X123129698Y-123546910D01*
X123148964Y-123618814D01*
X123178777Y-123670450D01*
X123208590Y-123722087D01*
X123292913Y-123806410D01*
X123396187Y-123866036D01*
X123511375Y-123896900D01*
X123511377Y-123896900D01*
X123630623Y-123896900D01*
X123630625Y-123896900D01*
X123745813Y-123866036D01*
X123849087Y-123806410D01*
X123933410Y-123722087D01*
X123993036Y-123618813D01*
X124023900Y-123503625D01*
X124023900Y-123418089D01*
X138010814Y-123418089D01*
X138010814Y-123537339D01*
X138014852Y-123552409D01*
X138041678Y-123652528D01*
X138071491Y-123704164D01*
X138101304Y-123755801D01*
X138185627Y-123840124D01*
X138288901Y-123899750D01*
X138404089Y-123930614D01*
X138404091Y-123930614D01*
X138523337Y-123930614D01*
X138523339Y-123930614D01*
X138638527Y-123899750D01*
X138741801Y-123840124D01*
X138826124Y-123755801D01*
X138885750Y-123652527D01*
X138916614Y-123537339D01*
X138916614Y-123418089D01*
X138885750Y-123302901D01*
X138826124Y-123199627D01*
X138756872Y-123130375D01*
X172883688Y-123130375D01*
X172883688Y-123249624D01*
X172914552Y-123364814D01*
X172918759Y-123372100D01*
X172974178Y-123468087D01*
X173058501Y-123552410D01*
X173161775Y-123612036D01*
X173276963Y-123642900D01*
X173276965Y-123642900D01*
X173396211Y-123642900D01*
X173396213Y-123642900D01*
X173511401Y-123612036D01*
X173614675Y-123552410D01*
X173698998Y-123468087D01*
X173758624Y-123364813D01*
X173789488Y-123249625D01*
X173789488Y-123130375D01*
X187615688Y-123130375D01*
X187615688Y-123249624D01*
X187646552Y-123364814D01*
X187650759Y-123372100D01*
X187706178Y-123468087D01*
X187790501Y-123552410D01*
X187893775Y-123612036D01*
X188008963Y-123642900D01*
X188008965Y-123642900D01*
X188128211Y-123642900D01*
X188128213Y-123642900D01*
X188243401Y-123612036D01*
X188346675Y-123552410D01*
X188430998Y-123468087D01*
X188490624Y-123364813D01*
X188521488Y-123249625D01*
X188521488Y-123130375D01*
X199350189Y-123130375D01*
X199350189Y-123249624D01*
X199381053Y-123364814D01*
X199385260Y-123372100D01*
X199440679Y-123468087D01*
X199525002Y-123552410D01*
X199628276Y-123612036D01*
X199743464Y-123642900D01*
X199743466Y-123642900D01*
X199862712Y-123642900D01*
X199862714Y-123642900D01*
X199977902Y-123612036D01*
X200081176Y-123552410D01*
X200165499Y-123468087D01*
X200225125Y-123364813D01*
X200255989Y-123249625D01*
X200255989Y-123130375D01*
X200225125Y-123015187D01*
X200218305Y-123003375D01*
X211161189Y-123003375D01*
X211161189Y-123122625D01*
X211172787Y-123165910D01*
X211192053Y-123237814D01*
X211210166Y-123269185D01*
X211251679Y-123341087D01*
X211336002Y-123425410D01*
X211439276Y-123485036D01*
X211554464Y-123515900D01*
X211554466Y-123515900D01*
X211673712Y-123515900D01*
X211673714Y-123515900D01*
X211690602Y-123511375D01*
X223492187Y-123511375D01*
X223492187Y-123630624D01*
X223523051Y-123745814D01*
X223534345Y-123765375D01*
X223582677Y-123849087D01*
X223667000Y-123933410D01*
X223770274Y-123993036D01*
X223885462Y-124023900D01*
X223885464Y-124023900D01*
X224004710Y-124023900D01*
X224004712Y-124023900D01*
X224119900Y-123993036D01*
X224223174Y-123933410D01*
X224307497Y-123849087D01*
X224367123Y-123745813D01*
X224397987Y-123630625D01*
X224397987Y-123511375D01*
X224367123Y-123396187D01*
X224307497Y-123292913D01*
X224223174Y-123208590D01*
X224158777Y-123171410D01*
X224119901Y-123148964D01*
X224050524Y-123130375D01*
X224004712Y-123118100D01*
X223885462Y-123118100D01*
X223770272Y-123148964D01*
X223667000Y-123208590D01*
X223666997Y-123208592D01*
X223582679Y-123292910D01*
X223582677Y-123292913D01*
X223523051Y-123396185D01*
X223492187Y-123511375D01*
X211690602Y-123511375D01*
X211788902Y-123485036D01*
X211892176Y-123425410D01*
X211976499Y-123341087D01*
X212036125Y-123237813D01*
X212066989Y-123122625D01*
X212066989Y-123003375D01*
X212036125Y-122888187D01*
X211976499Y-122784913D01*
X211892176Y-122700590D01*
X211840539Y-122670777D01*
X211788903Y-122640964D01*
X211731308Y-122625532D01*
X211673714Y-122610100D01*
X211554464Y-122610100D01*
X211439274Y-122640964D01*
X211336002Y-122700590D01*
X211335999Y-122700592D01*
X211251681Y-122784910D01*
X211251679Y-122784913D01*
X211192053Y-122888185D01*
X211166430Y-122983814D01*
X211161189Y-123003375D01*
X200218305Y-123003375D01*
X200165499Y-122911913D01*
X200081176Y-122827590D01*
X200029539Y-122797777D01*
X199977903Y-122767964D01*
X199908526Y-122749375D01*
X199862714Y-122737100D01*
X199743464Y-122737100D01*
X199628274Y-122767964D01*
X199525002Y-122827590D01*
X199524999Y-122827592D01*
X199440681Y-122911910D01*
X199440679Y-122911913D01*
X199381053Y-123015185D01*
X199350189Y-123130375D01*
X188521488Y-123130375D01*
X188490624Y-123015187D01*
X188430998Y-122911913D01*
X188346675Y-122827590D01*
X188295038Y-122797777D01*
X188243402Y-122767964D01*
X188174025Y-122749375D01*
X188128213Y-122737100D01*
X188008963Y-122737100D01*
X187893773Y-122767964D01*
X187790501Y-122827590D01*
X187790498Y-122827592D01*
X187706180Y-122911910D01*
X187706178Y-122911913D01*
X187646552Y-123015185D01*
X187615688Y-123130375D01*
X173789488Y-123130375D01*
X173758624Y-123015187D01*
X173698998Y-122911913D01*
X173614675Y-122827590D01*
X173563038Y-122797777D01*
X173511402Y-122767964D01*
X173442025Y-122749375D01*
X173396213Y-122737100D01*
X173276963Y-122737100D01*
X173161773Y-122767964D01*
X173058501Y-122827590D01*
X173058498Y-122827592D01*
X172974180Y-122911910D01*
X172974178Y-122911913D01*
X172914552Y-123015185D01*
X172883688Y-123130375D01*
X138756872Y-123130375D01*
X138741801Y-123115304D01*
X138683407Y-123081590D01*
X138638528Y-123055678D01*
X138580933Y-123040246D01*
X138523339Y-123024814D01*
X138404089Y-123024814D01*
X138288899Y-123055678D01*
X138185627Y-123115304D01*
X138185624Y-123115306D01*
X138101306Y-123199624D01*
X138101304Y-123199627D01*
X138041678Y-123302899D01*
X138014867Y-123402964D01*
X138010814Y-123418089D01*
X124023900Y-123418089D01*
X124023900Y-123384375D01*
X123993036Y-123269187D01*
X123933410Y-123165913D01*
X123849087Y-123081590D01*
X123797450Y-123051777D01*
X123745814Y-123021964D01*
X123673070Y-123002473D01*
X123630625Y-122991100D01*
X123511375Y-122991100D01*
X123396185Y-123021964D01*
X123292913Y-123081590D01*
X123292910Y-123081592D01*
X123208592Y-123165910D01*
X123208590Y-123165913D01*
X123148964Y-123269185D01*
X123123341Y-123364814D01*
X123118100Y-123384375D01*
X121711187Y-123384375D01*
X121665375Y-123372100D01*
X121546125Y-123372100D01*
X121430935Y-123402964D01*
X121327663Y-123462590D01*
X121327660Y-123462592D01*
X121243342Y-123546910D01*
X121243340Y-123546913D01*
X121183714Y-123650185D01*
X121158091Y-123745814D01*
X121152850Y-123765375D01*
X94114319Y-123765375D01*
X94114319Y-122749375D01*
X102163100Y-122749375D01*
X102163100Y-122868624D01*
X102193964Y-122983814D01*
X102212077Y-123015185D01*
X102253590Y-123087087D01*
X102337913Y-123171410D01*
X102441187Y-123231036D01*
X102556375Y-123261900D01*
X102556377Y-123261900D01*
X102675623Y-123261900D01*
X102675625Y-123261900D01*
X102790813Y-123231036D01*
X102894087Y-123171410D01*
X102978410Y-123087087D01*
X103038036Y-122983813D01*
X103068900Y-122868625D01*
X103068900Y-122749375D01*
X103038036Y-122634187D01*
X102978410Y-122530913D01*
X102942872Y-122495375D01*
X140009100Y-122495375D01*
X140009100Y-122614625D01*
X140024532Y-122672219D01*
X140039964Y-122729814D01*
X140044171Y-122737100D01*
X140099590Y-122833087D01*
X140183913Y-122917410D01*
X140287187Y-122977036D01*
X140402375Y-123007900D01*
X140402377Y-123007900D01*
X140521623Y-123007900D01*
X140521625Y-123007900D01*
X140636813Y-122977036D01*
X140740087Y-122917410D01*
X140824410Y-122833087D01*
X140884036Y-122729813D01*
X140914900Y-122614625D01*
X140914900Y-122495375D01*
X140884036Y-122380187D01*
X140824410Y-122276913D01*
X140740087Y-122192590D01*
X140636813Y-122132964D01*
X140521625Y-122102100D01*
X140402375Y-122102100D01*
X140287185Y-122132964D01*
X140183913Y-122192590D01*
X140183910Y-122192592D01*
X140099592Y-122276910D01*
X140099590Y-122276913D01*
X140039964Y-122380185D01*
X140022171Y-122446592D01*
X140009100Y-122495375D01*
X102942872Y-122495375D01*
X102894087Y-122446590D01*
X102842450Y-122416777D01*
X102790814Y-122386964D01*
X102733219Y-122371532D01*
X102675625Y-122356100D01*
X102556375Y-122356100D01*
X102441185Y-122386964D01*
X102337913Y-122446590D01*
X102337910Y-122446592D01*
X102253592Y-122530910D01*
X102253590Y-122530913D01*
X102193964Y-122634185D01*
X102163100Y-122749375D01*
X94114319Y-122749375D01*
X94114319Y-122056126D01*
X147951851Y-122056126D01*
X147951851Y-122175376D01*
X147956464Y-122192592D01*
X147982715Y-122290565D01*
X148012528Y-122342201D01*
X148042341Y-122393838D01*
X148126664Y-122478161D01*
X148229938Y-122537787D01*
X148345126Y-122568651D01*
X148345128Y-122568651D01*
X148464374Y-122568651D01*
X148464376Y-122568651D01*
X148579564Y-122537787D01*
X148682838Y-122478161D01*
X148767161Y-122393838D01*
X148826787Y-122290564D01*
X148857651Y-122175376D01*
X148857651Y-122056126D01*
X148826787Y-121940938D01*
X148767161Y-121837664D01*
X148682838Y-121753341D01*
X148631201Y-121723528D01*
X148579565Y-121693715D01*
X148521970Y-121678283D01*
X148464376Y-121662851D01*
X148345126Y-121662851D01*
X148229936Y-121693715D01*
X148126664Y-121753341D01*
X148126661Y-121753343D01*
X148042343Y-121837661D01*
X148042341Y-121837664D01*
X147982715Y-121940936D01*
X147951851Y-122056126D01*
X94114319Y-122056126D01*
X94114319Y-118685375D01*
X135564100Y-118685375D01*
X135564100Y-118804625D01*
X135579532Y-118862219D01*
X135594964Y-118919814D01*
X135624777Y-118971450D01*
X135654590Y-119023087D01*
X135738913Y-119107410D01*
X135842187Y-119167036D01*
X135957375Y-119197900D01*
X135957377Y-119197900D01*
X136076623Y-119197900D01*
X136076625Y-119197900D01*
X136093513Y-119193375D01*
X151820100Y-119193375D01*
X151820100Y-119312624D01*
X151850964Y-119427814D01*
X151880777Y-119479450D01*
X151910590Y-119531087D01*
X151994913Y-119615410D01*
X152098187Y-119675036D01*
X152213375Y-119705900D01*
X152213377Y-119705900D01*
X152332623Y-119705900D01*
X152332625Y-119705900D01*
X152447813Y-119675036D01*
X152551087Y-119615410D01*
X152635410Y-119531087D01*
X152695036Y-119427813D01*
X152725900Y-119312625D01*
X152725900Y-119193375D01*
X152695036Y-119078187D01*
X152635410Y-118974913D01*
X152551087Y-118890590D01*
X152499450Y-118860777D01*
X152447814Y-118830964D01*
X152390219Y-118815532D01*
X152332625Y-118800100D01*
X152213375Y-118800100D01*
X152098185Y-118830964D01*
X151994913Y-118890590D01*
X151994910Y-118890592D01*
X151910592Y-118974910D01*
X151910590Y-118974913D01*
X151850964Y-119078185D01*
X151820100Y-119193375D01*
X136093513Y-119193375D01*
X136191813Y-119167036D01*
X136295087Y-119107410D01*
X136379410Y-119023087D01*
X136439036Y-118919813D01*
X136469900Y-118804625D01*
X136469900Y-118685375D01*
X136439036Y-118570187D01*
X136379410Y-118466913D01*
X136295087Y-118382590D01*
X136243450Y-118352777D01*
X136191814Y-118322964D01*
X136134219Y-118307532D01*
X136076625Y-118292100D01*
X135957375Y-118292100D01*
X135842185Y-118322964D01*
X135738913Y-118382590D01*
X135738910Y-118382592D01*
X135654592Y-118466910D01*
X135654590Y-118466913D01*
X135594964Y-118570185D01*
X135564100Y-118685375D01*
X94114319Y-118685375D01*
X94114319Y-117161375D01*
X106100100Y-117161375D01*
X106100100Y-117280624D01*
X106130964Y-117395814D01*
X106160777Y-117447450D01*
X106190590Y-117499087D01*
X106274913Y-117583410D01*
X106378187Y-117643036D01*
X106493375Y-117673900D01*
X106493377Y-117673900D01*
X106612623Y-117673900D01*
X106612625Y-117673900D01*
X106727813Y-117643036D01*
X106831087Y-117583410D01*
X106915410Y-117499087D01*
X106975036Y-117395813D01*
X107005900Y-117280625D01*
X107005900Y-117161375D01*
X106975036Y-117046187D01*
X106915410Y-116942913D01*
X106831087Y-116858590D01*
X106779450Y-116828777D01*
X106727814Y-116798964D01*
X106670219Y-116783532D01*
X106612625Y-116768100D01*
X106493375Y-116768100D01*
X106378185Y-116798964D01*
X106274913Y-116858590D01*
X106274910Y-116858592D01*
X106190592Y-116942910D01*
X106190590Y-116942913D01*
X106130964Y-117046185D01*
X106100100Y-117161375D01*
X94114319Y-117161375D01*
X94114319Y-115891375D01*
X107370100Y-115891375D01*
X107370100Y-116010624D01*
X107400964Y-116125814D01*
X107430777Y-116177450D01*
X107460590Y-116229087D01*
X107544913Y-116313410D01*
X107648187Y-116373036D01*
X107763375Y-116403900D01*
X107763377Y-116403900D01*
X107882623Y-116403900D01*
X107882625Y-116403900D01*
X107997813Y-116373036D01*
X108101087Y-116313410D01*
X108185410Y-116229087D01*
X108245036Y-116125813D01*
X108275900Y-116010625D01*
X108275900Y-115891375D01*
X108245036Y-115776187D01*
X108185410Y-115672913D01*
X108101087Y-115588590D01*
X108041718Y-115554313D01*
X107997814Y-115528964D01*
X107940219Y-115513532D01*
X107882625Y-115498100D01*
X107763375Y-115498100D01*
X107648185Y-115528964D01*
X107544913Y-115588590D01*
X107544910Y-115588592D01*
X107460592Y-115672910D01*
X107460590Y-115672913D01*
X107400964Y-115776185D01*
X107370100Y-115891375D01*
X94114319Y-115891375D01*
X94114319Y-115319875D01*
X120915887Y-115319875D01*
X120915887Y-115439125D01*
X120921907Y-115461592D01*
X120946751Y-115554314D01*
X120966541Y-115588590D01*
X121006377Y-115657587D01*
X121090700Y-115741910D01*
X121193974Y-115801536D01*
X121309162Y-115832400D01*
X121309164Y-115832400D01*
X121428410Y-115832400D01*
X121428412Y-115832400D01*
X121543600Y-115801536D01*
X121607964Y-115764375D01*
X169727100Y-115764375D01*
X169727100Y-115883624D01*
X169757964Y-115998814D01*
X169787777Y-116050450D01*
X169817590Y-116102087D01*
X169901913Y-116186410D01*
X170005187Y-116246036D01*
X170120375Y-116276900D01*
X170120377Y-116276900D01*
X170239623Y-116276900D01*
X170239625Y-116276900D01*
X170354813Y-116246036D01*
X170458087Y-116186410D01*
X170542410Y-116102087D01*
X170602036Y-115998813D01*
X170632900Y-115883625D01*
X170632900Y-115764375D01*
X170602036Y-115649187D01*
X170542410Y-115545913D01*
X170458087Y-115461590D01*
X170406450Y-115431777D01*
X170354814Y-115401964D01*
X170297219Y-115386532D01*
X170239625Y-115371100D01*
X170120375Y-115371100D01*
X170005185Y-115401964D01*
X169901913Y-115461590D01*
X169901910Y-115461592D01*
X169817592Y-115545910D01*
X169817590Y-115545913D01*
X169757964Y-115649185D01*
X169727100Y-115764375D01*
X121607964Y-115764375D01*
X121646874Y-115741910D01*
X121731197Y-115657587D01*
X121790823Y-115554313D01*
X121821687Y-115439125D01*
X121821687Y-115319875D01*
X121790823Y-115204687D01*
X121731197Y-115101413D01*
X121646874Y-115017090D01*
X121595237Y-114987277D01*
X121543601Y-114957464D01*
X121486006Y-114942032D01*
X121428412Y-114926600D01*
X121309162Y-114926600D01*
X121193972Y-114957464D01*
X121090700Y-115017090D01*
X121090697Y-115017092D01*
X121006379Y-115101410D01*
X121006377Y-115101413D01*
X120946751Y-115204685D01*
X120915887Y-115319875D01*
X94114319Y-115319875D01*
X94114319Y-112081375D01*
X117911100Y-112081375D01*
X117911100Y-112200624D01*
X117941964Y-112315814D01*
X117971777Y-112367450D01*
X118001590Y-112419087D01*
X118085913Y-112503410D01*
X118189187Y-112563036D01*
X118304375Y-112593900D01*
X118304377Y-112593900D01*
X118423623Y-112593900D01*
X118423625Y-112593900D01*
X118538813Y-112563036D01*
X118642087Y-112503410D01*
X118726410Y-112419087D01*
X118786036Y-112315813D01*
X118816900Y-112200625D01*
X118816900Y-112081375D01*
X118786036Y-111966187D01*
X118726410Y-111862913D01*
X118642087Y-111778590D01*
X118590450Y-111748777D01*
X118538814Y-111718964D01*
X118481219Y-111703532D01*
X118423625Y-111688100D01*
X118304375Y-111688100D01*
X118189185Y-111718964D01*
X118085913Y-111778590D01*
X118085910Y-111778592D01*
X118001592Y-111862910D01*
X118001590Y-111862913D01*
X117941964Y-111966185D01*
X117911100Y-112081375D01*
X94114319Y-112081375D01*
X94114319Y-111573375D01*
X210240100Y-111573375D01*
X210240100Y-111692625D01*
X210255532Y-111750219D01*
X210270964Y-111807814D01*
X210300777Y-111859450D01*
X210330590Y-111911087D01*
X210414913Y-111995410D01*
X210518187Y-112055036D01*
X210633375Y-112085900D01*
X210633377Y-112085900D01*
X210752623Y-112085900D01*
X210752625Y-112085900D01*
X210867813Y-112055036D01*
X210971087Y-111995410D01*
X211055410Y-111911087D01*
X211115036Y-111807813D01*
X211145900Y-111692625D01*
X211145900Y-111573375D01*
X211115036Y-111458187D01*
X211055410Y-111354913D01*
X210971087Y-111270590D01*
X210919450Y-111240777D01*
X210867814Y-111210964D01*
X210797261Y-111192060D01*
X210752625Y-111180100D01*
X210633375Y-111180100D01*
X210518185Y-111210964D01*
X210414913Y-111270590D01*
X210414910Y-111270592D01*
X210330592Y-111354910D01*
X210330590Y-111354913D01*
X210270964Y-111458185D01*
X210240100Y-111573375D01*
X94114319Y-111573375D01*
X94114319Y-110975496D01*
X137778554Y-110975496D01*
X137778554Y-111094745D01*
X137809418Y-111209935D01*
X137833524Y-111251686D01*
X137869044Y-111313208D01*
X137953367Y-111397531D01*
X138056641Y-111457157D01*
X138171829Y-111488021D01*
X138171831Y-111488021D01*
X138291077Y-111488021D01*
X138291079Y-111488021D01*
X138406267Y-111457157D01*
X138509541Y-111397531D01*
X138593864Y-111313208D01*
X138653490Y-111209934D01*
X138684354Y-111094746D01*
X138684354Y-111065375D01*
X228782100Y-111065375D01*
X228782100Y-111184625D01*
X228797532Y-111242219D01*
X228812964Y-111299814D01*
X228842777Y-111351450D01*
X228872590Y-111403087D01*
X228956913Y-111487410D01*
X229060187Y-111547036D01*
X229175375Y-111577900D01*
X229175377Y-111577900D01*
X229294623Y-111577900D01*
X229294625Y-111577900D01*
X229409813Y-111547036D01*
X229513087Y-111487410D01*
X229597410Y-111403087D01*
X229657036Y-111299813D01*
X229687900Y-111184625D01*
X229687900Y-111065375D01*
X229657036Y-110950187D01*
X229597410Y-110846913D01*
X229520523Y-110770026D01*
X230713681Y-110770026D01*
X230713681Y-110889275D01*
X230744545Y-111004465D01*
X230744546Y-111004466D01*
X230804171Y-111107738D01*
X230888494Y-111192061D01*
X230991768Y-111251687D01*
X231106956Y-111282551D01*
X231106958Y-111282551D01*
X231226204Y-111282551D01*
X231226206Y-111282551D01*
X231341394Y-111251687D01*
X231444668Y-111192061D01*
X231528991Y-111107738D01*
X231553450Y-111065375D01*
X241609100Y-111065375D01*
X241609100Y-111184625D01*
X241624532Y-111242219D01*
X241639964Y-111299814D01*
X241669777Y-111351450D01*
X241699590Y-111403087D01*
X241783913Y-111487410D01*
X241887187Y-111547036D01*
X242002375Y-111577900D01*
X242002377Y-111577900D01*
X242121623Y-111577900D01*
X242121625Y-111577900D01*
X242236813Y-111547036D01*
X242340087Y-111487410D01*
X242424410Y-111403087D01*
X242484036Y-111299813D01*
X242514900Y-111184625D01*
X242514900Y-111065375D01*
X242484036Y-110950187D01*
X242424410Y-110846913D01*
X242347523Y-110770026D01*
X243545826Y-110770026D01*
X243545826Y-110889275D01*
X243576690Y-111004465D01*
X243576691Y-111004466D01*
X243636316Y-111107738D01*
X243720639Y-111192061D01*
X243823913Y-111251687D01*
X243939101Y-111282551D01*
X243939103Y-111282551D01*
X244058349Y-111282551D01*
X244058351Y-111282551D01*
X244173539Y-111251687D01*
X244276813Y-111192061D01*
X244361136Y-111107738D01*
X244402068Y-111036843D01*
X254133859Y-111036843D01*
X254133859Y-111156093D01*
X254148285Y-111209934D01*
X254164723Y-111271282D01*
X254188929Y-111313207D01*
X254224349Y-111374555D01*
X254308672Y-111458878D01*
X254411946Y-111518504D01*
X254527134Y-111549368D01*
X254527136Y-111549368D01*
X254646382Y-111549368D01*
X254646384Y-111549368D01*
X254761572Y-111518504D01*
X254864846Y-111458878D01*
X254949169Y-111374555D01*
X255008795Y-111271281D01*
X255039659Y-111156093D01*
X255039659Y-111036843D01*
X255008795Y-110921655D01*
X254952354Y-110823897D01*
X254949173Y-110818387D01*
X254949170Y-110818384D01*
X254949169Y-110818381D01*
X254900814Y-110770026D01*
X256053470Y-110770026D01*
X256053470Y-110889275D01*
X256084334Y-111004465D01*
X256084335Y-111004466D01*
X256143960Y-111107738D01*
X256228283Y-111192061D01*
X256331557Y-111251687D01*
X256446745Y-111282551D01*
X256446747Y-111282551D01*
X256565993Y-111282551D01*
X256565995Y-111282551D01*
X256681183Y-111251687D01*
X256784457Y-111192061D01*
X256868780Y-111107738D01*
X256928406Y-111004464D01*
X256959270Y-110889276D01*
X256959270Y-110770026D01*
X256928406Y-110654838D01*
X256868780Y-110551564D01*
X256784457Y-110467241D01*
X256732820Y-110437428D01*
X256681184Y-110407615D01*
X256623589Y-110392183D01*
X256565995Y-110376751D01*
X256446745Y-110376751D01*
X256331555Y-110407615D01*
X256228283Y-110467241D01*
X256228280Y-110467243D01*
X256143962Y-110551561D01*
X256143960Y-110551564D01*
X256084334Y-110654836D01*
X256053470Y-110770026D01*
X254900814Y-110770026D01*
X254864846Y-110734058D01*
X254810990Y-110702964D01*
X254761573Y-110674432D01*
X254688437Y-110654836D01*
X254646384Y-110643568D01*
X254527134Y-110643568D01*
X254411944Y-110674432D01*
X254308672Y-110734058D01*
X254308669Y-110734060D01*
X254224351Y-110818378D01*
X254224349Y-110818381D01*
X254164723Y-110921653D01*
X254142534Y-111004466D01*
X254133859Y-111036843D01*
X244402068Y-111036843D01*
X244420762Y-111004464D01*
X244451626Y-110889276D01*
X244451626Y-110770026D01*
X244420762Y-110654838D01*
X244361136Y-110551564D01*
X244276813Y-110467241D01*
X244225176Y-110437428D01*
X244173540Y-110407615D01*
X244115945Y-110392183D01*
X244058351Y-110376751D01*
X243939101Y-110376751D01*
X243823911Y-110407615D01*
X243720639Y-110467241D01*
X243720636Y-110467243D01*
X243636318Y-110551561D01*
X243636316Y-110551564D01*
X243576690Y-110654836D01*
X243545826Y-110770026D01*
X242347523Y-110770026D01*
X242340087Y-110762590D01*
X242288450Y-110732777D01*
X242236814Y-110702964D01*
X242179219Y-110687532D01*
X242121625Y-110672100D01*
X242002375Y-110672100D01*
X241887185Y-110702964D01*
X241783913Y-110762590D01*
X241783910Y-110762592D01*
X241699592Y-110846910D01*
X241699590Y-110846913D01*
X241639964Y-110950185D01*
X241625420Y-111004466D01*
X241609100Y-111065375D01*
X231553450Y-111065375D01*
X231588617Y-111004464D01*
X231619481Y-110889276D01*
X231619481Y-110770026D01*
X231588617Y-110654838D01*
X231528991Y-110551564D01*
X231444668Y-110467241D01*
X231393031Y-110437428D01*
X231341395Y-110407615D01*
X231283800Y-110392183D01*
X231226206Y-110376751D01*
X231106956Y-110376751D01*
X230991766Y-110407615D01*
X230888494Y-110467241D01*
X230888491Y-110467243D01*
X230804173Y-110551561D01*
X230804171Y-110551564D01*
X230744545Y-110654836D01*
X230713681Y-110770026D01*
X229520523Y-110770026D01*
X229513087Y-110762590D01*
X229461450Y-110732777D01*
X229409814Y-110702964D01*
X229352219Y-110687532D01*
X229294625Y-110672100D01*
X229175375Y-110672100D01*
X229060185Y-110702964D01*
X228956913Y-110762590D01*
X228956910Y-110762592D01*
X228872592Y-110846910D01*
X228872590Y-110846913D01*
X228812964Y-110950185D01*
X228798420Y-111004466D01*
X228782100Y-111065375D01*
X138684354Y-111065375D01*
X138684354Y-110975496D01*
X138653490Y-110860308D01*
X138593864Y-110757034D01*
X138509541Y-110672711D01*
X138457904Y-110642898D01*
X138406268Y-110613085D01*
X138348673Y-110597653D01*
X138291079Y-110582221D01*
X138171829Y-110582221D01*
X138056639Y-110613085D01*
X137953367Y-110672711D01*
X137953364Y-110672713D01*
X137869046Y-110757031D01*
X137869044Y-110757034D01*
X137809418Y-110860306D01*
X137778554Y-110975496D01*
X94114319Y-110975496D01*
X94114319Y-109160375D01*
X233862100Y-109160375D01*
X233862100Y-109279624D01*
X233892964Y-109394814D01*
X233922777Y-109446450D01*
X233952590Y-109498087D01*
X234036913Y-109582410D01*
X234140187Y-109642036D01*
X234255375Y-109672900D01*
X234255377Y-109672900D01*
X234374623Y-109672900D01*
X234374625Y-109672900D01*
X234489813Y-109642036D01*
X234593087Y-109582410D01*
X234677410Y-109498087D01*
X234737036Y-109394813D01*
X234767900Y-109279625D01*
X234767900Y-109160375D01*
X246694245Y-109160375D01*
X246694245Y-109279624D01*
X246725109Y-109394814D01*
X246754922Y-109446450D01*
X246784735Y-109498087D01*
X246869058Y-109582410D01*
X246972332Y-109642036D01*
X247087520Y-109672900D01*
X247087522Y-109672900D01*
X247206768Y-109672900D01*
X247206770Y-109672900D01*
X247321958Y-109642036D01*
X247425232Y-109582410D01*
X247509555Y-109498087D01*
X247569181Y-109394813D01*
X247600045Y-109279625D01*
X247600045Y-109160375D01*
X259201889Y-109160375D01*
X259201889Y-109279624D01*
X259232753Y-109394814D01*
X259262566Y-109446450D01*
X259292379Y-109498087D01*
X259376702Y-109582410D01*
X259479976Y-109642036D01*
X259595164Y-109672900D01*
X259595166Y-109672900D01*
X259714412Y-109672900D01*
X259714414Y-109672900D01*
X259829602Y-109642036D01*
X259932876Y-109582410D01*
X260017199Y-109498087D01*
X260076825Y-109394813D01*
X260107689Y-109279625D01*
X260107689Y-109160375D01*
X260076825Y-109045187D01*
X260017199Y-108941913D01*
X259932876Y-108857590D01*
X259881239Y-108827777D01*
X259829603Y-108797964D01*
X259772008Y-108782532D01*
X259714414Y-108767100D01*
X259595164Y-108767100D01*
X259479974Y-108797964D01*
X259376702Y-108857590D01*
X259376699Y-108857592D01*
X259292381Y-108941910D01*
X259292379Y-108941913D01*
X259232753Y-109045185D01*
X259201889Y-109160375D01*
X247600045Y-109160375D01*
X247569181Y-109045187D01*
X247509555Y-108941913D01*
X247425232Y-108857590D01*
X247373595Y-108827777D01*
X247321959Y-108797964D01*
X247264364Y-108782532D01*
X247206770Y-108767100D01*
X247087520Y-108767100D01*
X246972330Y-108797964D01*
X246869058Y-108857590D01*
X246869055Y-108857592D01*
X246784737Y-108941910D01*
X246784735Y-108941913D01*
X246725109Y-109045185D01*
X246694245Y-109160375D01*
X234767900Y-109160375D01*
X234737036Y-109045187D01*
X234677410Y-108941913D01*
X234593087Y-108857590D01*
X234541450Y-108827777D01*
X234489814Y-108797964D01*
X234432219Y-108782532D01*
X234374625Y-108767100D01*
X234255375Y-108767100D01*
X234140185Y-108797964D01*
X234036913Y-108857590D01*
X234036910Y-108857592D01*
X233952592Y-108941910D01*
X233952590Y-108941913D01*
X233892964Y-109045185D01*
X233862100Y-109160375D01*
X94114319Y-109160375D01*
X94114319Y-107382375D01*
X210240100Y-107382375D01*
X210240100Y-107501624D01*
X210270964Y-107616814D01*
X210282258Y-107636375D01*
X210330590Y-107720087D01*
X210414913Y-107804410D01*
X210518187Y-107864036D01*
X210633375Y-107894900D01*
X210633377Y-107894900D01*
X210752623Y-107894900D01*
X210752625Y-107894900D01*
X210867813Y-107864036D01*
X210971087Y-107804410D01*
X211055410Y-107720087D01*
X211103742Y-107636375D01*
X219003100Y-107636375D01*
X219003100Y-107755624D01*
X219033964Y-107870814D01*
X219063777Y-107922450D01*
X219093590Y-107974087D01*
X219177913Y-108058410D01*
X219281187Y-108118036D01*
X219396375Y-108148900D01*
X219396377Y-108148900D01*
X219515623Y-108148900D01*
X219515625Y-108148900D01*
X219630813Y-108118036D01*
X219734087Y-108058410D01*
X219818410Y-107974087D01*
X219878036Y-107870813D01*
X219908900Y-107755625D01*
X219908900Y-107636375D01*
X219901389Y-107608344D01*
X221007069Y-107608344D01*
X221007069Y-107727594D01*
X221014580Y-107755625D01*
X221037933Y-107842783D01*
X221050204Y-107864036D01*
X221097559Y-107946056D01*
X221181882Y-108030379D01*
X221285156Y-108090005D01*
X221400344Y-108120869D01*
X221400346Y-108120869D01*
X221519592Y-108120869D01*
X221519594Y-108120869D01*
X221634782Y-108090005D01*
X221738056Y-108030379D01*
X221822379Y-107946056D01*
X221882005Y-107842782D01*
X221912869Y-107727594D01*
X221912869Y-107608344D01*
X221882005Y-107493156D01*
X221822379Y-107389882D01*
X221738056Y-107305559D01*
X221671591Y-107267185D01*
X221634783Y-107245933D01*
X221577188Y-107230501D01*
X221519594Y-107215069D01*
X221400344Y-107215069D01*
X221285154Y-107245933D01*
X221181882Y-107305559D01*
X221181879Y-107305561D01*
X221097561Y-107389879D01*
X221097559Y-107389882D01*
X221037933Y-107493154D01*
X221010335Y-107596154D01*
X221007069Y-107608344D01*
X219901389Y-107608344D01*
X219878036Y-107521187D01*
X219818410Y-107417913D01*
X219734087Y-107333590D01*
X219682450Y-107303777D01*
X219630814Y-107273964D01*
X219573219Y-107258532D01*
X219515625Y-107243100D01*
X219396375Y-107243100D01*
X219281185Y-107273964D01*
X219177913Y-107333590D01*
X219177910Y-107333592D01*
X219093592Y-107417910D01*
X219093590Y-107417913D01*
X219033964Y-107521185D01*
X219003100Y-107636375D01*
X211103742Y-107636375D01*
X211115036Y-107616813D01*
X211145900Y-107501625D01*
X211145900Y-107382375D01*
X211115036Y-107267187D01*
X211055410Y-107163913D01*
X210971087Y-107079590D01*
X210919450Y-107049777D01*
X210867814Y-107019964D01*
X210810219Y-107004532D01*
X210752625Y-106989100D01*
X210633375Y-106989100D01*
X210518185Y-107019964D01*
X210414913Y-107079590D01*
X210414910Y-107079592D01*
X210330592Y-107163910D01*
X210330590Y-107163913D01*
X210270964Y-107267185D01*
X210240100Y-107382375D01*
X94114319Y-107382375D01*
X94114319Y-104461375D01*
X111053100Y-104461375D01*
X111053100Y-104580624D01*
X111083964Y-104695814D01*
X111113777Y-104747450D01*
X111143590Y-104799087D01*
X111227913Y-104883410D01*
X111331187Y-104943036D01*
X111446375Y-104973900D01*
X111446377Y-104973900D01*
X111565623Y-104973900D01*
X111565625Y-104973900D01*
X111680813Y-104943036D01*
X111784087Y-104883410D01*
X111868410Y-104799087D01*
X111928036Y-104695813D01*
X111958900Y-104580625D01*
X111958900Y-104461375D01*
X111928036Y-104346187D01*
X111868410Y-104242913D01*
X111784087Y-104158590D01*
X111732450Y-104128777D01*
X111680814Y-104098964D01*
X111623219Y-104083532D01*
X111565625Y-104068100D01*
X111446375Y-104068100D01*
X111331185Y-104098964D01*
X111227913Y-104158590D01*
X111227910Y-104158592D01*
X111143592Y-104242910D01*
X111143590Y-104242913D01*
X111083964Y-104346185D01*
X111053100Y-104461375D01*
X94114319Y-104461375D01*
X94114319Y-100501094D01*
X98106919Y-100501094D01*
X98106919Y-100776743D01*
X98106920Y-100776760D01*
X98142899Y-101050051D01*
X98214247Y-101316324D01*
X98319736Y-101570996D01*
X98319740Y-101571006D01*
X98457569Y-101809733D01*
X98625381Y-102028430D01*
X98625387Y-102028437D01*
X98820300Y-102223350D01*
X98820307Y-102223356D01*
X99039004Y-102391168D01*
X99277731Y-102528997D01*
X99277732Y-102528997D01*
X99277735Y-102528999D01*
X99532414Y-102634491D01*
X99798683Y-102705838D01*
X100071988Y-102741819D01*
X100071995Y-102741819D01*
X100347643Y-102741819D01*
X100347650Y-102741819D01*
X100620955Y-102705838D01*
X100887224Y-102634491D01*
X101141903Y-102528999D01*
X101380634Y-102391168D01*
X101599332Y-102223355D01*
X101794255Y-102028432D01*
X101962068Y-101809734D01*
X102099899Y-101571003D01*
X102205391Y-101316324D01*
X102276738Y-101050055D01*
X102312719Y-100776750D01*
X102312719Y-100501094D01*
X263714919Y-100501094D01*
X263714919Y-100776743D01*
X263714920Y-100776760D01*
X263750899Y-101050051D01*
X263822247Y-101316324D01*
X263927736Y-101570996D01*
X263927740Y-101571006D01*
X264065569Y-101809733D01*
X264233381Y-102028430D01*
X264233387Y-102028437D01*
X264428300Y-102223350D01*
X264428307Y-102223356D01*
X264647004Y-102391168D01*
X264885731Y-102528997D01*
X264885732Y-102528997D01*
X264885735Y-102528999D01*
X265140414Y-102634491D01*
X265406683Y-102705838D01*
X265679988Y-102741819D01*
X265679995Y-102741819D01*
X265955643Y-102741819D01*
X265955650Y-102741819D01*
X266228955Y-102705838D01*
X266495224Y-102634491D01*
X266749903Y-102528999D01*
X266988634Y-102391168D01*
X267207332Y-102223355D01*
X267402255Y-102028432D01*
X267570068Y-101809734D01*
X267707899Y-101571003D01*
X267813391Y-101316324D01*
X267884738Y-101050055D01*
X267920719Y-100776750D01*
X267920719Y-100501088D01*
X267884738Y-100227783D01*
X267813391Y-99961514D01*
X267707899Y-99706835D01*
X267570068Y-99468104D01*
X267402255Y-99249406D01*
X267402250Y-99249400D01*
X267207337Y-99054487D01*
X267207330Y-99054481D01*
X266988633Y-98886669D01*
X266749906Y-98748840D01*
X266749896Y-98748836D01*
X266495224Y-98643347D01*
X266228951Y-98571999D01*
X265955660Y-98536020D01*
X265955655Y-98536019D01*
X265955650Y-98536019D01*
X265679988Y-98536019D01*
X265679982Y-98536019D01*
X265679977Y-98536020D01*
X265406686Y-98571999D01*
X265140413Y-98643347D01*
X264885741Y-98748836D01*
X264885731Y-98748840D01*
X264647004Y-98886669D01*
X264428307Y-99054481D01*
X264428300Y-99054487D01*
X264233387Y-99249400D01*
X264233381Y-99249407D01*
X264065569Y-99468104D01*
X263927740Y-99706831D01*
X263927736Y-99706841D01*
X263822247Y-99961513D01*
X263750899Y-100227786D01*
X263714920Y-100501077D01*
X263714919Y-100501094D01*
X102312719Y-100501094D01*
X102312719Y-100501088D01*
X102276738Y-100227783D01*
X102205391Y-99961514D01*
X102099899Y-99706835D01*
X101962068Y-99468104D01*
X101794255Y-99249406D01*
X101794250Y-99249400D01*
X101599337Y-99054487D01*
X101599330Y-99054481D01*
X101380633Y-98886669D01*
X101141906Y-98748840D01*
X101141896Y-98748836D01*
X100887224Y-98643347D01*
X100620951Y-98571999D01*
X100347660Y-98536020D01*
X100347655Y-98536019D01*
X100347650Y-98536019D01*
X100071988Y-98536019D01*
X100071982Y-98536019D01*
X100071977Y-98536020D01*
X99798686Y-98571999D01*
X99532413Y-98643347D01*
X99277741Y-98748836D01*
X99277731Y-98748840D01*
X99039004Y-98886669D01*
X98820307Y-99054481D01*
X98820300Y-99054487D01*
X98625387Y-99249400D01*
X98625381Y-99249407D01*
X98457569Y-99468104D01*
X98319740Y-99706831D01*
X98319736Y-99706841D01*
X98214247Y-99961513D01*
X98142899Y-100227786D01*
X98106920Y-100501077D01*
X98106919Y-100501094D01*
X94114319Y-100501094D01*
X94114319Y-94667419D01*
X94134004Y-94600380D01*
X94186808Y-94554625D01*
X94238318Y-94543419D01*
X271789322Y-94543545D01*
G37*
%TD.AperFunction*%
%TD*%
M02*
