%TF.GenerationSoftware,KiCad,Pcbnew,9.0.7*%
%TF.CreationDate,2026-02-13T04:40:40-08:00*%
%TF.ProjectId,Shutdown,53687574-646f-4776-9e2e-6b696361645f,rev?*%
%TF.SameCoordinates,Original*%
%TF.FileFunction,Soldermask,Bot*%
%TF.FilePolarity,Negative*%
%FSLAX46Y46*%
G04 Gerber Fmt 4.6, Leading zero omitted, Abs format (unit mm)*
G04 Created by KiCad (PCBNEW 9.0.7) date 2026-02-13 04:40:40*
%MOMM*%
%LPD*%
G01*
G04 APERTURE LIST*
G04 Aperture macros list*
%AMRoundRect*
0 Rectangle with rounded corners*
0 $1 Rounding radius*
0 $2 $3 $4 $5 $6 $7 $8 $9 X,Y pos of 4 corners*
0 Add a 4 corners polygon primitive as box body*
4,1,4,$2,$3,$4,$5,$6,$7,$8,$9,$2,$3,0*
0 Add four circle primitives for the rounded corners*
1,1,$1+$1,$2,$3*
1,1,$1+$1,$4,$5*
1,1,$1+$1,$6,$7*
1,1,$1+$1,$8,$9*
0 Add four rect primitives between the rounded corners*
20,1,$1+$1,$2,$3,$4,$5,0*
20,1,$1+$1,$4,$5,$6,$7,0*
20,1,$1+$1,$6,$7,$8,$9,0*
20,1,$1+$1,$8,$9,$2,$3,0*%
G04 Aperture macros list end*
%ADD10C,3.900000*%
%ADD11C,7.000000*%
%ADD12C,4.851400*%
%ADD13C,2.108200*%
%ADD14RoundRect,0.243750X-0.456250X0.243750X-0.456250X-0.243750X0.456250X-0.243750X0.456250X0.243750X0*%
%ADD15RoundRect,0.237500X0.237500X-0.250000X0.237500X0.250000X-0.237500X0.250000X-0.237500X-0.250000X0*%
%ADD16RoundRect,0.243750X0.456250X-0.243750X0.456250X0.243750X-0.456250X0.243750X-0.456250X-0.243750X0*%
%ADD17RoundRect,0.237500X-0.237500X0.250000X-0.237500X-0.250000X0.237500X-0.250000X0.237500X0.250000X0*%
G04 APERTURE END LIST*
D10*
%TO.C,MH2*%
X265817819Y-100638919D03*
D11*
X265817819Y-100638919D03*
%TD*%
D12*
%TO.C,J1*%
X177426379Y-153498519D03*
X100616779Y-153498519D03*
D13*
X118574579Y-150577519D03*
X124416579Y-150577519D03*
X130258579Y-150577519D03*
X136100579Y-150577519D03*
X141942579Y-150577519D03*
X147784579Y-150577519D03*
X153626579Y-150577519D03*
X159468579Y-150577519D03*
X118574579Y-156419519D03*
X124416579Y-156419519D03*
X130258579Y-156419519D03*
X136100579Y-156419519D03*
X141942579Y-156419519D03*
X147784579Y-156419519D03*
X153626579Y-156419519D03*
X159468579Y-156419519D03*
%TD*%
D10*
%TO.C,MH1*%
X100209819Y-100638919D03*
D11*
X100209819Y-100638919D03*
%TD*%
D12*
%TO.C,J2*%
X265538979Y-153498519D03*
X188729379Y-153498519D03*
D13*
X206687179Y-150577519D03*
X212529179Y-150577519D03*
X218371179Y-150577519D03*
X224213179Y-150577519D03*
X230055179Y-150577519D03*
X235897179Y-150577519D03*
X241739179Y-150577519D03*
X247581179Y-150577519D03*
X206687179Y-156419519D03*
X212529179Y-156419519D03*
X218371179Y-156419519D03*
X224213179Y-156419519D03*
X230055179Y-156419519D03*
X235897179Y-156419519D03*
X241739179Y-156419519D03*
X247581179Y-156419519D03*
%TD*%
D10*
%TO.C,MH3*%
X265817819Y-139043972D03*
D11*
X265817819Y-139043972D03*
%TD*%
D10*
%TO.C,MH4*%
X100209819Y-139043972D03*
D11*
X100209819Y-139043972D03*
%TD*%
D14*
%TO.C,D40*%
X186160790Y-124568364D03*
X186160790Y-126443364D03*
%TD*%
D15*
%TO.C,R77*%
X102654605Y-125870205D03*
X102654605Y-124045205D03*
%TD*%
%TO.C,R68*%
X199818588Y-126385515D03*
X199818588Y-124560515D03*
%TD*%
%TO.C,R53*%
X223945087Y-126639515D03*
X223945087Y-124814515D03*
%TD*%
%TO.C,R18*%
X258531499Y-113617507D03*
X258531499Y-111792507D03*
%TD*%
D16*
%TO.C,D2*%
X231164855Y-113640002D03*
X231164855Y-111765002D03*
%TD*%
D14*
%TO.C,D42*%
X197895291Y-124568364D03*
X197895291Y-126443364D03*
%TD*%
%TO.C,D49*%
X104572063Y-124002599D03*
X104572063Y-125877599D03*
%TD*%
D15*
%TO.C,R44*%
X138463714Y-126247496D03*
X138463714Y-124422496D03*
%TD*%
%TO.C,R66*%
X188087000Y-126388500D03*
X188087000Y-124563500D03*
%TD*%
%TO.C,R70*%
X211582000Y-126392360D03*
X211582000Y-124567360D03*
%TD*%
D16*
%TO.C,D6*%
X221459969Y-106605082D03*
X221459969Y-104730082D03*
%TD*%
D14*
%TO.C,D15*%
X253853781Y-128643528D03*
X253853781Y-130518528D03*
%TD*%
D17*
%TO.C,R11*%
X219427969Y-104730082D03*
X219427969Y-106555082D03*
%TD*%
D15*
%TO.C,R27*%
X251824596Y-130485912D03*
X251824596Y-128660912D03*
%TD*%
%TO.C,R16*%
X246023855Y-113617507D03*
X246023855Y-111792507D03*
%TD*%
D14*
%TO.C,D36*%
X222021790Y-124822364D03*
X222021790Y-126697364D03*
%TD*%
D16*
%TO.C,D4*%
X212633488Y-106462512D03*
X212633488Y-104587512D03*
%TD*%
D14*
%TO.C,D38*%
X171435625Y-124557816D03*
X171435625Y-126432816D03*
%TD*%
%TO.C,D44*%
X209658703Y-124575209D03*
X209658703Y-126450209D03*
%TD*%
%TO.C,D13*%
X240792000Y-128524000D03*
X240792000Y-130399000D03*
%TD*%
D15*
%TO.C,R14*%
X233196855Y-113615002D03*
X233196855Y-111790002D03*
%TD*%
D14*
%TO.C,D23*%
X123564813Y-124680500D03*
X123564813Y-126555500D03*
%TD*%
D16*
%TO.C,D10*%
X256502314Y-113634891D03*
X256502314Y-111759891D03*
%TD*%
%TO.C,D8*%
X243994670Y-113634891D03*
X243994670Y-111759891D03*
%TD*%
D17*
%TO.C,R9*%
X210698488Y-104698512D03*
X210698488Y-106523512D03*
%TD*%
D15*
%TO.C,R38*%
X121605750Y-126532531D03*
X121605750Y-124707531D03*
%TD*%
D14*
%TO.C,D27*%
X140422777Y-124395465D03*
X140422777Y-126270465D03*
%TD*%
D15*
%TO.C,R25*%
X238846021Y-130325500D03*
X238846021Y-128500500D03*
%TD*%
%TO.C,R64*%
X173357982Y-126375164D03*
X173357982Y-124550164D03*
%TD*%
M02*
